<svg width="847" height="500" xmlns="http://www.w3.org/2000/svg" version="1.1"><g><g class="x axis" transform="translate(0,480)" style="stroke-width: 1px; font-size: 10px; font-family: Arial, Helvetica; display: block;"><g class="tick" transform="translate(0,0)" style="opacity: 1;"><line y2="-480" x2="0" style="shape-rendering: crispEdges; fill: none; stroke: rgb(204, 204, 204);"></line><text dy=".71em" y="3" x="0" style="text-anchor: middle;">2,011.0</text></g><g class="tick" transform="translate(105.875,0)" style="opacity: 1;"><line y2="-480" x2="0" style="shape-rendering: crispEdges; fill: none; stroke: rgb(204, 204, 204);"></line><text dy=".71em" y="3" x="0" style="text-anchor: middle;">2,011.5</text></g><g class="tick" transform="translate(211.75,0)" style="opacity: 1;"><line y2="-480" x2="0" style="shape-rendering: crispEdges; fill: none; stroke: rgb(204, 204, 204);"></line><text dy=".71em" y="3" x="0" style="text-anchor: middle;">2,012.0</text></g><g class="tick" transform="translate(317.625,0)" style="opacity: 1;"><line y2="-480" x2="0" style="shape-rendering: crispEdges; fill: none; stroke: rgb(204, 204, 204);"></line><text dy=".71em" y="3" x="0" style="text-anchor: middle;">2,012.5</text></g><g class="tick" transform="translate(423.5,0)" style="opacity: 1;"><line y2="-480" x2="0" style="shape-rendering: crispEdges; fill: none; stroke: rgb(204, 204, 204);"></line><text dy=".71em" y="3" x="0" style="text-anchor: middle;">2,013.0</text></g><g class="tick" transform="translate(529.375,0)" style="opacity: 1;"><line y2="-480" x2="0" style="shape-rendering: crispEdges; fill: none; stroke: rgb(204, 204, 204);"></line><text dy=".71em" y="3" x="0" style="text-anchor: middle;">2,013.5</text></g><g class="tick" transform="translate(635.25,0)" style="opacity: 1;"><line y2="-480" x2="0" style="shape-rendering: crispEdges; fill: none; stroke: rgb(204, 204, 204);"></line><text dy=".71em" y="3" x="0" style="text-anchor: middle;">2,014.0</text></g><g class="tick" transform="translate(741.125,0)" style="opacity: 1;"><line y2="-480" x2="0" style="shape-rendering: crispEdges; fill: none; stroke: rgb(204, 204, 204);"></line><text dy=".71em" y="3" x="0" style="text-anchor: middle;">2,014.5</text></g><g class="tick" transform="translate(847,0)" style="opacity: 1;"><line y2="-480" x2="0" style="shape-rendering: crispEdges; fill: none; stroke: rgb(204, 204, 204);"></line><text dy=".71em" y="3" x="0" style="text-anchor: middle;">2,015.0</text></g><path class="domain" d="M0,-480V0H847V-480" style="shape-rendering: crispEdges; fill: none; stroke: rgb(204, 204, 204);"></path></g><path class="layer" d="M0,430.6275129122062C105.875,430.6275129122062 105.875,445.1800792255104 211.75,445.1800792255104C317.625,445.1800792255104 317.625,473.02121876214517 423.5,473.02121876214517C529.375,473.02121876214517 529.375,478.45959973484537 635.25,478.45959973484537C741.125,478.45959973484537 741.125,473.7907949807965 847,473.7907949807965L847,474.7907949807965C741.125,474.7907949807965 741.125,479.45959973484537 635.25,479.45959973484537C529.375,479.45959973484537 529.375,474.02121876214517 423.5,474.02121876214517C317.625,474.02121876214517 317.625,446.5770759024342 211.75,446.5770759024342C105.875,446.5770759024342 105.875,431.8343174468934 0,431.8343174468934Z" title="101" style="fill-opacity: 0.9; fill: rgb(191, 105, 105);"></path><path class="layer" d="M0,298.64463258859246C105.875,298.64463258859246 105.875,260.4940977709935 211.75,260.4940977709935C317.625,260.4940977709935 317.625,313.7052669717944 423.5,313.7052669717944C529.375,313.7052669717944 529.375,333.47590702988293 635.25,333.47590702988293C741.125,333.47590702988293 741.125,256.47771550375927 847,256.47771550375927L847,268.7446734763037C741.125,268.7446734763037 741.125,344.0506587786646 635.25,344.0506587786646C529.375,344.0506587786646 529.375,324.97159049348556 423.5,324.97159049348556C317.625,324.97159049348556 317.625,271.1385614535169 211.75,271.1385614535169C105.875,271.1385614535169 105.875,307.7065352371714 0,307.7065352371714Z" title="102" style="fill-opacity: 0.9; fill: rgb(191, 114, 105);"></path><path class="layer" d="M0,227.68793610379166C105.875,227.68793610379166 105.875,271.1604236905408 211.75,271.1604236905408C317.625,271.1604236905408 317.625,345.0804776209657 423.5,345.0804776209657C529.375,345.0804776209657 529.375,344.0725210156886 635.25,344.0725210156886C741.125,344.0725210156886 741.125,347.45401504521004 847,347.45401504521004L847,357.1799131492528C741.125,357.1799131492528 741.125,354.5553273576165 635.25,354.5553273576165C529.375,354.5553273576165 529.375,354.6701383572755 423.5,354.6701383572755C317.625,354.6701383572755 317.625,281.77451185851464 211.75,281.77451185851464C105.875,281.77451185851464 105.875,239.24213050469444 0,239.24213050469444Z" title="103" style="fill-opacity: 0.9; fill: rgb(191, 123, 105);"></path><path class="layer" d="M0,250.17324845917378C105.875,250.17324845917378 105.875,292.16562775536937 211.75,292.16562775536937C317.625,292.16562775536937 317.625,301.59085448957364 423.5,301.59085448957364C529.375,301.59085448957364 529.375,299.9083827554352 635.25,299.9083827554352C741.125,299.9083827554352 741.125,337.4413966627452 847,337.4413966627452L847,347.43215280818606C741.125,347.43215280818606 741.125,311.47736608738137 635.25,311.47736608738137C529.375,311.47736608738137 529.375,313.6834047347705 423.5,313.6834047347705C317.625,313.6834047347705 317.625,302.4299366697425 211.75,302.4299366697425C105.875,302.4299366697425 105.875,260.20582993673935 0,260.20582993673935Z" title="104" style="fill-opacity: 0.9; fill: rgb(191, 133, 105);"></path><path class="layer" d="M0,427.7788567140948C105.875,427.7788567140948 105.875,441.5975936731455 211.75,441.5975936731455C317.625,441.5975936731455 317.625,470.50886962508844 423.5,470.50886962508844C529.375,470.50886962508844 529.375,470.9267103523606 635.25,470.9267103523606C741.125,470.9267103523606 741.125,462.42955925487604 847,462.42955925487604L847,464.5044555054779C741.125,464.5044555054779 741.125,472.7112995469062 635.25,472.7112995469062C529.375,472.7112995469062 529.375,472.3022800005336 423.5,472.3022800005336C317.625,472.3022800005336 317.625,443.61766481140165 211.75,443.61766481140165C105.875,443.61766481140165 105.875,429.26112178428997 0,429.26112178428997Z" title="105" style="fill-opacity: 0.9; fill: rgb(191, 142, 105);"></path><path class="layer" d="M0,435.18491867684156C105.875,435.18491867684156 105.875,448.988027603771 211.75,448.988027603771C317.625,448.988027603771 317.625,474.11650482593114 423.5,474.11650482593114C529.375,474.11650482593114 529.375,479 635.25,479C741.125,479 741.125,473.85638169186825 847,473.85638169186825L847,474.85638169186825C741.125,474.85638169186825 741.125,480 635.25,480C529.375,480 529.375,475.11650482593114 423.5,475.11650482593114C317.625,475.11650482593114 317.625,449.988027603771 211.75,449.988027603771C105.875,449.988027603771 105.875,436.18491867684156 0,436.18491867684156Z" title="201" style="fill-opacity: 0.9; fill: rgb(191, 151, 105);"></path><path class="layer" d="M0,435.16305643981764C105.875,435.16305643981764 105.875,448.9661653667471 211.75,448.9661653667471C317.625,448.9661653667471 317.625,474.0946425889073 423.5,474.0946425889073C529.375,474.0946425889073 529.375,478.93441328892817 635.25,478.93441328892817C741.125,478.93441328892817 741.125,473.8345194548444 847,473.8345194548444L847,474.8345194548444C741.125,474.8345194548444 741.125,479.93441328892817 635.25,479.93441328892817C529.375,479.93441328892817 529.375,475.0946425889073 423.5,475.0946425889073C317.625,475.0946425889073 317.625,449.9661653667471 211.75,449.9661653667471C105.875,449.9661653667471 105.875,436.16305643981764 0,436.16305643981764Z" title="203" style="fill-opacity: 0.9; fill: rgb(191, 160, 105);"></path><path class="layer" d="M0,307.72839747419533C105.875,307.72839747419533 105.875,249.64752322739872 211.75,249.64752322739872C317.625,249.64752322739872 317.625,239.4935724325794 423.5,239.4935724325794C529.375,239.4935724325794 529.375,208.0186970880364 635.25,208.0186970880364C741.125,208.0186970880364 741.125,305.24602970746355 847,305.24602970746355L847,317.1680750128382C741.125,317.1680750128382 741.125,222.01665235221924 635.25,222.01665235221924C529.375,222.01665235221924 529.375,252.08621781020256 423.5,252.08621781020256C317.625,252.08621781020256 317.625,260.4722355339696 211.75,260.4722355339696C105.875,260.4722355339696 105.875,316.7771739394712 0,316.7771739394712Z" title="301" style="fill-opacity: 0.9; fill: rgb(191, 169, 105);"></path><path class="layer" d="M0,178.59492414819562C105.875,178.59492414819562 105.875,215.27011623452563 211.75,215.27011623452563C317.625,215.27011623452563 317.625,264.70291953426096 423.5,264.70291953426096C529.375,264.70291953426096 529.375,249.28760801392355 635.25,249.28760801392355C741.125,249.28760801392355 741.125,281.04658588432767 847,281.04658588432767L847,293.1999411321144C741.125,293.1999411321144 741.125,262.335298949132 635.25,262.335298949132C529.375,262.335298949132 529.375,277.20790057702914 423.5,277.20790057702914C317.625,277.20790057702914 317.625,227.3766610638734 211.75,227.3766610638734C105.875,227.3766610638734 105.875,191.20287604532376 0,191.20287604532376Z" title="302" style="fill-opacity: 0.9; fill: rgb(191, 179, 105);"></path><path class="layer" d="M0,316.7990361764952C105.875,316.7990361764952 105.875,331.0682266246892 211.75,331.0682266246892C317.625,331.0682266246892 317.625,252.10808004722648 423.5,252.10808004722648C529.375,252.10808004722648 529.375,274.98333689095256 635.25,274.98333689095256C741.125,274.98333689095256 741.125,327.34308925975495 847,327.34308925975495L847,337.4195344257213C741.125,337.4195344257213 741.125,287.5409109400873 635.25,287.5409109400873C529.375,287.5409109400873 529.375,264.68105729723703 423.5,264.68105729723703C317.625,264.68105729723703 317.625,339.99125544655095 211.75,339.99125544655095C105.875,339.99125544655095 105.875,325.61825725537756 0,325.61825725537756Z" title="303" style="fill-opacity: 0.9; fill: rgb(191, 188, 105);"></path><path class="layer" d="M0,152.56574187917573C105.875,152.56574187917573 105.875,162.9602388171156 211.75,162.9602388171156C317.625,162.9602388171156 317.625,30.233292452833318 423.5,30.233292452833318C529.375,30.233292452833318 529.375,81.42566009548992 635.25,81.42566009548992C741.125,81.42566009548992 741.125,126.01412634440477 847,126.01412634440477L847,141.6400533793425C741.125,141.6400533793425 741.125,98.77444761007592 635.25,98.77444761007592C529.375,98.77444761007592 529.375,50.1337495576864 423.5,50.1337495576864C317.625,50.1337495576864 317.625,176.86239223267546 211.75,176.86239223267546C105.875,176.86239223267546 105.875,165.68089911379428 0,165.68089911379428Z" title="304" style="fill-opacity: 0.9; fill: rgb(185, 191, 105);"></path><path class="layer" d="M0,260.2276921737633C105.875,260.2276921737633 105.875,238.77022898768448 211.75,238.77022898768448C317.625,238.77022898768448 317.625,197.51282870230202 423.5,197.51282870230202C529.375,197.51282870230202 529.375,179.20216927517515 635.25,179.20216927517515C741.125,179.20216927517515 741.125,187.53149238986677 847,187.53149238986677L847,201.89061131559845C741.125,201.89061131559845 741.125,193.78427656263239 635.25,193.78427656263239C529.375,193.78427656263239 529.375,211.89381492616553 423.5,211.89381492616553C317.625,211.89381492616553 317.625,249.6256609903748 211.75,249.6256609903748C105.875,249.6256609903748 105.875,270.2515154205547 0,270.2515154205547Z" title="305" style="fill-opacity: 0.9; fill: rgb(175, 191, 105);"></path><path class="layer" d="M0,165.70276135081824C105.875,165.70276135081824 105.875,70.59531867979828 211.75,70.59531867979828C317.625,70.59531867979828 317.625,68.84392006670397 423.5,68.84392006670397C529.375,68.84392006670397 529.375,27.006785242316234 635.25,27.006785242316234C741.125,27.006785242316234 741.125,93.24222246178715 847,93.24222246178715L847,109.88009637629723C741.125,109.88009637629723 741.125,45.796551681138155 635.25,45.796551681138155C529.375,45.796551681138155 529.375,86.65289845571081 423.5,86.65289845571081C317.625,86.65289845571081 317.625,87.27401913045865 211.75,87.27401913045865C105.875,87.27401913045865 105.875,178.57306191117166 0,178.57306191117166Z" title="306" style="fill-opacity: 0.9; fill: rgb(166, 191, 105);"></path><path class="layer" d="M0,280.30294989878416C105.875,280.30294989878416 105.875,312.2592011203854 211.75,312.2592011203854C317.625,312.2592011203854 317.625,289.4616880230953 423.5,289.4616880230953C529.375,289.4616880230953 529.375,287.56277317711124 635.25,287.56277317711124C741.125,287.56277317711124 741.125,244.0030402546805 847,244.0030402546805L847,256.45585326673535C741.125,256.45585326673535 741.125,299.88652051841126 635.25,299.88652051841126C529.375,299.88652051841126 529.375,301.56899225254966 423.5,301.56899225254966C317.625,301.56899225254966 317.625,321.9341817595832 211.75,321.9341817595832C105.875,321.9341817595832 105.875,289.46760035006344 0,289.46760035006344Z" title="307" style="fill-opacity: 0.9; fill: rgb(157, 191, 105);"></path><path class="layer" d="M0,401.78244348761706C105.875,401.78244348761706 105.875,390.1683541568008 211.75,390.1683541568008C317.625,390.1683541568008 317.625,416.4824346179602 423.5,416.4824346179602C529.375,416.4824346179602 529.375,439.91391432631303 635.25,439.91391432631303C741.125,439.91391432631303 741.125,440.1182411048144 847,440.1182411048144L847,444.7736422415862C741.125,444.7736422415862 741.125,445.0826754269351 635.25,445.0826754269351C529.375,445.0826754269351 529.375,422.9977076499185 423.5,422.9977076499185C317.625,422.9977076499185 317.625,395.83237172805354 211.75,395.83237172805354C105.875,395.83237172805354 105.875,406.5374810547302 0,406.5374810547302Z" title="308" style="fill-opacity: 0.9; fill: rgb(148, 191, 105);"></path><path class="layer" d="M0,386.291689704446C105.875,386.291689704446 105.875,377.662509417938 211.75,377.662509417938C317.625,377.662509417938 317.625,409.64827089243954 423.5,409.64827089243954C529.375,409.64827089243954 529.375,406.31901323170507 635.25,406.31901323170507C741.125,406.31901323170507 741.125,357.2017753862767 847,357.2017753862767L847,366.65998618249665C741.125,366.65998618249665 741.125,413.5425859294179 635.25,413.5425859294179C529.375,413.5425859294179 529.375,416.4605723809363 423.5,416.4605723809363C317.625,416.4605723809363 317.625,384.1376221872815 211.75,384.1376221872815C105.875,384.1376221872815 105.875,391.8591741265024 0,391.8591741265024Z" title="309" style="fill-opacity: 0.9; fill: rgb(139, 191, 105);"></path><path class="layer" d="M0,414.6243248888183C105.875,414.6243248888183 105.875,447.5467571619079 211.75,447.5467571619079C317.625,447.5467571619079 317.625,466.55401894249076 423.5,466.55401894249076C529.375,466.55401894249076 529.375,478.82728834718694 635.25,478.82728834718694C741.125,478.82728834718694 741.125,468.30899119729395 847,468.30899119729395L847,469.5506247197584C741.125,469.5506247197584 741.125,479.82728834718694 635.25,479.82728834718694C529.375,479.82728834718694 529.375,468.5828077133469 423.5,468.5828077133469C317.625,468.5828077133469 317.625,448.5467571619079 211.75,448.5467571619079C105.875,448.5467571619079 105.875,417.3658494990684 0,417.3658494990684Z" title="310" style="fill-opacity: 0.9; fill: rgb(130, 191, 105);"></path><path class="layer" d="M0,434.6624095263911C105.875,434.6624095263911 105.875,448.9443031297231 211.75,448.9443031297231C317.625,448.9443031297231 317.625,459.4778101182077 423.5,459.4778101182077C529.375,459.4778101182077 529.375,476.097756273625 635.25,476.097756273625C741.125,476.097756273625 741.125,466.57749832153553 847,466.57749832153553L847,468.28712896027C741.125,468.28712896027 741.125,477.57843130332145 635.25,477.57843130332145C529.375,477.57843130332145 529.375,462.03130165702527 423.5,462.03130165702527C317.625,462.03130165702527 317.625,449.9443031297231 211.75,449.9443031297231C105.875,449.9443031297231 105.875,435.6624095263911 0,435.6624095263911Z" title="312" style="fill-opacity: 0.9; fill: rgb(120, 191, 105);"></path><path class="layer" d="M0,374.7221914140653C105.875,374.7221914140653 105.875,401.0815085770413 211.75,401.0815085770413C317.625,401.0815085770413 317.625,363.7144424450473 423.5,363.7144424450473C529.375,363.7144424450473 529.375,364.39436866187077 635.25,364.39436866187077C741.125,364.39436866187077 741.125,376.05988218548987 847,376.05988218548987L847,384.1642420416953C741.125,384.1642420416953 741.125,373.985310367862 635.25,373.985310367862C529.375,373.985310367862 529.375,372.1846663590654 423.5,372.1846663590654C317.625,372.1846663590654 317.625,406.08482345179726 211.75,406.08482345179726C105.875,406.08482345179726 105.875,380.4894501159556 0,380.4894501159556Z" title="401" style="fill-opacity: 0.9; fill: rgb(111, 191, 105);"></path><path class="layer" d="M0,333.7684950072328C105.875,333.7684950072328 105.875,340.01311768357493 211.75,340.01311768357493C317.625,340.01311768357493 317.625,324.99345273050943 423.5,324.99345273050943C529.375,324.99345273050943 529.375,383.5050584576045 635.25,383.5050584576045C741.125,383.5050584576045 741.125,406.93975939365254 847,406.93975939365254L847,414.0488140996822C741.125,414.0488140996822 741.125,391.6965236050294 635.25,391.6965236050294C529.375,391.6965236050294 529.375,335.1681383071134 423.5,335.1681383071134C317.625,335.1681383071134 317.625,348.2361717674772 211.75,348.2361717674772C105.875,348.2361717674772 105.875,341.5711263735493 0,341.5711263735493Z" title="402" style="fill-opacity: 0.9; fill: rgb(105, 191, 108);"></path><path class="layer" d="M0,289.48946258708736C105.875,289.48946258708736 105.875,281.79637409553857 211.75,281.79637409553857C317.625,281.79637409553857 317.625,277.2297628140531 423.5,277.2297628140531C529.375,277.2297628140531 529.375,311.49922832440535 635.25,311.49922832440535C741.125,311.49922832440535 741.125,293.22180336913834 847,293.22180336913834L847,305.22416747043957C741.125,305.22416747043957 741.125,322.52216155295883 635.25,322.52216155295883C529.375,322.52216155295883 529.375,289.4398257860713 423.5,289.4398257860713C317.625,289.4398257860713 317.625,292.14376551834545 211.75,292.14376551834545C105.875,292.14376551834545 105.875,298.62277035156853 0,298.62277035156853Z" title="403" style="fill-opacity: 0.9; fill: rgb(105, 191, 117);"></path><path class="layer" d="M0,341.59298861057323C105.875,341.59298861057323 105.875,321.95604399660715 211.75,321.95604399660715C317.625,321.95604399660715 317.625,335.1900005441374 423.5,335.1900005441374C529.375,335.1900005441374 529.375,354.57718959464046 635.25,354.57718959464046C741.125,354.57718959464046 741.125,317.18993724986217 847,317.18993724986217L847,327.321227022731C741.125,327.321227022731 741.125,364.3725064248468 635.25,364.3725064248468C529.375,364.3725064248468 529.375,345.05861538394174 423.5,345.05861538394174C317.625,345.05861538394174 317.625,331.0463643876653 211.75,331.0463643876653C105.875,331.0463643876653 105.875,348.90153072234875 0,348.90153072234875Z" title="404" style="fill-opacity: 0.9; fill: rgb(105, 191, 126);"></path><path class="layer" d="M0,138.55642377851393C105.875,138.55642377851393 105.875,52.066890361647324 211.75,52.066890361647324C317.625,52.066890361647324 317.625,135.91513789470898 423.5,135.91513789470898C529.375,135.91513789470898 529.375,63.63198076877904 635.25,63.63198076877904C741.125,63.63198076877904 741.125,76.16504768308226 847,76.16504768308226L847,93.22036022476318C741.125,93.22036022476318 741.125,81.40379785846599 635.25,81.40379785846599C529.375,81.40379785846599 529.375,151.49745092766884 423.5,151.49745092766884C317.625,151.49745092766884 317.625,70.57345644277436 211.75,70.57345644277436C105.875,70.57345644277436 105.875,152.5438796421518 0,152.5438796421518Z" title="405" style="fill-opacity: 0.9; fill: rgb(105, 191, 136);"></path><path class="layer" d="M0,239.26399274171837C105.875,239.26399274171837 105.875,176.88425446969939 211.75,176.88425446969939C317.625,176.88425446969939 317.625,182.38415792054002 423.5,182.38415792054002C529.375,182.38415792054002 529.375,222.03851458924316 635.25,222.03851458924316C741.125,222.03851458924316 741.125,216.2060079954815 847,216.2060079954815L847,230.33338637799451C741.125,230.33338637799451 741.125,235.74613596803263 635.25,235.74613596803263C529.375,235.74613596803263 529.375,197.49096646527812 423.5,197.49096646527812C317.625,197.49096646527812 317.625,189.76948962699535 211.75,189.76948962699535C105.875,189.76948962699535 105.875,250.15138622214985 0,250.15138622214985Z" title="406" style="fill-opacity: 0.9; fill: rgb(105, 191, 145);"></path><path class="layer" d="M0,110.10271184171614C105.875,110.10271184171614 105.875,133.50492779104923 211.75,133.50492779104923C317.625,133.50492779104923 317.625,120.29019667176313 423.5,120.29019667176313C529.375,120.29019667176313 529.375,115.73871821933781 635.25,115.73871821933781C741.125,115.73871821933781 741.125,157.27326258988714 847,157.27326258988714L847,172.5400248866353C741.125,172.5400248866353 741.125,132.47479344387463 635.25,132.47479344387463C529.375,132.47479344387463 529.375,135.89327565768508 423.5,135.89327565768508C317.625,135.89327565768508 317.625,148.33877032306196 211.75,148.33877032306196C105.875,148.33877032306196 105.875,124.41810578182368 0,124.41810578182368Z" title="407" style="fill-opacity: 0.9; fill: rgb(105, 191, 154);"></path><path class="layer" d="M0,43.79321908613447C105.875,43.79321908613447 105.875,29.968247922181135 211.75,29.968247922181135C317.625,29.968247922181135 317.625,4.88349517406883 423.5,4.88349517406883C529.375,4.88349517406883 529.375,0 635.25,0C741.125,0 741.125,5.121756071107804 847,5.121756071107804L847,33.499160007700354C741.125,33.499160007700354 741.125,26.984923005292316 635.25,26.984923005292316C529.375,26.984923005292316 529.375,30.2114302158094 423.5,30.2114302158094C317.625,30.2114302158094 317.625,52.04502812462341 211.75,52.04502812462341C105.875,52.04502812462341 105.875,65.55707719778559 0,65.55707719778559Z" title="408" style="fill-opacity: 0.9; fill: rgb(105, 191, 163);"></path><path class="layer" d="M0,362.61269959889114C105.875,362.61269959889114 105.875,356.49074859118934 211.75,356.49074859118934C317.625,356.49074859118934 317.625,380.38547330814356 423.5,380.38547330814356C529.375,380.38547330814356 529.375,374.00717260488597 635.25,374.00717260488597C741.125,374.00717260488597 741.125,414.07067633670613 847,414.07067633670613L847,419.83890624880024C741.125,419.83890624880024 741.125,383.48319622058057 635.25,383.48319622058057C529.375,383.48319622058057 529.375,388.1576880086217 423.5,388.1576880086217C317.625,388.1576880086217 317.625,364.43768333200205 211.75,364.43768333200205C105.875,364.43768333200205 105.875,368.8543610590582 0,368.8543610590582Z" title="409" style="fill-opacity: 0.9; fill: rgb(105, 191, 172);"></path><path class="layer" d="M0,270.27337765757864C105.875,270.27337765757864 105.875,415.2522893962921 211.75,415.2522893962921C317.625,415.2522893962921 317.625,354.69200059429943 423.5,354.69200059429943C529.375,354.69200059429943 529.375,322.54402378998276 635.25,322.54402378998276C741.125,322.54402378998276 741.125,230.35524861501847 847,230.35524861501847L847,243.98117801765662C741.125,243.98117801765662 741.125,333.454044792859 635.25,333.454044792859C529.375,333.454044792859 529.375,363.69258020802346 423.5,363.69258020802346C317.625,363.69258020802346 317.625,419.7708897103333 211.75,419.7708897103333C105.875,419.7708897103333 105.875,280.28108766176024 0,280.28108766176024Z" title="410" style="fill-opacity: 0.9; fill: rgb(105, 191, 182);"></path><path class="layer" d="M0,191.2247382823477C105.875,191.2247382823477 105.875,202.55151048736346 211.75,202.55151048736346C317.625,202.55151048736346 317.625,166.95816175152257 423.5,166.95816175152257C529.375,166.95816175152257 529.375,132.49665568089856 635.25,132.49665568089856C741.125,132.49665568089856 741.125,172.56188712365923 847,172.56188712365923L847,187.50963015284285C741.125,187.50963015284285 741.125,148.6035296942816 635.25,148.6035296942816C529.375,148.6035296942816 529.375,182.3622956835161 423.5,182.3622956835161C317.625,182.3622956835161 317.625,215.2482539975017 211.75,215.2482539975017C105.875,215.2482539975017 105.875,203.65997931151705 0,203.65997931151705Z" title="411" style="fill-opacity: 0.9; fill: rgb(105, 191, 191);"></path><path class="layer" d="M0,417.38771173609234C105.875,417.38771173609234 105.875,419.79275194735726 211.75,419.79275194735726C317.625,419.79275194735726 317.625,439.8039677430394 423.5,439.8039677430394C529.375,439.8039677430394 529.375,449.97480423080026 635.25,449.97480423080026C741.125,449.97480423080026 741.125,460.06963615724226 847,460.06963615724226L847,462.4076970178521C741.125,462.4076970178521 741.125,454.33222008180934 635.25,454.33222008180934C529.375,454.33222008180934 529.375,443.52775933971475 423.5,443.52775933971475C317.625,443.52775933971475 317.625,423.56180247165537 211.75,423.56180247165537C105.875,423.56180247165537 105.875,419.8515907633205 0,419.8515907633205Z" title="412" style="fill-opacity: 0.9; fill: rgb(105, 182, 191);"></path><path class="layer" d="M0,95.72911716804506C105.875,95.72911716804506 105.875,148.36063256008595 211.75,148.36063256008595C317.625,148.36063256008595 317.625,86.67476069273474 423.5,86.67476069273474C529.375,86.67476069273474 529.375,45.818413918162065 635.25,45.818413918162065C741.125,45.818413918162065 741.125,55.904174484944384 847,55.904174484944384L847,76.14318544605835C741.125,76.14318544605835 741.125,63.61011853175512 635.25,63.61011853175512C529.375,63.61011853175512 529.375,104.31539868046897 423.5,104.31539868046897C317.625,104.31539868046897 317.625,162.93837658009167 211.75,162.93837658009167C105.875,162.93837658009167 105.875,110.08084960469222 0,110.08084960469222Z" title="413" style="fill-opacity: 0.9; fill: rgb(105, 172, 191);"></path><path class="layer" d="M0,355.8668426672262C105.875,355.8668426672262 105.875,227.39852330089732 211.75,227.39852330089732C317.625,227.39852330089732 317.625,372.2065285960893 423.5,372.2065285960893C529.375,372.2065285960893 529.375,262.3571611861559 635.25,262.3571611861559C741.125,262.3571611861559 741.125,384.18610427871926 847,384.18610427871926L847,392.21252495823546C741.125,392.21252495823546 741.125,274.9614746539287 635.25,274.9614746539287C529.375,274.9614746539287 529.375,380.36361107111964 423.5,380.36361107111964C317.625,380.36361107111964 317.625,238.74836675066052 211.75,238.74836675066052C105.875,238.74836675066052 105.875,362.5908373618672 0,362.5908373618672Z" title="414" style="fill-opacity: 0.9; fill: rgb(105, 163, 191);"></path><path class="layer" d="M0,65.5789394348095C105.875,65.5789394348095 105.875,118.59519613710633 211.75,118.59519613710633C317.625,118.59519613710633 317.625,50.15561179471032 423.5,50.15561179471032C529.375,50.15561179471032 529.375,98.79630984709983 635.25,98.79630984709983C741.125,98.79630984709983 741.125,201.91247355262243 847,201.91247355262243L847,216.1841457584576C741.125,216.1841457584576 741.125,115.7168559823139 635.25,115.7168559823139C529.375,115.7168559823139 529.375,68.82205782968006 423.5,68.82205782968006C317.625,68.82205782968006 317.625,133.48306555402525 211.75,133.48306555402525C105.875,133.48306555402525 105.875,80.95462414926118 0,80.95462414926118Z" title="417" style="fill-opacity: 0.9; fill: rgb(105, 154, 191);"></path><path class="layer" d="M0,325.6401194924015C105.875,325.6401194924015 105.875,348.25803400450116 211.75,348.25803400450116C317.625,348.25803400450116 317.625,423.0195698869424 423.5,423.0195698869424C529.375,423.0195698869424 529.375,399.0629314815453 635.25,399.0629314815453C741.125,399.0629314815453 741.125,366.6818484195205 847,366.6818484195205L847,376.03801994846594C741.125,376.03801994846594 741.125,406.2971509946812 635.25,406.2971509946812C529.375,406.2971509946812 529.375,429.49156843527754 423.5,429.49156843527754C317.625,429.49156843527754 317.625,356.4688863541654 211.75,356.4688863541654C105.875,356.4688863541654 105.875,333.7466327702089 0,333.7466327702089Z" title="418" style="fill-opacity: 0.9; fill: rgb(105, 145, 191);"></path><path class="layer" d="M0,391.8810363635264C105.875,391.8810363635264 105.875,423.58366470867935 211.75,423.58366470867935C317.625,423.58366470867935 317.625,443.5496215767387 423.5,443.5496215767387C529.375,443.5496215767387 529.375,445.10453766395904 635.25,445.10453766395904C741.125,445.10453766395904 741.125,449.4385749835805 847,449.4385749835805L847,453.33068656657167C741.125,453.33068656657167 741.125,449.95294199377634 635.25,449.95294199377634C529.375,449.95294199377634 529.375,447.21890230886333 423.5,447.21890230886333C317.625,447.21890230886333 317.625,427.230286202812 211.75,427.230286202812C105.875,427.230286202812 105.875,396.83939259504376 0,396.83939259504376Z" title="419" style="fill-opacity: 0.9; fill: rgb(105, 136, 191);"></path><path class="layer" d="M0,419.8734530003444C105.875,419.8734530003444 105.875,436.7101412455042 211.75,436.7101412455042C317.625,436.7101412455042 317.625,456.77731084836023 423.5,456.77731084836023C529.375,456.77731084836023 529.375,461.2290536849727 635.25,461.2290536849727C741.125,461.2290536849727 741.125,444.79550447861004 847,444.79550447861004L847,449.41671274655664C741.125,449.41671274655664 741.125,463.8984374822514 635.25,463.8984374822514C529.375,463.8984374822514 529.375,459.4559478811837 423.5,459.4559478811837C317.625,459.4559478811837 317.625,439.32173527992336 211.75,439.32173527992336C105.875,439.32173527992336 105.875,422.12744980147863 0,422.12744980147863Z" title="602" style="fill-opacity: 0.9; fill: rgb(105, 126, 191);"></path><path class="layer" d="M0,435.1411942027937C105.875,435.1411942027937 105.875,449.03175207781885 211.75,449.03175207781885C317.625,449.03175207781885 317.625,474.07278035188335 423.5,474.07278035188335C529.375,474.07278035188335 529.375,478.9781377629761 635.25,478.9781377629761C741.125,478.9781377629761 741.125,473.87824392889223 847,473.87824392889223L847,474.87824392889223C741.125,474.87824392889223 741.125,479.9781377629761 635.25,479.9781377629761C529.375,479.9781377629761 529.375,475.07278035188335 423.5,475.07278035188335C317.625,475.07278035188335 317.625,450.03175207781885 211.75,450.03175207781885C105.875,450.03175207781885 105.875,436.1411942027937 0,436.1411942027937Z" title="603" style="fill-opacity: 0.9; fill: rgb(105, 117, 191);"></path><path class="layer" d="M0,435.2067809138655C105.875,435.2067809138655 105.875,449.00988984079487 211.75,449.00988984079487C317.625,449.00988984079487 317.625,474.05091811485937 423.5,474.05091811485937C529.375,474.05091811485937 529.375,478.9562755259521 635.25,478.9562755259521C741.125,478.9562755259521 741.125,473.81265721782046 847,473.81265721782046L847,474.81265721782046C741.125,474.81265721782046 741.125,479.9562755259521 635.25,479.9562755259521C529.375,479.9562755259521 529.375,475.05091811485937 423.5,475.05091811485937C317.625,475.05091811485937 317.625,450.00988984079487 211.75,450.00988984079487C105.875,450.00988984079487 105.875,436.2067809138655 0,436.2067809138655Z" title="604" style="fill-opacity: 0.9; fill: rgb(105, 108, 191);"></path><path class="layer" d="M0,433.0717247191045C105.875,433.0717247191045 105.875,430.85065651964436 211.75,430.85065651964436C317.625,430.85065651964436 317.625,447.24076454588726 423.5,447.24076454588726C529.375,447.24076454588726 529.375,454.35408231883326 635.25,454.35408231883326C741.125,454.35408231883326 741.125,430.2417145313085 847,430.2417145313085L847,435.3404195515986C741.125,435.3404195515986 741.125,457.8098056778816 635.25,457.8098056778816C529.375,457.8098056778816 529.375,450.67533215265973 423.5,450.67533215265973C317.625,450.67533215265973 317.625,434.0220995833307 211.75,434.0220995833307C105.875,434.0220995833307 105.875,434.12329815161644 0,434.12329815161644Z" title="606" style="fill-opacity: 0.9; fill: rgb(111, 105, 191);"></path><path class="layer" d="M0,124.4399680188476C105.875,124.4399680188476 105.875,87.29588136748262 211.75,87.29588136748262C317.625,87.29588136748262 317.625,104.3372609174929 423.5,104.3372609174929C529.375,104.3372609174929 529.375,148.6253919313055 635.25,148.6253919313055C741.125,148.6253919313055 741.125,33.521022244724264 847,33.521022244724264L847,55.88231224792041C741.125,55.88231224792041 741.125,164.01528946094436 635.25,164.01528946094436C529.375,164.01528946094436 529.375,120.26833443473916 423.5,120.26833443473916C317.625,120.26833443473916 317.625,103.57312049637842 211.75,103.57312049637842C105.875,103.57312049637842 105.875,138.53456154149004 0,138.53456154149004Z" title="701" style="fill-opacity: 0.9; fill: rgb(120, 105, 191);"></path><path class="layer" d="M0,203.68184154854097C105.875,203.68184154854097 105.875,189.79135186401925 211.75,189.79135186401925C317.625,189.79135186401925 317.625,225.98183771849085 423.5,225.98183771849085C529.375,225.98183771849085 529.375,164.03715169796834 635.25,164.03715169796834C741.125,164.03715169796834 741.125,109.9019586133212 847,109.9019586133212L847,125.9922641073808C741.125,125.9922641073808 741.125,179.18030703815123 635.25,179.18030703815123C529.375,179.18030703815123 529.375,239.47171019555552 423.5,239.47171019555552C317.625,239.47171019555552 317.625,202.5296482503395 211.75,202.5296482503395C105.875,202.5296482503395 105.875,215.88534330687386 0,215.88534330687386Z" title="702" style="fill-opacity: 0.9; fill: rgb(130, 105, 191);"></path><path class="layer" d="M0,215.9072055438978C105.875,215.9072055438978 105.875,302.4517989067665 211.75,302.4517989067665C317.625,302.4517989067665 317.625,211.91567716318946 423.5,211.91567716318946C529.375,211.91567716318946 529.375,235.76799820505653 635.25,235.76799820505653C741.125,235.76799820505653 741.125,268.76653571332764 847,268.76653571332764L847,281.02472364730374C741.125,281.02472364730374 741.125,249.26574577689962 635.25,249.26574577689962C529.375,249.26574577689962 529.375,225.95997548146693 423.5,225.95997548146693C317.625,225.95997548146693 317.625,312.2373388833615 211.75,312.2373388833615C105.875,312.2373388833615 105.875,227.66607386676773 0,227.66607386676773Z" title="703" style="fill-opacity: 0.9; fill: rgb(139, 105, 191);"></path><path class="layer" d="M0,431.85617968391733C105.875,431.85617968391733 105.875,448.08894179879996 211.75,448.08894179879996C317.625,448.08894179879996 317.625,473.89570572020034 423.5,473.89570572020034C529.375,473.89570572020034 529.375,477.9879129856746 635.25,477.9879129856746C741.125,477.9879129856746 741.125,472.82250076219583 847,472.82250076219583L847,473.82250076219583C741.125,473.82250076219583 741.125,478.9879129856746 635.25,478.9879129856746C529.375,478.9879129856746 529.375,474.89570572020034 423.5,474.89570572020034C317.625,474.89570572020034 317.625,449.08894179879996 211.75,449.08894179879996C105.875,449.08894179879996 105.875,433.0498624820806 0,433.0498624820806Z" title="704" style="fill-opacity: 0.9; fill: rgb(148, 105, 191);"></path><path class="layer" d="M0,424.241527594813C105.875,424.241527594813 105.875,434.0439618203546 211.75,434.0439618203546C317.625,434.0439618203546 317.625,468.6046699503708 423.5,468.6046699503708C529.375,468.6046699503708 529.375,472.73316178393014 635.25,472.73316178393014C741.125,472.73316178393014 741.125,470.79682303796136 847,470.79682303796136L847,471.97229586069346C741.125,471.97229586069346 741.125,474.4624611847194 635.25,474.4624611847194C529.375,474.4624611847194 529.375,470.4870073880645 423.5,470.4870073880645C317.625,470.4870073880645 317.625,436.6882790084803 211.75,436.6882790084803C105.875,436.6882790084803 105.875,425.9905259572768 0,425.9905259572768Z" title="705" style="fill-opacity: 0.9; fill: rgb(157, 105, 191);"></path><path class="layer" d="M0,410.6126053874722C105.875,410.6126053874722 105.875,410.7108704536848 211.75,410.7108704536848C317.625,410.7108704536848 317.625,450.69719438968366 423.5,450.69719438968366C529.375,450.69719438968366 529.375,457.83166791490555 635.25,457.83166791490555C741.125,457.83166791490555 741.125,453.3525488035956 847,453.3525488035956L847,456.80514302940355C741.125,456.80514302940355 741.125,461.20719144794873 635.25,461.20719144794873C529.375,461.20719144794873 529.375,454.0246237165641 423.5,454.0246237165641C317.625,454.0246237165641 317.625,415.2304271592682 211.75,415.2304271592682C105.875,415.2304271592682 105.875,414.6024626517944 0,414.6024626517944Z" title="706" style="fill-opacity: 0.9; fill: rgb(166, 105, 191);"></path><path class="layer" d="M0,426.0123881943007C105.875,426.0123881943007 105.875,443.6395270484256 211.75,443.6395270484256C317.625,443.6395270484256 317.625,454.04648595358805 423.5,454.04648595358805C529.375,454.04648595358805 529.375,463.9202997192753 635.25,463.9202997192753C741.125,463.9202997192753 741.125,456.8270052664275 847,456.8270052664275L847,460.04777392021833C741.125,460.04777392021833 741.125,466.52152092238447 635.25,466.52152092238447C529.375,466.52152092238447 529.375,456.7554486113363 423.5,456.7554486113363C317.625,456.7554486113363 317.625,445.15821698848646 211.75,445.15821698848646C105.875,445.15821698848646 105.875,427.75699447707086 0,427.75699447707086Z" title="707" style="fill-opacity: 0.9; fill: rgb(175, 105, 191);"></path><path class="layer" d="M0,433.99341985712897C105.875,433.99341985712897 105.875,446.5989381394581 211.75,446.5989381394581C317.625,446.5989381394581 317.625,472.31232038591247 423.5,472.31232038591247C529.375,472.31232038591247 529.375,474.48432342174334 635.25,474.48432342174334C741.125,474.48432342174334 741.125,473.3297093396699 847,473.3297093396699L847,474.3297093396699C741.125,474.3297093396699 741.125,476.0758940366011 635.25,476.0758940366011C529.375,476.0758940366011 529.375,473.31232038591247 423.5,473.31232038591247C317.625,473.31232038591247 317.625,447.68549521102574 211.75,447.68549521102574C105.875,447.68549521102574 105.875,434.99341985712897 0,434.99341985712897Z" title="708" style="fill-opacity: 0.9; fill: rgb(185, 105, 191);"></path><path class="layer" d="M0,348.92339295937273C105.875,348.92339295937273 105.875,364.459545569026 211.75,364.459545569026C317.625,364.459545569026 317.625,388.1795502456456 423.5,388.1795502456456C529.375,388.1795502456456 529.375,427.41745373188417 635.25,427.41745373188417C741.125,427.41745373188417 741.125,392.23438719525944 847,392.23438719525944L847,399.7448957264926C741.125,399.7448957264926 741.125,433.70066487634665 635.25,433.70066487634665C529.375,433.70066487634665 529.375,395.56461588211766 423.5,395.56461588211766C317.625,395.56461588211766 317.625,371.10566854072397 211.75,371.10566854072397C105.875,371.10566854072397 105.875,355.84498043020227 0,355.84498043020227Z" title="709" style="fill-opacity: 0.9; fill: rgb(191, 105, 188);"></path><path class="layer" d="M0,406.55934329175415C105.875,406.55934329175415 105.875,395.85423396507747 211.75,395.85423396507747C317.625,395.85423396507747 317.625,435.1123345329115 423.5,435.1123345329115C529.375,435.1123345329115 529.375,433.7225271133706 635.25,433.7225271133706C741.125,433.7225271133706 741.125,419.8607684858241 847,419.8607684858241L847,425.0552334011044C741.125,425.0552334011044 741.125,439.8920520892891 635.25,439.8920520892891C529.375,439.8920520892891 529.375,439.78210550601545 423.5,439.78210550601545C317.625,439.78210550601545 317.625,401.05964634001737 211.75,401.05964634001737C105.875,401.05964634001737 105.875,410.5907431504483 0,410.5907431504483Z" title="710" style="fill-opacity: 0.9; fill: rgb(191, 105, 179);"></path><path class="layer" d="M0,429.2829840213139C105.875,429.2829840213139 105.875,439.3435975169472 211.75,439.3435975169472C317.625,439.3435975169472 317.625,462.0531638940492 423.5,462.0531638940492C529.375,462.0531638940492 529.375,466.5433831594084 635.25,466.5433831594084C741.125,466.5433831594084 741.125,469.5724869567823 847,469.5724869567823L847,470.7749608009375C741.125,470.7749608009375 741.125,468.9612963785591 635.25,468.9612963785591C529.375,468.9612963785591 529.375,464.4011598996113 423.5,464.4011598996113C317.625,464.4011598996113 317.625,441.5757314361216 211.75,441.5757314361216C105.875,441.5757314361216 105.875,430.6056506751823 0,430.6056506751823Z" title="711" style="fill-opacity: 0.9; fill: rgb(191, 105, 169);"></path><path class="layer" d="M0,380.5113123529796C105.875,380.5113123529796 105.875,384.15948442430545 211.75,384.15948442430545C317.625,384.15948442430545 317.625,395.5864781191416 423.5,395.5864781191416C529.375,395.5864781191416 529.375,420.6685805307775 635.25,420.6685805307775C741.125,420.6685805307775 741.125,399.76675796351657 847,399.76675796351657L847,406.91789715662856C741.125,406.91789715662856 741.125,427.39559149486024 635.25,427.39559149486024C529.375,427.39559149486024 529.375,402.650168023107 423.5,402.650168023107C317.625,402.650168023107 317.625,390.14649191977685 211.75,390.14649191977685C105.875,390.14649191977685 105.875,386.26982746742203 0,386.26982746742203Z" title="712" style="fill-opacity: 0.9; fill: rgb(191, 105, 160);"></path><path class="layer" d="M0,396.8612548320677C105.875,396.8612548320677 105.875,371.1275307777479 211.75,371.1275307777479C317.625,371.1275307777479 317.625,429.51343067230147 423.5,429.51343067230147C529.375,429.51343067230147 529.375,413.5644481664418 635.25,413.5644481664418C741.125,413.5644481664418 741.125,435.3622817886225 847,435.3622817886225L847,440.0963788677905C741.125,440.0963788677905 741.125,420.64671829375357 635.25,420.64671829375357C529.375,420.64671829375357 529.375,435.09047229588765 423.5,435.09047229588765C317.625,435.09047229588765 317.625,377.6406471809141 211.75,377.6406471809141C105.875,377.6406471809141 105.875,401.7605812505931 0,401.7605812505931Z" title="717" style="fill-opacity: 0.9; fill: rgb(191, 105, 151);"></path><path class="layer" d="M0,435.11933196576973C105.875,435.11933196576973 105.875,448.6092655934789 211.75,448.6092655934789C317.625,448.6092655934789 317.625,473.70332025122053 423.5,473.70332025122053C529.375,473.70332025122053 529.375,477.2855626708054 635.25,477.2855626708054C741.125,477.2855626708054 741.125,471.99415809771733 847,471.99415809771733L847,473.12225121154455C741.125,473.12225121154455 741.125,478.2855626708054 635.25,478.2855626708054C529.375,478.2855626708054 529.375,474.70332025122053 423.5,474.70332025122053C317.625,474.70332025122053 317.625,449.6092655934789 211.75,449.6092655934789C105.875,449.6092655934789 105.875,436.11933196576973 0,436.11933196576973Z" title="718" style="fill-opacity: 0.9; fill: rgb(191, 105, 142);"></path><path class="layer" d="M0,422.1493120385026C105.875,422.1493120385026 105.875,427.25214843983593 211.75,427.25214843983593C317.625,427.25214843983593 317.625,464.4230221366352 423.5,464.4230221366352C529.375,464.4230221366352 529.375,468.9831586155831 635.25,468.9831586155831C741.125,468.9831586155831 741.125,464.52631774250176 847,464.52631774250176L847,466.5556360845116C741.125,466.5556360845116 741.125,470.9048481153366 635.25,470.9048481153366C529.375,470.9048481153366 529.375,466.53215670546683 423.5,466.53215670546683C317.625,466.53215670546683 317.625,430.82879428262044 211.75,430.82879428262044C105.875,430.82879428262044 105.875,424.2196653577891 0,424.2196653577891Z" title="719" style="fill-opacity: 0.9; fill: rgb(191, 105, 133);"></path><path class="layer" d="M0,80.9764863862851C105.875,80.9764863862851 105.875,103.59498273340235 211.75,103.59498273340235C317.625,103.59498273340235 317.625,151.5193131646928 423.5,151.5193131646928C529.375,151.5193131646928 529.375,193.8061387996563 635.25,193.8061387996563C741.125,193.8061387996563 741.125,141.66191561636649 847,141.66191561636649L847,157.25140035286324C741.125,157.25140035286324 741.125,207.9968348510124 635.25,207.9968348510124C529.375,207.9968348510124 529.375,166.93629951449864 423.5,166.93629951449864C317.625,166.93629951449864 317.625,118.57333390008236 211.75,118.57333390008236C105.875,118.57333390008236 105.875,95.70725493102115 0,95.70725493102115Z" title="720" style="fill-opacity: 0.9; fill: rgb(191, 105, 123);"></path><path class="layer" d="M0,368.8762232960821C105.875,368.8762232960821 105.875,406.1066856888212 211.75,406.1066856888212C317.625,406.1066856888212 317.625,402.67203026013095 423.5,402.67203026013095C529.375,402.67203026013095 529.375,391.71838584205335 635.25,391.71838584205335C741.125,391.71838584205335 741.125,425.0770956381283 847,425.0770956381283L847,430.2198522942846C741.125,430.2198522942846 741.125,399.0410692445214 635.25,399.0410692445214C529.375,399.0410692445214 529.375,409.6264086554156 423.5,409.6264086554156C317.625,409.6264086554156 317.625,410.68900821666085 211.75,410.68900821666085C105.875,410.68900821666085 105.875,374.7003291770414 0,374.7003291770414Z" title="721" style="fill-opacity: 0.9; fill: rgb(191, 105, 114);"></path><defs><path id="path-0" d="M0,431.2309151795498C105.875,431.2309151795498 105.875,445.87857756397227 211.75,445.87857756397227C317.625,445.87857756397227 317.625,473.6777006925408 423.5,473.6777006925408C529.375,473.6777006925408 529.375,479.23468747877195 635.25,479.23468747877195C741.125,479.23468747877195 741.125,474.57118327874514 847,474.57118327874514"></path><path id="path-1" d="M0,303.17558391288196C105.875,303.17558391288196 105.875,265.81632961225523 211.75,265.81632961225523C317.625,265.81632961225523 317.625,319.33842873263995 423.5,319.33842873263995C529.375,319.33842873263995 529.375,338.76328290427375 635.25,338.76328290427375C741.125,338.76328290427375 741.125,262.6111944900315 847,262.6111944900315"></path><path id="path-2" d="M0,233.46503330424304C105.875,233.46503330424304 105.875,276.46746777452773 211.75,276.46746777452773C317.625,276.46746777452773 317.625,349.87530798912064 423.5,349.87530798912064C529.375,349.87530798912064 529.375,349.31392418665257 635.25,349.31392418665257C741.125,349.31392418665257 741.125,352.31696409723145 847,352.31696409723145"></path><path id="path-3" d="M0,255.18953919795655C105.875,255.18953919795655 105.875,297.29778221255594 211.75,297.29778221255594C317.625,297.29778221255594 317.625,307.6371296121721 423.5,307.6371296121721C529.375,307.6371296121721 529.375,305.6928744214083 635.25,305.6928744214083C741.125,305.6928744214083 741.125,342.43677473546563 847,342.43677473546563"></path><path id="path-4" d="M0,428.51998924919235C105.875,428.51998924919235 105.875,442.60762924227356 211.75,442.60762924227356C317.625,442.60762924227356 317.625,471.405574812811 423.5,471.405574812811C529.375,471.405574812811 529.375,471.8190049496334 635.25,471.8190049496334C741.125,471.8190049496334 741.125,463.46700738017694 847,463.46700738017694"></path><path id="path-5" d="M0,436.18491867684156C105.875,436.18491867684156 105.875,449.988027603771 211.75,449.988027603771C317.625,449.988027603771 317.625,475.11650482593114 423.5,475.11650482593114C529.375,475.11650482593114 529.375,480 635.25,480C741.125,480 741.125,474.85638169186825 847,474.85638169186825"></path><path id="path-6" d="M0,436.16305643981764C105.875,436.16305643981764 105.875,449.9661653667471 211.75,449.9661653667471C317.625,449.9661653667471 317.625,475.0946425889073 423.5,475.0946425889073C529.375,475.0946425889073 529.375,479.8917819365695 635.25,479.8917819365695C741.125,479.8917819365695 741.125,474.8345194548444 847,474.8345194548444"></path><path id="path-7" d="M0,312.25278570683327C105.875,312.25278570683327 105.875,255.05987938068415 211.75,255.05987938068415C317.625,255.05987938068415 317.625,245.789895121391 423.5,245.789895121391C529.375,245.789895121391 529.375,215.01767472012781 635.25,215.01767472012781C741.125,215.01767472012781 741.125,311.2070523601509 847,311.2070523601509"></path><path id="path-8" d="M0,184.8989000967597C105.875,184.8989000967597 105.875,221.3233886491995 211.75,221.3233886491995C317.625,221.3233886491995 317.625,270.9554100556451 423.5,270.9554100556451C529.375,270.9554100556451 529.375,255.81145348152776 635.25,255.81145348152776C741.125,255.81145348152776 741.125,287.12326350822104 847,287.12326350822104"></path><path id="path-9" d="M0,321.20864671593637C105.875,321.20864671593637 105.875,335.5297410356201 211.75,335.5297410356201C317.625,335.5297410356201 317.625,258.39456867223174 423.5,258.39456867223174C529.375,258.39456867223174 529.375,281.26212391551996 635.25,281.26212391551996C741.125,281.26212391551996 741.125,332.3813118427381 847,332.3813118427381"></path><path id="path-10" d="M0,159.123320496485C105.875,159.123320496485 105.875,169.91131552489554 211.75,169.91131552489554C317.625,169.91131552489554 317.625,40.18352100525986 423.5,40.18352100525986C529.375,40.18352100525986 529.375,90.10005385278292 635.25,90.10005385278292C741.125,90.10005385278292 741.125,133.82708986187365 847,133.82708986187365"></path><path id="path-11" d="M0,265.239603797159C105.875,265.239603797159 105.875,244.19794498902962 211.75,244.19794498902962C317.625,244.19794498902962 317.625,204.7033218142338 423.5,204.7033218142338C529.375,204.7033218142338 529.375,186.49322291890377 635.25,186.49322291890377C741.125,186.49322291890377 741.125,194.71105185273262 847,194.71105185273262"></path><path id="path-12" d="M0,172.13791163099495C105.875,172.13791163099495 105.875,78.93466890512846 211.75,78.93466890512846C317.625,78.93466890512846 317.625,77.7484092612074 423.5,77.7484092612074C529.375,77.7484092612074 529.375,36.4016684617272 635.25,36.4016684617272C741.125,36.4016684617272 741.125,101.56115941904218 847,101.56115941904218"></path><path id="path-13" d="M0,284.8852751244238C105.875,284.8852751244238 105.875,317.0966914399843 211.75,317.0966914399843C317.625,317.0966914399843 317.625,295.5153401378225 423.5,295.5153401378225C529.375,295.5153401378225 529.375,293.7246468477613 635.25,293.7246468477613C741.125,293.7246468477613 741.125,250.22944676070793 847,250.22944676070793"></path><path id="path-14" d="M0,404.15996227117364C105.875,404.15996227117364 105.875,393.00036294242716 211.75,393.00036294242716C317.625,393.00036294242716 317.625,419.74007113393935 423.5,419.74007113393935C529.375,419.74007113393935 529.375,442.4982948766241 635.25,442.4982948766241C741.125,442.4982948766241 741.125,442.4459416732003 847,442.4459416732003"></path><path id="path-15" d="M0,389.0754319154742C105.875,389.0754319154742 105.875,380.9000658026098 211.75,380.9000658026098C317.625,380.9000658026098 317.625,413.05442163668795 423.5,413.05442163668795C529.375,413.05442163668795 529.375,409.9307995805615 635.25,409.9307995805615C741.125,409.9307995805615 741.125,361.93088078438666 847,361.93088078438666"></path><path id="path-16" d="M0,415.9950871939434C105.875,415.9950871939434 105.875,448.12705730497885 211.75,448.12705730497885C317.625,448.12705730497885 317.625,467.56841332791885 423.5,467.56841332791885C529.375,467.56841332791885 529.375,479.6543751595281 635.25,479.6543751595281C741.125,479.6543751595281 741.125,468.92980795852617 847,468.92980795852617"></path><path id="path-17" d="M0,435.338845810272C105.875,435.338845810272 105.875,449.787715480113 211.75,449.787715480113C317.625,449.787715480113 317.625,460.75455588761645 423.5,460.75455588761645C529.375,460.75455588761645 529.375,476.8380937884732 635.25,476.8380937884732C741.125,476.8380937884732 741.125,467.43231364090275 847,467.43231364090275"></path><path id="path-18" d="M0,377.60582076501044C105.875,377.60582076501044 105.875,403.58316601441925 211.75,403.58316601441925C317.625,403.58316601441925 317.625,367.9495544020564 423.5,367.9495544020564C529.375,367.9495544020564 529.375,369.1898395148664 635.25,369.1898395148664C741.125,369.1898395148664 741.125,380.1120621135926 847,380.1120621135926"></path><path id="path-19" d="M0,337.66981069039105C105.875,337.66981069039105 105.875,344.1246447255261 211.75,344.1246447255261C317.625,344.1246447255261 317.625,330.08079551881144 423.5,330.08079551881144C529.375,330.08079551881144 529.375,387.60079103131693 635.25,387.60079103131693C741.125,387.60079103131693 741.125,410.4942867466674 847,410.4942867466674"></path><path id="path-20" d="M0,294.05611646932795C105.875,294.05611646932795 105.875,286.970069806942 211.75,286.970069806942C317.625,286.970069806942 317.625,283.3347943000622 423.5,283.3347943000622C529.375,283.3347943000622 529.375,317.0106949386821 635.25,317.0106949386821C741.125,317.0106949386821 741.125,299.222985419789 847,299.222985419789"></path><path id="path-21" d="M0,345.247259666461C105.875,345.247259666461 105.875,326.50120419213624 211.75,326.50120419213624C317.625,326.50120419213624 317.625,340.12430796403953 423.5,340.12430796403953C529.375,340.12430796403953 529.375,359.4748480097436 635.25,359.4748480097436C741.125,359.4748480097436 741.125,322.2555821362966 847,322.2555821362966"></path><path id="path-22" d="M0,145.55015171033287C105.875,145.55015171033287 105.875,61.32017340221084 211.75,61.32017340221084C317.625,61.32017340221084 317.625,143.7062944111889 423.5,143.7062944111889C529.375,143.7062944111889 529.375,72.51788931362252 635.25,72.51788931362252C741.125,72.51788931362252 741.125,84.69270395392272 847,84.69270395392272"></path><path id="path-23" d="M0,244.7076894819341C105.875,244.7076894819341 105.875,183.32687204834735 211.75,183.32687204834735C317.625,183.32687204834735 317.625,189.93756219290907 423.5,189.93756219290907C529.375,189.93756219290907 529.375,228.89232527863788 635.25,228.89232527863788C741.125,228.89232527863788 741.125,223.26969718673803 847,223.26969718673803"></path><path id="path-24" d="M0,117.2604088117699C105.875,117.2604088117699 105.875,140.9218490570556 211.75,140.9218490570556C317.625,140.9218490570556 317.625,128.0917361647241 423.5,128.0917361647241C529.375,128.0917361647241 529.375,124.10675583160622 635.25,124.10675583160622C741.125,124.10675583160622 741.125,164.9066437382612 847,164.9066437382612"></path><path id="path-25" d="M0,54.67514814196003C105.875,54.67514814196003 105.875,41.006638023402274 211.75,41.006638023402274C317.625,41.006638023402274 317.625,17.547462694939114 423.5,17.547462694939114C529.375,17.547462694939114 529.375,13.492461502646158 635.25,13.492461502646158C741.125,13.492461502646158 741.125,19.31045803940408 847,19.31045803940408"></path><path id="path-26" d="M0,365.73353032897467C105.875,365.73353032897467 105.875,360.4642159615957 211.75,360.4642159615957C317.625,360.4642159615957 317.625,384.2715806583826 423.5,384.2715806583826C529.375,384.2715806583826 529.375,378.74518441273324 635.25,378.74518441273324C741.125,378.74518441273324 741.125,416.95479129275316 847,416.95479129275316"></path><path id="path-27" d="M0,275.27723265966944C105.875,275.27723265966944 105.875,417.51158955331266 211.75,417.51158955331266C317.625,417.51158955331266 317.625,359.1922904011615 423.5,359.1922904011615C529.375,359.1922904011615 529.375,327.9990342914209 635.25,327.9990342914209C741.125,327.9990342914209 741.125,237.16821331633753 847,237.16821331633753"></path><path id="path-28" d="M0,197.44235879693235C105.875,197.44235879693235 105.875,208.89988224243257 211.75,208.89988224243257C317.625,208.89988224243257 317.625,174.66022871751932 423.5,174.66022871751932C529.375,174.66022871751932 529.375,140.55009268759008 635.25,140.55009268759008C741.125,140.55009268759008 741.125,180.03575863825102 847,180.03575863825102"></path><path id="path-29" d="M0,418.6196512497064C105.875,418.6196512497064 105.875,421.6772772095063 211.75,421.6772772095063C317.625,421.6772772095063 317.625,441.66586354137706 423.5,441.66586354137706C529.375,441.66586354137706 529.375,452.1535121563048 635.25,452.1535121563048C741.125,452.1535121563048 741.125,461.2386665875472 847,461.2386665875472"></path><path id="path-30" d="M0,102.90498338636864C105.875,102.90498338636864 105.875,155.64950457008882 211.75,155.64950457008882C317.625,155.64950457008882 317.625,95.49507968660185 423.5,95.49507968660185C529.375,95.49507968660185 529.375,54.71426622495859 635.25,54.71426622495859C741.125,54.71426622495859 741.125,66.02367996550137 847,66.02367996550137"></path><path id="path-31" d="M0,359.2288400145467C105.875,359.2288400145467 105.875,233.07344502577894 211.75,233.07344502577894C317.625,233.07344502577894 317.625,376.28506983360444 423.5,376.28506983360444C529.375,376.28506983360444 529.375,268.6593179200423 635.25,268.6593179200423C741.125,268.6593179200423 741.125,388.1993146184774 847,388.1993146184774"></path><path id="path-32" d="M0,73.26678179203535C105.875,73.26678179203535 105.875,126.03913084556578 211.75,126.03913084556578C317.625,126.03913084556578 317.625,59.48883481219519 423.5,59.48883481219519C529.375,59.48883481219519 529.375,107.25658291470687 635.25,107.25658291470687C741.125,107.25658291470687 741.125,209.04830965554 847,209.04830965554"></path><path id="path-33" d="M0,329.6933761313052C105.875,329.6933761313052 105.875,352.3634601793333 211.75,352.3634601793333C317.625,352.3634601793333 317.625,426.25556916111 423.5,426.25556916111C529.375,426.25556916111 529.375,402.6800412381133 635.25,402.6800412381133C741.125,402.6800412381133 741.125,371.35993418399323 847,371.35993418399323"></path><path id="path-34" d="M0,394.3602144792851C105.875,394.3602144792851 105.875,425.4069754557457 211.75,425.4069754557457C317.625,425.4069754557457 317.625,445.384261942801 423.5,445.384261942801C529.375,445.384261942801 529.375,447.5287398288677 635.25,447.5287398288677C741.125,447.5287398288677 741.125,451.38463077507606 847,451.38463077507606"></path><path id="path-35" d="M0,421.0004514009115C105.875,421.0004514009115 105.875,438.0159382627138 211.75,438.0159382627138C317.625,438.0159382627138 317.625,458.11662936477194 423.5,458.11662936477194C529.375,458.11662936477194 529.375,462.56374558361205 635.25,462.56374558361205C741.125,462.56374558361205 741.125,447.10610861258334 847,447.10610861258334"></path><path id="path-36" d="M0,436.1411942027937C105.875,436.1411942027937 105.875,450.03175207781885 211.75,450.03175207781885C317.625,450.03175207781885 317.625,475.07278035188335 423.5,475.07278035188335C529.375,475.07278035188335 529.375,479.9781377629761 635.25,479.9781377629761C741.125,479.9781377629761 741.125,474.87824392889223 847,474.87824392889223"></path><path id="path-37" d="M0,436.2067809138655C105.875,436.2067809138655 105.875,450.00988984079487 211.75,450.00988984079487C317.625,450.00988984079487 317.625,474.9842430360418 423.5,474.9842430360418C529.375,474.9842430360418 529.375,479.9562755259521 635.25,479.9562755259521C741.125,479.9562755259521 741.125,474.81265721782046 847,474.81265721782046"></path><path id="path-38" d="M0,433.5975114353605C105.875,433.5975114353605 105.875,432.4363780514875 211.75,432.4363780514875C317.625,432.4363780514875 317.625,448.9580483492735 423.5,448.9580483492735C529.375,448.9580483492735 529.375,456.0819439983575 635.25,456.0819439983575C741.125,456.0819439983575 741.125,432.7910670414535 847,432.7910670414535"></path><path id="path-39" d="M0,131.4872647801688C105.875,131.4872647801688 105.875,95.43450093193053 211.75,95.43450093193053C317.625,95.43450093193053 317.625,112.30279767611603 423.5,112.30279767611603C529.375,112.30279767611603 529.375,156.32034069612493 635.25,156.32034069612493C741.125,156.32034069612493 741.125,44.70166724632234 847,44.70166724632234"></path><path id="path-40" d="M0,209.78359242770742C105.875,209.78359242770742 105.875,196.16050005717938 211.75,196.16050005717938C317.625,196.16050005717938 317.625,232.72677395702317 423.5,232.72677395702317C529.375,232.72677395702317 529.375,171.60872936805978 635.25,171.60872936805978C741.125,171.60872936805978 741.125,117.947111360351 847,117.947111360351"></path><path id="path-41" d="M0,221.78663970533276C105.875,221.78663970533276 105.875,307.34456889506396 211.75,307.34456889506396C317.625,307.34456889506396 317.625,218.9378263223282 423.5,218.9378263223282C529.375,218.9378263223282 529.375,242.51687199097807 635.25,242.51687199097807C741.125,242.51687199097807 741.125,274.89562968031566 847,274.89562968031566"></path><path id="path-42" d="M0,432.45302108299893C105.875,432.45302108299893 105.875,448.82878059886593 211.75,448.82878059886593C317.625,448.82878059886593 317.625,474.81044410422237 423.5,474.81044410422237C529.375,474.81044410422237 529.375,478.647668946752 635.25,478.647668946752C741.125,478.647668946752 741.125,473.48330710538215 847,473.48330710538215"></path><path id="path-43" d="M0,425.1160267760449C105.875,425.1160267760449 105.875,435.3661204144174 211.75,435.3661204144174C317.625,435.3661204144174 317.625,469.5458386692177 423.5,469.5458386692177C529.375,469.5458386692177 529.375,473.5978114843248 635.25,473.5978114843248C741.125,473.5978114843248 741.125,471.3845594493274 847,471.3845594493274"></path><path id="path-44" d="M0,412.60753401963325C105.875,412.60753401963325 105.875,412.97064880647645 211.75,412.97064880647645C317.625,412.97064880647645 317.625,452.3609090531239 423.5,452.3609090531239C529.375,452.3609090531239 529.375,459.51942968142714 635.25,459.51942968142714C741.125,459.51942968142714 741.125,455.0788459164996 847,455.0788459164996"></path><path id="path-45" d="M0,426.8846913356858C105.875,426.8846913356858 105.875,444.398872018456 211.75,444.398872018456C317.625,444.398872018456 317.625,455.40096728246215 423.5,455.40096728246215C529.375,455.40096728246215 529.375,465.2209103208299 635.25,465.2209103208299C741.125,465.2209103208299 741.125,458.4373895933229 847,458.4373895933229"></path><path id="path-46" d="M0,434.5692901228847C105.875,434.5692901228847 105.875,447.1422166752419 211.75,447.1422166752419C317.625,447.1422166752419 317.625,472.81823131173496 423.5,472.81823131173496C529.375,472.81823131173496 529.375,475.2801087291722 635.25,475.2801087291722C741.125,475.2801087291722 741.125,474.08703616944484 847,474.08703616944484"></path><path id="path-47" d="M0,352.3841866947875C105.875,352.3841866947875 105.875,367.782607054875 211.75,367.782607054875C317.625,367.782607054875 317.625,391.87208306388163 423.5,391.87208306388163C529.375,391.87208306388163 529.375,430.5590593041154 635.25,430.5590593041154C741.125,430.5590593041154 741.125,395.989641460876 847,395.989641460876"></path><path id="path-48" d="M0,408.5750432211012C105.875,408.5750432211012 105.875,398.4569401525474 211.75,398.4569401525474C317.625,398.4569401525474 317.625,437.4472200194635 423.5,437.4472200194635C529.375,437.4472200194635 529.375,436.80728960132984 635.25,436.80728960132984C741.125,436.80728960132984 741.125,422.45800094346424 847,422.45800094346424"></path><path id="path-49" d="M0,429.9443173482481C105.875,429.9443173482481 105.875,440.4596644765344 211.75,440.4596644765344C317.625,440.4596644765344 317.625,463.22716189683024 423.5,463.22716189683024C529.375,463.22716189683024 529.375,467.75233976898375 635.25,467.75233976898375C741.125,467.75233976898375 741.125,470.1737238788599 847,470.1737238788599"></path><path id="path-50" d="M0,383.39056991020084C105.875,383.39056991020084 105.875,387.15298817204115 211.75,387.15298817204115C317.625,387.15298817204115 317.625,399.11832307112434 423.5,399.11832307112434C529.375,399.11832307112434 529.375,424.03208601281887 635.25,424.03208601281887C741.125,424.03208601281887 741.125,403.3423275600726 847,403.3423275600726"></path><path id="path-51" d="M0,399.3109180413304C105.875,399.3109180413304 105.875,374.38408897933095 211.75,374.38408897933095C317.625,374.38408897933095 317.625,432.30195148409456 423.5,432.30195148409456C529.375,432.30195148409456 529.375,417.1055832300977 635.25,417.1055832300977C741.125,417.1055832300977 741.125,437.7293303282065 847,437.7293303282065"></path><path id="path-52" d="M0,435.90180186459236C105.875,435.90180186459236 105.875,449.3600348146514 211.75,449.3600348146514C317.625,449.3600348146514 317.625,474.37320062519484 423.5,474.37320062519484C529.375,474.37320062519484 529.375,477.9429281055754 635.25,477.9429281055754C741.125,477.9429281055754 741.125,472.5582046546309 847,472.5582046546309"></path><path id="path-53" d="M0,423.18448869814586C105.875,423.18448869814586 105.875,429.0404713612282 211.75,429.0404713612282C317.625,429.0404713612282 317.625,465.477589421051 423.5,465.477589421051C529.375,465.477589421051 529.375,469.9440033654598 635.25,469.9440033654598C741.125,469.9440033654598 741.125,465.5409769135067 847,465.5409769135067"></path><path id="path-54" d="M0,88.34187065865314C105.875,88.34187065865314 105.875,111.08415831674236 211.75,111.08415831674236C317.625,111.08415831674236 317.625,159.2278063395957 423.5,159.2278063395957C529.375,159.2278063395957 529.375,200.90148682533436 635.25,200.90148682533436C741.125,200.90148682533436 741.125,149.45665798461488 847,149.45665798461488"></path><path id="path-55" d="M0,371.7882762365617C105.875,371.7882762365617 105.875,408.397846952741 211.75,408.397846952741C317.625,408.397846952741 317.625,406.14921945777326 423.5,406.14921945777326C529.375,406.14921945777326 529.375,395.37972754328734 635.25,395.37972754328734C741.125,395.37972754328734 741.125,427.64847396620644 847,427.64847396620644"></path></defs><text dy="0.5ex" class="label"><textPath xmlns:xlink="http://www.w3.org/1999/xlink" xlink:href="#path-0" startOffset="25%" text-anchor="middle" style="font-size: 11px; font-family: Arial, Helvetica; font-weight: normal;">101</textPath></text><text dy="0.5ex" class="label"><textPath xmlns:xlink="http://www.w3.org/1999/xlink" xlink:href="#path-1" startOffset="95%" text-anchor="end" style="font-size: 11px; font-family: Arial, Helvetica; font-weight: normal;">102</textPath></text><text dy="0.5ex" class="label"><textPath xmlns:xlink="http://www.w3.org/1999/xlink" xlink:href="#path-2" startOffset="5%" text-anchor="start" style="font-size: 11px; font-family: Arial, Helvetica; font-weight: normal;">103</textPath></text><text dy="0.5ex" class="label"><textPath xmlns:xlink="http://www.w3.org/1999/xlink" xlink:href="#path-3" startOffset="50%" text-anchor="middle" style="font-size: 11px; font-family: Arial, Helvetica; font-weight: normal;">104</textPath></text><text dy="0.5ex" class="label"><textPath xmlns:xlink="http://www.w3.org/1999/xlink" xlink:href="#path-4" startOffset="95%" text-anchor="end" style="font-size: 11px; font-family: Arial, Helvetica; font-weight: normal;">105</textPath></text><text dy="0.5ex" class="label"><textPath xmlns:xlink="http://www.w3.org/1999/xlink" xlink:href="#path-5" startOffset="5%" text-anchor="start" style="font-size: 11px; font-family: Arial, Helvetica; font-weight: normal;">201</textPath></text><text dy="0.5ex" class="label"><textPath xmlns:xlink="http://www.w3.org/1999/xlink" xlink:href="#path-6" startOffset="75%" text-anchor="middle" style="font-size: 11px; font-family: Arial, Helvetica; font-weight: normal;">203</textPath></text><text dy="0.5ex" class="label"><textPath xmlns:xlink="http://www.w3.org/1999/xlink" xlink:href="#path-7" startOffset="75%" text-anchor="middle" style="font-size: 11px; font-family: Arial, Helvetica; font-weight: normal;">301</textPath></text><text dy="0.5ex" class="label"><textPath xmlns:xlink="http://www.w3.org/1999/xlink" xlink:href="#path-8" startOffset="75%" text-anchor="middle" style="font-size: 11px; font-family: Arial, Helvetica; font-weight: normal;">302</textPath></text><text dy="0.5ex" class="label"><textPath xmlns:xlink="http://www.w3.org/1999/xlink" xlink:href="#path-9" startOffset="50%" text-anchor="middle" style="font-size: 11px; font-family: Arial, Helvetica; font-weight: normal;">303</textPath></text><text dy="0.5ex" class="label"><textPath xmlns:xlink="http://www.w3.org/1999/xlink" xlink:href="#path-10" startOffset="50%" text-anchor="middle" style="font-size: 11px; font-family: Arial, Helvetica; font-weight: normal;">304</textPath></text><text dy="0.5ex" class="label"><textPath xmlns:xlink="http://www.w3.org/1999/xlink" xlink:href="#path-11" startOffset="75%" text-anchor="middle" style="font-size: 11px; font-family: Arial, Helvetica; font-weight: normal;">305</textPath></text><text dy="0.5ex" class="label"><textPath xmlns:xlink="http://www.w3.org/1999/xlink" xlink:href="#path-12" startOffset="75%" text-anchor="middle" style="font-size: 11px; font-family: Arial, Helvetica; font-weight: normal;">306</textPath></text><text dy="0.5ex" class="label"><textPath xmlns:xlink="http://www.w3.org/1999/xlink" xlink:href="#path-13" startOffset="95%" text-anchor="end" style="font-size: 11px; font-family: Arial, Helvetica; font-weight: normal;">307</textPath></text><text dy="0.5ex" class="label"><textPath xmlns:xlink="http://www.w3.org/1999/xlink" xlink:href="#path-14" startOffset="50%" text-anchor="middle" style="font-size: 11px; font-family: Arial, Helvetica; font-weight: normal;">308</textPath></text><text dy="0.5ex" class="label"><textPath xmlns:xlink="http://www.w3.org/1999/xlink" xlink:href="#path-15" startOffset="95%" text-anchor="end" style="font-size: 11px; font-family: Arial, Helvetica; font-weight: normal;">309</textPath></text><text dy="0.5ex" class="label"><textPath xmlns:xlink="http://www.w3.org/1999/xlink" xlink:href="#path-16" startOffset="5%" text-anchor="start" style="font-size: 11px; font-family: Arial, Helvetica; font-weight: normal;">310</textPath></text><text dy="0.5ex" class="label"><textPath xmlns:xlink="http://www.w3.org/1999/xlink" xlink:href="#path-17" startOffset="50%" text-anchor="middle" style="font-size: 11px; font-family: Arial, Helvetica; font-weight: normal;">312</textPath></text><text dy="0.5ex" class="label"><textPath xmlns:xlink="http://www.w3.org/1999/xlink" xlink:href="#path-18" startOffset="75%" text-anchor="middle" style="font-size: 11px; font-family: Arial, Helvetica; font-weight: normal;">401</textPath></text><text dy="0.5ex" class="label"><textPath xmlns:xlink="http://www.w3.org/1999/xlink" xlink:href="#path-19" startOffset="50%" text-anchor="middle" style="font-size: 11px; font-family: Arial, Helvetica; font-weight: normal;">402</textPath></text><text dy="0.5ex" class="label"><textPath xmlns:xlink="http://www.w3.org/1999/xlink" xlink:href="#path-20" startOffset="50%" text-anchor="middle" style="font-size: 11px; font-family: Arial, Helvetica; font-weight: normal;">403</textPath></text><text dy="0.5ex" class="label"><textPath xmlns:xlink="http://www.w3.org/1999/xlink" xlink:href="#path-21" startOffset="95%" text-anchor="end" style="font-size: 11px; font-family: Arial, Helvetica; font-weight: normal;">404</textPath></text><text dy="0.5ex" class="label"><textPath xmlns:xlink="http://www.w3.org/1999/xlink" xlink:href="#path-22" startOffset="25%" text-anchor="middle" style="font-size: 11px; font-family: Arial, Helvetica; font-weight: normal;">405</textPath></text><text dy="0.5ex" class="label"><textPath xmlns:xlink="http://www.w3.org/1999/xlink" xlink:href="#path-23" startOffset="50%" text-anchor="middle" style="font-size: 11px; font-family: Arial, Helvetica; font-weight: normal;">406</textPath></text><text dy="0.5ex" class="label"><textPath xmlns:xlink="http://www.w3.org/1999/xlink" xlink:href="#path-24" startOffset="75%" text-anchor="middle" style="font-size: 11px; font-family: Arial, Helvetica; font-weight: normal;">407</textPath></text><text dy="0.5ex" class="label"><textPath xmlns:xlink="http://www.w3.org/1999/xlink" xlink:href="#path-25" startOffset="95%" text-anchor="end" style="font-size: 11px; font-family: Arial, Helvetica; font-weight: normal;">408</textPath></text><text dy="0.5ex" class="label"><textPath xmlns:xlink="http://www.w3.org/1999/xlink" xlink:href="#path-26" startOffset="75%" text-anchor="middle" style="font-size: 11px; font-family: Arial, Helvetica; font-weight: normal;">409</textPath></text><text dy="0.5ex" class="label"><textPath xmlns:xlink="http://www.w3.org/1999/xlink" xlink:href="#path-27" startOffset="95%" text-anchor="end" style="font-size: 11px; font-family: Arial, Helvetica; font-weight: normal;">410</textPath></text><text dy="0.5ex" class="label"><textPath xmlns:xlink="http://www.w3.org/1999/xlink" xlink:href="#path-28" startOffset="75%" text-anchor="middle" style="font-size: 11px; font-family: Arial, Helvetica; font-weight: normal;">411</textPath></text><text dy="0.5ex" class="label"><textPath xmlns:xlink="http://www.w3.org/1999/xlink" xlink:href="#path-29" startOffset="75%" text-anchor="middle" style="font-size: 11px; font-family: Arial, Helvetica; font-weight: normal;">412</textPath></text><text dy="0.5ex" class="label"><textPath xmlns:xlink="http://www.w3.org/1999/xlink" xlink:href="#path-30" startOffset="95%" text-anchor="end" style="font-size: 11px; font-family: Arial, Helvetica; font-weight: normal;">413</textPath></text><text dy="0.5ex" class="label"><textPath xmlns:xlink="http://www.w3.org/1999/xlink" xlink:href="#path-31" startOffset="75%" text-anchor="middle" style="font-size: 11px; font-family: Arial, Helvetica; font-weight: normal;">414</textPath></text><text dy="0.5ex" class="label"><textPath xmlns:xlink="http://www.w3.org/1999/xlink" xlink:href="#path-32" startOffset="50%" text-anchor="middle" style="font-size: 11px; font-family: Arial, Helvetica; font-weight: normal;">417</textPath></text><text dy="0.5ex" class="label"><textPath xmlns:xlink="http://www.w3.org/1999/xlink" xlink:href="#path-33" startOffset="95%" text-anchor="end" style="font-size: 11px; font-family: Arial, Helvetica; font-weight: normal;">418</textPath></text><text dy="0.5ex" class="label"><textPath xmlns:xlink="http://www.w3.org/1999/xlink" xlink:href="#path-34" startOffset="5%" text-anchor="start" style="font-size: 11px; font-family: Arial, Helvetica; font-weight: normal;">419</textPath></text><text dy="0.5ex" class="label"><textPath xmlns:xlink="http://www.w3.org/1999/xlink" xlink:href="#path-35" startOffset="95%" text-anchor="end" style="font-size: 11px; font-family: Arial, Helvetica; font-weight: normal;">602</textPath></text><text dy="0.5ex" class="label"><textPath xmlns:xlink="http://www.w3.org/1999/xlink" xlink:href="#path-36" startOffset="5%" text-anchor="start" style="font-size: 11px; font-family: Arial, Helvetica; font-weight: normal;">603</textPath></text><text dy="0.5ex" class="label"><textPath xmlns:xlink="http://www.w3.org/1999/xlink" xlink:href="#path-37" startOffset="50%" text-anchor="middle" style="font-size: 11px; font-family: Arial, Helvetica; font-weight: normal;">604</textPath></text><text dy="0.5ex" class="label"><textPath xmlns:xlink="http://www.w3.org/1999/xlink" xlink:href="#path-38" startOffset="95%" text-anchor="end" style="font-size: 11px; font-family: Arial, Helvetica; font-weight: normal;">606</textPath></text><text dy="0.5ex" class="label"><textPath xmlns:xlink="http://www.w3.org/1999/xlink" xlink:href="#path-39" startOffset="95%" text-anchor="end" style="font-size: 11px; font-family: Arial, Helvetica; font-weight: normal;">701</textPath></text><text dy="0.5ex" class="label"><textPath xmlns:xlink="http://www.w3.org/1999/xlink" xlink:href="#path-40" startOffset="95%" text-anchor="end" style="font-size: 11px; font-family: Arial, Helvetica; font-weight: normal;">702</textPath></text><text dy="0.5ex" class="label"><textPath xmlns:xlink="http://www.w3.org/1999/xlink" xlink:href="#path-41" startOffset="50%" text-anchor="middle" style="font-size: 11px; font-family: Arial, Helvetica; font-weight: normal;">703</textPath></text><text dy="0.5ex" class="label"><textPath xmlns:xlink="http://www.w3.org/1999/xlink" xlink:href="#path-42" startOffset="5%" text-anchor="start" style="font-size: 11px; font-family: Arial, Helvetica; font-weight: normal;">704</textPath></text><text dy="0.5ex" class="label"><textPath xmlns:xlink="http://www.w3.org/1999/xlink" xlink:href="#path-43" startOffset="25%" text-anchor="middle" style="font-size: 11px; font-family: Arial, Helvetica; font-weight: normal;">705</textPath></text><text dy="0.5ex" class="label"><textPath xmlns:xlink="http://www.w3.org/1999/xlink" xlink:href="#path-44" startOffset="25%" text-anchor="middle" style="font-size: 11px; font-family: Arial, Helvetica; font-weight: normal;">706</textPath></text><text dy="0.5ex" class="label"><textPath xmlns:xlink="http://www.w3.org/1999/xlink" xlink:href="#path-45" startOffset="95%" text-anchor="end" style="font-size: 11px; font-family: Arial, Helvetica; font-weight: normal;">707</textPath></text><text dy="0.5ex" class="label"><textPath xmlns:xlink="http://www.w3.org/1999/xlink" xlink:href="#path-46" startOffset="75%" text-anchor="middle" style="font-size: 11px; font-family: Arial, Helvetica; font-weight: normal;">708</textPath></text><text dy="0.5ex" class="label"><textPath xmlns:xlink="http://www.w3.org/1999/xlink" xlink:href="#path-47" startOffset="95%" text-anchor="end" style="font-size: 11px; font-family: Arial, Helvetica; font-weight: normal;">709</textPath></text><text dy="0.5ex" class="label"><textPath xmlns:xlink="http://www.w3.org/1999/xlink" xlink:href="#path-48" startOffset="75%" text-anchor="middle" style="font-size: 11px; font-family: Arial, Helvetica; font-weight: normal;">710</textPath></text><text dy="0.5ex" class="label"><textPath xmlns:xlink="http://www.w3.org/1999/xlink" xlink:href="#path-49" startOffset="75%" text-anchor="middle" style="font-size: 11px; font-family: Arial, Helvetica; font-weight: normal;">711</textPath></text><text dy="0.5ex" class="label"><textPath xmlns:xlink="http://www.w3.org/1999/xlink" xlink:href="#path-50" startOffset="95%" text-anchor="end" style="font-size: 11px; font-family: Arial, Helvetica; font-weight: normal;">712</textPath></text><text dy="0.5ex" class="label"><textPath xmlns:xlink="http://www.w3.org/1999/xlink" xlink:href="#path-51" startOffset="75%" text-anchor="middle" style="font-size: 11px; font-family: Arial, Helvetica; font-weight: normal;">717</textPath></text><text dy="0.5ex" class="label"><textPath xmlns:xlink="http://www.w3.org/1999/xlink" xlink:href="#path-52" startOffset="95%" text-anchor="end" style="font-size: 11px; font-family: Arial, Helvetica; font-weight: normal;">718</textPath></text><text dy="0.5ex" class="label"><textPath xmlns:xlink="http://www.w3.org/1999/xlink" xlink:href="#path-53" startOffset="25%" text-anchor="middle" style="font-size: 11px; font-family: Arial, Helvetica; font-weight: normal;">719</textPath></text><text dy="0.5ex" class="label"><textPath xmlns:xlink="http://www.w3.org/1999/xlink" xlink:href="#path-54" startOffset="95%" text-anchor="end" style="font-size: 11px; font-family: Arial, Helvetica; font-weight: normal;">720</textPath></text><text dy="0.5ex" class="label"><textPath xmlns:xlink="http://www.w3.org/1999/xlink" xlink:href="#path-55" startOffset="75%" text-anchor="middle" style="font-size: 11px; font-family: Arial, Helvetica; font-weight: normal;">721</textPath></text></g></svg>