<svg width="847" height="542" xmlns="http://www.w3.org/2000/svg" version="1.1"><g><g class="x axis" transform="translate(0,522)" style="stroke-width: 1px; font-size: 10px; font-family: Arial, Helvetica; display: block;"><g class="tick" transform="translate(0,0)" style="opacity: 1;"><line y2="-522" x2="0" style="shape-rendering: crispEdges; fill: none; stroke: rgb(204, 204, 204);"></line><text dy=".71em" y="3" x="0" style="text-anchor: middle;">2010</text></g><g class="tick" transform="translate(169.30722891566265,0)" style="opacity: 1;"><line y2="-522" x2="0" style="shape-rendering: crispEdges; fill: none; stroke: rgb(204, 204, 204);"></line><text dy=".71em" y="3" x="0" style="text-anchor: middle;">2011</text></g><g class="tick" transform="translate(338.6144578313253,0)" style="opacity: 1;"><line y2="-522" x2="0" style="shape-rendering: crispEdges; fill: none; stroke: rgb(204, 204, 204);"></line><text dy=".71em" y="3" x="0" style="text-anchor: middle;">2012</text></g><g class="tick" transform="translate(508.3855421686747,0)" style="opacity: 1;"><line y2="-522" x2="0" style="shape-rendering: crispEdges; fill: none; stroke: rgb(204, 204, 204);"></line><text dy=".71em" y="3" x="0" style="text-anchor: middle;">2013</text></g><g class="tick" transform="translate(677.6927710843374,0)" style="opacity: 1;"><line y2="-522" x2="0" style="shape-rendering: crispEdges; fill: none; stroke: rgb(204, 204, 204);"></line><text dy=".71em" y="3" x="0" style="text-anchor: middle;">2014</text></g><g class="tick" transform="translate(847,0)" style="opacity: 1;"><line y2="-522" x2="0" style="shape-rendering: crispEdges; fill: none; stroke: rgb(204, 204, 204);"></line><text dy=".71em" y="3" x="0" style="text-anchor: middle;">2015</text></g><path class="domain" d="M0,-522V0H847V-522" style="shape-rendering: crispEdges; fill: none; stroke: rgb(204, 204, 204);"></path></g><path class="layer" d="M0,444.8661907019568C84.65361445783132,444.8661907019568 84.65361445783132,451.0797991493052 169.30722891566265,451.0797991493052C253.96084337349396,451.0797991493052 253.96084337349396,472.9224282533172 338.6144578313253,472.9224282533172C423.5,472.9224282533172 423.5,497.8303202045275 508.3855421686747,497.8303202045275C593.039156626506,497.8303202045275 593.039156626506,518.0794197524231 677.6927710843374,518.0794197524231C762.3463855421687,518.0794197524231 762.3463855421687,480.6876588829658 847,480.6876588829658L847,485.0186387974072C762.3463855421687,485.0186387974072 762.3463855421687,522 677.6927710843374,522C593.039156626506,522 593.039156626506,502.059950846708 508.3855421686747,502.059950846708C423.5,502.059950846708 423.5,476.40165260031824 338.6144578313253,476.40165260031824C253.96084337349396,476.40165260031824 253.96084337349396,453.4840447077536 169.30722891566265,453.4840447077536C84.65361445783132,453.4840447077536 84.65361445783132,447.85185054254504 0,447.85185054254504Z" title="Alaba" style="fill-opacity: 0.9; fill: rgb(191, 105, 105);"></path><path class="layer" d="M0,74.14814945745498C84.65361445783132,74.14814945745498 84.65361445783132,68.51595529224642 169.30722891566265,68.51595529224642C253.96084337349396,68.51595529224642 253.96084337349396,98.9439100876523 338.6144578313253,98.9439100876523C423.5,98.9439100876523 423.5,19.940049153291973 508.3855421686747,19.940049153291973C593.039156626506,19.940049153291973 593.039156626506,0 677.6927710843374,0C762.3463855421687,0 762.3463855421687,32.201974425633935 847,32.201974425633935L847,88.46544457047834C762.3463855421687,88.46544457047834 762.3463855421687,66.66490379252114 677.6927710843374,66.66490379252114C593.039156626506,66.66490379252114 593.039156626506,83.13401899739857 508.3855421686747,83.13401899739857C423.5,83.13401899739857 423.5,151.7881627996983 338.6144578313253,151.7881627996983C253.96084337349396,151.7881627996983 253.96084337349396,122.79266536905318 169.30722891566265,122.79266536905318C84.65361445783132,122.79266536905318 84.65361445783132,120.89159792072981 0,120.89159792072981Z" title="Arsi" style="fill-opacity: 0.9; fill: rgb(191, 125, 105);"></path><path class="layer" d="M0,435.2401835628429C84.65361445783132,435.2401835628429 84.65361445783132,436.6865147643525 169.30722891566265,436.6865147643525C253.96084337349396,436.6865147643525 253.96084337349396,476.95797581241305 338.6144578313253,476.95797581241305C423.5,476.95797581241305 423.5,492.97186201516763 508.3855421686747,492.97186201516763C593.039156626506,492.97186201516763 593.039156626506,512.8064571378465 677.6927710843374,512.8064571378465C762.3463855421687,512.8064571378465 762.3463855421687,485.57496200950203 847,485.57496200950203L847,489.7980255743661C762.3463855421687,489.7980255743661 762.3463855421687,517.5230965403282 677.6927710843374,517.5230965403282C593.039156626506,517.5230965403282 593.039156626506,497.27399699243267 508.3855421686747,497.27399699243267C423.5,497.27399699243267 423.5,479.97744357504826 338.6144578313253,479.97744357504826C253.96084337349396,479.97744357504826 253.96084337349396,441.51894576408375 169.30722891566265,441.51894576408375C84.65361445783132,441.51894576408375 84.65361445783132,440.26585669549235 0,440.26585669549235Z" title="Awi" style="fill-opacity: 0.9; fill: rgb(191, 145, 105);"></path><path class="layer" d="M0,121.44792113282462C84.65361445783132,121.44792113282462 84.65361445783132,123.34898858114799 169.30722891566265,123.34898858114799C253.96084337349396,123.34898858114799 253.96084337349396,42.02255642495179 338.6144578313253,42.02255642495179C423.5,42.02255642495179 423.5,83.69034220949338 508.3855421686747,83.69034220949338C593.039156626506,83.69034220949338 593.039156626506,67.22122700461595 677.6927710843374,67.22122700461595C762.3463855421687,67.22122700461595 762.3463855421687,89.02176778257316 847,89.02176778257316L847,143.7763964204866C762.3463855421687,143.7763964204866 762.3463855421687,130.103632821708 677.6927710843374,130.103632821708C593.039156626506,130.103632821708 593.039156626506,143.52701257994735 508.3855421686747,143.52701257994735C423.5,143.52701257994735 423.5,98.38758687555749 338.6144578313253,98.38758687555749C253.96084337349396,98.38758687555749 253.96084337349396,165.35901457371395 169.30722891566265,165.35901457371395C84.65361445783132,165.35901457371395 84.65361445783132,166.0655618669939 0,166.0655618669939Z" title="Bale" style="fill-opacity: 0.9; fill: rgb(191, 164, 105);"></path><path class="layer" d="M0,166.6218850790887C84.65361445783132,166.6218850790887 84.65361445783132,230.12140856674372 169.30722891566265,230.12140856674372C253.96084337349396,230.12140856674372 253.96084337349396,226.22330687505584 338.6144578313253,226.22330687505584C423.5,226.22330687505584 423.5,227.43345426553373 508.3855421686747,227.43345426553373C593.039156626506,227.43345426553373 593.039156626506,220.14663736634597 677.6927710843374,220.14663736634597C762.3463855421687,220.14663736634597 762.3463855421687,256.93405244185425 847,256.93405244185425L847,283.36531824589764C762.3463855421687,283.36531824589764 762.3463855421687,258.99224725610964 677.6927710843374,258.99224725610964C593.039156626506,258.99224725610964 593.039156626506,259.5634250327764 508.3855421686747,259.5634250327764C423.5,259.5634250327764 423.5,256.40831396932896 338.6144578313253,256.40831396932896C253.96084337349396,256.40831396932896 253.96084337349396,252.92189883061738 169.30722891566265,252.92189883061738C84.65361445783132,252.92189883061738 84.65361445783132,195.64515574752443 0,195.64515574752443Z" title="Bottom 30 Zones" style="fill-opacity: 0.9; fill: rgb(191, 184, 105);"></path><path class="layer" d="M0,395.5123774189952C84.65361445783132,395.5123774189952 84.65361445783132,413.1210839024119 169.30722891566265,413.1210839024119C253.96084337349396,413.1210839024119 253.96084337349396,426.8145965224819 338.6144578313253,426.8145965224819C423.5,426.8145965224819 423.5,460.1163842312654 508.3855421686747,460.1163842312654C593.039156626506,460.1163842312654 593.039156626506,483.76360839087664 677.6927710843374,483.76360839087664C762.3463855421687,483.76360839087664 762.3463855421687,443.6179651142285 847,443.6179651142285L847,450.3442712144647C762.3463855421687,450.3442712144647 762.3463855421687,491.7922072403208 677.6927710843374,491.7922072403208C593.039156626506,491.7922072403208 593.039156626506,467.80009969218014 508.3855421686747,467.80009969218014C423.5,467.80009969218014 423.5,434.6793366666786 338.6144578313253,434.6793366666786C253.96084337349396,434.6793366666786 253.96084337349396,418.7524025872397 169.30722891566265,418.7524025872397C84.65361445783132,418.7524025872397 84.65361445783132,402.6568759517537 0,402.6568759517537Z" title="Central Tigray" style="fill-opacity: 0.9; fill: rgb(178, 191, 105);"></path><path class="layer" d="M0,254.19137658521439C84.65361445783132,254.19137658521439 84.65361445783132,331.80951915429193 169.30722891566265,331.80951915429193C253.96084337349396,331.80951915429193 253.96084337349396,299.61035225432187 338.6144578313253,299.61035225432187C423.5,299.61035225432187 423.5,306.4052752347131 508.3855421686747,306.4052752347131C593.039156626506,306.4052752347131 593.039156626506,287.0283452489572 677.6927710843374,287.0283452489572C762.3463855421687,287.0283452489572 762.3463855421687,283.92164145799245 847,283.92164145799245L847,307.308601638409C762.3463855421687,307.308601638409 762.3463855421687,309.4231621853967 677.6927710843374,309.4231621853967C593.039156626506,309.4231621853967 593.039156626506,325.66126893326566 508.3855421686747,325.66126893326566C423.5,325.66126893326566 423.5,315.9640429507034 338.6144578313253,315.9640429507034C253.96084337349396,315.9640429507034 253.96084337349396,343.4381385620293 169.30722891566265,343.4381385620293C84.65361445783132,343.4381385620293 84.65361445783132,271.38467284714613 0,271.38467284714613Z" title="East Gojjam" style="fill-opacity: 0.9; fill: rgb(158, 191, 105);"></path><path class="layer" d="M0,287.0301171706758C84.65361445783132,287.0301171706758 84.65361445783132,253.4782220427122 169.30722891566265,253.4782220427122C253.96084337349396,253.4782220427122 253.96084337349396,256.9646371814238 338.6144578313253,256.9646371814238C423.5,256.9646371814238 423.5,260.1197482448713 508.3855421686747,260.1197482448713C593.039156626506,260.1197482448713 593.039156626506,259.54857046820445 677.6927710843374,259.54857046820445C762.3463855421687,259.54857046820445 762.3463855421687,224.57676706399207 847,224.57676706399207L847,256.37772922975944C762.3463855421687,256.37772922975944 762.3463855421687,286.47202203686237 677.6927710843374,286.47202203686237C593.039156626506,286.47202203686237 593.039156626506,283.7744506554201 508.3855421686747,283.7744506554201C423.5,283.7744506554201 423.5,280.8558903225904 338.6144578313253,280.8558903225904C253.96084337349396,280.8558903225904 253.96084337349396,274.62772041148935 169.30722891566265,274.62772041148935C84.65361445783132,274.62772041148935 84.65361445783132,301.53812643555796 0,301.53812643555796Z" title="East Shewa" style="fill-opacity: 0.9; fill: rgb(138, 191, 105);"></path><path class="layer" d="M0,350.54292298600313C84.65361445783132,350.54292298600313 84.65361445783132,355.58940200177204 169.30722891566265,355.58940200177204C253.96084337349396,355.58940200177204 253.96084337349396,406.0760828891912 338.6144578313253,406.0760828891912C423.5,406.0760828891912 423.5,442.52749409373615 508.3855421686747,442.52749409373615C593.039156626506,442.52749409373615 593.039156626506,443.6213071994432 677.6927710843374,443.6213071994432C762.3463855421687,443.6213071994432 762.3463855421687,425.7485374565501 847,425.7485374565501L847,434.5127244335628C762.3463855421687,434.5127244335628 762.3463855421687,454.4921917432135 677.6927710843374,454.4921917432135C593.039156626506,454.4921917432135 593.039156626506,451.2093115379936 508.3855421686747,451.2093115379936C423.5,451.2093115379936 423.5,416.0551941036618 338.6144578313253,416.0551941036618C253.96084337349396,416.0551941036618 253.96084337349396,365.9859281732031 169.30722891566265,365.9859281732031C84.65361445783132,365.9859281732031 84.65361445783132,359.62057290181247 0,359.62057290181247Z" title="Eastern Tigray" style="fill-opacity: 0.9; fill: rgb(118, 191, 105);"></path><path class="layer" d="M0,440.82217990758716C84.65361445783132,440.82217990758716 84.65361445783132,419.3087257993345 169.30722891566265,419.3087257993345C253.96084337349396,419.3087257993345 253.96084337349396,449.04378352569245 338.6144578313253,449.04378352569245C423.5,449.04378352569245 423.5,481.9394973526079 508.3855421686747,481.9394973526079C593.039156626506,481.9394973526079 593.039156626506,393.3622106467998 677.6927710843374,393.3622106467998C762.3463855421687,393.3622106467998 762.3463855421687,450.9005944265595 847,450.9005944265595L847,457.1751353185801C762.3463855421687,457.1751353185801 762.3463855421687,406.73062741859457 677.6927710843374,406.73062741859457C593.039156626506,406.73062741859457 593.039156626506,487.00004915763293 508.3855421686747,487.00004915763293C423.5,487.00004915763293 423.5,454.6900095500458 338.6144578313253,454.6900095500458C253.96084337349396,454.6900095500458 253.96084337349396,424.7341821220695 169.30722891566265,424.7341821220695C84.65361445783132,424.7341821220695 84.65361445783132,444.309867489862 0,444.309867489862Z" title="Gurage" style="fill-opacity: 0.9; fill: rgb(105, 191, 112);"></path><path class="layer" d="M0,369.6673957016871C84.65361445783132,369.6673957016871 84.65361445783132,343.99446177412415 169.30722891566265,343.99446177412415C253.96084337349396,343.99446177412415 253.96084337349396,331.56294795583904 338.6144578313253,331.56294795583904C423.5,331.56294795583904 423.5,409.9314696861553 508.3855421686747,409.9314696861553C593.039156626506,409.9314696861553 593.039156626506,420.0622860634337 677.6927710843374,420.0622860634337C762.3463855421687,420.0622860634337 762.3463855421687,415.8816415485515 847,415.8816415485515L847,425.19221424445533C762.3463855421687,425.19221424445533 762.3463855421687,431.5275830687351 677.6927710843374,431.5275830687351C593.039156626506,431.5275830687351 593.039156626506,420.96080807652106 508.3855421686747,420.96080807652106C423.5,420.96080807652106 423.5,345.16567450823015 338.6144578313253,345.16567450823015C253.96084337349396,345.16567450823015 253.96084337349396,355.03307878967723 169.30722891566265,355.03307878967723C84.65361445783132,355.03307878967723 84.65361445783132,378.5729225580873 0,378.5729225580873Z" title="Hadiya" style="fill-opacity: 0.9; fill: rgb(105, 191, 131);"></path><path class="layer" d="M0,387.45590942299896C84.65361445783132,387.45590942299896 84.65361445783132,431.11699363342166 169.30722891566265,431.11699363342166C253.96084337349396,431.11699363342166 253.96084337349396,461.37390187940036 338.6144578313253,461.37390187940036C423.5,461.37390187940036 423.5,487.5563723697278 508.3855421686747,487.5563723697278C593.039156626506,487.5563723697278 593.039156626506,499.8437402255335 677.6927710843374,499.8437402255335C762.3463855421687,499.8437402255335 762.3463855421687,469.850177403026 847,469.850177403026L847,474.88895923032914C762.3463855421687,474.88895923032914 762.3463855421687,506.73158305598446 677.6927710843374,506.73158305598446C593.039156626506,506.73158305598446 593.039156626506,492.4155388030728 508.3855421686747,492.4155388030728C423.5,492.4155388030728 423.5,466.6996942078279 338.6144578313253,466.6996942078279C253.96084337349396,466.6996942078279 253.96084337349396,436.1301915522577 169.30722891566265,436.1301915522577C84.65361445783132,436.1301915522577 84.65361445783132,394.9560542069004 0,394.9560542069004Z" title="Horo Gudru Wellega" style="fill-opacity: 0.9; fill: rgb(105, 191, 151);"></path><path class="layer" d="M0,429.38845890987744C84.65361445783132,429.38845890987744 84.65361445783132,446.89613561845283 169.30722891566265,446.89613561845283C253.96084337349396,446.89613561845283 253.96084337349396,442.2314248377615 338.6144578313253,442.2314248377615C423.5,442.2314248377615 423.5,475.66785948848405 508.3855421686747,475.66785948848405C593.039156626506,475.66785948848405 593.039156626506,507.28790626807927 677.6927710843374,507.28790626807927C762.3463855421687,507.28790626807927 762.3463855421687,475.44528244242395 847,475.44528244242395L847,480.131335670871C762.3463855421687,480.131335670871 762.3463855421687,512.2501339257517 677.6927710843374,512.2501339257517C593.039156626506,512.2501339257517 593.039156626506,481.38317414051306 508.3855421686747,481.38317414051306C423.5,481.38317414051306 423.5,448.48746031359764 338.6144578313253,448.48746031359764C253.96084337349396,448.48746031359764 253.96084337349396,450.5234759372104 169.30722891566265,450.5234759372104C84.65361445783132,450.5234759372104 84.65361445783132,434.68386035074803 0,434.68386035074803Z" title="Jimma" style="fill-opacity: 0.9; fill: rgb(105, 191, 171);"></path><path class="layer" d="M0,416.853662426617C84.65361445783132,416.853662426617 84.65361445783132,405.2136931907146 169.30722891566265,405.2136931907146C253.96084337349396,405.2136931907146 253.96084337349396,435.2356598787734 338.6144578313253,435.2356598787734C423.5,435.2356598787734 423.5,451.7656347500884 508.3855421686747,451.7656347500884C593.039156626506,451.7656347500884 593.039156626506,465.6907758014078 677.6927710843374,465.6907758014078C762.3463855421687,465.6907758014078 762.3463855421687,457.7314585306749 847,457.7314585306749L847,463.43994446008486C762.3463855421687,463.43994446008486 762.3463855421687,474.3438344384127 677.6927710843374,474.3438344384127C593.039156626506,474.3438344384127 593.039156626506,459.5600610191706 508.3855421686747,459.5600610191706C423.5,459.5600610191706 423.5,441.6751016256667 338.6144578313253,441.6751016256667C253.96084337349396,441.6751016256667 253.96084337349396,412.5647606903171 169.30722891566265,412.5647606903171C84.65361445783132,412.5647606903171 84.65361445783132,422.6655532330253 0,422.6655532330253Z" title="Kembata Timbaro" style="fill-opacity: 0.9; fill: rgb(105, 191, 191);"></path><path class="layer" d="M0,329.9874412398481C84.65361445783132,329.9874412398481 84.65361445783132,319.4641610775654 169.30722891566265,319.4641610775654C253.96084337349396,319.4641610775654 253.96084337349396,372.0038353205126 338.6144578313253,372.0038353205126C423.5,372.0038353205126 423.5,371.77306411779045 508.3855421686747,371.77306411779045C593.039156626506,371.77306411779045 593.039156626506,379.33471234791773 677.6927710843374,379.33471234791773C762.3463855421687,379.33471234791773 762.3463855421687,394.96248085933587 847,394.96248085933587L847,405.0048381166132C762.3463855421687,405.0048381166132 762.3463855421687,392.80588743470497 677.6927710843374,392.80588743470497C593.039156626506,392.80588743470497 593.039156626506,384.75646636951194 508.3855421686747,384.75646636951194C423.5,384.75646636951194 423.5,383.5708296393814 338.6144578313253,383.5708296393814C253.96084337349396,383.5708296393814 253.96084337349396,331.2531959421971 169.30722891566265,331.2531959421971C84.65361445783132,331.2531959421971 84.65361445783132,340.0711827443219 0,340.0711827443219Z" title="North Gondar" style="fill-opacity: 0.9; fill: rgb(105, 171, 191);"></path><path class="layer" d="M0,196.20147895961927C84.65361445783132,196.20147895961927 84.65361445783132,203.19860027948957 169.30722891566265,203.19860027948957C253.96084337349396,203.19860027948957 253.96084337349396,194.70940616250226 338.6144578313253,194.70940616250226C423.5,194.70940616250226 423.5,187.9543255341021 508.3855421686747,187.9543255341021C593.039156626506,187.9543255341021 593.039156626506,177.17077853648178 677.6927710843374,177.17077853648178C762.3463855421687,177.17077853648178 762.3463855421687,186.44927261965853 847,186.44927261965853L847,224.02044385189726C762.3463855421687,224.02044385189726 762.3463855421687,219.59031415425113 677.6927710843374,219.59031415425113C593.039156626506,219.59031415425113 593.039156626506,226.87713105343892 508.3855421686747,226.87713105343892C423.5,226.87713105343892 423.5,225.66698366296103 338.6144578313253,225.66698366296103C253.96084337349396,225.66698366296103 253.96084337349396,229.56508535464891 169.30722891566265,229.56508535464891C84.65361445783132,229.56508535464891 84.65361445783132,225.16860274310542 0,225.16860274310542Z" title="North Shewa" style="fill-opacity: 0.9; fill: rgb(105, 151, 191);"></path><path class="layer" d="M0,423.22187644512013C84.65361445783132,423.22187644512013 84.65361445783132,442.07526897617856 169.30722891566265,442.07526897617856C253.96084337349396,442.07526897617856 253.96084337349396,455.2463327621406 338.6144578313253,455.2463327621406C423.5,455.2463327621406 423.5,432.5364035789285 508.3855421686747,432.5364035789285C593.039156626506,432.5364035789285 593.039156626506,474.90015765050754 677.6927710843374,474.90015765050754C762.3463855421687,474.90015765050754 762.3463855421687,463.9962676721797 847,463.9962676721797L847,469.2938541909312C762.3463855421687,469.2938541909312 762.3463855421687,483.20728517878183 677.6927710843374,483.20728517878183C593.039156626506,483.20728517878183 593.039156626506,441.97117088164134 508.3855421686747,441.97117088164134C423.5,441.97117088164134 423.5,460.81757866730555 338.6144578313253,460.81757866730555C253.96084337349396,460.81757866730555 253.96084337349396,446.339812406358 169.30722891566265,446.339812406358C84.65361445783132,446.339812406358 84.65361445783132,428.8321356977825 0,428.8321356977825Z" title="North Wollo" style="fill-opacity: 0.9; fill: rgb(105, 131, 191);"></path><path class="layer" d="M0,403.2131991638485C84.65361445783132,403.2131991638485 84.65361445783132,396.0930634713078 169.30722891566265,396.0930634713078C253.96084337349396,396.0930634713078 253.96084337349396,395.1787833982396 338.6144578313253,395.1787833982396C423.5,395.1787833982396 423.5,421.51713128861593 508.3855421686747,421.51713128861593C593.039156626506,421.51713128861593 593.039156626506,455.04851495530824 677.6927710843374,455.04851495530824C762.3463855421687,455.04851495530824 762.3463855421687,405.561161328708 847,405.561161328708L847,415.32531833645663C762.3463855421687,415.32531833645663 762.3463855421687,465.134452589313 677.6927710843374,465.134452589313C593.039156626506,465.134452589313 593.039156626506,431.9800803668337 508.3855421686747,431.9800803668337C423.5,431.9800803668337 423.5,405.5197596770964 338.6144578313253,405.5197596770964C253.96084337349396,405.5197596770964 253.96084337349396,404.6573699786198 169.30722891566265,404.6573699786198C84.65361445783132,404.6573699786198 84.65361445783132,409.6465018602632 0,409.6465018602632Z" title="Siliti" style="fill-opacity: 0.9; fill: rgb(105, 112, 191);"></path><path class="layer" d="M0,316.19668117019745C84.65361445783132,316.19668117019745 84.65361445783132,275.1840436235842 169.30722891566265,275.1840436235842C253.96084337349396,275.1840436235842 253.96084337349396,316.52036616279827 338.6144578313253,316.52036616279827C423.5,316.52036616279827 423.5,357.48756052125873 508.3855421686747,357.48756052125873C593.039156626506,357.48756052125873 593.039156626506,332.01341554827263 677.6927710843374,332.01341554827263C762.3463855421687,332.01341554827263 762.3463855421687,344.45708180551145 847,344.45708180551145L847,359.2607346871306C762.3463855421687,359.2607346871306 762.3463855421687,348.05019969436563 677.6927710843374,348.05019969436563C593.039156626506,348.05019969436563 593.039156626506,371.2167409056957 508.3855421686747,371.2167409056957C423.5,371.2167409056957 423.5,331.0066247437441 338.6144578313253,331.0066247437441C253.96084337349396,331.0066247437441 253.96084337349396,290.47655469308415 169.30722891566265,290.47655469308415C84.65361445783132,290.47655469308415 84.65361445783132,329.43111802775326 0,329.43111802775326Z" title="South Gonder" style="fill-opacity: 0.9; fill: rgb(118, 105, 191);"></path><path class="layer" d="M0,302.0944496476528C84.65361445783132,302.0944496476528 84.65361445783132,305.3909705622171 169.30722891566265,305.3909705622171C253.96084337349396,305.3909705622171 253.96084337349396,345.72199772032496 338.6144578313253,345.72199772032496C423.5,345.72199772032496 423.5,342.3710354057317 508.3855421686747,342.3710354057317C593.039156626506,342.3710354057317 593.039156626506,407.2869506306894 677.6927710843374,407.2869506306894C762.3463855421687,407.2869506306894 762.3463855421687,384.36274595376204 847,384.36274595376204L847,394.40615764724106C762.3463855421687,394.40615764724106 762.3463855421687,419.5059628513389 677.6927710843374,419.5059628513389C593.039156626506,419.5059628513389 593.039156626506,356.93123730916386 508.3855421686747,356.93123730916386C423.5,356.93123730916386 423.5,358.7357403939345 338.6144578313253,358.7357403939345C253.96084337349396,358.7357403939345 253.96084337349396,318.90783786547064 169.30722891566265,318.90783786547064C84.65361445783132,318.90783786547064 84.65361445783132,315.6403579581027 0,315.6403579581027Z" title="South Tigray" style="fill-opacity: 0.9; fill: rgb(138, 105, 191);"></path><path class="layer" d="M0,271.94099605924094C84.65361445783132,271.94099605924094 84.65361445783132,291.032877905179 169.30722891566265,291.032877905179C253.96084337349396,291.032877905179 253.96084337349396,281.4122135346852 338.6144578313253,281.4122135346852C423.5,281.4122135346852 423.5,284.3307738675149 508.3855421686747,284.3307738675149C593.039156626506,284.3307738675149 593.039156626506,309.9794853974915 677.6927710843374,309.9794853974915C762.3463855421687,309.9794853974915 762.3463855421687,307.86492485050394 847,307.86492485050394L847,328.45158889859243C762.3463855421687,328.45158889859243 762.3463855421687,331.45709233617777 677.6927710843374,331.45709233617777C593.039156626506,331.45709233617777 593.039156626506,305.8489520226183 508.3855421686747,305.8489520226183C423.5,305.8489520226183 423.5,299.054029042227 338.6144578313253,299.054029042227C253.96084337349396,299.054029042227 253.96084337349396,304.8346473501223 169.30722891566265,304.8346473501223C84.65361445783132,304.8346473501223 84.65361445783132,286.47379395858087 0,286.47379395858087Z" title="South West Shewa" style="fill-opacity: 0.9; fill: rgb(158, 105, 191);"></path><path class="layer" d="M0,360.1768961139073C84.65361445783132,360.1768961139073 84.65361445783132,376.5805559575704 169.30722891566265,376.5805559575704C253.96084337349396,376.5805559575704 253.96084337349396,416.6115173157566 338.6144578313253,416.6115173157566C423.5,416.6115173157566 423.5,326.2175921453605 508.3855421686747,326.2175921453605C593.039156626506,326.2175921453605 593.039156626506,364.2358295896425 677.6927710843374,364.2358295896425C762.3463855421687,364.2358295896425 762.3463855421687,329.00791211068724 847,329.00791211068724L847,343.9007585934166C762.3463855421687,343.9007585934166 762.3463855421687,378.7783891358229 677.6927710843374,378.7783891358229C593.039156626506,378.7783891358229 593.039156626506,341.81471219363686 508.3855421686747,341.81471219363686C423.5,341.81471219363686 423.5,426.2582733103871 338.6144578313253,426.2582733103871C253.96084337349396,426.2582733103871 253.96084337349396,385.9152865200863 169.30722891566265,385.9152865200863C84.65361445783132,385.9152865200863 84.65361445783132,369.1110724895923 0,369.1110724895923Z" title="South Wolo" style="fill-opacity: 0.9; fill: rgb(178, 105, 191);"></path><path class="layer" d="M0,225.72492595520032C84.65361445783132,225.72492595520032 84.65361445783132,165.9153377858088 169.30722891566265,165.9153377858088C253.96084337349396,165.9153377858088 253.96084337349396,152.3444860117932 338.6144578313253,152.3444860117932C423.5,152.3444860117932 423.5,144.08333579204216 508.3855421686747,144.08333579204216C593.039156626506,144.08333579204216 593.039156626506,130.6599560338028 677.6927710843374,130.6599560338028C762.3463855421687,130.6599560338028 762.3463855421687,144.33271963258144 847,144.33271963258144L847,185.8929494075637C762.3463855421687,185.8929494075637 762.3463855421687,176.61445532438694 677.6927710843374,176.61445532438694C593.039156626506,176.61445532438694 593.039156626506,187.3980023220073 508.3855421686747,187.3980023220073C423.5,187.3980023220073 423.5,194.15308295040745 338.6144578313253,194.15308295040745C253.96084337349396,194.15308295040745 253.96084337349396,202.64227706739476 169.30722891566265,202.64227706739476C84.65361445783132,202.64227706739476 84.65361445783132,253.63505337311958 0,253.63505337311958Z" title="West Arsi" style="fill-opacity: 0.9; fill: rgb(191, 105, 184);"></path><path class="layer" d="M0,410.202825072358C84.65361445783132,410.202825072358 84.65361445783132,425.2905053341643 169.30722891566265,425.2905053341643C253.96084337349396,425.2905053341643 253.96084337349396,467.25601741992267 338.6144578313253,467.25601741992267C423.5,467.25601741992267 423.5,468.35642290427495 508.3855421686747,468.35642290427495C593.039156626506,468.35642290427495 593.039156626506,492.3485304524157 677.6927710843374,492.3485304524157C762.3463855421687,492.3485304524157 762.3463855421687,435.06904764565763 847,435.06904764565763L847,443.0616419021337C762.3463855421687,443.0616419021337 762.3463855421687,499.28741701343864 677.6927710843374,499.28741701343864C593.039156626506,499.28741701343864 593.039156626506,475.11153627638924 508.3855421686747,475.11153627638924C423.5,475.11153627638924 423.5,472.3661050412224 338.6144578313253,472.3661050412224C253.96084337349396,472.3661050412224 253.96084337349396,430.56067042132685 169.30722891566265,430.56067042132685C84.65361445783132,430.56067042132685 84.65361445783132,416.29733921452214 0,416.29733921452214Z" title="West Gojjam" style="fill-opacity: 0.9; fill: rgb(191, 105, 164);"></path><path class="layer" d="M0,340.62750595641666C84.65361445783132,340.62750595641666 84.65361445783132,386.47160973218115 169.30722891566265,386.47160973218115C253.96084337349396,386.47160973218115 253.96084337349396,359.29206360602933 338.6144578313253,359.29206360602933C423.5,359.29206360602933 423.5,385.31278958160675 508.3855421686747,385.31278958160675C593.039156626506,385.31278958160675 593.039156626506,348.6065229064605 677.6927710843374,348.6065229064605C762.3463855421687,348.6065229064605 762.3463855421687,359.81705789922535 847,359.81705789922535L847,372.4551262750654C762.3463855421687,372.4551262750654 762.3463855421687,363.6795063775477 677.6927710843374,363.6795063775477C593.039156626506,363.6795063775477 593.039156626506,397.6057261985112 508.3855421686747,397.6057261985112C423.5,397.6057261985112 423.5,371.44751210841775 338.6144578313253,371.44751210841775C253.96084337349396,371.44751210841775 253.96084337349396,395.53674025921293 169.30722891566265,395.53674025921293C84.65361445783132,395.53674025921293 84.65361445783132,349.98659977390827 0,349.98659977390827Z" title="West Shewa" style="fill-opacity: 0.9; fill: rgb(191, 105, 145);"></path><path class="layer" d="M0,379.1292457701821C84.65361445783132,379.1292457701821 84.65361445783132,366.5422513852979 169.30722891566265,366.5422513852979C253.96084337349396,366.5422513852979 253.96084337349396,384.1271528514762 338.6144578313253,384.1271528514762C423.5,384.1271528514762 423.5,398.162049410606 508.3855421686747,398.162049410606C593.039156626506,398.162049410606 593.039156626506,432.08390628082986 677.6927710843374,432.08390628082986C762.3463855421687,432.08390628082986 762.3463855421687,373.0114494871603 847,373.0114494871603L847,383.8064227416673C762.3463855421687,383.8064227416673 762.3463855421687,443.0649839873484 677.6927710843374,443.0649839873484C593.039156626506,443.0649839873484 593.039156626506,409.37514647406044 508.3855421686747,409.37514647406044C423.5,409.37514647406044 423.5,394.6224601861448 338.6144578313253,394.6224601861448C253.96084337349396,394.6224601861448 253.96084337349396,376.0242327454755 169.30722891566265,376.0242327454755C84.65361445783132,376.0242327454755 84.65361445783132,386.8995862109041 0,386.8995862109041Z" title="YEM" style="fill-opacity: 0.9; fill: rgb(191, 105, 125);"></path><defs><path id="path-0" d="M0,446.3590206222509C84.65361445783132,446.3590206222509 84.65361445783132,452.2819219285294 169.30722891566265,452.2819219285294C253.96084337349396,452.2819219285294 253.96084337349396,474.6620404268177 338.6144578313253,474.6620404268177C423.5,474.6620404268177 423.5,499.94513552561773 508.3855421686747,499.94513552561773C593.039156626506,499.94513552561773 593.039156626506,520.0397098762115 677.6927710843374,520.0397098762115C762.3463855421687,520.0397098762115 762.3463855421687,482.8531488401865 847,482.8531488401865"></path><path id="path-1" d="M0,97.51987368909239C84.65361445783132,97.51987368909239 84.65361445783132,95.65431033064979 169.30722891566265,95.65431033064979C253.96084337349396,95.65431033064979 253.96084337349396,125.36603644367531 338.6144578313253,125.36603644367531C423.5,125.36603644367531 423.5,51.537034075345275 508.3855421686747,51.537034075345275C593.039156626506,51.537034075345275 593.039156626506,33.33245189626057 677.6927710843374,33.33245189626057C762.3463855421687,33.33245189626057 762.3463855421687,60.33370949805614 847,60.33370949805614"></path><path id="path-2" d="M0,437.7530201291676C84.65361445783132,437.7530201291676 84.65361445783132,439.10273026421817 169.30722891566265,439.10273026421817C253.96084337349396,439.10273026421817 253.96084337349396,478.4677096937306 338.6144578313253,478.4677096937306C423.5,478.4677096937306 423.5,495.12292950380015 508.3855421686747,495.12292950380015C593.039156626506,495.12292950380015 593.039156626506,515.1647768390874 677.6927710843374,515.1647768390874C762.3463855421687,515.1647768390874 762.3463855421687,487.686493791934 847,487.686493791934"></path><path id="path-3" d="M0,143.75674149990925C84.65361445783132,143.75674149990925 84.65361445783132,144.35400157743098 169.30722891566265,144.35400157743098C253.96084337349396,144.35400157743098 253.96084337349396,70.20507165025464 338.6144578313253,70.20507165025464C423.5,70.20507165025464 423.5,113.60867739472036 508.3855421686747,113.60867739472036C593.039156626506,113.60867739472036 593.039156626506,98.66242991316199 677.6927710843374,98.66242991316199C762.3463855421687,98.66242991316199 762.3463855421687,116.39908210152988 847,116.39908210152988"></path><path id="path-4" d="M0,181.13352041330657C84.65361445783132,181.13352041330657 84.65361445783132,241.52165369868055 169.30722891566265,241.52165369868055C253.96084337349396,241.52165369868055 253.96084337349396,241.31581042219238 338.6144578313253,241.31581042219238C423.5,241.31581042219238 423.5,243.49843964915507 508.3855421686747,243.49843964915507C593.039156626506,243.49843964915507 593.039156626506,239.56944231122782 677.6927710843374,239.56944231122782C762.3463855421687,239.56944231122782 762.3463855421687,270.14968534387594 847,270.14968534387594"></path><path id="path-5" d="M0,399.0846266853745C84.65361445783132,399.0846266853745 84.65361445783132,415.93674324482583 169.30722891566265,415.93674324482583C253.96084337349396,415.93674324482583 253.96084337349396,430.7469665945803 338.6144578313253,430.7469665945803C423.5,430.7469665945803 423.5,463.95824196172276 508.3855421686747,463.95824196172276C593.039156626506,463.95824196172276 593.039156626506,487.7779078155987 677.6927710843374,487.7779078155987C762.3463855421687,487.7779078155987 762.3463855421687,446.98111816434664 847,446.98111816434664"></path><path id="path-6" d="M0,262.78802471618025C84.65361445783132,262.78802471618025 84.65361445783132,337.6238288581606 169.30722891566265,337.6238288581606C253.96084337349396,337.6238288581606 253.96084337349396,307.7871976025126 338.6144578313253,307.7871976025126C423.5,307.7871976025126 423.5,316.03327208398935 508.3855421686747,316.03327208398935C593.039156626506,316.03327208398935 593.039156626506,298.22575371717693 677.6927710843374,298.22575371717693C762.3463855421687,298.22575371717693 762.3463855421687,295.6151215482007 847,295.6151215482007"></path><path id="path-7" d="M0,294.2841218031169C84.65361445783132,294.2841218031169 84.65361445783132,264.0529712271008 169.30722891566265,264.0529712271008C253.96084337349396,264.0529712271008 253.96084337349396,268.91026375200715 338.6144578313253,268.91026375200715C423.5,268.91026375200715 423.5,271.9470994501457 508.3855421686747,271.9470994501457C593.039156626506,271.9470994501457 593.039156626506,273.0102962525334 677.6927710843374,273.0102962525334C762.3463855421687,273.0102962525334 762.3463855421687,240.47724814687575 847,240.47724814687575"></path><path id="path-8" d="M0,355.08174794390777C84.65361445783132,355.08174794390777 84.65361445783132,360.78766508748754 169.30722891566265,360.78766508748754C253.96084337349396,360.78766508748754 253.96084337349396,411.06563849642646 338.6144578313253,411.06563849642646C423.5,411.06563849642646 423.5,446.8684028158649 508.3855421686747,446.8684028158649C593.039156626506,446.8684028158649 593.039156626506,449.0567494713283 677.6927710843374,449.0567494713283C762.3463855421687,449.0567494713283 762.3463855421687,430.13063094505645 847,430.13063094505645"></path><path id="path-9" d="M0,442.56602369872456C84.65361445783132,442.56602369872456 84.65361445783132,422.02145396070205 169.30722891566265,422.02145396070205C253.96084337349396,422.02145396070205 253.96084337349396,451.86689653786914 338.6144578313253,451.86689653786914C423.5,451.86689653786914 423.5,484.4697732551204 508.3855421686747,484.4697732551204C593.039156626506,484.4697732551204 593.039156626506,400.04641903269714 677.6927710843374,400.04641903269714C762.3463855421687,400.04641903269714 762.3463855421687,454.0378648725698 847,454.0378648725698"></path><path id="path-10" d="M0,374.1201591298872C84.65361445783132,374.1201591298872 84.65361445783132,349.5137702819007 169.30722891566265,349.5137702819007C253.96084337349396,349.5137702819007 253.96084337349396,338.3643112320346 338.6144578313253,338.3643112320346C423.5,338.3643112320346 423.5,415.4461388813382 508.3855421686747,415.4461388813382C593.039156626506,415.4461388813382 593.039156626506,425.7949345660844 677.6927710843374,425.7949345660844C762.3463855421687,425.7949345660844 762.3463855421687,420.5369278965034 847,420.5369278965034"></path><path id="path-11" d="M0,391.20598181494967C84.65361445783132,391.20598181494967 84.65361445783132,433.6235925928397 169.30722891566265,433.6235925928397C253.96084337349396,433.6235925928397 253.96084337349396,464.0367980436141 338.6144578313253,464.0367980436141C423.5,464.0367980436141 423.5,489.98595558640034 508.3855421686747,489.98595558640034C593.039156626506,489.98595558640034 593.039156626506,503.287661640759 677.6927710843374,503.287661640759C762.3463855421687,503.287661640759 762.3463855421687,472.3695683166776 847,472.3695683166776"></path><path id="path-12" d="M0,432.03615963031274C84.65361445783132,432.03615963031274 84.65361445783132,448.7098057778316 169.30722891566265,448.7098057778316C253.96084337349396,448.7098057778316 253.96084337349396,445.35944257567957 338.6144578313253,445.35944257567957C423.5,445.35944257567957 423.5,478.5255168144986 508.3855421686747,478.5255168144986C593.039156626506,478.5255168144986 593.039156626506,509.7690200969155 677.6927710843374,509.7690200969155C762.3463855421687,509.7690200969155 762.3463855421687,477.78830905664745 847,477.78830905664745"></path><path id="path-13" d="M0,419.75960782982116C84.65361445783132,419.75960782982116 84.65361445783132,408.88922694051587 169.30722891566265,408.88922694051587C253.96084337349396,408.88922694051587 253.96084337349396,438.45538075222004 338.6144578313253,438.45538075222004C423.5,438.45538075222004 423.5,455.6628478846295 508.3855421686747,455.6628478846295C593.039156626506,455.6628478846295 593.039156626506,470.01730511991025 677.6927710843374,470.01730511991025C762.3463855421687,470.01730511991025 762.3463855421687,460.5857014953799 847,460.5857014953799"></path><path id="path-14" d="M0,335.029311992085C84.65361445783132,335.029311992085 84.65361445783132,325.35867850988126 169.30722891566265,325.35867850988126C253.96084337349396,325.35867850988126 253.96084337349396,377.787332479947 338.6144578313253,377.787332479947C423.5,377.787332479947 423.5,378.2647652436512 508.3855421686747,378.2647652436512C593.039156626506,378.2647652436512 593.039156626506,386.0702998913114 677.6927710843374,386.0702998913114C762.3463855421687,386.0702998913114 762.3463855421687,399.98365948797453 847,399.98365948797453"></path><path id="path-15" d="M0,210.68504085136234C84.65361445783132,210.68504085136234 84.65361445783132,216.38184281706924 169.30722891566265,216.38184281706924C253.96084337349396,216.38184281706924 253.96084337349396,210.18819491273166 338.6144578313253,210.18819491273166C423.5,210.18819491273166 423.5,207.4157282937705 508.3855421686747,207.4157282937705C593.039156626506,207.4157282937705 593.039156626506,198.38054634536644 677.6927710843374,198.38054634536644C762.3463855421687,198.38054634536644 762.3463855421687,205.2348582357779 847,205.2348582357779"></path><path id="path-16" d="M0,426.0270060714513C84.65361445783132,426.0270060714513 84.65361445783132,444.20754069126826 169.30722891566265,444.20754069126826C253.96084337349396,444.20754069126826 253.96084337349396,458.03195571472304 338.6144578313253,458.03195571472304C423.5,458.03195571472304 423.5,437.25378723028496 508.3855421686747,437.25378723028496C593.039156626506,437.25378723028496 593.039156626506,479.05372141464466 677.6927710843374,479.05372141464466C762.3463855421687,479.05372141464466 762.3463855421687,466.64506093155546 847,466.64506093155546"></path><path id="path-17" d="M0,406.42985051205585C84.65361445783132,406.42985051205585 84.65361445783132,400.3752167249638 169.30722891566265,400.3752167249638C253.96084337349396,400.3752167249638 253.96084337349396,400.34927153766796 338.6144578313253,400.34927153766796C423.5,400.34927153766796 423.5,426.7486058277248 508.3855421686747,426.7486058277248C593.039156626506,426.7486058277248 593.039156626506,460.09148377231065 677.6927710843374,460.09148377231065C762.3463855421687,460.09148377231065 762.3463855421687,410.4432398325823 847,410.4432398325823"></path><path id="path-18" d="M0,322.81389959897535C84.65361445783132,322.81389959897535 84.65361445783132,282.8302991583342 169.30722891566265,282.8302991583342C253.96084337349396,282.8302991583342 253.96084337349396,323.76349545327116 338.6144578313253,323.76349545327116C423.5,323.76349545327116 423.5,364.3521507134772 508.3855421686747,364.3521507134772C593.039156626506,364.3521507134772 593.039156626506,340.0318076213191 677.6927710843374,340.0318076213191C762.3463855421687,340.0318076213191 762.3463855421687,351.858908246321 847,351.858908246321"></path><path id="path-19" d="M0,308.8674038028778C84.65361445783132,308.8674038028778 84.65361445783132,312.14940421384387 169.30722891566265,312.14940421384387C253.96084337349396,312.14940421384387 253.96084337349396,352.2288690571297 338.6144578313253,352.2288690571297C423.5,352.2288690571297 423.5,349.65113635744774 508.3855421686747,349.65113635744774C593.039156626506,349.65113635744774 593.039156626506,413.39645674101416 677.6927710843374,413.39645674101416C762.3463855421687,413.39645674101416 762.3463855421687,389.38445180050155 847,389.38445180050155"></path><path id="path-20" d="M0,279.2073950089109C84.65361445783132,279.2073950089109 84.65361445783132,297.93376262765065 169.30722891566265,297.93376262765065C253.96084337349396,297.93376262765065 253.96084337349396,290.2331212884561 338.6144578313253,290.2331212884561C423.5,290.2331212884561 423.5,295.08986294506656 508.3855421686747,295.08986294506656C593.039156626506,295.08986294506656 593.039156626506,320.71828886683465 677.6927710843374,320.71828886683465C762.3463855421687,320.71828886683465 762.3463855421687,318.1582568745482 847,318.1582568745482"></path><path id="path-21" d="M0,364.6439843017498C84.65361445783132,364.6439843017498 84.65361445783132,381.2479212388283 169.30722891566265,381.2479212388283C253.96084337349396,381.2479212388283 253.96084337349396,421.4348953130718 338.6144578313253,421.4348953130718C423.5,421.4348953130718 423.5,334.0161521694987 508.3855421686747,334.0161521694987C593.039156626506,334.0161521694987 593.039156626506,371.5071093627327 677.6927710843374,371.5071093627327C762.3463855421687,371.5071093627327 762.3463855421687,336.4543353520519 847,336.4543353520519"></path><path id="path-22" d="M0,239.67998966415996C84.65361445783132,239.67998966415996 84.65361445783132,184.27880742660176 169.30722891566265,184.27880742660176C253.96084337349396,184.27880742660176 253.96084337349396,173.24878448110033 338.6144578313253,173.24878448110033C423.5,173.24878448110033 423.5,165.74066905702472 508.3855421686747,165.74066905702472C593.039156626506,165.74066905702472 593.039156626506,153.63720567909488 677.6927710843374,153.63720567909488C762.3463855421687,153.63720567909488 762.3463855421687,165.11283452007257 847,165.11283452007257"></path><path id="path-23" d="M0,413.25008214344007C84.65361445783132,413.25008214344007 84.65361445783132,427.92558787774556 169.30722891566265,427.92558787774556C253.96084337349396,427.92558787774556 253.96084337349396,469.81106123057253 338.6144578313253,469.81106123057253C423.5,469.81106123057253 423.5,471.73397959033207 508.3855421686747,471.73397959033207C593.039156626506,471.73397959033207 593.039156626506,495.81797373292716 677.6927710843374,495.81797373292716C762.3463855421687,495.81797373292716 762.3463855421687,439.0653447738957 847,439.0653447738957"></path><path id="path-24" d="M0,345.30705286516246C84.65361445783132,345.30705286516246 84.65361445783132,391.00417499569704 169.30722891566265,391.00417499569704C253.96084337349396,391.00417499569704 253.96084337349396,365.3697878572235 338.6144578313253,365.3697878572235C423.5,365.3697878572235 423.5,391.459257890059 508.3855421686747,391.459257890059C593.039156626506,391.459257890059 593.039156626506,356.1430146420041 677.6927710843374,356.1430146420041C762.3463855421687,356.1430146420041 762.3463855421687,366.13609208714536 847,366.13609208714536"></path><path id="path-25" d="M0,383.01441599054306C84.65361445783132,383.01441599054306 84.65361445783132,371.28324206538673 169.30722891566265,371.28324206538673C253.96084337349396,371.28324206538673 253.96084337349396,389.3748065188105 338.6144578313253,389.3748065188105C423.5,389.3748065188105 423.5,403.76859794233326 508.3855421686747,403.76859794233326C593.039156626506,403.76859794233326 593.039156626506,437.57444513408916 677.6927710843374,437.57444513408916C762.3463855421687,437.57444513408916 762.3463855421687,378.4089361144138 847,378.4089361144138"></path></defs><text dy="0.5ex" class="label"><textPath xmlns:xlink="http://www.w3.org/1999/xlink" xlink:href="#path-0" startOffset="95%" text-anchor="end" style="font-size: 11px; font-family: Arial, Helvetica; font-weight: normal;">Alaba</textPath></text><text dy="0.5ex" class="label"><textPath xmlns:xlink="http://www.w3.org/1999/xlink" xlink:href="#path-1" startOffset="80%" text-anchor="middle" style="font-size: 11px; font-family: Arial, Helvetica; font-weight: normal;">Arsi</textPath></text><text dy="0.5ex" class="label"><textPath xmlns:xlink="http://www.w3.org/1999/xlink" xlink:href="#path-2" startOffset="5%" text-anchor="start" style="font-size: 11px; font-family: Arial, Helvetica; font-weight: normal;">Awi</textPath></text><text dy="0.5ex" class="label"><textPath xmlns:xlink="http://www.w3.org/1999/xlink" xlink:href="#path-3" startOffset="80%" text-anchor="middle" style="font-size: 11px; font-family: Arial, Helvetica; font-weight: normal;">Bale</textPath></text><text dy="0.5ex" class="label"><textPath xmlns:xlink="http://www.w3.org/1999/xlink" xlink:href="#path-4" startOffset="80%" text-anchor="middle" style="font-size: 11px; font-family: Arial, Helvetica; font-weight: normal;">Bottom 30 Zones</textPath></text><text dy="0.5ex" class="label"><textPath xmlns:xlink="http://www.w3.org/1999/xlink" xlink:href="#path-5" startOffset="80%" text-anchor="middle" style="font-size: 11px; font-family: Arial, Helvetica; font-weight: normal;">Central Tigray</textPath></text><text dy="0.5ex" class="label"><textPath xmlns:xlink="http://www.w3.org/1999/xlink" xlink:href="#path-6" startOffset="95%" text-anchor="end" style="font-size: 11px; font-family: Arial, Helvetica; font-weight: normal;">East Gojjam</textPath></text><text dy="0.5ex" class="label"><textPath xmlns:xlink="http://www.w3.org/1999/xlink" xlink:href="#path-7" startOffset="95%" text-anchor="end" style="font-size: 11px; font-family: Arial, Helvetica; font-weight: normal;">East Shewa</textPath></text><text dy="0.5ex" class="label"><textPath xmlns:xlink="http://www.w3.org/1999/xlink" xlink:href="#path-8" startOffset="80%" text-anchor="middle" style="font-size: 11px; font-family: Arial, Helvetica; font-weight: normal;">Eastern Tigray</textPath></text><text dy="0.5ex" class="label"><textPath xmlns:xlink="http://www.w3.org/1999/xlink" xlink:href="#path-9" startOffset="80%" text-anchor="middle" style="font-size: 11px; font-family: Arial, Helvetica; font-weight: normal;">Gurage</textPath></text><text dy="0.5ex" class="label"><textPath xmlns:xlink="http://www.w3.org/1999/xlink" xlink:href="#path-10" startOffset="40%" text-anchor="middle" style="font-size: 11px; font-family: Arial, Helvetica; font-weight: normal;">Hadiya</textPath></text><text dy="0.5ex" class="label"><textPath xmlns:xlink="http://www.w3.org/1999/xlink" xlink:href="#path-11" startOffset="5%" text-anchor="start" style="font-size: 11px; font-family: Arial, Helvetica; font-weight: normal;">Horo Gudru Wellega</textPath></text><text dy="0.5ex" class="label"><textPath xmlns:xlink="http://www.w3.org/1999/xlink" xlink:href="#path-12" startOffset="40%" text-anchor="middle" style="font-size: 11px; font-family: Arial, Helvetica; font-weight: normal;">Jimma</textPath></text><text dy="0.5ex" class="label"><textPath xmlns:xlink="http://www.w3.org/1999/xlink" xlink:href="#path-13" startOffset="80%" text-anchor="middle" style="font-size: 11px; font-family: Arial, Helvetica; font-weight: normal;">Kembata Timbaro</textPath></text><text dy="0.5ex" class="label"><textPath xmlns:xlink="http://www.w3.org/1999/xlink" xlink:href="#path-14" startOffset="80%" text-anchor="middle" style="font-size: 11px; font-family: Arial, Helvetica; font-weight: normal;">North Gondar</textPath></text><text dy="0.5ex" class="label"><textPath xmlns:xlink="http://www.w3.org/1999/xlink" xlink:href="#path-15" startOffset="80%" text-anchor="middle" style="font-size: 11px; font-family: Arial, Helvetica; font-weight: normal;">North Shewa</textPath></text><text dy="0.5ex" class="label"><textPath xmlns:xlink="http://www.w3.org/1999/xlink" xlink:href="#path-16" startOffset="60%" text-anchor="middle" style="font-size: 11px; font-family: Arial, Helvetica; font-weight: normal;">North Wollo</textPath></text><text dy="0.5ex" class="label"><textPath xmlns:xlink="http://www.w3.org/1999/xlink" xlink:href="#path-17" startOffset="60%" text-anchor="middle" style="font-size: 11px; font-family: Arial, Helvetica; font-weight: normal;">Siliti</textPath></text><text dy="0.5ex" class="label"><textPath xmlns:xlink="http://www.w3.org/1999/xlink" xlink:href="#path-18" startOffset="80%" text-anchor="middle" style="font-size: 11px; font-family: Arial, Helvetica; font-weight: normal;">South Gonder</textPath></text><text dy="0.5ex" class="label"><textPath xmlns:xlink="http://www.w3.org/1999/xlink" xlink:href="#path-19" startOffset="60%" text-anchor="middle" style="font-size: 11px; font-family: Arial, Helvetica; font-weight: normal;">South Tigray</textPath></text><text dy="0.5ex" class="label"><textPath xmlns:xlink="http://www.w3.org/1999/xlink" xlink:href="#path-20" startOffset="60%" text-anchor="middle" style="font-size: 11px; font-family: Arial, Helvetica; font-weight: normal;">South West Shewa</textPath></text><text dy="0.5ex" class="label"><textPath xmlns:xlink="http://www.w3.org/1999/xlink" xlink:href="#path-21" startOffset="60%" text-anchor="middle" style="font-size: 11px; font-family: Arial, Helvetica; font-weight: normal;">South Wolo</textPath></text><text dy="0.5ex" class="label"><textPath xmlns:xlink="http://www.w3.org/1999/xlink" xlink:href="#path-22" startOffset="80%" text-anchor="middle" style="font-size: 11px; font-family: Arial, Helvetica; font-weight: normal;">West Arsi</textPath></text><text dy="0.5ex" class="label"><textPath xmlns:xlink="http://www.w3.org/1999/xlink" xlink:href="#path-23" startOffset="95%" text-anchor="end" style="font-size: 11px; font-family: Arial, Helvetica; font-weight: normal;">West Gojjam</textPath></text><text dy="0.5ex" class="label"><textPath xmlns:xlink="http://www.w3.org/1999/xlink" xlink:href="#path-24" startOffset="80%" text-anchor="middle" style="font-size: 11px; font-family: Arial, Helvetica; font-weight: normal;">West Shewa</textPath></text><text dy="0.5ex" class="label"><textPath xmlns:xlink="http://www.w3.org/1999/xlink" xlink:href="#path-25" startOffset="60%" text-anchor="middle" style="font-size: 11px; font-family: Arial, Helvetica; font-weight: normal;">YEM</textPath></text></g></svg>