<?xml version="1.0" encoding="utf-8"?>
<!-- Generator: Adobe Illustrator 19.1.0, SVG Export Plug-In . SVG Version: 6.00 Build 0)  -->
<svg version="1.1" id="Layer_1" xmlns="http://www.w3.org/2000/svg" xmlns:xlink="http://www.w3.org/1999/xlink" x="0px" y="0px"
	 viewBox="-176 130 847 542" style="enable-background:new -176 130 847 542;" xml:space="preserve">
<style type="text/css">
	.st0{fill:none;stroke:#CCCCCC;}
	.st1{font-family:'ArialMT';}
	.st2{font-size:10px;}
	.st3{fill:#BF6969;fill-opacity:0.9;}
	.st4{fill:#BF7D69;fill-opacity:0.9;}
	.st5{fill:#BF9169;fill-opacity:0.9;}
	.st6{fill:#BFA469;fill-opacity:0.9;}
	.st7{fill:#BFB869;fill-opacity:0.9;}
	.st8{fill:#B2BF69;fill-opacity:0.9;}
	.st9{fill:#9EBF69;fill-opacity:0.9;}
	.st10{fill:#8ABF69;fill-opacity:0.9;}
	.st11{fill:#76BF69;fill-opacity:0.9;}
	.st12{fill:#69BF70;fill-opacity:0.9;}
	.st13{fill:#69BF83;fill-opacity:0.9;}
	.st14{fill:#69BF97;fill-opacity:0.9;}
	.st15{fill:#69BFAB;fill-opacity:0.9;}
	.st16{fill:#69BFBF;fill-opacity:0.9;}
	.st17{fill:#69ABBF;fill-opacity:0.9;}
	.st18{fill:#6997BF;fill-opacity:0.9;}
	.st19{fill:#6983BF;fill-opacity:0.9;}
	.st20{fill:#6970BF;fill-opacity:0.9;}
	.st21{fill:#7669BF;fill-opacity:0.9;}
	.st22{fill:#8A69BF;fill-opacity:0.9;}
	.st23{fill:#9E69BF;fill-opacity:0.9;}
	.st24{fill:#B269BF;fill-opacity:0.9;}
	.st25{fill:#BF69B8;fill-opacity:0.9;}
	.st26{fill:#BF69A4;fill-opacity:0.9;}
	.st27{fill:#BF6991;fill-opacity:0.9;}
	.st28{fill:#BF697D;fill-opacity:0.9;}
	.st29{font-size:11px;}
	.st30{font-size:12px;}
	.st31{font-size:13px;}
</style>
<g>
	<g transform="translate(0,522)">
		<g transform="translate(0,0)">
			<line class="st0" x1="-176" y1="135" x2="-176" y2="-387"/>
			<text transform="matrix(1 0 0 1 -187.123 145.1)" class="st1 st2">2010</text>
		</g>
		<g transform="translate(169.30722891566265,0)">
			<line class="st0" x1="-176" y1="135" x2="-176" y2="-387"/>
			<text transform="matrix(1 0 0 1 -186.7519 145.1)" class="st1 st2">2011</text>
		</g>
		<g transform="translate(338.6144578313253,0)">
			<line class="st0" x1="-176" y1="135" x2="-176" y2="-387"/>
			<text transform="matrix(1 0 0 1 -187.123 145.1)" class="st1 st2">2012</text>
		</g>
		<g transform="translate(508.3855421686747,0)">
			<line class="st0" x1="-176" y1="135" x2="-176" y2="-387"/>
			<text transform="matrix(1 0 0 1 -187.1231 145.1)" class="st1 st2">2013</text>
		</g>
		<g transform="translate(677.6927710843374,0)">
			<line class="st0" x1="-176" y1="135" x2="-176" y2="-387"/>
			<text transform="matrix(1 0 0 1 -187.123 145.1)" class="st1 st2">2014</text>
		</g>
		<g transform="translate(847,0)">
			<line class="st0" x1="-176" y1="135" x2="-176" y2="-387"/>
			<text transform="matrix(1 0 0 1 -187.123 145.1)" class="st1 st2">2015</text>
		</g>
		<path class="st0" d="M-176-387v522h847v-522"/>
	</g>
	<path class="st3" d="M-176,537.1c84.7,0,84.7,32,169.3,32s84.7,16.4,169.3,16.4c84.9,0,84.9,17.7,169.8,17.7
		c84.7,0,84.7,2.7,169.3,2.7s84.7-2.7,169.3-2.7v7.3c-84.7,0-84.7,5.8-169.3,5.8S417,613,332.4,613c-84.9,0-84.9-21-169.8-21
		C78,592,78,577.4-6.7,577.4s-84.7-31-169.3-31V537.1z"/>
	<path class="st4" d="M-176,223c84.7,0,84.7-46.9,169.3-46.9s84.7,23.7,169.3,23.7c84.9,0,84.9-14.4,169.8-14.4
		c84.7,0,84.7-7.3,169.3-7.3s84.7,4.2,169.3,4.2v40.1c-84.7,0-84.7-6.2-169.3-6.2s-84.7,5-169.3,5c-84.9,0-84.9,9.8-169.8,9.8
		C78,231,78,206.9-6.7,206.9s-84.7,43.5-169.3,43.5V223z"/>
	<path class="st5" d="M-176,595.1c84.7,0,84.7,19.8,169.3,19.8s84.7,13,169.3,13c84.9,0,84.9,15.6,169.8,15.6
		c84.7,0,84.7,8.9,169.3,8.9s84.7-0.3,169.3-0.3v1c-84.7,0-84.7,0.3-169.3,0.3s-84.7-8.9-169.3-8.9c-84.9,0-84.9-15.6-169.8-15.6
		c-84.7,0-84.7-13-169.3-13s-84.7-19.8-169.3-19.8V595.1z"/>
	<path class="st6" d="M-176,297.2c84.7,0,84.7,129.9,169.3,129.9s84.7,29.2,169.3,29.2c84.9,0,84.9-14.1,169.8-14.1
		c84.7,0,84.7-55.4,169.3-55.4s84.7,59.5,169.3,59.5v21.1c-84.7,0-84.7-58.6-169.3-58.6s-84.7,54.5-169.3,54.5
		c-84.9,0-84.9,10.7-169.8,10.7C78,474.1,78,444.8-6.7,444.8S-91.3,314.5-176,314.5V297.2z"/>
	<path class="st7" d="M-176,598.6c84.7,0,84.7,13.2,169.3,13.2s84.7,12.8,169.3,12.8c84.9,0,84.9,22.5,169.8,22.5
		c84.7,0,84.7,8.9,169.3,8.9s84.7-7,169.3-7v1c-84.7,0-84.7,7-169.3,7s-84.7-8.9-169.3-8.9c-84.9,0-84.9-22.5-169.8-22.5
		C78,625.6,78,612.8-6.7,612.8s-84.7-13.2-169.3-13.2V598.6z"/>
	<path class="st8" d="M-176,505.2c84.7,0,84.7,19.5,169.3,19.5s84.7-10.1,169.3-10.1c84.9,0,84.9,38.2,169.8,38.2
		c84.7,0,84.7,17.1,169.3,17.1s84.7-76.1,169.3-76.1v17.4c-84.7,0-84.7,73.7-169.3,73.7s-84.7-16.1-169.3-16.1
		c-84.9,0-84.9-39-169.8-39c-84.7,0-84.7,7.8-169.3,7.8s-84.7-18.5-169.3-18.5V505.2z"/>
	<path class="st9" d="M-176,276c84.7,0,84.7,129.8,169.3,129.8S78,263.4,162.6,263.4c84.9,0,84.9,21.6,169.8,21.6
		c84.7,0,84.7-65.7,169.3-65.7s84.7,99.6,169.3,99.6v23.6c-84.7,0-84.7-96.6-169.3-96.6s-84.7,64.4-169.3,64.4
		c-84.9,0-84.9-23.2-169.8-23.2C78,287,78,424.1-6.7,424.1S-91.3,294.1-176,294.1V276z"/>
	<path class="st10" d="M-176,469.7c84.7,0,84.7-154.8,169.3-154.8s84.7,49.8,169.3,49.8c84.9,0,84.9,2.4,169.8,2.4
		c84.7,0,84.7-6.9,169.3-6.9s84.7,61.6,169.3,61.6v21.5c-84.7,0-84.7-59.5-169.3-59.5s-84.7,5.3-169.3,5.3
		c-84.9,0-84.9-3.5-169.8-3.5C78,385.7,78,335.2-6.7,335.2S-91.3,484.9-176,484.9V469.7z"/>
	<path class="st11" d="M-176,337.7C-91.3,337.7-91.3,488-6.7,488s84.7,44.9,169.3,44.9c84.9,0,84.9,39,169.8,39
		c84.7,0,84.7,16.1,169.3,16.1s84.7-16.1,169.3-16.1v13.8c-84.7,0-84.7,17.1-169.3,17.1s-84.7-17.3-169.3-17.3
		c-84.9,0-84.9-37.6-169.8-37.6C78,547.8,78,504.3-6.7,504.3s-84.7-150-169.3-150V337.7z"/>
	<path class="st12" d="M-176,549.5c84.7,0,84.7,7.1,169.3,7.1s84.7-79.4,169.3-79.4c84.9,0,84.9,111.3,169.8,111.3
		c84.7,0,84.7-58.9,169.3-58.9s84.7,59.1,169.3,59.1v11.3c-84.7,0-84.7-52.8-169.3-52.8s-84.7,52.8-169.3,52.8
		c-84.9,0-84.9-106.9-169.8-106.9C78,493.1,78,566-6.7,566s-84.7-8.9-169.3-8.9V549.5z"/>
	<path class="st13" d="M-176,253.5c84.7,0,84.7,84.7,169.3,84.7s84.7-48.1,169.3-48.1c84.9,0,84.9,51.3,169.8,51.3
		c84.7,0,84.7,70.6,169.3,70.6S586.3,225.5,671,225.5v31.3c-84.7,0-84.7,176.9-169.3,176.9S417,364,332.4,364
		c-84.9,0-84.9-50.8-169.8-50.8c-84.7,0-84.7,45-169.3,45s-84.7-85.3-169.3-85.3V253.5z"/>
	<path class="st14" d="M-176,414c84.7,0,84.7,33.9,169.3,33.9s84.7-12.6,169.3-12.6c84.9,0,84.9,54.2,169.8,54.2
		c84.7,0,84.7-52.6,169.3-52.6s84.7-91.3,169.3-91.3v22.8c-84.7,0-84.7,89.9-169.3,89.9s-84.7,50.3-169.3,50.3
		c-84.9,0-84.9-55.3-169.8-55.3C78,453.3,78,465.2-6.7,465.2s-84.7-35.6-169.3-35.6V414z"/>
	<path class="st15" d="M-176,560.2c84.7,0,84.7,20.3,169.3,20.3s84.7,14.6,169.3,14.6c84.9,0,84.9,21,169.8,21
		c84.7,0,84.7,3.2,169.3,3.2s84.7,3.8,169.3,3.8v5.5c-84.7,0-84.7-2.5-169.3-2.5s-84.7-4.9-169.3-4.9c-84.9,0-84.9-21-169.8-21
		C78,600.3,78,587.5-6.7,587.5s-84.7-20.7-169.3-20.7V560.2z"/>
	<path class="st16" d="M-176,488c84.7,0,84.7-19.8,169.3-19.8S78,568.6,162.6,568.6c84.9,0,84.9-102.1,169.8-102.1
		c84.7,0,84.7,40.9,169.3,40.9s84.7,6.8,169.3,6.8v17.4c-84.7,0-84.7-5.1-169.3-5.1s-84.7-40.1-169.3-40.1c-84.9,0-84.9,96-169.8,96
		C78,582.4,78,484.9-6.7,484.9s-84.7,17.3-169.3,17.3V488z"/>
	<path class="st17" d="M-176,584.1c84.7,0,84.7,6.5,169.3,6.5s84.7,12.8,169.3,12.8c84.9,0,84.9,28,169.8,28c84.7,0,84.7-2,169.3-2
		s84.7-15.8,169.3-15.8v6.5c-84.7,0-84.7,13-169.3,13s-84.7,2.1-169.3,2.1c-84.9,0-84.9-28.1-169.8-28.1C78,607,78,593.8-6.7,593.8
		s-84.7-6.6-169.3-6.6V584.1z"/>
	<path class="st18" d="M-176,522.2c84.7,0,84.7,18.5,169.3,18.5s84.7-44.4,169.3-44.4c84.9,0,84.9,15.4,169.8,15.4
		c84.7,0,84.7-27.1,169.3-27.1s84.7,50.1,169.3,50.1v16.8c-84.7,0-84.7-47.2-169.3-47.2s-84.7,25.2-169.3,25.2
		c-84.9,0-84.9-17.9-169.8-17.9C78,511.6,78,553.4-6.7,553.4s-84.7-19.4-169.3-19.4V522.2z"/>
	<path class="st19" d="M-176,192.4c84.7,0,84.7,17.6,169.3,17.6s84.7-46.9,169.3-46.9c84.9,0,84.9-22.5,169.8-22.5
		c84.7,0,84.7-5.6,169.3-5.6s84.7,3.9,169.3,3.9v40.3c-84.7,0-84.7-4.2-169.3-4.2s-84.7,7.3-169.3,7.3c-84.9,0-84.9,14.4-169.8,14.4
		C78,196.7,78,239.6-6.7,239.6s-84.7-19.7-169.3-19.7V192.4z"/>
	<path class="st20" d="M-176,590.3c84.7,0,84.7,17.3,169.3,17.3s84.7,13.5,169.3,13.5c84.9,0,84.9,29.4,169.8,29.4
		c84.7,0,84.7-1.9,169.3-1.9s84.7-3.1,169.3-3.1v1c-84.7,0-84.7,3.1-169.3,3.1s-84.7,1.9-169.3,1.9c-84.9,0-84.9-29.4-169.8-29.4
		C78,622.1,78,609.3-6.7,609.3s-84.7-17-169.3-17V590.3z"/>
	<path class="st21" d="M-176,432.6c84.7,0,84.7-165,169.3-165s84.7,48.7,169.3,48.7c84.9,0,84.9,101.1,169.8,101.1
		c84.7,0,84.7,44,169.3,44s84.7-64.7,169.3-64.7v22c-84.7,0-84.7,62.7-169.3,62.7s-84.7-42.3-169.3-42.3
		c-84.9,0-84.9-101.8-169.8-101.8c-84.7,0-84.7-49-169.3-49S-91.3,448-176,448V432.6z"/>
	<path class="st22" d="M-176,569.9c84.7,0,84.7,27,169.3,27s84.7,19.2,169.3,19.2c84.9,0,84.9,8.3,169.8,8.3
		c84.7,0,84.7,11.8,169.3,11.8s84.7-4.4,169.3-4.4v4.6c-84.7,0-84.7,3.5-169.3,3.5s-84.7-11.6-169.3-11.6c-84.9,0-84.9-10-169.8-10
		C78,618.2,78,599.3-6.7,599.3s-84.7-24.8-169.3-24.8V569.9z"/>
	<path class="st23" d="M-176,357.4c84.7,0,84.7,150,169.3,150s84.7,43.5,169.3,43.5c84.9,0,84.9-18.3,169.8-18.3
		c84.7,0,84.7,17.8,169.3,17.8s84.7,4.2,169.3,4.2v14.1c-84.7,0-84.7-2-169.3-2s-84.7-17.1-169.3-17.1c-84.9,0-84.9,15.8-169.8,15.8
		C78,565.5,78,521.6-6.7,521.6s-84.7-148-169.3-148V357.4z"/>
	<path class="st24" d="M-176,451.1c84.7,0,84.7-159.6,169.3-159.6s84.7,97.2,169.3,97.2c84.9,0,84.9-75.4,169.8-75.4
		c84.7,0,84.7-64.4,169.3-64.4s84.7,11,169.3,11v28.7c-84.7,0-84.7-14.4-169.3-14.4s-84.7,64.1-169.3,64.1
		c-84.9,0-84.9,71.1-169.8,71.1C78,409.4,78,311.8-6.7,311.8S-91.3,466.6-176,466.6V451.1z"/>
	<path class="st25" d="M-176,376.7c84.7,0,84.7,7.5,169.3,7.5s84.7,28.3,169.3,28.3c84.9,0,84.9-188.2,169.8-188.2
		c84.7,0,84.7,81.2,169.3,81.2s84.7,65.9,169.3,65.9v22.1c-84.7,0-84.7-63.5-169.3-63.5s-84.7-77.6-169.3-77.6
		c-84.9,0-84.9,179.7-169.8,179.7C78,432.2,78,402.8-6.7,402.8s-84.7-10.5-169.3-10.5V376.7z"/>
	<path class="st26" d="M-176,395.3c84.7,0,84.7-152.6,169.3-152.6s84.7,97.8,169.3,97.8c84.9,0,84.9-84.9,169.8-84.9
		c84.7,0,84.7,77.6,169.3,77.6S586.3,470.6,671,470.6v20.1c-84.7,0-84.7-133.6-169.3-133.6s-84.7-75.1-169.3-75.1
		c-84.9,0-84.9,79.6-169.8,79.6C78,361.6,78,264.5-6.7,264.5S-91.3,410.9-176,410.9V395.3z"/>
	<path class="st27" d="M-176,317.5c84.7,0,84.7,43.8,169.3,43.8S78,234.1,162.6,234.1c84.9,0,84.9,158.1,169.8,158.1
		c84.7,0,84.7-115,169.3-115s84.7,14.4,169.3,14.4v24.1c-84.7,0-84.7-13.4-169.3-13.4S417,414.3,332.4,414.3
		c-84.9,0-84.9-154-169.8-154C78,260.3,78,381.1-6.7,381.1s-84.7-46.5-169.3-46.5V317.5z"/>
	<path class="st28" d="M-176,577.6c84.7,0,84.7,24.8,169.3,24.8s84.7,7.7,169.3,7.7c84.9,0,84.9,28.1,169.8,28.1
		c84.7,0,84.7,4.7,169.3,4.7s84.7-3.5,169.3-3.5v2.9c-84.7,0-84.7,3.1-169.3,3.1s-84.7-4.7-169.3-4.7c-84.9,0-84.9-27.7-169.8-27.7
		C78,613,78,604.5-6.7,604.5S-91.3,581-176,581V577.6z"/>
	<text transform="matrix(1 0 0 1 486.2419 614.0067)" class="st1 st29">A</text>
	<text transform="matrix(1 0 0 1 493.5834 614.0309)" class="st1 st29">l</text>
	<text transform="matrix(1 0 0 1 496.0312 614.0369)" class="st1 st29">a</text>
	<text transform="matrix(1 0 0 1 502.1553 614.0419)" class="st1 st29">b</text>
	<text transform="matrix(1 0 0 1 508.2811 614.0333)" class="st1 st29">a</text>
	<text transform="matrix(1 0 0 1 605.0168 200.0707)" class="st1 st29">A</text>
	<text transform="matrix(1 0 0 1 612.3633 200.393)" class="st1 st29">r</text>
	<text transform="matrix(1 0 0 1 616.0365 200.5386)" class="st1 st29">s</text>
	<text transform="matrix(1 0 0 1 621.5438 200.7261)" class="st1 st29">i</text>
	<text transform="matrix(1 0 0 1 486.7665 655.9108)" class="st1 st29">B</text>
	<text transform="matrix(1 0 0 1 494.1235 655.9844)" class="st1 st29">A</text>
	<text transform="matrix(1 0 0 1 501.4703 656.0028)" class="st1 st29">L</text>
	<text transform="matrix(1 0 0 1 507.5878 656.0029)" class="st1 st29">E</text>
	<text transform="matrix(1 0 0 1 -57.8335 583.6896)" class="st1 st29">H</text>
	<text transform="matrix(1 0 0 1 -49.8804 584.7252)" class="st1 st29">o</text>
	<text transform="matrix(1 0 0 1 -43.7464 585.3655)" class="st1 st29">r</text>
	<text transform="matrix(1 0 0 1 -40.052 585.7048)" class="st1 st29">o</text>
	<text transform="matrix(1 0 0 1 -33.9094 586.1472)" class="st1 st29"> </text>
	<text transform="matrix(1 0 0 1 -30.8122 586.3544)" class="st1 st29">G</text>
	<text transform="matrix(1 0 0 1 -22.2095 586.722)" class="st1 st29">u</text>
	<text transform="matrix(1 0 0 1 -16.0532 586.8818)" class="st1 st29">d</text>
	<text transform="matrix(1 0 0 1 -9.9061 586.9525)" class="st1 st29">r</text>
	<text transform="matrix(1 0 0 1 -6.2488 586.953)" class="st1 st29">u</text>
	<text transform="matrix(1 0 0 1 -0.1503 586.9858)" class="st1 st29"> </text>
	<text transform="matrix(1 0 0 1 2.875 586.9995)" class="st1 st29">W</text>
	<text transform="matrix(1 0 0 1 13.2119 587.2338)" class="st1 st29">e</text>
	<text transform="matrix(1 0 0 1 19.3008 587.458)" class="st1 st29">l</text>
	<text transform="matrix(1 0 0 1 21.7276 587.5643)" class="st1 st29">l</text>
	<text transform="matrix(1 0 0 1 24.1418 587.6735)" class="st1 st29">e</text>
	<text transform="matrix(1 0 0 1 30.2078 588.0236)" class="st1 st29">g</text>
	<text transform="matrix(1 0 0 1 36.2652 588.4579)" class="st1 st29">a</text>
	<text transform="matrix(1 0 0 1 590.7436 626.2668)" class="st1 st29">M</text>
	<text transform="matrix(1 0 0 1 599.7476 624.7964)" class="st1 st29">e</text>
	<text transform="matrix(1 0 0 1 605.7671 623.8992)" class="st1 st29">t</text>
	<text transform="matrix(1 0 0 1 626.2567 621.5283)" class="st1 st29">l</text>
	<text transform="matrix(1 0 0 1 608.7579 623.4724)" class="st1 st29">e</text>
	<text transform="matrix(1 0 0 1 614.7801 622.7062)" class="st1 st29">k</text>
	<text transform="matrix(1 0 0 1 620.1996 622.0984)" class="st1 st29">e</text>
	<text transform="matrix(1 0 0 1 487.4545 401.4119)" class="st1 st29">B</text>
	<text transform="matrix(1 0 0 1 494.6637 400.9911)" class="st1 st29">a</text>
	<text transform="matrix(1 0 0 1 500.7128 400.8826)" class="st1 st29">l</text>
	<text transform="matrix(1 0 0 1 503.0842 400.8619)" class="st1 st29">e</text>
	<text transform="matrix(1 0 0 1 -133.7473 596.1135)" class="st1 st29">S</text>
	<text transform="matrix(1 0 0 1 -126.5014 596.9179)" class="st1 st29">i</text>
	<text transform="matrix(1 0 0 1 -124.1154 597.2011)" class="st1 st29">d</text>
	<text transform="matrix(1 0 0 1 -118.1122 598.0303)" class="st1 st29">a</text>
	<text transform="matrix(1 0 0 1 -112.1302 598.9598)" class="st1 st29">m</text>
	<text transform="matrix(1 0 0 1 -103.1601 600.5898)" class="st1 st29">a</text>
	<text transform="matrix(1 0 0 1 473.4962 498.5489)" class="st1 st29">N</text>
	<text transform="matrix(1 0 0 1 481.3487 497.9879)" class="st1 st29">o</text>
	<text transform="matrix(1 0 0 1 487.4142 497.7004)" class="st1 st29">r</text>
	<text transform="matrix(1 0 0 1 491.0458 497.5791)" class="st1 st29">t</text>
	<text transform="matrix(1 0 0 1 494.0641 497.497)" class="st1 st29">h</text>
	<text transform="matrix(1 0 0 1 500.1469 497.4353)" class="st1 st29"> </text>
	<text transform="matrix(1 0 0 1 503.1217 497.395)" class="st1 st29">G</text>
	<text transform="matrix(1 0 0 1 511.559 497.6451)" class="st1 st29">o</text>
	<text transform="matrix(1 0 0 1 517.5578 498.038)" class="st1 st29">n</text>
	<text transform="matrix(1 0 0 1 523.5292 498.6426)" class="st1 st29">d</text>
	<text transform="matrix(1 0 0 1 529.4633 499.4771)" class="st1 st29">a</text>
	<text transform="matrix(1 0 0 1 535.3709 500.5864)" class="st1 st29">r</text>
	<text transform="matrix(1 0 0 1 -133.9227 586.804)" class="st1 st29">W</text>
	<text transform="matrix(1 0 0 1 -123.7829 588.4569)" class="st1 st29">e</text>
	<text transform="matrix(1 0 0 1 -117.8542 589.6276)" class="st1 st29">s</text>
	<text transform="matrix(1 0 0 1 -112.5378 590.8231)" class="st1 st29">t</text>
	<text transform="matrix(1 0 0 1 -109.6103 591.5159)" class="st1 st29">e</text>
	<text transform="matrix(1 0 0 1 -103.7278 593.0419)" class="st1 st29">r</text>
	<text transform="matrix(1 0 0 1 -100.2178 593.9936)" class="st1 st29">n</text>
	<text transform="matrix(1 0 0 1 -94.34 595.6536)" class="st1 st29"> </text>
	<text transform="matrix(1 0 0 1 -91.3965 596.4974)" class="st1 st29">T</text>
	<text transform="matrix(1 0 0 1 -84.9096 598.3276)" class="st1 st29">i</text>
	<text transform="matrix(1 0 0 1 -82.5262 598.9955)" class="st1 st29">g</text>
	<text transform="matrix(1 0 0 1 -76.5638 600.5629)" class="st1 st29">r</text>
	<text transform="matrix(1 0 0 1 -72.9563 601.4684)" class="st1 st29">a</text>
	<text transform="matrix(1 0 0 1 -66.9185 602.8401)" class="st1 st29">y</text>
	<text transform="matrix(1 0 0 1 545.0031 658.9791)" class="st1 st29">B</text>
	<text transform="matrix(1 0 0 1 552.3588 658.6455)" class="st1 st29">o</text>
	<text transform="matrix(1 0 0 1 558.4855 658.3105)" class="st1 st29">t</text>
	<text transform="matrix(1 0 0 1 561.5488 658.1266)" class="st1 st29">t</text>
	<text transform="matrix(1 0 0 1 564.6156 657.9343)" class="st1 st29">o</text>
	<text transform="matrix(1 0 0 1 570.7416 657.5112)" class="st1 st29">m</text>
	<text transform="matrix(1 0 0 1 579.8898 656.7947)" class="st1 st29"> </text>
	<text transform="matrix(1 0 0 1 582.9409 656.5466)" class="st1 st29">3</text>
	<text transform="matrix(1 0 0 1 589.0367 656.0423)" class="st1 st29">0</text>
	<text transform="matrix(1 0 0 1 595.1276 655.5489)" class="st1 st29"> </text>
	<text transform="matrix(1 0 0 1 598.1613 655.3062)" class="st1 st29">Z</text>
	<text transform="matrix(1 0 0 1 604.8387 654.8116)" class="st1 st29">o</text>
	<text transform="matrix(1 0 0 1 610.9205 654.4054)" class="st1 st29">n</text>
	<text transform="matrix(1 0 0 1 617.0023 654.0477)" class="st1 st29">e</text>
	<text transform="matrix(1 0 0 1 623.09 653.7409)" class="st1 st29">s</text>
	<text transform="matrix(1 0 0 1 574.8549 553.7734)" class="st1 st29">C</text>
	<text transform="matrix(1 0 0 1 580.976 548.6133)" class="st1 st29">e</text>
	<text transform="matrix(1 0 0 1 585.5921 544.5739)" class="st1 st29">n</text>
	<text transform="matrix(1 0 0 1 590.1674 540.5264)" class="st1 st29">t</text>
	<text transform="matrix(1 0 0 1 592.4478 538.5159)" class="st1 st29">r</text>
	<text transform="matrix(1 0 0 1 595.1744 536.1254)" class="st1 st29">a</text>
	<text transform="matrix(1 0 0 1 599.8094 532.21)" class="st1 st29">l</text>
	<text transform="matrix(1 0 0 1 601.6666 530.6835)" class="st1 st29"> </text>
	<text transform="matrix(1 0 0 1 603.9709 528.8066)" class="st1 st29">T</text>
	<text transform="matrix(1 0 0 1 609.2816 524.8478)" class="st1 st29">i</text>
	<text transform="matrix(1 0 0 1 611.1782 523.4708)" class="st1 st29">g</text>
	<text transform="matrix(1 0 0 1 616.201 520.2078)" class="st1 st29">r</text>
	<text transform="matrix(1 0 0 1 619.2132 518.376)" class="st1 st29">a</text>
	<text transform="matrix(1 0 0 1 624.4569 515.5781)" class="st1 st29">y</text>
	<text transform="matrix(1 0 0 1 467.5151 375.3735)" class="st1 st29">E</text>
	<text transform="matrix(1 0 0 1 474.8338 375.2111)" class="st1 st29">a</text>
	<text transform="matrix(1 0 0 1 480.9374 375.111)" class="st1 st29">s</text>
	<text transform="matrix(1 0 0 1 486.4277 375.0476)" class="st1 st29">t</text>
	<text transform="matrix(1 0 0 1 489.4775 375.0209)" class="st1 st29"> </text>
	<text transform="matrix(1 0 0 1 492.5235 374.9972)" class="st1 st29">S</text>
	<text transform="matrix(1 0 0 1 499.83 374.9592)" class="st1 st29">h</text>
	<text transform="matrix(1 0 0 1 505.8379 374.997)" class="st1 st29">e</text>
	<text transform="matrix(1 0 0 1 511.8124 375.2313)" class="st1 st29">w</text>
	<text transform="matrix(1 0 0 1 519.5685 375.9528)" class="st1 st29">a</text>
	<text transform="matrix(1 0 0 1 272.6429 503.24)" class="st1 st29">K</text>
	<text transform="matrix(1 0 0 1 278.0738 498.5741)" class="st1 st29">e</text>
	<text transform="matrix(1 0 0 1 282.7116 494.9438)" class="st1 st29">m</text>
	<text transform="matrix(1 0 0 1 290.2199 490.1598)" class="st1 st29">b</text>
	<text transform="matrix(1 0 0 1 295.4315 487.4001)" class="st1 st29">a</text>
	<text transform="matrix(1 0 0 1 300.8987 485.0598)" class="st1 st29">t</text>
	<text transform="matrix(1 0 0 1 303.591 484.0136)" class="st1 st29">a</text>
	<text transform="matrix(1 0 0 1 309.2915 482.3084)" class="st1 st29"> </text>
	<text transform="matrix(1 0 0 1 312.0804 481.5637)" class="st1 st29">T</text>
	<text transform="matrix(1 0 0 1 318.5434 480.4168)" class="st1 st29">i</text>
	<text transform="matrix(1 0 0 1 320.7737 480.0133)" class="st1 st29">m</text>
	<text transform="matrix(1 0 0 1 329.7043 479.4442)" class="st1 st29">b</text>
	<text transform="matrix(1 0 0 1 335.7495 479.4509)" class="st1 st29">a</text>
	<text transform="matrix(1 0 0 1 341.8011 479.6188)" class="st1 st29">r</text>
	<text transform="matrix(1 0 0 1 345.3926 479.7722)" class="st1 st29">o</text>
	<text transform="matrix(1 0 0 1 271.4403 548.2838)" class="st1 st29">S</text>
	<text transform="matrix(1 0 0 1 278.6396 547.2501)" class="st1 st29">o</text>
	<text transform="matrix(1 0 0 1 284.6552 546.512)" class="st1 st29">u</text>
	<text transform="matrix(1 0 0 1 290.7007 545.8976)" class="st1 st29">t</text>
	<text transform="matrix(1 0 0 1 293.705 545.6187)" class="st1 st29">h</text>
	<text transform="matrix(1 0 0 1 299.769 545.1648)" class="st1 st29"> </text>
	<text transform="matrix(1 0 0 1 302.7819 544.9606)" class="st1 st29">T</text>
	<text transform="matrix(1 0 0 1 309.4608 544.6257)" class="st1 st29">i</text>
	<text transform="matrix(1 0 0 1 311.8746 544.5177)" class="st1 st29">g</text>
	<text transform="matrix(1 0 0 1 317.9597 544.3295)" class="st1 st29">r</text>
	<text transform="matrix(1 0 0 1 321.5948 544.2437)" class="st1 st29">a</text>
	<text transform="matrix(1 0 0 1 327.6821 544.1661)" class="st1 st29">y</text>
	<text transform="matrix(1 0 0 1 -135.3486 364.2878)" class="st1 st29">E</text>
	<text transform="matrix(1 0 0 1 -130.128 369.1539)" class="st1 st29">a</text>
	<text transform="matrix(1 0 0 1 -126.0472 373.4948)" class="st1 st29">s</text>
	<text transform="matrix(1 0 0 1 -122.5462 377.6299)" class="st1 st29">t</text>
	<text transform="matrix(1 0 0 1 -120.6764 379.9331)" class="st1 st29">e</text>
	<text transform="matrix(1 0 0 1 -117.0669 384.7688)" class="st1 st29">r</text>
	<text transform="matrix(1 0 0 1 -114.9793 387.6919)" class="st1 st29">n</text>
	<text transform="matrix(1 0 0 1 -111.6075 392.728)" class="st1 st29"> </text>
	<text transform="matrix(1 0 0 1 -109.9647 395.2446)" class="st1 st29">T</text>
	<text transform="matrix(1 0 0 1 -106.4493 400.9246)" class="st1 st29">i</text>
	<text transform="matrix(1 0 0 1 -105.1941 402.9866)" class="st1 st29">g</text>
	<text transform="matrix(1 0 0 1 -102.103 408.2352)" class="st1 st29">r</text>
	<text transform="matrix(1 0 0 1 -100.2755 411.3884)" class="st1 st29">a</text>
	<text transform="matrix(1 0 0 1 -97.2532 416.6931)" class="st1 st29">y</text>
	<text transform="matrix(1 0 0 1 -133.9919 577.8989)" class="st1 st29">S</text>
	<text transform="matrix(1 0 0 1 -126.8447 579.0734)" class="st1 st29">o</text>
	<text transform="matrix(1 0 0 1 -120.9241 580.2311)" class="st1 st29">u</text>
	<text transform="matrix(1 0 0 1 -115.0189 581.5779)" class="st1 st29">t</text>
	<text transform="matrix(1 0 0 1 -112.1018 582.2838)" class="st1 st29">h</text>
	<text transform="matrix(1 0 0 1 -86.3652 589.804)" class="st1 st29">o</text>
	<text transform="matrix(1 0 0 1 -106.2386 583.8589)" class="st1 st29"> </text>
	<text transform="matrix(1 0 0 1 -103.334 584.6642)" class="st1 st29">O</text>
	<text transform="matrix(1 0 0 1 -95.1574 587.1178)" class="st1 st29">m</text>
	<text transform="matrix(1 0 0 1 486.8235 542.0319)" class="st1 st29">G</text>
	<text transform="matrix(1 0 0 1 495.2383 541.5438)" class="st1 st29">u</text>
	<text transform="matrix(1 0 0 1 501.2872 541.4529)" class="st1 st29">j</text>
	<text transform="matrix(1 0 0 1 503.6919 541.463)" class="st1 st29">i</text>
	<text transform="matrix(1 0 0 1 602.2644 390.0155)" class="st1 st29">H</text>
	<text transform="matrix(1 0 0 1 607.9733 384.6859)" class="st1 st29">a</text>
	<text transform="matrix(1 0 0 1 612.5095 380.7968)" class="st1 st29">d</text>
	<text transform="matrix(1 0 0 1 617.2732 377.1451)" class="st1 st29">i</text>
	<text transform="matrix(1 0 0 1 619.1484 375.7635)" class="st1 st29">y</text>
	<text transform="matrix(1 0 0 1 623.5812 372.8245)" class="st1 st29">a</text>
	<text transform="matrix(1 0 0 1 606.285 428.9412)" class="st1 st29">S</text>
	<text transform="matrix(1 0 0 1 612.4829 425.2278)" class="st1 st29">i</text>
	<text transform="matrix(1 0 0 1 614.5648 424.067)" class="st1 st29">l</text>
	<text transform="matrix(1 0 0 1 616.6673 422.9494)" class="st1 st29">i</text>
	<text transform="matrix(1 0 0 1 618.7817 421.8773)" class="st1 st29">t</text>
	<text transform="matrix(1 0 0 1 621.4764 420.6025)" class="st1 st29">i</text>
	<text transform="matrix(1 0 0 1 519.3689 265.0624)" class="st1 st30">S</text>
	<text transform="matrix(1 0 0 1 526.6573 265.4044)" class="st1 st30">o</text>
	<text transform="matrix(1 0 0 1 532.7239 265.7682)" class="st1 st30">u</text>
	<text transform="matrix(1 0 0 1 538.7928 266.2224)" class="st1 st30">t</text>
	<text transform="matrix(1 0 0 1 541.8062 266.4677)" class="st1 st30">h</text>
	<text transform="matrix(1 0 0 1 547.8624 267.0531)" class="st1 st30"> </text>
	<text transform="matrix(1 0 0 1 550.8585 267.3436)" class="st1 st30">W</text>
	<text transform="matrix(1 0 0 1 561.1136 268.6172)" class="st1 st30">e</text>
	<text transform="matrix(1 0 0 1 567.15 269.4566)" class="st1 st30">s</text>
	<text transform="matrix(1 0 0 1 572.5835 270.2546)" class="st1 st30">t</text>
	<text transform="matrix(1 0 0 1 575.6053 270.7064)" class="st1 st30"> </text>
	<text transform="matrix(1 0 0 1 578.6346 271.1647)" class="st1 st30">S</text>
	<text transform="matrix(1 0 0 1 585.9156 272.2419)" class="st1 st30">h</text>
	<text transform="matrix(1 0 0 1 592.0074 273.0952)" class="st1 st30">e</text>
	<text transform="matrix(1 0 0 1 598.1207 273.889)" class="st1 st30">w</text>
	<text transform="matrix(1 0 0 1 606.0657 274.7764)" class="st1 st30">a</text>
	<text transform="matrix(1 0 0 1 608.6333 293.6812)" class="st1 st30">G</text>
	<text transform="matrix(1 0 0 1 612.8945 286.3795)" class="st1 st30">u</text>
	<text transform="matrix(1 0 0 1 616.1161 281.2747)" class="st1 st30">r</text>
	<text transform="matrix(1 0 0 1 618.0773 278.2914)" class="st1 st30">a</text>
	<text transform="matrix(1 0 0 1 621.5428 273.415)" class="st1 st30">g</text>
	<text transform="matrix(1 0 0 1 625.2145 268.7147)" class="st1 st30">e</text>
	<text transform="matrix(1 0 0 1 292.4906 250.2172)" class="st1 st30">S</text>
	<text transform="matrix(1 0 0 1 300.3585 246.3275)" class="st1 st30">o</text>
	<text transform="matrix(1 0 0 1 306.7957 244.5866)" class="st1 st30">u</text>
	<text transform="matrix(1 0 0 1 314.1082 242.9311)" class="st1 st30">t</text>
	<text transform="matrix(1 0 0 1 317.9598 241.9312)" class="st1 st30">h</text>
	<text transform="matrix(1 0 0 1 322.4929 241.9313)" class="st1 st30"> </text>
	<text transform="matrix(1 0 0 1 327.0338 240.9904)" class="st1 st30">W</text>
	<text transform="matrix(1 0 0 1 337.934 239.831)" class="st1 st30">o</text>
	<text transform="matrix(1 0 0 1 344.9519 239.8967)" class="st1 st30">l</text>
	<text transform="matrix(1 0 0 1 347.2903 239.9538)" class="st1 st30">o</text>
	<text transform="matrix(1 0 0 1 306.7961 274.5603)" class="st1 st30">W</text>
	<text transform="matrix(1 0 0 1 316.7756 272.74)" class="st1 st30">e</text>
	<text transform="matrix(1 0 0 1 322.7058 272.0997)" class="st1 st30">s</text>
	<text transform="matrix(1 0 0 1 328.0925 271.8117)" class="st1 st30">t</text>
	<text transform="matrix(1 0 0 1 331.0773 271.7455)" class="st1 st30"> </text>
	<text transform="matrix(1 0 0 1 334.0192 271.7054)" class="st1 st30">A</text>
	<text transform="matrix(1 0 0 1 341.2162 272.0309)" class="st1 st30">r</text>
	<text transform="matrix(1 0 0 1 344.7507 272.3085)" class="st1 st30">s</text>
	<text transform="matrix(1 0 0 1 350.0975 273.0005)" class="st1 st30">i</text>
	<text transform="matrix(1 0 0 1 472.7112 238.6145)" class="st1 st30">E</text>
	<text transform="matrix(1 0 0 1 479.7509 237.2574)" class="st1 st30">a</text>
	<text transform="matrix(1 0 0 1 485.6799 236.4506)" class="st1 st30">s</text>
	<text transform="matrix(1 0 0 1 491.0665 235.9758)" class="st1 st30">t</text>
	<text transform="matrix(1 0 0 1 494.0546 235.7946)" class="st1 st30"> </text>
	<text transform="matrix(1 0 0 1 496.9973 235.6266)" class="st1 st30">G</text>
	<text transform="matrix(1 0 0 1 505.3483 235.6309)" class="st1 st30">o</text>
	<text transform="matrix(1 0 0 1 511.3163 236.0657)" class="st1 st30">j</text>
	<text transform="matrix(1 0 0 1 521.7198 237.5943)" class="st1 st30">m</text>
	<text transform="matrix(1 0 0 1 513.666 236.3267)" class="st1 st30">j</text>
	<text transform="matrix(1 0 0 1 515.9517 236.5944)" class="st1 st30">a</text>
	<text transform="matrix(1 0 0 1 144.4665 252.2204)" class="st1 st30">W</text>
	<text transform="matrix(1 0 0 1 154.3942 250.5947)" class="st1 st30">e</text>
	<text transform="matrix(1 0 0 1 160.2894 250.2171)" class="st1 st30">s</text>
	<text transform="matrix(1 0 0 1 165.597 250.283)" class="st1 st30">t</text>
	<text transform="matrix(1 0 0 1 168.5027 250.4845)" class="st1 st30"> </text>
	<text transform="matrix(1 0 0 1 171.3037 250.7146)" class="st1 st30">S</text>
	<text transform="matrix(1 0 0 1 178.1586 252.1455)" class="st1 st30">h</text>
	<text transform="matrix(1 0 0 1 183.6891 253.9457)" class="st1 st30">e</text>
	<text transform="matrix(1 0 0 1 189.0052 256.2468)" class="st1 st30">w</text>
	<text transform="matrix(1 0 0 1 195.5745 260.1534)" class="st1 st30">a</text>
	<text transform="matrix(1 0 0 1 296.4031 165.7789)" class="st1 st31">N</text>
	<text transform="matrix(1 0 0 1 304.2705 165.2212)" class="st1 st31">o</text>
	<text transform="matrix(1 0 0 1 310.3441 164.9064)" class="st1 st31">r</text>
	<text transform="matrix(1 0 0 1 313.981 164.7584)" class="st1 st31">t</text>
	<text transform="matrix(1 0 0 1 317.0056 164.6502)" class="st1 st31">h</text>
	<text transform="matrix(1 0 0 1 323.0941 164.515)" class="st1 st31"> </text>
	<text transform="matrix(1 0 0 1 326.1208 164.462)" class="st1 st31">S</text>
	<text transform="matrix(1 0 0 1 333.4514 164.442)" class="st1 st31">h</text>
	<text transform="matrix(1 0 0 1 353.6768 164.2918)" class="st1 st31">a</text>
	<text transform="matrix(1 0 0 1 339.5815 164.4266)" class="st1 st31">e</text>
	<text transform="matrix(1 0 0 1 345.7151 164.3887)" class="st1 st31">w</text>
</g>
</svg>
