<svg width="847" height="500" xmlns="http://www.w3.org/2000/svg" version="1.1"><g><g class="x axis" transform="translate(0,480)" style="stroke-width: 1px; font-size: 10px; font-family: Arial, Helvetica; display: block;"><g class="tick" transform="translate(0,0)" style="opacity: 1;"><line y2="-480" x2="0" style="shape-rendering: crispEdges; fill: none; stroke: rgb(204, 204, 204);"></line><text dy=".71em" y="3" x="0" style="text-anchor: middle;">2,011.0</text></g><g class="tick" transform="translate(105.875,0)" style="opacity: 1;"><line y2="-480" x2="0" style="shape-rendering: crispEdges; fill: none; stroke: rgb(204, 204, 204);"></line><text dy=".71em" y="3" x="0" style="text-anchor: middle;">2,011.5</text></g><g class="tick" transform="translate(211.75,0)" style="opacity: 1;"><line y2="-480" x2="0" style="shape-rendering: crispEdges; fill: none; stroke: rgb(204, 204, 204);"></line><text dy=".71em" y="3" x="0" style="text-anchor: middle;">2,012.0</text></g><g class="tick" transform="translate(317.625,0)" style="opacity: 1;"><line y2="-480" x2="0" style="shape-rendering: crispEdges; fill: none; stroke: rgb(204, 204, 204);"></line><text dy=".71em" y="3" x="0" style="text-anchor: middle;">2,012.5</text></g><g class="tick" transform="translate(423.5,0)" style="opacity: 1;"><line y2="-480" x2="0" style="shape-rendering: crispEdges; fill: none; stroke: rgb(204, 204, 204);"></line><text dy=".71em" y="3" x="0" style="text-anchor: middle;">2,013.0</text></g><g class="tick" transform="translate(529.375,0)" style="opacity: 1;"><line y2="-480" x2="0" style="shape-rendering: crispEdges; fill: none; stroke: rgb(204, 204, 204);"></line><text dy=".71em" y="3" x="0" style="text-anchor: middle;">2,013.5</text></g><g class="tick" transform="translate(635.25,0)" style="opacity: 1;"><line y2="-480" x2="0" style="shape-rendering: crispEdges; fill: none; stroke: rgb(204, 204, 204);"></line><text dy=".71em" y="3" x="0" style="text-anchor: middle;">2,014.0</text></g><g class="tick" transform="translate(741.125,0)" style="opacity: 1;"><line y2="-480" x2="0" style="shape-rendering: crispEdges; fill: none; stroke: rgb(204, 204, 204);"></line><text dy=".71em" y="3" x="0" style="text-anchor: middle;">2,014.5</text></g><g class="tick" transform="translate(847,0)" style="opacity: 1;"><line y2="-480" x2="0" style="shape-rendering: crispEdges; fill: none; stroke: rgb(204, 204, 204);"></line><text dy=".71em" y="3" x="0" style="text-anchor: middle;">2,015.0</text></g><path class="domain" d="M0,-480V0H847V-480" style="shape-rendering: crispEdges; fill: none; stroke: rgb(204, 204, 204);"></path></g><path class="layer" d="M0,399.33604072038133C105.875,399.33604072038133 105.875,409.10360841342725 211.75,409.10360841342725C317.625,409.10360841342725 317.625,433.2908730780559 423.5,433.2908730780559C529.375,433.2908730780559 529.375,438.7911048445821 635.25,438.7911048445821C741.125,438.7911048445821 741.125,430.5041565961047 847,430.5041565961047L847,465.08063004136983C741.125,465.08063004136983 741.125,473.73163060475446 635.25,473.73163060475446C529.375,473.73163060475446 529.375,468.8007212539811 423.5,468.8007212539811C317.625,468.8007212539811 317.625,444.123287882337 211.75,444.123287882337C105.875,444.123287882337 105.875,432.74988274128407 0,432.74988274128407Z" title="1" style="fill-opacity: 0.9; fill: rgb(191, 105, 105);"></path><path class="layer" d="M0,435.10682226225754C105.875,435.10682226225754 105.875,448.9633491214741 211.75,448.9633491214741C317.625,448.9633491214741 317.625,474.1053581780501 423.5,474.1053581780501C529.375,474.1053581780501 529.375,479 635.25,479C741.125,479 741.125,473.8665534470912 847,473.8665534470912L847,474.8665534470912C741.125,474.8665534470912 741.125,480 635.25,480C529.375,480 529.375,475.1053581780501 423.5,475.1053581780501C317.625,475.1053581780501 317.625,449.9633491214741 211.75,449.9633491214741C105.875,449.9633491214741 105.875,436.10682226225754 0,436.10682226225754Z" title="2" style="fill-opacity: 0.9; fill: rgb(191, 191, 105);"></path><path class="layer" d="M0,309.74910572496236C105.875,309.74910572496236 105.875,312.6047298823614 211.75,312.6047298823614C317.625,312.6047298823614 317.625,208.22945027300804 423.5,208.22945027300804C529.375,208.22945027300804 529.375,214.5611018968541 635.25,214.5611018968541C741.125,214.5611018968541 741.125,210.26172653401437 847,210.26172653401437L847,320.8059253466571C741.125,320.8059253466571 741.125,331.69431531371646 635.25,331.69431531371646C529.375,331.69431531371646 529.375,328.2810301472067 423.5,328.2810301472067C317.625,328.2810301472067 317.625,409.08169627553326 211.75,409.08169627553326C105.875,409.08169627553326 105.875,399.3141285824874 0,399.3141285824874Z" title="3" style="fill-opacity: 0.9; fill: rgb(105, 191, 105);"></path><path class="layer" d="M0,43.89317773774246C105.875,43.89317773774246 105.875,30.036650878525926 211.75,30.036650878525926C317.625,30.036650878525926 317.625,4.894641821949914 423.5,4.894641821949914C529.375,4.894641821949914 529.375,0 635.25,0C741.125,0 741.125,5.133446552908811 847,5.133446552908811L847,210.2398143961204C741.125,210.2398143961204 741.125,214.53918975896013 635.25,214.53918975896013C529.375,214.53918975896013 529.375,208.20753813511408 423.5,208.20753813511408C317.625,208.20753813511408 317.625,213.0241358362608 211.75,213.0241358362608C105.875,213.0241358362608 105.875,215.9155412960874 0,215.9155412960874Z" title="4" style="fill-opacity: 0.9; fill: rgb(105, 191, 191);"></path><path class="layer" d="M0,432.771794879178C105.875,432.771794879178 105.875,444.14520002023096 211.75,444.14520002023096C317.625,444.14520002023096 317.625,468.8226333918751 423.5,468.8226333918751C529.375,468.8226333918751 529.375,473.7535427426484 635.25,473.7535427426484C741.125,473.7535427426484 741.125,465.1025421792638 847,465.1025421792638L847,474.84464130919724C741.125,474.84464130919724 741.125,479.89263054404046 635.25,479.89263054404046C529.375,479.89263054404046 529.375,475.0834460401561 423.5,475.0834460401561C317.625,475.0834460401561 317.625,449.9414369835801 211.75,449.9414369835801C105.875,449.9414369835801 105.875,436.08491012436355 0,436.08491012436355Z" title="6" style="fill-opacity: 0.9; fill: rgb(105, 105, 191);"></path><path class="layer" d="M0,215.93745343398137C105.875,215.93745343398137 105.875,213.04604797415476 211.75,213.04604797415476C317.625,213.04604797415476 317.625,328.30294228510076 423.5,328.30294228510076C529.375,328.30294228510076 529.375,331.71622745161045 635.25,331.71622745161045C741.125,331.71622745161045 741.125,320.82783748455114 847,320.82783748455114L847,430.48224445821074C741.125,430.48224445821074 741.125,438.76919270668816 635.25,438.76919270668816C529.375,438.76919270668816 529.375,433.2689609401619 423.5,433.2689609401619C317.625,433.2689609401619 317.625,312.58281774446743 211.75,312.58281774446743C105.875,312.58281774446743 105.875,309.72719358706837 0,309.72719358706837Z" title="7" style="fill-opacity: 0.9; fill: rgb(191, 105, 191);"></path><defs><path id="path-0" d="M0,416.0429617308327C105.875,416.0429617308327 105.875,426.61344814788214 211.75,426.61344814788214C317.625,426.61344814788214 317.625,451.0457971660185 423.5,451.0457971660185C529.375,451.0457971660185 529.375,456.2613677246683 635.25,456.2613677246683C741.125,456.2613677246683 741.125,447.79239331873725 847,447.79239331873725"></path><path id="path-1" d="M0,436.10682226225754C105.875,436.10682226225754 105.875,449.9633491214741 211.75,449.9633491214741C317.625,449.9633491214741 317.625,475.1053581780501 423.5,475.1053581780501C529.375,475.1053581780501 529.375,479.9572713409672 635.25,479.9572713409672C741.125,479.9572713409672 741.125,474.8665534470912 847,474.8665534470912"></path><path id="path-2" d="M0,354.5316171537249C105.875,354.5316171537249 105.875,360.8432130789473 211.75,360.8432130789473C317.625,360.8432130789473 317.625,268.2552402101074 423.5,268.2552402101074C529.375,268.2552402101074 529.375,273.1277086052853 635.25,273.1277086052853C741.125,273.1277086052853 741.125,265.53382594033576 847,265.53382594033576"></path><path id="path-3" d="M0,129.90435951691495C105.875,129.90435951691495 105.875,121.53039335739336 211.75,121.53039335739336C317.625,121.53039335739336 317.625,106.55108997853199 423.5,106.55108997853199C529.375,106.55108997853199 529.375,107.26959487948007 635.25,107.26959487948007C741.125,107.26959487948007 741.125,107.68663047451462 847,107.68663047451462"></path><path id="path-4" d="M0,434.42835250177075C105.875,434.42835250177075 105.875,447.04331850190556 211.75,447.04331850190556C317.625,447.04331850190556 317.625,471.9530397160156 423.5,471.9530397160156C529.375,471.9530397160156 529.375,476.8230866433444 635.25,476.8230866433444C741.125,476.8230866433444 741.125,469.97359174423053 847,469.97359174423053"></path><path id="path-5" d="M0,262.8323235105249C105.875,262.8323235105249 105.875,262.81443285931107 211.75,262.81443285931107C317.625,262.81443285931107 317.625,380.7859516126313 423.5,380.7859516126313C529.375,380.7859516126313 529.375,385.24271007914933 635.25,385.24271007914933C741.125,385.24271007914933 741.125,375.6550409713809 847,375.6550409713809"></path></defs><text dy="0.5ex" class="label"><textPath xmlns:xlink="http://www.w3.org/1999/xlink" xlink:href="#path-0" startOffset="50%" text-anchor="middle" style="font-size: 11px; font-family: Arial, Helvetica; font-weight: normal;">1</textPath></text><text dy="0.5ex" class="label"><textPath xmlns:xlink="http://www.w3.org/1999/xlink" xlink:href="#path-1" startOffset="75%" text-anchor="middle" style="font-size: 11px; font-family: Arial, Helvetica; font-weight: normal;">2</textPath></text><text dy="0.5ex" class="label"><textPath xmlns:xlink="http://www.w3.org/1999/xlink" xlink:href="#path-2" startOffset="50%" text-anchor="middle" style="font-size: 11px; font-family: Arial, Helvetica; font-weight: normal;">3</textPath></text><text dy="0.5ex" class="label"><textPath xmlns:xlink="http://www.w3.org/1999/xlink" xlink:href="#path-3" startOffset="75%" text-anchor="middle" style="font-size: 11px; font-family: Arial, Helvetica; font-weight: normal;">4</textPath></text><text dy="0.5ex" class="label"><textPath xmlns:xlink="http://www.w3.org/1999/xlink" xlink:href="#path-4" startOffset="95%" text-anchor="end" style="font-size: 11px; font-family: Arial, Helvetica; font-weight: normal;">6</textPath></text><text dy="0.5ex" class="label"><textPath xmlns:xlink="http://www.w3.org/1999/xlink" xlink:href="#path-5" startOffset="95%" text-anchor="end" style="font-size: 11px; font-family: Arial, Helvetica; font-weight: normal;">7</textPath></text></g></svg>