<svg width="847" height="542" xmlns="http://www.w3.org/2000/svg" version="1.1"><g><g class="x axis" transform="translate(0,522)" style="stroke-width: 1px; font-size: 10px; font-family: Arial, Helvetica; display: block;"><g class="tick" transform="translate(0,0)" style="opacity: 1;"><line y2="-522" x2="0" style="shape-rendering: crispEdges; fill: none; stroke: rgb(204, 204, 204);"></line><text dy=".71em" y="3" x="0" style="text-anchor: middle;">2010</text></g><g class="tick" transform="translate(169.30722891566265,0)" style="opacity: 1;"><line y2="-522" x2="0" style="shape-rendering: crispEdges; fill: none; stroke: rgb(204, 204, 204);"></line><text dy=".71em" y="3" x="0" style="text-anchor: middle;">2011</text></g><g class="tick" transform="translate(338.6144578313253,0)" style="opacity: 1;"><line y2="-522" x2="0" style="shape-rendering: crispEdges; fill: none; stroke: rgb(204, 204, 204);"></line><text dy=".71em" y="3" x="0" style="text-anchor: middle;">2012</text></g><g class="tick" transform="translate(508.3855421686747,0)" style="opacity: 1;"><line y2="-522" x2="0" style="shape-rendering: crispEdges; fill: none; stroke: rgb(204, 204, 204);"></line><text dy=".71em" y="3" x="0" style="text-anchor: middle;">2013</text></g><g class="tick" transform="translate(677.6927710843374,0)" style="opacity: 1;"><line y2="-522" x2="0" style="shape-rendering: crispEdges; fill: none; stroke: rgb(204, 204, 204);"></line><text dy=".71em" y="3" x="0" style="text-anchor: middle;">2014</text></g><g class="tick" transform="translate(847,0)" style="opacity: 1;"><line y2="-522" x2="0" style="shape-rendering: crispEdges; fill: none; stroke: rgb(204, 204, 204);"></line><text dy=".71em" y="3" x="0" style="text-anchor: middle;">2015</text></g><path class="domain" d="M0,-522V0H847V-522" style="shape-rendering: crispEdges; fill: none; stroke: rgb(204, 204, 204);"></path></g><path class="layer" d="M0,311.853847145648C84.65361445783132,311.853847145648 84.65361445783132,319.3478423978946 169.30722891566265,319.3478423978946C253.96084337349396,319.3478423978946 253.96084337349396,275.73092059154385 338.6144578313253,275.73092059154385C423.5,275.73092059154385 423.5,336.13819778487266 508.3855421686747,336.13819778487266C593.039156626506,336.13819778487266 593.039156626506,336.3242825538762 677.6927710843374,336.3242825538762C762.3463855421687,336.3242825538762 762.3463855421687,342.91193884308905 847,342.91193884308905L847,400.460322316209C762.3463855421687,400.460322316209 762.3463855421687,404.51164173691456 677.6927710843374,404.51164173691456C593.039156626506,404.51164173691456 593.039156626506,400.77535579192596 508.3855421686747,400.77535579192596C423.5,400.77535579192596 423.5,329.7820004768462 338.6144578313253,329.7820004768462C253.96084337349396,329.7820004768462 253.96084337349396,374.8640932995583 169.30722891566265,374.8640932995583C84.65361445783132,374.8640932995583 84.65361445783132,359.66479606322144 0,359.66479606322144Z" title="Arsi" style="fill-opacity: 0.9; fill: rgb(191, 105, 105);"></path><path class="layer" d="M0,266.063616336555C84.65361445783132,266.063616336555 84.65361445783132,276.2247775619211 169.30722891566265,276.2247775619211C253.96084337349396,276.2247775619211 253.96084337349396,329.935638092777 338.6144578313253,329.935638092777C423.5,329.935638092777 423.5,274.7813737432089 508.3855421686747,274.7813737432089C593.039156626506,274.7813737432089 593.039156626506,271.8521662810439 677.6927710843374,271.8521662810439C762.3463855421687,271.8521662810439 762.3463855421687,286.75321733043234 847,286.75321733043234L847,342.7583012271581C762.3463855421687,342.7583012271581 762.3463855421687,336.1706449379453 677.6927710843374,336.1706449379453C593.039156626506,336.1706449379453 593.039156626506,335.9845601689418 508.3855421686747,335.9845601689418C423.5,335.9845601689418 423.5,387.5879012485147 338.6144578313253,387.5879012485147C253.96084337349396,387.5879012485147 253.96084337349396,319.1942047819638 169.30722891566265,319.1942047819638C84.65361445783132,319.1942047819638 84.65361445783132,311.70020952971714 0,311.70020952971714Z" title="Bale" style="fill-opacity: 0.9; fill: rgb(191, 137, 105);"></path><path class="layer" d="M0,359.81843367915235C84.65361445783132,359.81843367915235 84.65361445783132,375.01773091548915 169.30722891566265,375.01773091548915C253.96084337349396,375.01773091548915 253.96084337349396,387.7415388644456 338.6144578313253,387.7415388644456C423.5,387.7415388644456 423.5,400.92899340785675 508.3855421686747,400.92899340785675C593.039156626506,400.92899340785675 593.039156626506,404.66527935284546 677.6927710843374,404.66527935284546C762.3463855421687,404.66527935284546 762.3463855421687,400.6139599321399 847,400.6139599321399L847,489.0626150845797C762.3463855421687,489.0626150845797 762.3463855421687,522 677.6927710843374,522C593.039156626506,522 593.039156626506,501.6045712752456 508.3855421686747,501.6045712752456C423.5,501.6045712752456 423.5,479.01775618463955 338.6144578313253,479.01775618463955C253.96084337349396,479.01775618463955 253.96084337349396,451.9193160493911 169.30722891566265,451.9193160493911C84.65361445783132,451.9193160493911 84.65361445783132,446.1584970174319 0,446.1584970174319Z" title="Bottom 40 Zones" style="fill-opacity: 0.9; fill: rgb(191, 169, 105);"></path><path class="layer" d="M0,189.8405747307892C84.65361445783132,189.8405747307892 84.65361445783132,121.29213110854792 169.30722891566265,121.29213110854792C253.96084337349396,121.29213110854792 253.96084337349396,141.32602087745477 338.6144578313253,141.32602087745477C423.5,141.32602087745477 423.5,123.99735623600255 508.3855421686747,123.99735623600255C593.039156626506,123.99735623600255 593.039156626506,130.40077340900325 677.6927710843374,130.40077340900325C762.3463855421687,130.40077340900325 762.3463855421687,148.75183473047412 847,148.75183473047412L847,172.67289308802614C762.3463855421687,172.67289308802614 762.3463855421687,153.3070305159806 677.6927710843374,153.3070305159806C593.039156626506,153.3070305159806 593.039156626506,143.69310743420405 508.3855421686747,143.69310743420405C423.5,143.69310743420405 423.5,158.05318791804663 338.6144578313253,158.05318791804663C253.96084337349396,158.05318791804663 253.96084337349396,133.18631835324925 169.30722891566265,133.18631835324925C84.65361445783132,133.18631835324925 84.65361445783132,207.42652177425072 0,207.42652177425072Z" title="East Gojjam" style="fill-opacity: 0.9; fill: rgb(180, 191, 105);"></path><path class="layer" d="M0,159.8292747959872C84.65361445783132,159.8292747959872 84.65361445783132,189.5970497376609 169.30722891566265,189.5970497376609C253.96084337349396,189.5970497376609 253.96084337349396,176.40517246798598 338.6144578313253,176.40517246798598C423.5,176.40517246798598 423.5,166.00998081073828 508.3855421686747,166.00998081073828C593.039156626506,166.00998081073828 593.039156626506,153.46066813191143 677.6927710843374,153.46066813191143C762.3463855421687,153.46066813191143 762.3463855421687,172.82653070395702 847,172.82653070395702L847,205.35374526819172C762.3463855421687,205.35374526819172 762.3463855421687,180.9989822690299 677.6927710843374,180.9989822690299C593.039156626506,180.9989822690299 593.039156626506,190.2048959441332 508.3855421686747,190.2048959441332C423.5,190.2048959441332 423.5,200.84204054387428 338.6144578313253,200.84204054387428C253.96084337349396,200.84204054387428 253.96084337349396,211.22954839544326 169.30722891566265,211.22954839544326C84.65361445783132,211.22954839544326 84.65361445783132,174.66860977581746 0,174.66860977581746Z" title="East Shewa" style="fill-opacity: 0.9; fill: rgb(148, 191, 105);"></path><path class="layer" d="M0,102.49732720450592C84.65361445783132,102.49732720450592 84.65361445783132,99.06018900579933 169.30722891566265,99.06018900579933C253.96084337349396,99.06018900579933 253.96084337349396,53.002944586504164 338.6144578313253,53.002944586504164C423.5,53.002944586504164 423.5,20.39542872475444 508.3855421686747,20.39542872475444C593.039156626506,20.39542872475444 593.039156626506,0 677.6927710843374,0C762.3463855421687,0 762.3463855421687,32.93738491542032 847,32.93738491542032L847,41.90172344066266C762.3463855421687,41.90172344066266 762.3463855421687,11.119147660220028 677.6927710843374,11.119147660220028C593.039156626506,11.119147660220028 593.039156626506,29.275516608411856 508.3855421686747,29.275516608411856C423.5,29.275516608411856 423.5,63.209953102204366 338.6144578313253,63.209953102204366C253.96084337349396,63.209953102204366 253.96084337349396,109.69414516530342 169.30722891566265,109.69414516530342C84.65361445783132,109.69414516530342 84.65361445783132,111.78228735795645 0,111.78228735795645Z" title="Eastern Tigray" style="fill-opacity: 0.9; fill: rgb(116, 191, 105);"></path><path class="layer" d="M0,83.94293568202596C84.65361445783132,83.94293568202596 84.65361445783132,109.84778278123429 169.30722891566265,109.84778278123429C253.96084337349396,109.84778278123429 253.96084337349396,112.28828014706254 338.6144578313253,112.28828014706254C423.5,112.28828014706254 423.5,29.429154224342724 508.3855421686747,29.429154224342724C593.039156626506,29.429154224342724 593.039156626506,22.658280244214232 677.6927710843374,22.658280244214232C762.3463855421687,22.658280244214232 762.3463855421687,42.05536105659347 847,42.05536105659347L847,51.57856334893088C762.3463855421687,51.57856334893088 762.3463855421687,34.3854152217706 677.6927710843374,34.3854152217706C593.039156626506,34.3854152217706 593.039156626506,40.7103744105409 508.3855421686747,40.7103744105409C423.5,40.7103744105409 423.5,126.20165807952431 338.6144578313253,126.20165807952431C253.96084337349396,126.20165807952431 253.96084337349396,121.13849349261712 169.30722891566265,121.13849349261712C84.65361445783132,121.13849349261712 84.65361445783132,93.05184192692906 0,93.05184192692906Z" title="Hadiya" style="fill-opacity: 0.9; fill: rgb(105, 191, 126);"></path><path class="layer" d="M0,121.6623941016916C84.65361445783132,121.6623941016916 84.65361445783132,133.33995596918007 169.30722891566265,133.33995596918007C253.96084337349396,133.33995596918007 253.96084337349396,74.25222156517778 338.6144578313253,74.25222156517778C423.5,74.25222156517778 423.5,65.21413844911328 508.3855421686747,65.21413844911328C593.039156626506,65.21413844911328 593.039156626506,47.190753568587844 677.6927710843374,47.190753568587844C762.3463855421687,47.190753568587844 762.3463855421687,51.732200964861754 847,51.732200964861754L847,62.00389990074438C762.3463855421687,62.00389990074438 762.3463855421687,60.96957573743365 677.6927710843374,60.96957573743365C593.039156626506,60.96957573743365 593.039156626506,78.49404830259935 508.3855421686747,78.49404830259935C423.5,78.49404830259935 423.5,86.08337636206439 338.6144578313253,86.08337636206439C253.96084337349396,86.08337636206439 253.96084337349396,145.3982221483055 169.30722891566265,145.3982221483055C84.65361445783132,145.3982221483055 84.65361445783132,131.9764223948158 0,131.9764223948158Z" title="North Gondar" style="fill-opacity: 0.9; fill: rgb(105, 191, 159);"></path><path class="layer" d="M0,236.2813201378197C84.65361445783132,236.2813201378197 84.65361445783132,211.38318601137405 169.30722891566265,211.38318601137405C253.96084337349396,211.38318601137405 253.96084337349396,200.9956781598051 338.6144578313253,200.9956781598051C423.5,200.9956781598051 423.5,190.35853356006407 508.3855421686747,190.35853356006407C593.039156626506,190.35853356006407 593.039156626506,181.15261988496073 677.6927710843374,181.15261988496073C762.3463855421687,181.15261988496073 762.3463855421687,205.5073828841226 847,205.5073828841226L847,243.9365832878817C762.3463855421687,243.9365832878817 762.3463855421687,224.5409088795522 677.6927710843374,224.5409088795522C593.039156626506,224.5409088795522 593.039156626506,230.17023611075948 508.3855421686747,230.17023611075948C423.5,230.17023611075948 423.5,232.66024731646763 338.6144578313253,232.66024731646763C253.96084337349396,232.66024731646763 253.96084337349396,238.35181396904042 169.30722891566265,238.35181396904042C84.65361445783132,238.35181396904042 84.65361445783132,265.90997872062417 0,265.90997872062417Z" title="North Shewa" style="fill-opacity: 0.9; fill: rgb(105, 191, 191);"></path><path class="layer" d="M0,132.1300600107467C84.65361445783132,132.1300600107467 84.65361445783132,173.80165932850738 169.30722891566265,173.80165932850738C253.96084337349396,173.80165932850738 253.96084337349396,126.35529569545513 338.6144578313253,126.35529569545513C423.5,126.35529569545513 423.5,78.64768591853023 508.3855421686747,78.64768591853023C593.039156626506,78.64768591853023 593.039156626506,91.72237463375464 677.6927710843374,91.72237463375464C762.3463855421687,91.72237463375464 762.3463855421687,96.85942000675863 847,96.85942000675863L847,112.00115034513244C762.3463855421687,112.00115034513244 762.3463855421687,108.1253977913937 677.6927710843374,108.1253977913937C593.039156626506,108.1253977913937 593.039156626506,92.69040556417612 508.3855421686747,92.69040556417612C423.5,92.69040556417612 423.5,141.17238326152392 338.6144578313253,141.17238326152392C253.96084337349396,141.17238326152392 253.96084337349396,189.4434121217301 169.30722891566265,189.4434121217301C84.65361445783132,189.4434121217301 84.65361445783132,145.666737456498 0,145.666737456498Z" title="South Gonder" style="fill-opacity: 0.9; fill: rgb(105, 159, 191);"></path><path class="layer" d="M0,145.82037507242887C84.65361445783132,145.82037507242887 84.65361445783132,145.55185976423633 169.30722891566265,145.55185976423633C253.96084337349396,145.55185976423633 253.96084337349396,98.82369935835227 338.6144578313253,98.82369935835227C423.5,98.82369935835227 423.5,92.84404318010698 508.3855421686747,92.84404318010698C593.039156626506,92.84404318010698 593.039156626506,34.53905283770147 677.6927710843374,34.53905283770147C762.3463855421687,34.53905283770147 762.3463855421687,62.15753751667525 847,62.15753751667525L847,72.43031496937762C762.3463855421687,72.43031496937762 762.3463855421687,47.037115952656976 677.6927710843374,47.037115952656976C593.039156626506,47.037115952656976 593.039156626506,107.73676274446456 508.3855421686747,107.73676274446456C423.5,107.73676274446456 423.5,112.13464253113166 338.6144578313253,112.13464253113166C253.96084337349396,112.13464253113166 253.96084337349396,159.37741764256052 169.30722891566265,159.37741764256052C84.65361445783132,159.37741764256052 84.65361445783132,159.67563718005638 0,159.67563718005638Z" title="South Tigray" style="fill-opacity: 0.9; fill: rgb(105, 126, 191);"></path><path class="layer" d="M0,174.82224739174833C84.65361445783132,174.82224739174833 84.65361445783132,159.5310552584914 169.30722891566265,159.5310552584914C253.96084337349396,159.5310552584914 253.96084337349396,158.2068255339775 338.6144578313253,158.2068255339775C423.5,158.2068255339775 423.5,143.84674505013493 508.3855421686747,143.84674505013493C593.039156626506,143.84674505013493 593.039156626506,108.27903540732457 677.6927710843374,108.27903540732457C762.3463855421687,108.27903540732457 762.3463855421687,127.54138646952377 847,127.54138646952377L847,148.5981971145433C762.3463855421687,148.5981971145433 762.3463855421687,130.24713579307237 677.6927710843374,130.24713579307237C593.039156626506,130.24713579307237 593.039156626506,165.8563431948075 508.3855421686747,165.8563431948075C423.5,165.8563431948075 423.5,176.2515348520551 338.6144578313253,176.2515348520551C253.96084337349396,176.2515348520551 253.96084337349396,173.64802171257656 169.30722891566265,173.64802171257656C84.65361445783132,173.64802171257656 84.65361445783132,189.68693711485832 0,189.68693711485832Z" title="South West Shewa" style="fill-opacity: 0.9; fill: rgb(116, 105, 191);"></path><path class="layer" d="M0,93.20547954285993C84.65361445783132,93.20547954285993 84.65361445783132,79.50647642048848 169.30722891566265,79.50647642048848C253.96084337349396,79.50647642048848 253.96084337349396,42.98224381536041 338.6144578313253,42.98224381536041C423.5,42.98224381536041 423.5,107.89040036039542 508.3855421686747,107.89040036039542C593.039156626506,107.89040036039542 593.039156626506,61.12321335336453 677.6927710843374,61.12321335336453C762.3463855421687,61.12321335336453 762.3463855421687,112.1547879610633 847,112.1547879610633L847,127.38774885359297C762.3463855421687,127.38774885359297 762.3463855421687,75.99788765428768 677.6927710843374,75.99788765428768C593.039156626506,75.99788765428768 593.039156626506,123.84371862007173 508.3855421686747,123.84371862007173C423.5,123.84371862007173 423.5,52.84930697057335 338.6144578313253,52.84930697057335C253.96084337349396,52.84930697057335 253.96084337349396,89.05438828314041 169.30722891566265,89.05438828314041C84.65361445783132,89.05438828314041 84.65361445783132,102.34368958857506 0,102.34368958857506Z" title="South Wolo" style="fill-opacity: 0.9; fill: rgb(148, 105, 191);"></path><path class="layer" d="M0,207.58015939018154C84.65361445783132,207.58015939018154 84.65361445783132,238.5054515849713 169.30722891566265,238.5054515849713C253.96084337349396,238.5054515849713 253.96084337349396,232.81388493239845 338.6144578313253,232.81388493239845C423.5,232.81388493239845 423.5,230.32387372669035 508.3855421686747,230.32387372669035C593.039156626506,230.32387372669035 593.039156626506,224.69454649548308 677.6927710843374,224.69454649548308C762.3463855421687,224.69454649548308 762.3463855421687,244.0902209038125 847,244.0902209038125L847,286.59957971450143C762.3463855421687,286.59957971450143 762.3463855421687,271.698528665113 677.6927710843374,271.698528665113C593.039156626506,271.698528665113 593.039156626506,274.62773612727796 508.3855421686747,274.62773612727796C423.5,274.62773612727796 423.5,275.57728297561306 338.6144578313253,275.57728297561306C253.96084337349396,275.57728297561306 253.96084337349396,276.0711399459902 169.30722891566265,276.0711399459902C84.65361445783132,276.0711399459902 84.65361445783132,236.1276825218889 0,236.1276825218889Z" title="West Arsi" style="fill-opacity: 0.9; fill: rgb(180, 105, 191);"></path><path class="layer" d="M0,111.93592497388732C84.65361445783132,111.93592497388732 84.65361445783132,70.0806839506089 169.30722891566265,70.0806839506089C253.96084337349396,70.0806839506089 253.96084337349396,86.23701397799526 338.6144578313253,86.23701397799526C423.5,86.23701397799526 423.5,52.486825078395945 508.3855421686747,52.486825078395945C593.039156626506,52.486825078395945 593.039156626506,76.15152527021854 677.6927710843374,76.15152527021854C762.3463855421687,76.15152527021854 762.3463855421687,83.77909295308069 847,83.77909295308069L847,96.7057823908278C762.3463855421687,96.7057823908278 762.3463855421687,91.56873701782376 677.6927710843374,91.56873701782376C593.039156626506,91.56873701782376 593.039156626506,65.0605008331824 508.3855421686747,65.0605008331824C423.5,65.0605008331824 423.5,98.67006174242147 338.6144578313253,98.67006174242147C253.96084337349396,98.67006174242147 253.96084337349396,79.3528388045576 169.30722891566265,79.3528388045576C84.65361445783132,79.3528388045576 84.65361445783132,121.50875648576073 0,121.50875648576073Z" title="West Shewa" style="fill-opacity: 0.9; fill: rgb(191, 105, 169);"></path><path class="layer" d="M0,75.84150298256813C84.65361445783132,75.84150298256813 84.65361445783132,89.20802589907129 169.30722891566265,89.20802589907129C253.96084337349396,89.20802589907129 253.96084337349396,63.36359071813518 338.6144578313253,63.36359071813518C423.5,63.36359071813518 423.5,40.86401202647177 508.3855421686747,40.86401202647177C593.039156626506,40.86401202647177 593.039156626506,11.272785276150842 677.6927710843374,11.272785276150842C762.3463855421687,11.272785276150842 762.3463855421687,72.58395258530848 847,72.58395258530848L847,83.62545533714982C762.3463855421687,83.62545533714982 762.3463855421687,22.50464262828342 677.6927710843374,22.50464262828342C593.039156626506,22.50464262828342 593.039156626506,52.33318746246513 508.3855421686747,52.33318746246513C423.5,52.33318746246513 423.5,74.09858394924696 338.6144578313253,74.09858394924696C253.96084337349396,74.09858394924696 253.96084337349396,98.90655138986851 169.30722891566265,98.90655138986851C84.65361445783132,98.90655138986851 84.65361445783132,83.78929806609516 0,83.78929806609516Z" title="Yem" style="fill-opacity: 0.9; fill: rgb(191, 105, 137);"></path><defs><path id="path-0" d="M0,335.7593216044347C84.65361445783132,335.7593216044347 84.65361445783132,347.10596784872644 169.30722891566265,347.10596784872644C253.96084337349396,347.10596784872644 253.96084337349396,302.756460534195 338.6144578313253,302.756460534195C423.5,302.756460534195 423.5,368.45677678839934 508.3855421686747,368.45677678839934C593.039156626506,368.45677678839934 593.039156626506,370.41796214539534 677.6927710843374,370.41796214539534C762.3463855421687,370.41796214539534 762.3463855421687,371.686130579649 847,371.686130579649"></path><path id="path-1" d="M0,288.88191293313605C84.65361445783132,288.88191293313605 84.65361445783132,297.70949117194243 169.30722891566265,297.70949117194243C253.96084337349396,297.70949117194243 253.96084337349396,358.7617696706459 338.6144578313253,358.7617696706459C423.5,358.7617696706459 423.5,305.3829669560754 508.3855421686747,305.3829669560754C593.039156626506,305.3829669560754 593.039156626506,304.0114056094946 677.6927710843374,304.0114056094946C762.3463855421687,304.0114056094946 762.3463855421687,314.7557592787952 847,314.7557592787952"></path><path id="path-2" d="M0,402.98846534829215C84.65361445783132,402.98846534829215 84.65361445783132,413.4685234824401 169.30722891566265,413.4685234824401C253.96084337349396,413.4685234824401 253.96084337349396,433.3796475245426 338.6144578313253,433.3796475245426C423.5,433.3796475245426 423.5,451.26678234155116 508.3855421686747,451.26678234155116C593.039156626506,451.26678234155116 593.039156626506,463.33263967642273 677.6927710843374,463.33263967642273C762.3463855421687,463.33263967642273 762.3463855421687,444.8382875083598 847,444.8382875083598"></path><path id="path-3" d="M0,198.63354825251997C84.65361445783132,198.63354825251997 84.65361445783132,127.23922473089858 169.30722891566265,127.23922473089858C253.96084337349396,127.23922473089858 253.96084337349396,149.6896043977507 338.6144578313253,149.6896043977507C423.5,149.6896043977507 423.5,133.8452318351033 508.3855421686747,133.8452318351033C593.039156626506,133.8452318351033 593.039156626506,141.85390196249193 677.6927710843374,141.85390196249193C762.3463855421687,141.85390196249193 762.3463855421687,160.71236390925014 847,160.71236390925014"></path><path id="path-4" d="M0,167.24894228590233C84.65361445783132,167.24894228590233 84.65361445783132,200.4132990665521 169.30722891566265,200.4132990665521C253.96084337349396,200.4132990665521 253.96084337349396,188.62360650593013 338.6144578313253,188.62360650593013C423.5,188.62360650593013 423.5,178.10743837743576 508.3855421686747,178.10743837743576C593.039156626506,178.10743837743576 593.039156626506,167.22982520047066 677.6927710843374,167.22982520047066C762.3463855421687,167.22982520047066 762.3463855421687,189.09013798607435 847,189.09013798607435"></path><path id="path-5" d="M0,107.13980728123119C84.65361445783132,107.13980728123119 84.65361445783132,104.37716708555138 169.30722891566265,104.37716708555138C253.96084337349396,104.37716708555138 253.96084337349396,58.10644884435426 338.6144578313253,58.10644884435426C423.5,58.10644884435426 423.5,24.835472666583147 508.3855421686747,24.835472666583147C593.039156626506,24.835472666583147 593.039156626506,5.559573830110014 677.6927710843374,5.559573830110014C762.3463855421687,5.559573830110014 762.3463855421687,37.41955417804149 847,37.41955417804149"></path><path id="path-6" d="M0,88.49738880447751C84.65361445783132,88.49738880447751 84.65361445783132,115.4931381369257 169.30722891566265,115.4931381369257C253.96084337349396,115.4931381369257 253.96084337349396,119.24496911329342 338.6144578313253,119.24496911329342C423.5,119.24496911329342 423.5,35.06976431744181 508.3855421686747,35.06976431744181C593.039156626506,35.06976431744181 593.039156626506,28.521847732992416 677.6927710843374,28.521847732992416C762.3463855421687,28.521847732992416 762.3463855421687,46.81696220276217 847,46.81696220276217"></path><path id="path-7" d="M0,126.81940824825371C84.65361445783132,126.81940824825371 84.65361445783132,139.3690890587428 169.30722891566265,139.3690890587428C253.96084337349396,139.3690890587428 253.96084337349396,80.16779896362108 338.6144578313253,80.16779896362108C423.5,80.16779896362108 423.5,71.85409337585631 508.3855421686747,71.85409337585631C593.039156626506,71.85409337585631 593.039156626506,54.08016465301075 677.6927710843374,54.08016465301075C762.3463855421687,54.08016465301075 762.3463855421687,56.86805043280307 847,56.86805043280307"></path><path id="path-8" d="M0,251.09564942922194C84.65361445783132,251.09564942922194 84.65361445783132,224.86749999020725 169.30722891566265,224.86749999020725C253.96084337349396,224.86749999020725 253.96084337349396,216.82796273813636 338.6144578313253,216.82796273813636C423.5,216.82796273813636 423.5,210.26438483541176 508.3855421686747,210.26438483541176C593.039156626506,210.26438483541176 593.039156626506,202.84676438225648 677.6927710843374,202.84676438225648C762.3463855421687,202.84676438225648 762.3463855421687,224.72198308600213 847,224.72198308600213"></path><path id="path-9" d="M0,138.89839873362234C84.65361445783132,138.89839873362234 84.65361445783132,181.62253572511872 169.30722891566265,181.62253572511872C253.96084337349396,181.62253572511872 253.96084337349396,133.76383947848953 338.6144578313253,133.76383947848953C423.5,133.76383947848953 423.5,85.66904574135317 508.3855421686747,85.66904574135317C593.039156626506,85.66904574135317 593.039156626506,99.92388621257416 677.6927710843374,99.92388621257416C762.3463855421687,99.92388621257416 762.3463855421687,104.43028517594553 847,104.43028517594553"></path><path id="path-10" d="M0,152.74800612624261C84.65361445783132,152.74800612624261 84.65361445783132,152.4646387033984 169.30722891566265,152.4646387033984C253.96084337349396,152.4646387033984 253.96084337349396,105.47917094474197 338.6144578313253,105.47917094474197C423.5,105.47917094474197 423.5,100.29040296228577 508.3855421686747,100.29040296228577C593.039156626506,100.29040296228577 593.039156626506,40.788084395179226 677.6927710843374,40.788084395179226C762.3463855421687,40.788084395179226 762.3463855421687,67.29392624302643 847,67.29392624302643"></path><path id="path-11" d="M0,182.25459225330331C84.65361445783132,182.25459225330331 84.65361445783132,166.58953848553398 169.30722891566265,166.58953848553398C253.96084337349396,166.58953848553398 253.96084337349396,167.2291801930163 338.6144578313253,167.2291801930163C423.5,167.2291801930163 423.5,154.8515441224712 508.3855421686747,154.8515441224712C593.039156626506,154.8515441224712 593.039156626506,119.26308560019848 677.6927710843374,119.26308560019848C762.3463855421687,119.26308560019848 762.3463855421687,138.06979179203353 847,138.06979179203353"></path><path id="path-12" d="M0,97.7745845657175C84.65361445783132,97.7745845657175 84.65361445783132,84.28043235181445 169.30722891566265,84.28043235181445C253.96084337349396,84.28043235181445 253.96084337349396,47.91577539296688 338.6144578313253,47.91577539296688C423.5,47.91577539296688 423.5,115.86705949023357 508.3855421686747,115.86705949023357C593.039156626506,115.86705949023357 593.039156626506,68.56055050382611 677.6927710843374,68.56055050382611C762.3463855421687,68.56055050382611 762.3463855421687,119.77126840732814 847,119.77126840732814"></path><path id="path-13" d="M0,221.8539209560352C84.65361445783132,221.8539209560352 84.65361445783132,257.2882957654807 169.30722891566265,257.2882957654807C253.96084337349396,257.2882957654807 253.96084337349396,254.19558395400577 338.6144578313253,254.19558395400577C423.5,254.19558395400577 423.5,252.47580492698415 508.3855421686747,252.47580492698415C593.039156626506,252.47580492698415 593.039156626506,248.196537580298 677.6927710843374,248.196537580298C762.3463855421687,248.196537580298 762.3463855421687,265.34490030915697 847,265.34490030915697"></path><path id="path-14" d="M0,116.72234072982403C84.65361445783132,116.72234072982403 84.65361445783132,74.71676137758325 169.30722891566265,74.71676137758325C253.96084337349396,74.71676137758325 253.96084337349396,92.45353786020837 338.6144578313253,92.45353786020837C423.5,92.45353786020837 423.5,58.77366295578918 508.3855421686747,58.77366295578918C593.039156626506,58.77366295578918 593.039156626506,83.86013114402115 677.6927710843374,83.86013114402115C762.3463855421687,83.86013114402115 762.3463855421687,90.24243767195425 847,90.24243767195425"></path><path id="path-15" d="M0,79.81540052433164C84.65361445783132,79.81540052433164 84.65361445783132,94.0572886444699 169.30722891566265,94.0572886444699C253.96084337349396,94.0572886444699 253.96084337349396,68.73108733369106 338.6144578313253,68.73108733369106C423.5,68.73108733369106 423.5,46.59859974446845 508.3855421686747,46.59859974446845C593.039156626506,46.59859974446845 593.039156626506,16.88871395221713 677.6927710843374,16.88871395221713C762.3463855421687,16.88871395221713 762.3463855421687,78.10470396122915 847,78.10470396122915"></path></defs><text dy="0.5ex" class="label"><textPath xmlns:xlink="http://www.w3.org/1999/xlink" xlink:href="#path-0" startOffset="80%" text-anchor="middle" style="font-size: 11px; font-family: Arial, Helvetica; font-weight: normal;">Arsi</textPath></text><text dy="0.5ex" class="label"><textPath xmlns:xlink="http://www.w3.org/1999/xlink" xlink:href="#path-1" startOffset="80%" text-anchor="middle" style="font-size: 11px; font-family: Arial, Helvetica; font-weight: normal;">Bale</textPath></text><text dy="0.5ex" class="label"><textPath xmlns:xlink="http://www.w3.org/1999/xlink" xlink:href="#path-2" startOffset="80%" text-anchor="middle" style="font-size: 11px; font-family: Arial, Helvetica; font-weight: normal;">Bottom 40 Zones</textPath></text><text dy="0.5ex" class="label"><textPath xmlns:xlink="http://www.w3.org/1999/xlink" xlink:href="#path-3" startOffset="95%" text-anchor="end" style="font-size: 11px; font-family: Arial, Helvetica; font-weight: normal;">East Gojjam</textPath></text><text dy="0.5ex" class="label"><textPath xmlns:xlink="http://www.w3.org/1999/xlink" xlink:href="#path-4" startOffset="95%" text-anchor="end" style="font-size: 11px; font-family: Arial, Helvetica; font-weight: normal;">East Shewa</textPath></text><text dy="0.5ex" class="label"><textPath xmlns:xlink="http://www.w3.org/1999/xlink" xlink:href="#path-5" startOffset="80%" text-anchor="middle" style="font-size: 11px; font-family: Arial, Helvetica; font-weight: normal;">Eastern Tigray</textPath></text><text dy="0.5ex" class="label"><textPath xmlns:xlink="http://www.w3.org/1999/xlink" xlink:href="#path-6" startOffset="40%" text-anchor="middle" style="font-size: 11px; font-family: Arial, Helvetica; font-weight: normal;">Hadiya</textPath></text><text dy="0.5ex" class="label"><textPath xmlns:xlink="http://www.w3.org/1999/xlink" xlink:href="#path-7" startOffset="80%" text-anchor="middle" style="font-size: 11px; font-family: Arial, Helvetica; font-weight: normal;">North Gondar</textPath></text><text dy="0.5ex" class="label"><textPath xmlns:xlink="http://www.w3.org/1999/xlink" xlink:href="#path-8" startOffset="80%" text-anchor="middle" style="font-size: 11px; font-family: Arial, Helvetica; font-weight: normal;">North Shewa</textPath></text><text dy="0.5ex" class="label"><textPath xmlns:xlink="http://www.w3.org/1999/xlink" xlink:href="#path-9" startOffset="80%" text-anchor="middle" style="font-size: 11px; font-family: Arial, Helvetica; font-weight: normal;">South Gonder</textPath></text><text dy="0.5ex" class="label"><textPath xmlns:xlink="http://www.w3.org/1999/xlink" xlink:href="#path-10" startOffset="60%" text-anchor="middle" style="font-size: 11px; font-family: Arial, Helvetica; font-weight: normal;">South Tigray</textPath></text><text dy="0.5ex" class="label"><textPath xmlns:xlink="http://www.w3.org/1999/xlink" xlink:href="#path-11" startOffset="60%" text-anchor="middle" style="font-size: 11px; font-family: Arial, Helvetica; font-weight: normal;">South West Shewa</textPath></text><text dy="0.5ex" class="label"><textPath xmlns:xlink="http://www.w3.org/1999/xlink" xlink:href="#path-12" startOffset="60%" text-anchor="middle" style="font-size: 11px; font-family: Arial, Helvetica; font-weight: normal;">South Wolo</textPath></text><text dy="0.5ex" class="label"><textPath xmlns:xlink="http://www.w3.org/1999/xlink" xlink:href="#path-13" startOffset="80%" text-anchor="middle" style="font-size: 11px; font-family: Arial, Helvetica; font-weight: normal;">West Arsi</textPath></text><text dy="0.5ex" class="label"><textPath xmlns:xlink="http://www.w3.org/1999/xlink" xlink:href="#path-14" startOffset="80%" text-anchor="middle" style="font-size: 11px; font-family: Arial, Helvetica; font-weight: normal;">West Shewa</textPath></text><text dy="0.5ex" class="label"><textPath xmlns:xlink="http://www.w3.org/1999/xlink" xlink:href="#path-15" startOffset="60%" text-anchor="middle" style="font-size: 11px; font-family: Arial, Helvetica; font-weight: normal;">Yem</textPath></text></g></svg>