<svg width="847" height="542" xmlns="http://www.w3.org/2000/svg" version="1.1"><g><g class="x axis" transform="translate(0,522)" style="stroke-width: 1px; font-size: 10px; font-family: Arial, Helvetica; display: block;"><g class="tick" transform="translate(0,0)" style="opacity: 1;"><line y2="-522" x2="0" style="shape-rendering: crispEdges; fill: none; stroke: rgb(204, 204, 204);"></line><text dy=".71em" y="3" x="0" style="text-anchor: middle;">2010</text></g><g class="tick" transform="translate(169.30722891566265,0)" style="opacity: 1;"><line y2="-522" x2="0" style="shape-rendering: crispEdges; fill: none; stroke: rgb(204, 204, 204);"></line><text dy=".71em" y="3" x="0" style="text-anchor: middle;">2011</text></g><g class="tick" transform="translate(338.6144578313253,0)" style="opacity: 1;"><line y2="-522" x2="0" style="shape-rendering: crispEdges; fill: none; stroke: rgb(204, 204, 204);"></line><text dy=".71em" y="3" x="0" style="text-anchor: middle;">2012</text></g><g class="tick" transform="translate(508.3855421686747,0)" style="opacity: 1;"><line y2="-522" x2="0" style="shape-rendering: crispEdges; fill: none; stroke: rgb(204, 204, 204);"></line><text dy=".71em" y="3" x="0" style="text-anchor: middle;">2013</text></g><g class="tick" transform="translate(677.6927710843374,0)" style="opacity: 1;"><line y2="-522" x2="0" style="shape-rendering: crispEdges; fill: none; stroke: rgb(204, 204, 204);"></line><text dy=".71em" y="3" x="0" style="text-anchor: middle;">2014</text></g><g class="tick" transform="translate(847,0)" style="opacity: 1;"><line y2="-522" x2="0" style="shape-rendering: crispEdges; fill: none; stroke: rgb(204, 204, 204);"></line><text dy=".71em" y="3" x="0" style="text-anchor: middle;">2015</text></g><path class="domain" d="M0,-522V0H847V-522" style="shape-rendering: crispEdges; fill: none; stroke: rgb(204, 204, 204);"></path></g><path class="layer" d="M0,77.87083423366805C84.65361445783132,77.87083423366805 84.65361445783132,64.34689627594848 169.30722891566265,64.34689627594848C253.96084337349396,64.34689627594848 253.96084337349396,113.24801904190028 338.6144578313253,113.24801904190028C423.5,113.24801904190028 423.5,15.570324507246912 508.3855421686747,15.570324507246912C593.039156626506,15.570324507246912 593.039156626506,0 677.6927710843374,0C762.3463855421687,0 762.3463855421687,23.86594311668185 847,23.86594311668185L847,98.12896319684607C762.3463855421687,98.12896319684607 762.3463855421687,87.9920324189223 677.6927710843374,87.9920324189223C593.039156626506,87.9920324189223 593.039156626506,98.98101779361204 508.3855421686747,98.98101779361204C423.5,98.98101779361204 423.5,182.99796141433262 338.6144578313253,182.99796141433262C253.96084337349396,182.99796141433262 253.96084337349396,135.9875611681497 169.30722891566265,135.9875611681497C84.65361445783132,135.9875611681497 84.65361445783132,139.56823119314797 0,139.56823119314797Z" title="Arsi" style="fill-opacity: 0.9; fill: rgb(191, 105, 105);"></path><path class="layer" d="M0,139.76649207674467C84.65361445783132,139.76649207674467 84.65361445783132,136.18582205174638 169.30722891566265,136.18582205174638C253.96084337349396,136.18582205174638 253.96084337349396,38.6526870676578 338.6144578313253,38.6526870676578C423.5,38.6526870676578 423.5,99.17927867720873 508.3855421686747,99.17927867720873C593.039156626506,99.17927867720873 593.039156626506,88.190293302519 677.6927710843374,88.190293302519C762.3463855421687,88.190293302519 762.3463855421687,98.32722408044276 847,98.32722408044276L847,170.5987010361158C762.3463855421687,170.5987010361158 762.3463855421687,171.1897484349834 677.6927710843374,171.1897484349834C593.039156626506,171.1897484349834 593.039156626506,178.1586207229709 508.3855421686747,178.1586207229709C423.5,178.1586207229709 423.5,113.04975815830359 338.6144578313253,113.04975815830359C253.96084337349396,113.04975815830359 253.96084337349396,191.6355018497145 169.30722891566265,191.6355018497145C84.65361445783132,191.6355018497145 84.65361445783132,198.65800270061968 0,198.65800270061968Z" title="Bale" style="fill-opacity: 0.9; fill: rgb(191, 139, 105);"></path><path class="layer" d="M0,274.325944493578C84.65361445783132,274.325944493578 84.65361445783132,376.218757318757 169.30722891566265,376.218757318757C253.96084337349396,376.218757318757 253.96084337349396,334.85459572973457 338.6144578313253,334.85459572973457C423.5,334.85459572973457 423.5,347.3208102695566 508.3855421686747,347.3208102695566C593.039156626506,347.3208102695566 593.039156626506,324.16571867815566 677.6927710843374,324.16571867815566C762.3463855421687,324.16571867815566 762.3463855421687,317.81307785562393 847,317.81307785562393L847,348.6818864986229C762.3463855421687,348.6818864986229 762.3463855421687,353.72498218538186 677.6927710843374,353.72498218538186C593.039156626506,353.72498218538186 593.039156626506,372.7370926818879 508.3855421686747,372.7370926818879C423.5,372.7370926818879 423.5,356.4400837460914 338.6144578313253,356.4400837460914C253.96084337349396,356.4400837460914 253.96084337349396,391.56755102732507 169.30722891566265,391.56755102732507C84.65361445783132,391.56755102732507 84.65361445783132,297.0196408165562 0,297.0196408165562Z" title="East Gojjam" style="fill-opacity: 0.9; fill: rgb(191, 174, 105);"></path><path class="layer" d="M0,316.59822617565464C84.65361445783132,316.59822617565464 84.65361445783132,275.50826625081214 169.30722891566265,275.50826625081214C253.96084337349396,275.50826625081214 253.96084337349396,279.63793750260567 338.6144578313253,279.63793750260567C423.5,279.63793750260567 423.5,287.2999082803534 508.3855421686747,287.2999082803534C593.039156626506,287.2999082803534 593.039156626506,288.430779745315 677.6927710843374,288.430779745315C762.3463855421687,288.430779745315 762.3463855421687,275.6402376258698 847,275.6402376258698L847,317.6148169720272C762.3463855421687,317.6148169720272 762.3463855421687,323.9674577945589 677.6927710843374,323.9674577945589C593.039156626506,323.9674577945589 593.039156626506,318.522114013177 508.3855421686747,318.522114013177C423.5,318.522114013177 423.5,311.17237018504 338.6144578313253,311.17237018504C253.96084337349396,311.17237018504 253.96084337349396,303.42381461643004 169.30722891566265,303.42381461643004C84.65361445783132,303.42381461643004 84.65361445783132,335.74757086746774 0,335.74757086746774Z" title="East Shewa" style="fill-opacity: 0.9; fill: rgb(174, 191, 105);"></path><path class="layer" d="M0,397.74956254058725C84.65361445783132,397.74956254058725 84.65361445783132,406.5341132661224 169.30722891566265,406.5341132661224C253.96084337349396,406.5341132661224 253.96084337349396,457.2445678978748 338.6144578313253,457.2445678978748C423.5,457.2445678978748 423.5,494.97041104398375 508.3855421686747,494.97041104398375C593.039156626506,494.97041104398375 593.039156626506,507.6513521991296 677.6927710843374,507.6513521991296C762.3463855421687,507.6513521991296 762.3463855421687,486.56607162068406 847,486.56607162068406L847,498.134056883318C762.3463855421687,498.134056883318 762.3463855421687,522 677.6927710843374,522C593.039156626506,522 593.039156626506,506.42967549275306 508.3855421686747,506.42967549275306C423.5,506.42967549275306 423.5,470.4161503579433 338.6144578313253,470.4161503579433C253.96084337349396,470.4161503579433 253.96084337349396,420.25664815146285 169.30722891566265,420.25664815146285C84.65361445783132,420.25664815146285 84.65361445783132,409.73129236000585 0,409.73129236000585Z" title="Eastern Tigray" style="fill-opacity: 0.9; fill: rgb(139, 191, 105);"></path><path class="layer" d="M0,421.9201710131C84.65361445783132,421.9201710131 84.65361445783132,391.7658119109217 169.30722891566265,391.7658119109217C253.96084337349396,391.7658119109217 253.96084337349396,375.95724114265 338.6144578313253,375.95724114265C423.5,375.95724114265 423.5,480.2143566889562 508.3855421686747,480.2143566889562C593.039156626506,480.2143566889562 593.039156626506,477.627515023565 677.6927710843374,477.627515023565C762.3463855421687,477.627515023565 762.3463855421687,474.07864255578386 847,474.07864255578386L847,486.3678107370874C762.3463855421687,486.3678107370874 762.3463855421687,492.76073697979683 677.6927710843374,492.76073697979683C593.039156626506,492.76073697979683 593.039156626506,494.772150160387 508.3855421686747,494.772150160387C423.5,494.772150160387 423.5,393.9116892508916 338.6144578313253,393.9116892508916C253.96084337349396,393.9116892508916 253.96084337349396,406.3358523825258 169.30722891566265,406.3358523825258C84.65361445783132,406.3358523825258 84.65361445783132,433.67471295761055 0,433.67471295761055Z" title="Hadiya" style="fill-opacity: 0.9; fill: rgb(191, 131, 105);"></path><path class="layer" d="M0,371.6901432270229C84.65361445783132,371.6901432270229 84.65361445783132,360.4599678964114 169.30722891566265,360.4599678964114C253.96084337349396,360.4599678964114 253.96084337349396,427.7276746624202 338.6144578313253,427.7276746624202C423.5,427.7276746624202 423.5,431.45660601714246 508.3855421686747,431.45660601714246C593.039156626506,431.45660601714246 593.039156626506,443.3221196841613 677.6927710843374,443.3221196841613C762.3463855421687,443.3221196841613 762.3463855421687,460.62531978692755 847,460.62531978692755L847,473.88038167218724C762.3463855421687,473.88038167218724 762.3463855421687,461.1029309885128 677.6927710843374,461.1029309885128C593.039156626506,461.1029309885128 593.039156626506,448.59359845017667 508.3855421686747,448.59359845017667C423.5,448.59359845017667 423.5,442.99512846784484 338.6144578313253,442.99512846784484C253.96084337349396,442.99512846784484 253.96084337349396,376.02049643516034 169.30722891566265,376.02049643516034C84.65361445783132,376.02049643516034 84.65361445783132,384.99982881701743 0,384.99982881701743Z" title="North Gondar" style="fill-opacity: 0.9; fill: rgb(105, 191, 139);"></path><path class="layer" d="M0,198.85626358421635C84.65361445783132,198.85626358421635 84.65361445783132,240.50847596387229 169.30722891566265,240.50847596387229C253.96084337349396,240.50847596387229 253.96084337349396,238.57829367140067 338.6144578313253,238.57829367140067C423.5,238.57829367140067 423.5,235.72683741049937 508.3855421686747,235.72683741049937C593.039156626506,235.72683741049937 593.039156626506,232.24232100751928 677.6927710843374,232.24232100751928C762.3463855421687,232.24232100751928 762.3463855421687,225.85120965179505 847,225.85120965179505L847,275.4419767422731C762.3463855421687,275.4419767422731 762.3463855421687,288.23251886171835 677.6927710843374,288.23251886171835C593.039156626506,288.23251886171835 593.039156626506,287.1016473967568 508.3855421686747,287.1016473967568C423.5,287.1016473967568 423.5,279.43967661900905 338.6144578313253,279.43967661900905C253.96084337349396,279.43967661900905 253.96084337349396,275.31000536721535 169.30722891566265,275.31000536721535C84.65361445783132,275.31000536721535 84.65361445783132,237.09041603979085 0,237.09041603979085Z" title="North Shewa" style="fill-opacity: 0.9; fill: rgb(105, 191, 174);"></path><path class="layer" d="M0,354.0235454709911C84.65361445783132,354.0235454709911 84.65361445783132,303.62207550002665 169.30722891566265,303.62207550002665C253.96084337349396,303.62207550002665 253.96084337349396,356.63834462968805 338.6144578313253,356.63834462968805C423.5,356.63834462968805 423.5,413.13698866639464 508.3855421686747,413.13698866639464C593.039156626506,413.13698866639464 593.039156626506,382.4701278688641 677.6927710843374,382.4701278688641C762.3463855421687,382.4701278688641 762.3463855421687,396.10662109161416 847,396.10662109161416L847,415.6461903428045C762.3463855421687,415.6461903428045 762.3463855421687,403.63732605263453 677.6927710843374,403.63732605263453C593.039156626506,403.63732605263453 593.039156626506,431.25834513354584 508.3855421686747,431.25834513354584C423.5,431.25834513354584 423.5,375.7589802590533 338.6144578313253,375.7589802590533C253.96084337349396,375.7589802590533 253.96084337349396,323.8068961964174 169.30722891566265,323.8068961964174C84.65361445783132,323.8068961964174 84.65361445783132,371.4918823434262 0,371.4918823434262Z" title="South Gonder" style="fill-opacity: 0.9; fill: rgb(105, 174, 191);"></path><path class="layer" d="M0,335.9458317510644C84.65361445783132,335.9458317510644 84.65361445783132,342.420585848794 169.30722891566265,342.420585848794C253.96084337349396,342.420585848794 253.96084337349396,394.10995013448826 338.6144578313253,394.10995013448826C423.5,394.10995013448826 423.5,393.72049322417257 508.3855421686747,393.72049322417257C593.039156626506,393.72049322417257 593.039156626506,461.3011918721095 677.6927710843374,461.3011918721095C762.3463855421687,461.3011918721095 762.3463855421687,447.170605251502 847,447.170605251502L847,460.42705890333093C762.3463855421687,460.42705890333093 762.3463855421687,477.4292541399684 677.6927710843374,477.4292541399684C593.039156626506,477.4292541399684 593.039156626506,412.93872778279797 508.3855421686747,412.93872778279797C423.5,412.93872778279797 423.5,411.28698935727994 338.6144578313253,411.28698935727994C253.96084337349396,411.28698935727994 253.96084337349396,360.2617070128147 169.30722891566265,360.2617070128147C84.65361445783132,360.2617070128147 84.65361445783132,353.8252845873944 0,353.8252845873944Z" title="South Tigray" style="fill-opacity: 0.9; fill: rgb(105, 139, 191);"></path><path class="layer" d="M0,297.21790170015294C84.65361445783132,297.21790170015294 84.65361445783132,324.00515708001404 169.30722891566265,324.00515708001404C253.96084337349396,324.00515708001404 253.96084337349396,311.3706310686366 338.6144578313253,311.3706310686366C423.5,311.3706310686366 423.5,318.7203748967736 508.3855421686747,318.7203748967736C593.039156626506,318.7203748967736 593.039156626506,353.9232430689786 677.6927710843374,353.9232430689786C762.3463855421687,353.9232430689786 762.3463855421687,348.8801473822195 847,348.8801473822195L847,376.0528020665287C762.3463855421687,376.0528020665287 762.3463855421687,382.2718669852674 677.6927710843374,382.2718669852674C593.039156626506,382.2718669852674 593.039156626506,347.12254938596 508.3855421686747,347.12254938596C423.5,347.12254938596 423.5,334.6563348461379 338.6144578313253,334.6563348461379C253.96084337349396,334.6563348461379 253.96084337349396,342.2223249651973 169.30722891566265,342.2223249651973C84.65361445783132,342.2223249651973 84.65361445783132,316.39996529205797 0,316.39996529205797Z" title="South West Shewa" style="fill-opacity: 0.9; fill: rgb(105, 105, 191);"></path><path class="layer" d="M0,409.9295532436025C84.65361445783132,409.9295532436025 84.65361445783132,433.1685830337348 169.30722891566265,433.1685830337348C253.96084337349396,433.1685830337348 253.96084337349396,470.61441124154004 338.6144578313253,470.61441124154004C423.5,470.61441124154004 423.5,372.9353535654846 508.3855421686747,372.9353535654846C593.039156626506,372.9353535654846 593.039156626506,423.92891066077334 677.6927710843374,423.92891066077334C762.3463855421687,423.92891066077334 762.3463855421687,376.2510629501254 847,376.2510629501254L847,395.9083602080175C762.3463855421687,395.9083602080175 762.3463855421687,443.1238588005647 677.6927710843374,443.1238588005647C593.039156626506,443.1238588005647 593.039156626506,393.5222323405759 508.3855421686747,393.5222323405759C423.5,393.5222323405759 423.5,483.3473129323423 338.6144578313253,483.3473129323423C253.96084337349396,483.3473129323423 253.96084337349396,445.4896375549439 169.30722891566265,445.4896375549439C84.65361445783132,445.4896375549439 84.65361445783132,421.72191012950327 0,421.72191012950327Z" title="South Wolo" style="fill-opacity: 0.9; fill: rgb(139, 105, 191);"></path><path class="layer" d="M0,237.28867692338753C84.65361445783132,237.28867692338753 84.65361445783132,191.8337627333112 169.30722891566265,191.8337627333112C253.96084337349396,191.8337627333112 253.96084337349396,183.19622229792927 338.6144578313253,183.19622229792927C423.5,183.19622229792927 423.5,178.3568816065676 508.3855421686747,178.3568816065676C593.039156626506,178.3568816065676 593.039156626506,171.38800931858006 677.6927710843374,171.38800931858006C762.3463855421687,171.38800931858006 762.3463855421687,170.79696191971243 847,170.79696191971243L847,225.65294876819834C762.3463855421687,225.65294876819834 762.3463855421687,232.04406012392263 677.6927710843374,232.04406012392263C593.039156626506,232.04406012392263 593.039156626506,235.52857652690267 508.3855421686747,235.52857652690267C423.5,235.52857652690267 423.5,238.38003278780405 338.6144578313253,238.38003278780405C253.96084337349396,238.38003278780405 253.96084337349396,240.31021508027564 169.30722891566265,240.31021508027564C84.65361445783132,240.31021508027564 84.65361445783132,274.1276836099813 0,274.1276836099813Z" title="West Arsi" style="fill-opacity: 0.9; fill: rgb(174, 105, 191);"></path><path class="layer" d="M0,385.1980897006141C84.65361445783132,385.1980897006141 84.65361445783132,445.68789843854057 169.30722891566265,445.68789843854057C253.96084337349396,445.68789843854057 253.96084337349396,411.48525024087667 338.6144578313253,411.48525024087667C423.5,411.48525024087667 423.5,448.79185933377335 508.3855421686747,448.79185933377335C593.039156626506,448.79185933377335 593.039156626506,403.8355869362312 677.6927710843374,403.8355869362312C762.3463855421687,403.8355869362312 762.3463855421687,415.8444512264012 847,415.8444512264012L847,432.5256321623322C762.3463855421687,432.5256321623322 762.3463855421687,423.73064977717667 677.6927710843374,423.73064977717667C593.039156626506,423.73064977717667 593.039156626506,465.01749554986833 508.3855421686747,465.01749554986833C423.5,465.01749554986833 423.5,427.52941377882354 338.6144578313253,427.52941377882354C253.96084337349396,427.52941377882354 253.96084337349396,457.65310372405145 169.30722891566265,457.65310372405145C84.65361445783132,457.65310372405145 84.65361445783132,397.55130165699063 0,397.55130165699063Z" title="West Shewa" style="fill-opacity: 0.9; fill: rgb(191, 105, 174);"></path><path class="layer" d="M0,433.8729738412072C84.65361445783132,433.8729738412072 84.65361445783132,420.45490903505953 169.30722891566265,420.45490903505953C253.96084337349396,420.45490903505953 253.96084337349396,443.19338935144145 338.6144578313253,443.19338935144145C423.5,443.19338935144145 423.5,465.215756433465 508.3855421686747,465.215756433465C593.039156626506,465.215756433465 593.039156626506,492.9589978633935 677.6927710843374,492.9589978633935C762.3463855421687,492.9589978633935 762.3463855421687,432.72389304592895 847,432.72389304592895L847,446.97234436790535C762.3463855421687,446.97234436790535 762.3463855421687,507.4530913155329 677.6927710843374,507.4530913155329C593.039156626506,507.4530913155329 593.039156626506,480.0160958053595 508.3855421686747,480.0160958053595C423.5,480.0160958053595 423.5,457.0463070142781 338.6144578313253,457.0463070142781C253.96084337349396,457.0463070142781 253.96084337349396,432.97032215013814 169.30722891566265,432.97032215013814C84.65361445783132,432.97032215013814 84.65361445783132,444.129165766332 0,444.129165766332Z" title="Yem" style="fill-opacity: 0.9; fill: rgb(191, 105, 139);"></path><defs><path id="path-0" d="M0,108.719532713408C84.65361445783132,108.719532713408 84.65361445783132,100.16722872204909 169.30722891566265,100.16722872204909C253.96084337349396,100.16722872204909 253.96084337349396,148.12299022811646 338.6144578313253,148.12299022811646C423.5,148.12299022811646 423.5,57.275671150429474 508.3855421686747,57.275671150429474C593.039156626506,57.275671150429474 593.039156626506,43.99601620946115 677.6927710843374,43.99601620946115C762.3463855421687,43.99601620946115 762.3463855421687,60.99745315676396 847,60.99745315676396"></path><path id="path-1" d="M0,169.21224738868216C84.65361445783132,169.21224738868216 84.65361445783132,163.91066195073046 169.30722891566265,163.91066195073046C253.96084337349396,163.91066195073046 253.96084337349396,75.85122261298069 338.6144578313253,75.85122261298069C423.5,75.85122261298069 423.5,138.66894970008983 508.3855421686747,138.66894970008983C593.039156626506,138.66894970008983 593.039156626506,129.6900208687512 677.6927710843374,129.6900208687512C762.3463855421687,129.6900208687512 762.3463855421687,134.4629625582793 847,134.4629625582793"></path><path id="path-2" d="M0,285.6727926550671C84.65361445783132,285.6727926550671 84.65361445783132,383.893154173041 169.30722891566265,383.893154173041C253.96084337349396,383.893154173041 253.96084337349396,345.64733973791294 338.6144578313253,345.64733973791294C423.5,345.64733973791294 423.5,360.02895147572224 508.3855421686747,360.02895147572224C593.039156626506,360.02895147572224 593.039156626506,338.94535043176876 677.6927710843374,338.94535043176876C762.3463855421687,338.94535043176876 762.3463855421687,333.2474821771234 847,333.2474821771234"></path><path id="path-3" d="M0,326.1728985215612C84.65361445783132,326.1728985215612 84.65361445783132,289.46604043362106 169.30722891566265,289.46604043362106C253.96084337349396,289.46604043362106 253.96084337349396,295.40515384382286 338.6144578313253,295.40515384382286C423.5,295.40515384382286 423.5,302.9110111467652 508.3855421686747,302.9110111467652C593.039156626506,302.9110111467652 593.039156626506,306.19911876993694 677.6927710843374,306.19911876993694C762.3463855421687,306.19911876993694 762.3463855421687,296.6275272989485 847,296.6275272989485"></path><path id="path-4" d="M0,403.7404274502966C84.65361445783132,403.7404274502966 84.65361445783132,413.39538070879263 169.30722891566265,413.39538070879263C253.96084337349396,413.39538070879263 253.96084337349396,463.83035912790905 338.6144578313253,463.83035912790905C423.5,463.83035912790905 423.5,500.7000432683684 508.3855421686747,500.7000432683684C593.039156626506,500.7000432683684 593.039156626506,514.8256760995648 677.6927710843374,514.8256760995648C762.3463855421687,514.8256760995648 762.3463855421687,492.35006425200106 847,492.35006425200106"></path><path id="path-5" d="M0,427.79744198535525C84.65361445783132,427.79744198535525 84.65361445783132,399.05083214672374 169.30722891566265,399.05083214672374C253.96084337349396,399.05083214672374 253.96084337349396,384.9344651967708 338.6144578313253,384.9344651967708C423.5,384.9344651967708 423.5,487.4932534246716 508.3855421686747,487.4932534246716C593.039156626506,487.4932534246716 593.039156626506,485.19412600168096 677.6927710843374,485.19412600168096C762.3463855421687,485.19412600168096 762.3463855421687,480.2232266464356 847,480.2232266464356"></path><path id="path-6" d="M0,378.3449860220202C84.65361445783132,378.3449860220202 84.65361445783132,368.24023216578587 169.30722891566265,368.24023216578587C253.96084337349396,368.24023216578587 253.96084337349396,435.3614015651325 338.6144578313253,435.3614015651325C423.5,435.3614015651325 423.5,440.0251022336596 508.3855421686747,440.0251022336596C593.039156626506,440.0251022336596 593.039156626506,452.2125253363371 677.6927710843374,452.2125253363371C762.3463855421687,452.2125253363371 762.3463855421687,467.2528507295574 847,467.2528507295574"></path><path id="path-7" d="M0,217.9733398120036C84.65361445783132,217.9733398120036 84.65361445783132,257.90924066554385 169.30722891566265,257.90924066554385C253.96084337349396,257.90924066554385 253.96084337349396,259.00898514520486 338.6144578313253,259.00898514520486C423.5,259.00898514520486 423.5,261.41424240362807 508.3855421686747,261.41424240362807C593.039156626506,261.41424240362807 593.039156626506,260.2374199346188 677.6927710843374,260.2374199346188C762.3463855421687,260.2374199346188 762.3463855421687,250.64659319703406 847,250.64659319703406"></path><path id="path-8" d="M0,362.75771390720865C84.65361445783132,362.75771390720865 84.65361445783132,313.714485848222 169.30722891566265,313.714485848222C253.96084337349396,313.714485848222 253.96084337349396,366.1986624443707 338.6144578313253,366.1986624443707C423.5,366.1986624443707 423.5,422.1976668999703 508.3855421686747,422.1976668999703C593.039156626506,422.1976668999703 593.039156626506,393.0537269607493 677.6927710843374,393.0537269607493C762.3463855421687,393.0537269607493 762.3463855421687,405.8764057172093 847,405.8764057172093"></path><path id="path-9" d="M0,344.8855581692294C84.65361445783132,344.8855581692294 84.65361445783132,351.3411464308044 169.30722891566265,351.3411464308044C253.96084337349396,351.3411464308044 253.96084337349396,402.6984697458841 338.6144578313253,402.6984697458841C423.5,402.6984697458841 423.5,403.32961050348524 508.3855421686747,403.32961050348524C593.039156626506,403.32961050348524 593.039156626506,469.36522300603895 677.6927710843374,469.36522300603895C762.3463855421687,469.36522300603895 762.3463855421687,453.7988320774165 847,453.7988320774165"></path><path id="path-10" d="M0,306.80893349610545C84.65361445783132,306.80893349610545 84.65361445783132,333.11374102260567 169.30722891566265,333.11374102260567C253.96084337349396,333.11374102260567 253.96084337349396,323.0134829573873 338.6144578313253,323.0134829573873C423.5,323.0134829573873 423.5,332.92146214136676 508.3855421686747,332.92146214136676C593.039156626506,332.92146214136676 593.039156626506,368.097555027123 677.6927710843374,368.097555027123C762.3463855421687,368.097555027123 762.3463855421687,362.4664747243741 847,362.4664747243741"></path><path id="path-11" d="M0,415.8257316865529C84.65361445783132,415.8257316865529 84.65361445783132,439.32911029433933 169.30722891566265,439.32911029433933C253.96084337349396,439.32911029433933 253.96084337349396,476.98086208694116 338.6144578313253,476.98086208694116C423.5,476.98086208694116 423.5,383.2287929530303 508.3855421686747,383.2287929530303C593.039156626506,383.2287929530303 593.039156626506,433.526384730669 677.6927710843374,433.526384730669C762.3463855421687,433.526384730669 762.3463855421687,386.07971157907144 847,386.07971157907144"></path><path id="path-12" d="M0,255.70818026668442C84.65361445783132,255.70818026668442 84.65361445783132,216.07198890679342 169.30722891566265,216.07198890679342C253.96084337349396,216.07198890679342 253.96084337349396,210.78812754286668 338.6144578313253,210.78812754286668C423.5,210.78812754286668 423.5,206.94272906673513 508.3855421686747,206.94272906673513C593.039156626506,206.94272906673513 593.039156626506,201.71603472125133 677.6927710843374,201.71603472125133C762.3463855421687,201.71603472125133 762.3463855421687,198.2249553439554 847,198.2249553439554"></path><path id="path-13" d="M0,391.37469567880237C84.65361445783132,391.37469567880237 84.65361445783132,451.67050108129604 169.30722891566265,451.67050108129604C253.96084337349396,451.67050108129604 253.96084337349396,419.5073320098501 338.6144578313253,419.5073320098501C423.5,419.5073320098501 423.5,456.9046774418208 508.3855421686747,456.9046774418208C593.039156626506,456.9046774418208 593.039156626506,413.78311835670394 677.6927710843374,413.78311835670394C762.3463855421687,413.78311835670394 762.3463855421687,424.1850416943667 847,424.1850416943667"></path><path id="path-14" d="M0,439.0010698037696C84.65361445783132,439.0010698037696 84.65361445783132,426.7126155925988 169.30722891566265,426.7126155925988C253.96084337349396,426.7126155925988 253.96084337349396,450.11984818285976 338.6144578313253,450.11984818285976C423.5,450.11984818285976 423.5,472.6159261194123 508.3855421686747,472.6159261194123C593.039156626506,472.6159261194123 593.039156626506,500.2060445894632 677.6927710843374,500.2060445894632C762.3463855421687,500.2060445894632 762.3463855421687,439.84811870691715 847,439.84811870691715"></path></defs><text dy="0.5ex" class="label"><textPath xmlns:xlink="http://www.w3.org/1999/xlink" xlink:href="#path-0" startOffset="80%" text-anchor="middle" style="font-size: 11px; font-family: Arial, Helvetica; font-weight: normal;">Arsi</textPath></text><text dy="0.5ex" class="label"><textPath xmlns:xlink="http://www.w3.org/1999/xlink" xlink:href="#path-1" startOffset="80%" text-anchor="middle" style="font-size: 11px; font-family: Arial, Helvetica; font-weight: normal;">Bale</textPath></text><text dy="0.5ex" class="label"><textPath xmlns:xlink="http://www.w3.org/1999/xlink" xlink:href="#path-2" startOffset="95%" text-anchor="end" style="font-size: 11px; font-family: Arial, Helvetica; font-weight: normal;">East Gojjam</textPath></text><text dy="0.5ex" class="label"><textPath xmlns:xlink="http://www.w3.org/1999/xlink" xlink:href="#path-3" startOffset="95%" text-anchor="end" style="font-size: 11px; font-family: Arial, Helvetica; font-weight: normal;">East Shewa</textPath></text><text dy="0.5ex" class="label"><textPath xmlns:xlink="http://www.w3.org/1999/xlink" xlink:href="#path-4" startOffset="80%" text-anchor="middle" style="font-size: 11px; font-family: Arial, Helvetica; font-weight: normal;">Eastern Tigray</textPath></text><text dy="0.5ex" class="label"><textPath xmlns:xlink="http://www.w3.org/1999/xlink" xlink:href="#path-5" startOffset="40%" text-anchor="middle" style="font-size: 11px; font-family: Arial, Helvetica; font-weight: normal;">Hadiya</textPath></text><text dy="0.5ex" class="label"><textPath xmlns:xlink="http://www.w3.org/1999/xlink" xlink:href="#path-6" startOffset="80%" text-anchor="middle" style="font-size: 11px; font-family: Arial, Helvetica; font-weight: normal;">North Gondar</textPath></text><text dy="0.5ex" class="label"><textPath xmlns:xlink="http://www.w3.org/1999/xlink" xlink:href="#path-7" startOffset="80%" text-anchor="middle" style="font-size: 11px; font-family: Arial, Helvetica; font-weight: normal;">North Shewa</textPath></text><text dy="0.5ex" class="label"><textPath xmlns:xlink="http://www.w3.org/1999/xlink" xlink:href="#path-8" startOffset="80%" text-anchor="middle" style="font-size: 11px; font-family: Arial, Helvetica; font-weight: normal;">South Gonder</textPath></text><text dy="0.5ex" class="label"><textPath xmlns:xlink="http://www.w3.org/1999/xlink" xlink:href="#path-9" startOffset="60%" text-anchor="middle" style="font-size: 11px; font-family: Arial, Helvetica; font-weight: normal;">South Tigray</textPath></text><text dy="0.5ex" class="label"><textPath xmlns:xlink="http://www.w3.org/1999/xlink" xlink:href="#path-10" startOffset="60%" text-anchor="middle" style="font-size: 11px; font-family: Arial, Helvetica; font-weight: normal;">South West Shewa</textPath></text><text dy="0.5ex" class="label"><textPath xmlns:xlink="http://www.w3.org/1999/xlink" xlink:href="#path-11" startOffset="60%" text-anchor="middle" style="font-size: 11px; font-family: Arial, Helvetica; font-weight: normal;">South Wolo</textPath></text><text dy="0.5ex" class="label"><textPath xmlns:xlink="http://www.w3.org/1999/xlink" xlink:href="#path-12" startOffset="80%" text-anchor="middle" style="font-size: 11px; font-family: Arial, Helvetica; font-weight: normal;">West Arsi</textPath></text><text dy="0.5ex" class="label"><textPath xmlns:xlink="http://www.w3.org/1999/xlink" xlink:href="#path-13" startOffset="80%" text-anchor="middle" style="font-size: 11px; font-family: Arial, Helvetica; font-weight: normal;">West Shewa</textPath></text><text dy="0.5ex" class="label"><textPath xmlns:xlink="http://www.w3.org/1999/xlink" xlink:href="#path-14" startOffset="60%" text-anchor="middle" style="font-size: 11px; font-family: Arial, Helvetica; font-weight: normal;">Yem</textPath></text></g></svg>