<svg width="847" height="542" xmlns="http://www.w3.org/2000/svg" version="1.1"><g><g class="x axis" transform="translate(0,522)" style="stroke-width: 1px; font-size: 10px; font-family: Arial, Helvetica; display: block;"><g class="tick" transform="translate(0,0)" style="opacity: 1;"><line y2="-522" x2="0" style="shape-rendering: crispEdges; fill: none; stroke: rgb(204, 204, 204);"></line><text dy=".71em" y="3" x="0" style="text-anchor: middle;">2010</text></g><g class="tick" transform="translate(169.30722891566265,0)" style="opacity: 1;"><line y2="-522" x2="0" style="shape-rendering: crispEdges; fill: none; stroke: rgb(204, 204, 204);"></line><text dy=".71em" y="3" x="0" style="text-anchor: middle;">2011</text></g><g class="tick" transform="translate(338.6144578313253,0)" style="opacity: 1;"><line y2="-522" x2="0" style="shape-rendering: crispEdges; fill: none; stroke: rgb(204, 204, 204);"></line><text dy=".71em" y="3" x="0" style="text-anchor: middle;">2012</text></g><g class="tick" transform="translate(508.3855421686747,0)" style="opacity: 1;"><line y2="-522" x2="0" style="shape-rendering: crispEdges; fill: none; stroke: rgb(204, 204, 204);"></line><text dy=".71em" y="3" x="0" style="text-anchor: middle;">2013</text></g><g class="tick" transform="translate(677.6927710843374,0)" style="opacity: 1;"><line y2="-522" x2="0" style="shape-rendering: crispEdges; fill: none; stroke: rgb(204, 204, 204);"></line><text dy=".71em" y="3" x="0" style="text-anchor: middle;">2014</text></g><g class="tick" transform="translate(847,0)" style="opacity: 1;"><line y2="-522" x2="0" style="shape-rendering: crispEdges; fill: none; stroke: rgb(204, 204, 204);"></line><text dy=".71em" y="3" x="0" style="text-anchor: middle;">2015</text></g><path class="domain" d="M0,-522V0H847V-522" style="shape-rendering: crispEdges; fill: none; stroke: rgb(204, 204, 204);"></path></g><path class="layer" d="M0,162.33520393677856C84.65361445783132,162.33520393677856 84.65361445783132,147.13590670044164 169.30722891566265,147.13590670044164C253.96084337349396,147.13590670044164 253.96084337349396,192.21799952315388 338.6144578313253,192.21799952315388C423.5,192.21799952315388 423.5,121.22464420807407 508.3855421686747,121.22464420807407C593.039156626506,121.22464420807407 593.039156626506,117.48835826308537 677.6927710843374,117.48835826308537C762.3463855421687,117.48835826308537 762.3463855421687,121.53967768379093 847,121.53967768379093L847,179.08806115691104C762.3463855421687,179.08806115691104 762.3463855421687,185.67571744612385 677.6927710843374,185.67571744612385C593.039156626506,185.67571744612385 593.039156626506,185.86180221512728 508.3855421686747,185.86180221512728C423.5,185.86180221512728 423.5,246.26907940845615 338.6144578313253,246.26907940845615C253.96084337349396,246.26907940845615 253.96084337349396,202.65215760210538 169.30722891566265,202.65215760210538C84.65361445783132,202.65215760210538 84.65361445783132,210.146152854352 0,210.146152854352Z" title="Arsi" style="fill-opacity: 0.9; fill: rgb(191, 105, 105);"></path><path class="layer" d="M0,210.2997904702829C84.65361445783132,210.2997904702829 84.65361445783132,202.8057952180362 169.30722891566265,202.8057952180362C253.96084337349396,202.8057952180362 253.96084337349396,134.4120987514853 338.6144578313253,134.4120987514853C423.5,134.4120987514853 423.5,186.01543983105816 508.3855421686747,186.01543983105816C593.039156626506,186.01543983105816 593.039156626506,185.82935506205473 677.6927710843374,185.82935506205473C762.3463855421687,185.82935506205473 762.3463855421687,179.24169877284183 847,179.24169877284183L847,235.2467826695677C762.3463855421687,235.2467826695677 762.3463855421687,250.1478337189562 677.6927710843374,250.1478337189562C593.039156626506,250.1478337189562 593.039156626506,247.21862625679114 508.3855421686747,247.21862625679114C423.5,247.21862625679114 423.5,192.064361907223 338.6144578313253,192.064361907223C253.96084337349396,192.064361907223 253.96084337349396,245.77522243807894 169.30722891566265,245.77522243807894C84.65361445783132,245.77522243807894 84.65361445783132,255.93638366344499 0,255.93638366344499Z" title="Bale" style="fill-opacity: 0.9; fill: rgb(191, 137, 105);"></path><path class="layer" d="M0,75.84150298256813C84.65361445783132,75.84150298256813 84.65361445783132,70.08068395060884 169.30722891566265,70.08068395060884C253.96084337349396,70.08068395060884 253.96084337349396,42.98224381536047 338.6144578313253,42.98224381536047C423.5,42.98224381536047 423.5,20.39542872475444 508.3855421686747,20.39542872475444C593.039156626506,20.39542872475444 593.039156626506,0 677.6927710843374,0C762.3463855421687,0 762.3463855421687,32.937384915420196 847,32.937384915420196L847,121.38604006786012C762.3463855421687,121.38604006786012 762.3463855421687,117.33472064715457 677.6927710843374,117.33472064715457C593.039156626506,117.33472064715457 593.039156626506,121.07100659214319 508.3855421686747,121.07100659214319C423.5,121.07100659214319 423.5,134.25846113555443 338.6144578313253,134.25846113555443C253.96084337349396,134.25846113555443 253.96084337349396,146.98226908451082 169.30722891566265,146.98226908451082C84.65361445783132,146.98226908451082 84.65361445783132,162.18156632084768 0,162.18156632084768Z" title="Bottom 40 Zones" style="fill-opacity: 0.9; fill: rgb(191, 169, 105);"></path><path class="layer" d="M0,314.5734782257493C84.65361445783132,314.5734782257493 84.65361445783132,388.81368164675075 169.30722891566265,388.81368164675075C253.96084337349396,388.81368164675075 253.96084337349396,363.94681208195334 338.6144578313253,363.94681208195334C423.5,363.94681208195334 423.5,378.3068925657959 508.3855421686747,378.3068925657959C593.039156626506,378.3068925657959 593.039156626506,368.6929694840194 677.6927710843374,368.6929694840194C762.3463855421687,368.6929694840194 762.3463855421687,349.3271069119738 847,349.3271069119738L847,373.2481652695258C762.3463855421687,373.2481652695258 762.3463855421687,391.5992265909967 677.6927710843374,391.5992265909967C593.039156626506,391.5992265909967 593.039156626506,398.00264376399747 508.3855421686747,398.00264376399747C423.5,398.00264376399747 423.5,380.67397912254523 338.6144578313253,380.67397912254523C253.96084337349396,380.67397912254523 253.96084337349396,400.70786889145205 169.30722891566265,400.70786889145205C84.65361445783132,400.70786889145205 84.65361445783132,332.1594252692108 0,332.1594252692108Z" title="East Gojjam" style="fill-opacity: 0.9; fill: rgb(180, 191, 105);"></path><path class="layer" d="M0,347.33139022418254C84.65361445783132,347.33139022418254 84.65361445783132,310.77045160455674 169.30722891566265,310.77045160455674C253.96084337349396,310.77045160455674 253.96084337349396,321.1579594561257 338.6144578313253,321.1579594561257C423.5,321.1579594561257 423.5,331.7951040558668 508.3855421686747,331.7951040558668C593.039156626506,331.7951040558668 593.039156626506,341.00101773097003 677.6927710843374,341.00101773097003C762.3463855421687,341.00101773097003 762.3463855421687,316.64625473180826 847,316.64625473180826L847,349.173469296043C762.3463855421687,349.173469296043 762.3463855421687,368.5393318680885 677.6927710843374,368.5393318680885C593.039156626506,368.5393318680885 593.039156626506,355.99001918926166 508.3855421686747,355.99001918926166C423.5,355.99001918926166 423.5,345.59482753201405 338.6144578313253,345.59482753201405C253.96084337349396,345.59482753201405 253.96084337349396,332.40295026233906 169.30722891566265,332.40295026233906C84.65361445783132,332.40295026233906 84.65361445783132,362.1707252040128 0,362.1707252040128Z" title="East Shewa" style="fill-opacity: 0.9; fill: rgb(148, 191, 105);"></path><path class="layer" d="M0,410.2177126420435C84.65361445783132,410.2177126420435 84.65361445783132,412.30585483469656 169.30722891566265,412.30585483469656C253.96084337349396,412.30585483469656 253.96084337349396,458.79004689779566 338.6144578313253,458.79004689779566C423.5,458.79004689779566 423.5,492.7244833915881 508.3855421686747,492.7244833915881C593.039156626506,492.7244833915881 593.039156626506,510.88085233977995 677.6927710843374,510.88085233977995C762.3463855421687,510.88085233977995 762.3463855421687,480.0982765593374 847,480.0982765593374L847,489.06261508457976C762.3463855421687,489.06261508457976 762.3463855421687,522 677.6927710843374,522C593.039156626506,522 593.039156626506,501.6045712752455 508.3855421686747,501.6045712752455C423.5,501.6045712752455 423.5,468.9970554134958 338.6144578313253,468.9970554134958C253.96084337349396,468.9970554134958 253.96084337349396,422.9398109942007 169.30722891566265,422.9398109942007C84.65361445783132,422.9398109942007 84.65361445783132,419.50267279549405 0,419.50267279549405Z" title="Eastern Tigray" style="fill-opacity: 0.9; fill: rgb(116, 191, 105);"></path><path class="layer" d="M0,428.94815807307094C84.65361445783132,428.94815807307094 84.65361445783132,400.8615065073829 169.30722891566265,400.8615065073829C253.96084337349396,400.8615065073829 253.96084337349396,395.79834192047576 338.6144578313253,395.79834192047576C423.5,395.79834192047576 423.5,481.2896255894591 508.3855421686747,481.2896255894591C593.039156626506,481.2896255894591 593.039156626506,487.61458477822936 677.6927710843374,487.61458477822936C762.3463855421687,487.61458477822936 762.3463855421687,470.42143665106914 847,470.42143665106914L847,479.9446389434065C762.3463855421687,479.9446389434065 762.3463855421687,499.34171975578573 677.6927710843374,499.34171975578573C593.039156626506,499.34171975578573 593.039156626506,492.5708457756573 508.3855421686747,492.5708457756573C423.5,492.5708457756573 423.5,409.71171985293745 338.6144578313253,409.71171985293745C253.96084337349396,409.71171985293745 253.96084337349396,412.15221721876577 169.30722891566265,412.15221721876577C84.65361445783132,412.15221721876577 84.65361445783132,438.05706431797404 0,438.05706431797404Z" title="Hadiya" style="fill-opacity: 0.9; fill: rgb(105, 191, 126);"></path><path class="layer" d="M0,390.0235776051842C84.65361445783132,390.0235776051842 84.65361445783132,376.6017778516945 169.30722891566265,376.6017778516945C253.96084337349396,376.6017778516945 253.96084337349396,435.9166236379356 338.6144578313253,435.9166236379356C423.5,435.9166236379356 423.5,443.5059516974007 508.3855421686747,443.5059516974007C593.039156626506,443.5059516974007 593.039156626506,461.03042426256627 677.6927710843374,461.03042426256627C762.3463855421687,461.03042426256627 762.3463855421687,459.99610009925556 847,459.99610009925556L847,470.26779903513824C762.3463855421687,470.26779903513824 762.3463855421687,474.80924643141213 677.6927710843374,474.80924643141213C593.039156626506,474.80924643141213 593.039156626506,456.7858615508868 508.3855421686747,456.7858615508868C423.5,456.7858615508868 423.5,447.7477784348222 338.6144578313253,447.7477784348222C253.96084337349396,447.7477784348222 253.96084337349396,388.6600440308199 169.30722891566265,388.6600440308199C84.65361445783132,388.6600440308199 84.65361445783132,400.3376058983085 0,400.3376058983085Z" title="North Gondar" style="fill-opacity: 0.9; fill: rgb(105, 191, 159);"></path><path class="layer" d="M0,256.09002127937583C84.65361445783132,256.09002127937583 84.65361445783132,283.6481860309596 169.30722891566265,283.6481860309596C253.96084337349396,283.6481860309596 253.96084337349396,289.3397526835324 338.6144578313253,289.3397526835324C423.5,289.3397526835324 423.5,291.82976388924044 508.3855421686747,291.82976388924044C593.039156626506,291.82976388924044 593.039156626506,297.45909112044774 677.6927710843374,297.45909112044774C762.3463855421687,297.45909112044774 762.3463855421687,278.06341671211834 847,278.06341671211834L847,316.49261711587747C762.3463855421687,316.49261711587747 762.3463855421687,340.8473801150392 677.6927710843374,340.8473801150392C593.039156626506,340.8473801150392 593.039156626506,331.6414664399359 508.3855421686747,331.6414664399359C423.5,331.6414664399359 423.5,321.00432184019485 338.6144578313253,321.00432184019485C253.96084337349396,321.00432184019485 253.96084337349396,310.61681398862595 169.30722891566265,310.61681398862595C84.65361445783132,310.61681398862595 84.65361445783132,285.7186798621803 0,285.7186798621803Z" title="North Shewa" style="fill-opacity: 0.9; fill: rgb(105, 191, 191);"></path><path class="layer" d="M0,376.333262543502C84.65361445783132,376.333262543502 84.65361445783132,332.5565878782699 169.30722891566265,332.5565878782699C253.96084337349396,332.5565878782699 253.96084337349396,380.8276167384761 338.6144578313253,380.8276167384761C423.5,380.8276167384761 423.5,429.3095944358239 508.3855421686747,429.3095944358239C593.039156626506,429.3095944358239 593.039156626506,413.87460220860623 677.6927710843374,413.87460220860623C762.3463855421687,413.87460220860623 762.3463855421687,409.99884965486757 847,409.99884965486757L847,425.1405799932414C762.3463855421687,425.1405799932414 762.3463855421687,430.2776253662453 677.6927710843374,430.2776253662453C593.039156626506,430.2776253662453 593.039156626506,443.35231408146984 508.3855421686747,443.35231408146984C423.5,443.35231408146984 423.5,395.64470430454486 338.6144578313253,395.64470430454486C253.96084337349396,395.64470430454486 253.96084337349396,348.19834067149253 169.30722891566265,348.19834067149253C84.65361445783132,348.19834067149253 84.65361445783132,389.86993998925334 0,389.86993998925334Z" title="South Gonder" style="fill-opacity: 0.9; fill: rgb(105, 159, 191);"></path><path class="layer" d="M0,362.32436281994364C84.65361445783132,362.32436281994364 84.65361445783132,362.6225823574395 169.30722891566265,362.6225823574395C253.96084337349396,362.6225823574395 253.96084337349396,409.86535746886835 338.6144578313253,409.86535746886835C423.5,409.86535746886835 423.5,414.26323725553544 508.3855421686747,414.26323725553544C593.039156626506,414.26323725553544 593.039156626506,474.962884047343 677.6927710843374,474.962884047343C762.3463855421687,474.962884047343 762.3463855421687,449.5696850306224 847,449.5696850306224L847,459.84246248332477C762.3463855421687,459.84246248332477 762.3463855421687,487.4609471622985 677.6927710843374,487.4609471622985C593.039156626506,487.4609471622985 593.039156626506,429.15595681989305 508.3855421686747,429.15595681989305C423.5,429.15595681989305 423.5,423.17630064164774 338.6144578313253,423.17630064164774C253.96084337349396,423.17630064164774 253.96084337349396,376.4481402357637 169.30722891566265,376.4481402357637C84.65361445783132,376.4481402357637 84.65361445783132,376.1796249275711 0,376.1796249275711Z" title="South Tigray" style="fill-opacity: 0.9; fill: rgb(105, 126, 191);"></path><path class="layer" d="M0,332.3130628851417C84.65361445783132,332.3130628851417 84.65361445783132,348.35197828742344 169.30722891566265,348.35197828742344C253.96084337349396,348.35197828742344 253.96084337349396,345.74846514794484 338.6144578313253,345.74846514794484C423.5,345.74846514794484 423.5,356.1436568051925 508.3855421686747,356.1436568051925C593.039156626506,356.1436568051925 593.039156626506,391.75286420692754 677.6927710843374,391.75286420692754C762.3463855421687,391.75286420692754 762.3463855421687,373.40180288545673 847,373.40180288545673L847,394.4586135304762C762.3463855421687,394.4586135304762 762.3463855421687,413.7209645926754 677.6927710843374,413.7209645926754C593.039156626506,413.7209645926754 593.039156626506,378.1532549498651 508.3855421686747,378.1532549498651C423.5,378.1532549498651 423.5,363.79317446602244 338.6144578313253,363.79317446602244C253.96084337349396,363.79317446602244 253.96084337349396,362.4689447415086 169.30722891566265,362.4689447415086C84.65361445783132,362.4689447415086 84.65361445783132,347.17775260825164 0,347.17775260825164Z" title="South West Shewa" style="fill-opacity: 0.9; fill: rgb(116, 105, 191);"></path><path class="layer" d="M0,419.65631041142495C84.65361445783132,419.65631041142495 84.65361445783132,432.9456117168596 169.30722891566265,432.9456117168596C253.96084337349396,432.9456117168596 253.96084337349396,469.15069302942663 338.6144578313253,469.15069302942663C423.5,469.15069302942663 423.5,398.1562813799283 508.3855421686747,398.1562813799283C593.039156626506,398.1562813799283 593.039156626506,446.00211234571225 677.6927710843374,446.00211234571225C762.3463855421687,446.00211234571225 762.3463855421687,394.61225114640706 847,394.61225114640706L847,409.84521203893667C762.3463855421687,409.84521203893667 762.3463855421687,460.8767866466355 677.6927710843374,460.8767866466355C593.039156626506,460.8767866466355 593.039156626506,414.10959963960465 508.3855421686747,414.10959963960465C423.5,414.10959963960465 423.5,479.01775618463955 338.6144578313253,479.01775618463955C253.96084337349396,479.01775618463955 253.96084337349396,442.4935235795116 169.30722891566265,442.4935235795116C84.65361445783132,442.4935235795116 84.65361445783132,428.79452045714015 0,428.79452045714015Z" title="South Wolo" style="fill-opacity: 0.9; fill: rgb(148, 105, 191);"></path><path class="layer" d="M0,285.87231747811114C84.65361445783132,285.87231747811114 84.65361445783132,245.92886005400982 169.30722891566265,245.92886005400982C253.96084337349396,245.92886005400982 253.96084337349396,246.42271702438697 338.6144578313253,246.42271702438697C423.5,246.42271702438697 423.5,247.37226387272196 508.3855421686747,247.37226387272196C593.039156626506,247.37226387272196 593.039156626506,250.30147133488703 677.6927710843374,250.30147133488703C762.3463855421687,250.30147133488703 762.3463855421687,235.40042028549857 847,235.40042028549857L847,277.90977909618744C762.3463855421687,277.90977909618744 762.3463855421687,297.30545350451695 677.6927710843374,297.30545350451695C593.039156626506,297.30545350451695 593.039156626506,291.67612627330965 508.3855421686747,291.67612627330965C423.5,291.67612627330965 423.5,289.1861150676015 338.6144578313253,289.1861150676015C253.96084337349396,289.1861150676015 253.96084337349396,283.49454841502876 169.30722891566265,283.49454841502876C84.65361445783132,283.49454841502876 84.65361445783132,314.4198406098185 0,314.4198406098185Z" title="West Arsi" style="fill-opacity: 0.9; fill: rgb(180, 105, 191);"></path><path class="layer" d="M0,400.4912435142393C84.65361445783132,400.4912435142393 84.65361445783132,442.64716119544244 169.30722891566265,442.64716119544244C253.96084337349396,442.64716119544244 253.96084337349396,423.32993825757853 338.6144578313253,423.32993825757853C423.5,423.32993825757853 423.5,456.93949916681765 508.3855421686747,456.93949916681765C593.039156626506,456.93949916681765 593.039156626506,430.4312629821762 677.6927710843374,430.4312629821762C762.3463855421687,430.4312629821762 762.3463855421687,425.29421760917216 847,425.29421760917216L847,438.2209070469193C762.3463855421687,438.2209070469193 762.3463855421687,445.8484747297814 677.6927710843374,445.8484747297814C593.039156626506,445.8484747297814 593.039156626506,469.51317492160405 508.3855421686747,469.51317492160405C423.5,469.51317492160405 423.5,435.7629860220047 338.6144578313253,435.7629860220047C253.96084337349396,435.7629860220047 253.96084337349396,451.9193160493911 169.30722891566265,451.9193160493911C84.65361445783132,451.9193160493911 84.65361445783132,410.06407502611273 0,410.06407502611273Z" title="West Shewa" style="fill-opacity: 0.9; fill: rgb(191, 105, 169);"></path><path class="layer" d="M0,438.2107019339049C84.65361445783132,438.2107019339049 84.65361445783132,423.09344861013153 169.30722891566265,423.09344861013153C253.96084337349396,423.09344861013153 253.96084337349396,447.901416050753 338.6144578313253,447.901416050753C423.5,447.901416050753 423.5,469.66681253753495 508.3855421686747,469.66681253753495C593.039156626506,469.66681253753495 593.039156626506,499.4953573717166 677.6927710843374,499.4953573717166C762.3463855421687,499.4953573717166 762.3463855421687,438.37454466285016 847,438.37454466285016L847,449.41604741469155C762.3463855421687,449.41604741469155 762.3463855421687,510.7272147238491 677.6927710843374,510.7272147238491C593.039156626506,510.7272147238491 593.039156626506,481.13598797352824 508.3855421686747,481.13598797352824C423.5,481.13598797352824 423.5,458.63640928186476 338.6144578313253,458.63640928186476C253.96084337349396,458.63640928186476 253.96084337349396,432.7919741009288 169.30722891566265,432.7919741009288C84.65361445783132,432.7919741009288 84.65361445783132,446.1584970174319 0,446.1584970174319Z" title="Yem" style="fill-opacity: 0.9; fill: rgb(191, 105, 137);"></path><defs><path id="path-0" d="M0,186.24067839556528C84.65361445783132,186.24067839556528 84.65361445783132,174.8940321512735 169.30722891566265,174.8940321512735C253.96084337349396,174.8940321512735 253.96084337349396,219.24353946580501 338.6144578313253,219.24353946580501C423.5,219.24353946580501 423.5,153.54322321160066 508.3855421686747,153.54322321160066C593.039156626506,153.54322321160066 593.039156626506,151.5820378546046 677.6927710843374,151.5820378546046C762.3463855421687,151.5820378546046 762.3463855421687,150.31386942035098 847,150.31386942035098"></path><path id="path-1" d="M0,233.11808706686395C84.65361445783132,233.11808706686395 84.65361445783132,224.29050882805757 169.30722891566265,224.29050882805757C253.96084337349396,224.29050882805757 253.96084337349396,163.23823032935417 338.6144578313253,163.23823032935417C423.5,163.23823032935417 423.5,216.61703304392466 508.3855421686747,216.61703304392466C593.039156626506,216.61703304392466 593.039156626506,217.98859439050545 677.6927710843374,217.98859439050545C762.3463855421687,217.98859439050545 762.3463855421687,207.24424072120476 847,207.24424072120476"></path><path id="path-2" d="M0,119.0115346517079C84.65361445783132,119.0115346517079 84.65361445783132,108.53147651755984 169.30722891566265,108.53147651755984C253.96084337349396,108.53147651755984 253.96084337349396,88.62035247545745 338.6144578313253,88.62035247545745C423.5,88.62035247545745 423.5,70.73321765844881 508.3855421686747,70.73321765844881C593.039156626506,70.73321765844881 593.039156626506,58.667360323577284 677.6927710843374,58.667360323577284C762.3463855421687,58.667360323577284 762.3463855421687,77.16171249164016 847,77.16171249164016"></path><path id="path-3" d="M0,323.36645174748C84.65361445783132,323.36645174748 84.65361445783132,394.7607752691014 169.30722891566265,394.7607752691014C253.96084337349396,394.7607752691014 253.96084337349396,372.3103956022493 338.6144578313253,372.3103956022493C423.5,372.3103956022493 423.5,388.1547681648967 508.3855421686747,388.1547681648967C593.039156626506,388.1547681648967 593.039156626506,380.14609803750807 677.6927710843374,380.14609803750807C762.3463855421687,380.14609803750807 762.3463855421687,361.2876360907498 847,361.2876360907498"></path><path id="path-4" d="M0,354.75105771409767C84.65361445783132,354.75105771409767 84.65361445783132,321.5867009334479 169.30722891566265,321.5867009334479C253.96084337349396,321.5867009334479 253.96084337349396,333.3763934940699 338.6144578313253,333.3763934940699C423.5,333.3763934940699 423.5,343.89256162256424 508.3855421686747,343.89256162256424C593.039156626506,343.89256162256424 593.039156626506,354.7701747995293 677.6927710843374,354.7701747995293C762.3463855421687,354.7701747995293 762.3463855421687,332.9098620139256 847,332.9098620139256"></path><path id="path-5" d="M0,414.86019271876876C84.65361445783132,414.86019271876876 84.65361445783132,417.6228329144486 169.30722891566265,417.6228329144486C253.96084337349396,417.6228329144486 253.96084337349396,463.8935511556457 338.6144578313253,463.8935511556457C423.5,463.8935511556457 423.5,497.1645273334168 508.3855421686747,497.1645273334168C593.039156626506,497.1645273334168 593.039156626506,516.44042616989 677.6927710843374,516.44042616989C762.3463855421687,516.44042616989 762.3463855421687,484.5804458219586 847,484.5804458219586"></path><path id="path-6" d="M0,433.5026111955225C84.65361445783132,433.5026111955225 84.65361445783132,406.50686186307433 169.30722891566265,406.50686186307433C253.96084337349396,406.50686186307433 253.96084337349396,402.7550308867066 338.6144578313253,402.7550308867066C423.5,402.7550308867066 423.5,486.9302356825582 508.3855421686747,486.9302356825582C593.039156626506,486.9302356825582 593.039156626506,493.47815226700754 677.6927710843374,493.47815226700754C762.3463855421687,493.47815226700754 762.3463855421687,475.18303779723783 847,475.18303779723783"></path><path id="path-7" d="M0,395.1805917517463C84.65361445783132,395.1805917517463 84.65361445783132,382.6309109412572 169.30722891566265,382.6309109412572C253.96084337349396,382.6309109412572 253.96084337349396,441.8322010363789 338.6144578313253,441.8322010363789C423.5,441.8322010363789 423.5,450.1459066241438 508.3855421686747,450.1459066241438C593.039156626506,450.1459066241438 593.039156626506,467.9198353469892 677.6927710843374,467.9198353469892C762.3463855421687,467.9198353469892 762.3463855421687,465.1319495671969 847,465.1319495671969"></path><path id="path-8" d="M0,270.9043505707781C84.65361445783132,270.9043505707781 84.65361445783132,297.1325000097928 169.30722891566265,297.1325000097928C253.96084337349396,297.1325000097928 253.96084337349396,305.17203726186364 338.6144578313253,305.17203726186364C423.5,305.17203726186364 423.5,311.7356151645882 508.3855421686747,311.7356151645882C593.039156626506,311.7356151645882 593.039156626506,319.15323561774346 677.6927710843374,319.15323561774346C762.3463855421687,319.15323561774346 762.3463855421687,297.27801691399793 847,297.27801691399793"></path><path id="path-9" d="M0,383.10160126637766C84.65361445783132,383.10160126637766 84.65361445783132,340.3774642748812 169.30722891566265,340.3774642748812C253.96084337349396,340.3774642748812 253.96084337349396,388.23616052151044 338.6144578313253,388.23616052151044C423.5,388.23616052151044 423.5,436.3309542586469 508.3855421686747,436.3309542586469C593.039156626506,436.3309542586469 593.039156626506,422.07611378742575 677.6927710843374,422.07611378742575C762.3463855421687,422.07611378742575 762.3463855421687,417.5697148240545 847,417.5697148240545"></path><path id="path-10" d="M0,369.2519938737574C84.65361445783132,369.2519938737574 84.65361445783132,369.5353612966016 169.30722891566265,369.5353612966016C253.96084337349396,369.5353612966016 253.96084337349396,416.52082905525805 338.6144578313253,416.52082905525805C423.5,416.52082905525805 423.5,421.7095970377143 508.3855421686747,421.7095970377143C593.039156626506,421.7095970377143 593.039156626506,481.2119156048208 677.6927710843374,481.2119156048208C762.3463855421687,481.2119156048208 762.3463855421687,454.7060737569736 847,454.7060737569736"></path><path id="path-11" d="M0,339.7454077466966C84.65361445783132,339.7454077466966 84.65361445783132,355.410461514466 169.30722891566265,355.410461514466C253.96084337349396,355.410461514466 253.96084337349396,354.77081980698364 338.6144578313253,354.77081980698364C423.5,354.77081980698364 423.5,367.1484558775288 508.3855421686747,367.1484558775288C593.039156626506,367.1484558775288 593.039156626506,402.73691439980144 677.6927710843374,402.73691439980144C762.3463855421687,402.73691439980144 762.3463855421687,383.9302082079665 847,383.9302082079665"></path><path id="path-12" d="M0,424.2254154342826C84.65361445783132,424.2254154342826 84.65361445783132,437.7195676481856 169.30722891566265,437.7195676481856C253.96084337349396,437.7195676481856 253.96084337349396,474.0842246070331 338.6144578313253,474.0842246070331C423.5,474.0842246070331 423.5,406.1329405097665 508.3855421686747,406.1329405097665C593.039156626506,406.1329405097665 593.039156626506,453.4394494961739 677.6927710843374,453.4394494961739C762.3463855421687,453.4394494961739 762.3463855421687,402.22873159267186 847,402.22873159267186"></path><path id="path-13" d="M0,300.14607904396485C84.65361445783132,300.14607904396485 84.65361445783132,264.7117042345193 169.30722891566265,264.7117042345193C253.96084337349396,264.7117042345193 253.96084337349396,267.80441604599423 338.6144578313253,267.80441604599423C423.5,267.80441604599423 423.5,269.5241950730158 508.3855421686747,269.5241950730158C593.039156626506,269.5241950730158 593.039156626506,273.803462419702 677.6927710843374,273.803462419702C762.3463855421687,273.803462419702 762.3463855421687,256.65509969084303 847,256.65509969084303"></path><path id="path-14" d="M0,405.277659270176C84.65361445783132,405.277659270176 84.65361445783132,447.2832386224168 169.30722891566265,447.2832386224168C253.96084337349396,447.2832386224168 253.96084337349396,429.54646213979163 338.6144578313253,429.54646213979163C423.5,429.54646213979163 423.5,463.2263370442108 508.3855421686747,463.2263370442108C593.039156626506,463.2263370442108 593.039156626506,438.13986885597876 677.6927710843374,438.13986885597876C762.3463855421687,438.13986885597876 762.3463855421687,431.75756232804576 847,431.75756232804576"></path><path id="path-15" d="M0,442.1845994756684C84.65361445783132,442.1845994756684 84.65361445783132,427.94271135553015 169.30722891566265,427.94271135553015C253.96084337349396,427.94271135553015 253.96084337349396,453.2689126663089 338.6144578313253,453.2689126663089C423.5,453.2689126663089 423.5,475.4014002555316 508.3855421686747,475.4014002555316C593.039156626506,475.4014002555316 593.039156626506,505.11128604778287 677.6927710843374,505.11128604778287C762.3463855421687,505.11128604778287 762.3463855421687,443.8952960387709 847,443.8952960387709"></path></defs><text dy="0.5ex" class="label"><textPath xmlns:xlink="http://www.w3.org/1999/xlink" xlink:href="#path-0" startOffset="80%" text-anchor="middle" style="font-size: 11px; font-family: Arial, Helvetica; font-weight: normal;">Arsi</textPath></text><text dy="0.5ex" class="label"><textPath xmlns:xlink="http://www.w3.org/1999/xlink" xlink:href="#path-1" startOffset="80%" text-anchor="middle" style="font-size: 11px; font-family: Arial, Helvetica; font-weight: normal;">Bale</textPath></text><text dy="0.5ex" class="label"><textPath xmlns:xlink="http://www.w3.org/1999/xlink" xlink:href="#path-2" startOffset="80%" text-anchor="middle" style="font-size: 11px; font-family: Arial, Helvetica; font-weight: normal;">Bottom 40 Zones</textPath></text><text dy="0.5ex" class="label"><textPath xmlns:xlink="http://www.w3.org/1999/xlink" xlink:href="#path-3" startOffset="95%" text-anchor="end" style="font-size: 11px; font-family: Arial, Helvetica; font-weight: normal;">East Gojjam</textPath></text><text dy="0.5ex" class="label"><textPath xmlns:xlink="http://www.w3.org/1999/xlink" xlink:href="#path-4" startOffset="95%" text-anchor="end" style="font-size: 11px; font-family: Arial, Helvetica; font-weight: normal;">East Shewa</textPath></text><text dy="0.5ex" class="label"><textPath xmlns:xlink="http://www.w3.org/1999/xlink" xlink:href="#path-5" startOffset="80%" text-anchor="middle" style="font-size: 11px; font-family: Arial, Helvetica; font-weight: normal;">Eastern Tigray</textPath></text><text dy="0.5ex" class="label"><textPath xmlns:xlink="http://www.w3.org/1999/xlink" xlink:href="#path-6" startOffset="40%" text-anchor="middle" style="font-size: 11px; font-family: Arial, Helvetica; font-weight: normal;">Hadiya</textPath></text><text dy="0.5ex" class="label"><textPath xmlns:xlink="http://www.w3.org/1999/xlink" xlink:href="#path-7" startOffset="80%" text-anchor="middle" style="font-size: 11px; font-family: Arial, Helvetica; font-weight: normal;">North Gondar</textPath></text><text dy="0.5ex" class="label"><textPath xmlns:xlink="http://www.w3.org/1999/xlink" xlink:href="#path-8" startOffset="80%" text-anchor="middle" style="font-size: 11px; font-family: Arial, Helvetica; font-weight: normal;">North Shewa</textPath></text><text dy="0.5ex" class="label"><textPath xmlns:xlink="http://www.w3.org/1999/xlink" xlink:href="#path-9" startOffset="80%" text-anchor="middle" style="font-size: 11px; font-family: Arial, Helvetica; font-weight: normal;">South Gonder</textPath></text><text dy="0.5ex" class="label"><textPath xmlns:xlink="http://www.w3.org/1999/xlink" xlink:href="#path-10" startOffset="60%" text-anchor="middle" style="font-size: 11px; font-family: Arial, Helvetica; font-weight: normal;">South Tigray</textPath></text><text dy="0.5ex" class="label"><textPath xmlns:xlink="http://www.w3.org/1999/xlink" xlink:href="#path-11" startOffset="60%" text-anchor="middle" style="font-size: 11px; font-family: Arial, Helvetica; font-weight: normal;">South West Shewa</textPath></text><text dy="0.5ex" class="label"><textPath xmlns:xlink="http://www.w3.org/1999/xlink" xlink:href="#path-12" startOffset="60%" text-anchor="middle" style="font-size: 11px; font-family: Arial, Helvetica; font-weight: normal;">South Wolo</textPath></text><text dy="0.5ex" class="label"><textPath xmlns:xlink="http://www.w3.org/1999/xlink" xlink:href="#path-13" startOffset="80%" text-anchor="middle" style="font-size: 11px; font-family: Arial, Helvetica; font-weight: normal;">West Arsi</textPath></text><text dy="0.5ex" class="label"><textPath xmlns:xlink="http://www.w3.org/1999/xlink" xlink:href="#path-14" startOffset="80%" text-anchor="middle" style="font-size: 11px; font-family: Arial, Helvetica; font-weight: normal;">West Shewa</textPath></text><text dy="0.5ex" class="label"><textPath xmlns:xlink="http://www.w3.org/1999/xlink" xlink:href="#path-15" startOffset="60%" text-anchor="middle" style="font-size: 11px; font-family: Arial, Helvetica; font-weight: normal;">Yem</textPath></text></g></svg>