<svg width="847" height="542" xmlns="http://www.w3.org/2000/svg" version="1.1"><g><g class="x axis" transform="translate(0,522)" style="stroke-width: 1px; font-size: 10px; font-family: Arial, Helvetica; display: block;"><g class="tick" transform="translate(0,0)" style="opacity: 1;"><line y2="-522" x2="0" style="shape-rendering: crispEdges; fill: none; stroke: rgb(204, 204, 204);"></line><text dy=".71em" y="3" x="0" style="text-anchor: middle;">2010</text></g><g class="tick" transform="translate(169.30722891566265,0)" style="opacity: 1;"><line y2="-522" x2="0" style="shape-rendering: crispEdges; fill: none; stroke: rgb(204, 204, 204);"></line><text dy=".71em" y="3" x="0" style="text-anchor: middle;">2011</text></g><g class="tick" transform="translate(338.6144578313253,0)" style="opacity: 1;"><line y2="-522" x2="0" style="shape-rendering: crispEdges; fill: none; stroke: rgb(204, 204, 204);"></line><text dy=".71em" y="3" x="0" style="text-anchor: middle;">2012</text></g><g class="tick" transform="translate(508.3855421686747,0)" style="opacity: 1;"><line y2="-522" x2="0" style="shape-rendering: crispEdges; fill: none; stroke: rgb(204, 204, 204);"></line><text dy=".71em" y="3" x="0" style="text-anchor: middle;">2013</text></g><g class="tick" transform="translate(677.6927710843374,0)" style="opacity: 1;"><line y2="-522" x2="0" style="shape-rendering: crispEdges; fill: none; stroke: rgb(204, 204, 204);"></line><text dy=".71em" y="3" x="0" style="text-anchor: middle;">2014</text></g><g class="tick" transform="translate(847,0)" style="opacity: 1;"><line y2="-522" x2="0" style="shape-rendering: crispEdges; fill: none; stroke: rgb(204, 204, 204);"></line><text dy=".71em" y="3" x="0" style="text-anchor: middle;">2015</text></g><path class="domain" d="M0,-522V0H847V-522" style="shape-rendering: crispEdges; fill: none; stroke: rgb(204, 204, 204);"></path></g><path class="layer" d="M0,195.68411046420314C84.65361445783132,195.68411046420314 84.65361445783132,200.4213666674785 169.30722891566265,200.4213666674785C253.96084337349396,200.4213666674785 253.96084337349396,142.72807625620547 338.6144578313253,142.72807625620547C423.5,142.72807625620547 423.5,191.08605961914742 508.3855421686747,191.08605961914742C593.039156626506,191.08605961914742 593.039156626506,183.40341640760528 677.6927710843374,183.40341640760528C762.3463855421687,183.40341640760528 762.3463855421687,203.62210367830627 847,203.62210367830627L847,261.34036639048327C762.3463855421687,261.34036639048327 762.3463855421687,251.79206042250564 677.6927710843374,251.79206042250564C593.039156626506,251.79206042250564 593.039156626506,255.91402248559638 508.3855421686747,255.91402248559638C423.5,255.91402248559638 423.5,196.93871155847987 338.6144578313253,196.93871155847987C253.96084337349396,196.93871155847987 253.96084337349396,256.1014980795804 169.30722891566265,256.1014980795804C84.65361445783132,256.1014980795804 84.65361445783132,243.63619432129235 0,243.63619432129235Z" title="Arsi" style="fill-opacity: 0.9; fill: rgb(191, 105, 105);"></path><path class="layer" d="M0,149.75870974943038C84.65361445783132,149.75870974943038 84.65361445783132,157.1710052334422 169.30722891566265,157.1710052334422C253.96084337349396,157.1710052334422 253.96084337349396,197.09280270307138 338.6144578313253,197.09280270307138C423.5,197.09280270307138 423.5,129.54811405937855 508.3855421686747,129.54811405937855C593.039156626506,129.54811405937855 593.039156626506,118.74098246828393 677.6927710843374,118.74098246828393C762.3463855421687,118.74098246828393 762.3463855421687,147.29760512203495 847,147.29760512203495L847,203.46801253371473C762.3463855421687,203.46801253371473 762.3463855421687,183.24932526301367 677.6927710843374,183.24932526301367C593.039156626506,183.24932526301367 593.039156626506,190.93196847455582 508.3855421686747,190.93196847455582C423.5,190.93196847455582 423.5,254.91525174421074 338.6144578313253,254.91525174421074C253.96084337349396,254.91525174421074 253.96084337349396,200.2672755228869 169.30722891566265,200.2672755228869C84.65361445783132,200.2672755228869 84.65361445783132,195.53001931961154 0,195.53001931961154Z" title="Bale" style="fill-opacity: 0.9; fill: rgb(191, 191, 105);"></path><path class="layer" d="M0,243.79028546588395C84.65361445783132,243.79028546588395 84.65361445783132,256.25558922417196 169.30722891566265,256.25558922417196C253.96084337349396,256.25558922417196 253.96084337349396,255.06934288880234 338.6144578313253,255.06934288880234C423.5,255.06934288880234 423.5,256.068113630188 508.3855421686747,256.068113630188C593.039156626506,256.068113630188 593.039156626506,251.94615156709725 677.6927710843374,251.94615156709725C762.3463855421687,251.94615156709725 762.3463855421687,261.4944575350748 847,261.4944575350748L847,488.96538597842124C762.3463855421687,488.96538597842124 762.3463855421687,522 677.6927710843374,522C593.039156626506,522 593.039156626506,501.5443652415937 508.3855421686747,501.5443652415937C423.5,501.5443652415937 423.5,478.89087528144773 338.6144578313253,478.89087528144773C253.96084337349396,478.89087528144773 253.96084337349396,451.7124422408909 169.30722891566265,451.7124422408909C84.65361445783132,451.7124422408909 84.65361445783132,445.9346176304179 0,445.9346176304179Z" title="Bottom 50 Zones" style="fill-opacity: 0.9; fill: rgb(105, 191, 105);"></path><path class="layer" d="M0,76.0653823695821C84.65361445783132,76.0653823695821 84.65361445783132,70.28755775910913 169.30722891566265,70.28755775910913C253.96084337349396,70.28755775910913 253.96084337349396,43.10912471855218 338.6144578313253,43.10912471855218C423.5,43.10912471855218 423.5,20.45563475840628 508.3855421686747,20.45563475840628C593.039156626506,20.45563475840628 593.039156626506,0 677.6927710843374,0C762.3463855421687,0 762.3463855421687,33.034614021578754 847,33.034614021578754L847,65.65784689467515C762.3463855421687,65.65784689467515 762.3463855421687,27.619605523047742 677.6927710843374,27.619605523047742C593.039156626506,27.619605523047742 593.039156626506,44.72197177237978 508.3855421686747,44.72197177237978C423.5,44.72197177237978 423.5,67.61812890501616 338.6144578313253,67.61812890501616C253.96084337349396,67.61812890501616 253.96084337349396,91.9839142038369 169.30722891566265,91.9839142038369C84.65361445783132,91.9839142038369 84.65361445783132,90.94852214083039 0,90.94852214083039Z" title="East Shewa" style="fill-opacity: 0.9; fill: rgb(105, 191, 191);"></path><path class="layer" d="M0,119.88849806966387C84.65361445783132,119.88849806966387 84.65361445783132,92.1380053484285 169.30722891566265,92.1380053484285C253.96084337349396,92.1380053484285 253.96084337349396,67.77222004960775 338.6144578313253,67.77222004960775C423.5,67.77222004960775 423.5,44.876062916971385 508.3855421686747,44.876062916971385C593.039156626506,44.876062916971385 593.039156626506,27.773696667639346 677.6927710843374,27.773696667639346C762.3463855421687,27.773696667639346 762.3463855421687,65.81193803926675 847,65.81193803926675L847,104.35457904601351C762.3463855421687,104.35457904601351 762.3463855421687,71.29006518546927 677.6927710843374,71.29006518546927C593.039156626506,71.29006518546927 593.039156626506,84.80528713077359 508.3855421686747,84.80528713077359C423.5,84.80528713077359 423.5,99.5302610396869 338.6144578313253,99.5302610396869C253.96084337349396,99.5302610396869 253.96084337349396,119.18624301395039 169.30722891566265,119.18624301395039C84.65361445783132,119.18624301395039 84.65361445783132,149.60461860483878 0,149.60461860483878Z" title="North Shewa" style="fill-opacity: 0.9; fill: rgb(105, 105, 191);"></path><path class="layer" d="M0,91.10261328542198C84.65361445783132,91.10261328542198 84.65361445783132,119.34033415854198 169.30722891566265,119.34033415854198C253.96084337349396,119.34033415854198 253.96084337349396,99.68435218427851 338.6144578313253,99.68435218427851C423.5,99.68435218427851 423.5,84.9593782753652 508.3855421686747,84.9593782753652C593.039156626506,84.9593782753652 593.039156626506,71.44415633006088 677.6927710843374,71.44415633006088C762.3463855421687,71.44415633006088 762.3463855421687,104.50867019060506 847,104.50867019060506L847,147.14351397744335C762.3463855421687,147.14351397744335 762.3463855421687,118.5868913236924 677.6927710843374,118.5868913236924C593.039156626506,118.5868913236924 593.039156626506,129.39402291478694 508.3855421686747,129.39402291478694C423.5,129.39402291478694 423.5,142.5739851116139 338.6144578313253,142.5739851116139C253.96084337349396,142.5739851116139 253.96084337349396,157.01691408885065 169.30722891566265,157.01691408885065C84.65361445783132,157.01691408885065 84.65361445783132,119.73440692507226 0,119.73440692507226Z" title="West Arsi" style="fill-opacity: 0.9; fill: rgb(191, 105, 191);"></path><defs><path id="path-0" d="M0,219.66015239274776C84.65361445783132,219.66015239274776 84.65361445783132,228.26143237352943 169.30722891566265,228.26143237352943C253.96084337349396,228.26143237352943 253.96084337349396,169.83339390734267 338.6144578313253,169.83339390734267C423.5,169.83339390734267 423.5,223.5000410523719 508.3855421686747,223.5000410523719C593.039156626506,223.5000410523719 593.039156626506,217.59773841505546 677.6927710843374,217.59773841505546C762.3463855421687,217.59773841505546 762.3463855421687,232.48123503439479 847,232.48123503439479"></path><path id="path-1" d="M0,172.64436453452095C84.65361445783132,172.64436453452095 84.65361445783132,178.71914037816455 169.30722891566265,178.71914037816455C253.96084337349396,178.71914037816455 253.96084337349396,226.00402722364106 338.6144578313253,226.00402722364106C423.5,226.00402722364106 423.5,160.24004126696718 508.3855421686747,160.24004126696718C593.039156626506,160.24004126696718 593.039156626506,150.9951538656488 677.6927710843374,150.9951538656488C762.3463855421687,150.9951538656488 762.3463855421687,175.38280882787484 847,175.38280882787484"></path><path id="path-2" d="M0,344.86245154815094C84.65361445783132,344.86245154815094 84.65361445783132,353.9840157325314 169.30722891566265,353.9840157325314C253.96084337349396,353.9840157325314 253.96084337349396,366.98010908512504 338.6144578313253,366.98010908512504C423.5,366.98010908512504 423.5,378.80623943589086 508.3855421686747,378.80623943589086C593.039156626506,378.80623943589086 593.039156626506,386.9730757835486 677.6927710843374,386.9730757835486C762.3463855421687,386.9730757835486 762.3463855421687,375.229921756748 847,375.229921756748"></path><path id="path-3" d="M0,83.50695225520624C84.65361445783132,83.50695225520624 84.65361445783132,81.13573598147302 169.30722891566265,81.13573598147302C253.96084337349396,81.13573598147302 253.96084337349396,55.36362681178417 338.6144578313253,55.36362681178417C423.5,55.36362681178417 423.5,32.58880326539303 508.3855421686747,32.58880326539303C593.039156626506,32.58880326539303 593.039156626506,13.809802761523871 677.6927710843374,13.809802761523871C762.3463855421687,13.809802761523871 762.3463855421687,49.34623045812695 847,49.34623045812695"></path><path id="path-4" d="M0,134.74655833725132C84.65361445783132,134.74655833725132 84.65361445783132,105.66212418118945 169.30722891566265,105.66212418118945C253.96084337349396,105.66212418118945 253.96084337349396,83.65124054464732 338.6144578313253,83.65124054464732C423.5,83.65124054464732 423.5,64.84067502387249 508.3855421686747,64.84067502387249C593.039156626506,64.84067502387249 593.039156626506,49.53188092655431 677.6927710843374,49.53188092655431C762.3463855421687,49.53188092655431 762.3463855421687,85.08325854264012 847,85.08325854264012"></path><path id="path-5" d="M0,105.41851010524712C84.65361445783132,105.41851010524712 84.65361445783132,138.17862412369632 169.30722891566265,138.17862412369632C253.96084337349396,138.17862412369632 253.96084337349396,121.1291686479462 338.6144578313253,121.1291686479462C423.5,121.1291686479462 423.5,107.17670059507607 508.3855421686747,107.17670059507607C593.039156626506,107.17670059507607 593.039156626506,95.01552382687663 677.6927710843374,95.01552382687663C762.3463855421687,95.01552382687663 762.3463855421687,125.8260920840242 847,125.8260920840242"></path></defs><text dy="0.5ex" class="label"><textPath xmlns:xlink="http://www.w3.org/1999/xlink" xlink:href="#path-0" startOffset="80%" text-anchor="middle" style="font-size: 11px; font-family: Arial, Helvetica; font-weight: normal;">Arsi</textPath></text><text dy="0.5ex" class="label"><textPath xmlns:xlink="http://www.w3.org/1999/xlink" xlink:href="#path-1" startOffset="80%" text-anchor="middle" style="font-size: 11px; font-family: Arial, Helvetica; font-weight: normal;">Bale</textPath></text><text dy="0.5ex" class="label"><textPath xmlns:xlink="http://www.w3.org/1999/xlink" xlink:href="#path-2" startOffset="80%" text-anchor="middle" style="font-size: 11px; font-family: Arial, Helvetica; font-weight: normal;">Bottom 50 Zones</textPath></text><text dy="0.5ex" class="label"><textPath xmlns:xlink="http://www.w3.org/1999/xlink" xlink:href="#path-3" startOffset="95%" text-anchor="end" style="font-size: 11px; font-family: Arial, Helvetica; font-weight: normal;">East Shewa</textPath></text><text dy="0.5ex" class="label"><textPath xmlns:xlink="http://www.w3.org/1999/xlink" xlink:href="#path-4" startOffset="80%" text-anchor="middle" style="font-size: 11px; font-family: Arial, Helvetica; font-weight: normal;">North Shewa</textPath></text><text dy="0.5ex" class="label"><textPath xmlns:xlink="http://www.w3.org/1999/xlink" xlink:href="#path-5" startOffset="80%" text-anchor="middle" style="font-size: 11px; font-family: Arial, Helvetica; font-weight: normal;">West Arsi</textPath></text></g></svg>