<svg width="847" height="542" xmlns="http://www.w3.org/2000/svg" version="1.1"><g><g class="x axis" transform="translate(0,522)" style="stroke-width: 1px; font-size: 10px; font-family: Arial, Helvetica; display: block;"><g class="tick" transform="translate(0,0)" style="opacity: 1;"><line y2="-522" x2="0" style="shape-rendering: crispEdges; fill: none; stroke: rgb(204, 204, 204);"></line><text dy=".71em" y="3" x="0" style="text-anchor: middle;">2010</text></g><g class="tick" transform="translate(169.30722891566265,0)" style="opacity: 1;"><line y2="-522" x2="0" style="shape-rendering: crispEdges; fill: none; stroke: rgb(204, 204, 204);"></line><text dy=".71em" y="3" x="0" style="text-anchor: middle;">2011</text></g><g class="tick" transform="translate(338.6144578313253,0)" style="opacity: 1;"><line y2="-522" x2="0" style="shape-rendering: crispEdges; fill: none; stroke: rgb(204, 204, 204);"></line><text dy=".71em" y="3" x="0" style="text-anchor: middle;">2012</text></g><g class="tick" transform="translate(508.3855421686747,0)" style="opacity: 1;"><line y2="-522" x2="0" style="shape-rendering: crispEdges; fill: none; stroke: rgb(204, 204, 204);"></line><text dy=".71em" y="3" x="0" style="text-anchor: middle;">2013</text></g><g class="tick" transform="translate(677.6927710843374,0)" style="opacity: 1;"><line y2="-522" x2="0" style="shape-rendering: crispEdges; fill: none; stroke: rgb(204, 204, 204);"></line><text dy=".71em" y="3" x="0" style="text-anchor: middle;">2014</text></g><g class="tick" transform="translate(847,0)" style="opacity: 1;"><line y2="-522" x2="0" style="shape-rendering: crispEdges; fill: none; stroke: rgb(204, 204, 204);"></line><text dy=".71em" y="3" x="0" style="text-anchor: middle;">2015</text></g><path class="domain" d="M0,-522V0H847V-522" style="shape-rendering: crispEdges; fill: none; stroke: rgb(204, 204, 204);"></path></g><path class="layer" d="M0,433.17543003530267C84.65361445783132,433.17543003530267 84.65361445783132,443.1656814773959 169.30722891566265,443.1656814773959C253.96084337349396,443.1656814773959 253.96084337349396,462.62054638231547 338.6144578313253,462.62054638231547C423.5,462.62054638231547 423.5,481.4678287476597 508.3855421686747,481.4678287476597C593.039156626506,481.4678287476597 593.039156626506,502.38097113868184 677.6927710843374,502.38097113868184C762.3463855421687,502.38097113868184 762.3463855421687,466.7616347519093 847,466.7616347519093L847,471.17205170233666C762.3463855421687,471.17205170233666 762.3463855421687,506.3734610418946 677.6927710843374,506.3734610418946C593.039156626506,506.3734610418946 593.039156626506,485.77503751954015 508.3855421686747,485.77503751954015C423.5,485.77503751954015 423.5,466.16358521821184 338.6144578313253,466.16358521821184C253.96084337349396,466.16358521821184 253.96084337349396,445.61402470997774 169.30722891566265,445.61402470997774C84.65361445783132,445.61402470997774 84.65361445783132,436.21585160946717 0,436.21585160946717Z" title="Alaba" style="fill-opacity: 0.9; fill: rgb(191, 105, 105);"></path><path class="layer" d="M0,75.50814403907596C84.65361445783132,75.50814403907596 84.65361445783132,69.77264650617235 169.30722891566265,69.77264650617235C253.96084337349396,69.77264650617235 253.96084337349396,100.34513346416428 338.6144578313253,100.34513346416428C423.5,100.34513346416428 423.5,20.305781258599822 508.3855421686747,20.305781258599822C593.039156626506,20.305781258599822 593.039156626506,0 677.6927710843374,0C762.3463855421687,0 762.3463855421687,32.792609674885796 847,32.792609674885796L847,90.08804103656512C762.3463855421687,90.08804103656512 762.3463855421687,67.88764378813124 677.6927710843374,67.88764378813124C593.039156626506,67.88764378813124 593.039156626506,84.65882866847097 508.3855421686747,84.65882866847097C423.5,84.65882866847097 423.5,154.15863352606408 338.6144578313253,154.15863352606408C253.96084337349396,154.15863352606408 253.96084337349396,125.04487747126547 169.30722891566265,125.04487747126547C84.65361445783132,125.04487747126547 84.65361445783132,123.10894143285667 0,123.10894143285667Z" title="Arsi" style="fill-opacity: 0.9; fill: rgb(191, 122, 105);"></path><path class="layer" d="M0,420.50857156851254C84.65361445783132,420.50857156851254 84.65361445783132,423.88367788777305 169.30722891566265,423.88367788777305C253.96084337349396,423.88367788777305 253.96084337349396,473.013611998966 338.6144578313253,473.013611998966C423.5,473.013611998966 423.5,476.9338234896569 508.3855421686747,476.9338234896569C593.039156626506,476.9338234896569 593.039156626506,492.9465326552862 677.6927710843374,492.9465326552862C762.3463855421687,492.9465326552862 762.3463855421687,471.3250140089539 847,471.3250140089539L847,475.62553525291145C762.3463855421687,475.62553525291145 762.3463855421687,497.74968270001284 677.6927710843374,497.74968270001284C593.039156626506,497.74968270001284 593.039156626506,481.31486644104257 508.3855421686747,481.31486644104257C423.5,481.31486644104257 423.5,476.08846158605144 338.6144578313253,476.08846158605144C253.96084337349396,476.08846158605144 253.96084337349396,428.8047433311658 169.30722891566265,428.8047433311658C84.65361445783132,428.8047433311658 84.65361445783132,425.626423511819 0,425.626423511819Z" title="Awi" style="fill-opacity: 0.9; fill: rgb(191, 138, 105);"></path><path class="layer" d="M0,123.26190373947381C84.65361445783132,123.26190373947381 84.65361445783132,125.19783977788266 169.30722891566265,125.19783977788266C253.96084337349396,125.19783977788266 253.96084337349396,42.793316713131276 338.6144578313253,42.793316713131276C423.5,42.793316713131276 423.5,84.81179097508812 508.3855421686747,84.81179097508812C593.039156626506,84.81179097508812 593.039156626506,68.04060609474838 677.6927710843374,68.04060609474838C762.3463855421687,68.04060609474838 762.3463855421687,90.24100334318226 847,90.24100334318226L847,145.99991865326638C762.3463855421687,145.99991865326638 762.3463855421687,132.0763748995387 677.6927710843374,132.0763748995387C593.039156626506,132.0763748995387 593.039156626506,145.74596071783256 508.3855421686747,145.74596071783256C423.5,145.74596071783256 423.5,100.19217115754708 338.6144578313253,100.19217115754708C253.96084337349396,100.19217115754708 253.96084337349396,167.9783962306381 169.30722891566265,167.9783962306381C84.65361445783132,167.9783962306381 84.65361445783132,168.69790272111368 0,168.69790272111368Z" title="Bale" style="fill-opacity: 0.9; fill: rgb(191, 155, 105);"></path><path class="layer" d="M0,244.73887064897383C84.65361445783132,244.73887064897383 84.65361445783132,322.3830034109786 169.30722891566265,322.3830034109786C253.96084337349396,322.3830034109786 253.96084337349396,303.0306448627789 338.6144578313253,303.0306448627789C423.5,303.0306448627789 423.5,296.0201741201932 508.3855421686747,296.0201741201932C593.039156626506,296.0201741201932 593.039156626506,295.08348752243137 677.6927710843374,295.08348752243137C762.3463855421687,295.08348752243137 762.3463855421687,335.2120060637031 847,335.2120060637031L847,349.31101963551856C762.3463855421687,349.31101963551856 762.3463855421687,315.3015339085695 677.6927710843374,315.3015339085695C593.039156626506,315.3015339085695 593.039156626506,313.585089786697 508.3855421686747,313.585089786697C423.5,313.585089786697 423.5,316.9688862711936 338.6144578313253,316.9688862711936C253.96084337349396,316.9688862711936 253.96084337349396,333.88775573169687 169.30722891566265,333.88775573169687C84.65361445783132,333.88775573169687 84.65361445783132,261.0918566733896 0,261.0918566733896Z" title="Bottom 25 Zones" style="fill-opacity: 0.9; fill: rgb(191, 171, 105);"></path><path class="layer" d="M0,382.53348302325605C84.65361445783132,382.53348302325605 84.65361445783132,401.54027869367746 169.30722891566265,401.54027869367746C253.96084337349396,401.54027869367746 253.96084337349396,410.81204530815177 338.6144578313253,410.81204530815177C423.5,410.81204530815177 423.5,445.54354794378634 508.3855421686747,445.54354794378634C593.039156626506,445.54354794378634 593.039156626506,465.0252510507562 677.6927710843374,465.0252510507562C762.3463855421687,465.0252510507562 762.3463855421687,431.49341257567863 847,431.49341257567863L847,438.34308979060313C762.3463855421687,438.34308979060313 762.3463855421687,473.20110712796867 677.6927710843374,473.20110712796867C593.039156626506,473.20110712796867 593.039156626506,453.36819492450326 508.3855421686747,453.36819492450326C423.5,453.36819492450326 423.5,418.8210372517558 338.6144578313253,418.8210372517558C253.96084337349396,418.8210372517558 253.96084337349396,407.2748846885027 169.30722891566265,407.2748846885027C84.65361445783132,407.2748846885027 84.65361445783132,389.80902298272656 0,389.80902298272656Z" title="Central Tigray" style="fill-opacity: 0.9; fill: rgb(191, 188, 105);"></path><path class="layer" d="M0,227.077259776591C84.65361445783132,227.077259776591 84.65361445783132,310.38813438599016 169.30722891566265,310.38813438599016C253.96084337349396,310.38813438599016 253.96084337349396,271.31911742291703 338.6144578313253,271.31911742291703C423.5,271.31911742291703 423.5,276.25803267094454 508.3855421686747,276.25803267094454C593.039156626506,276.25803267094454 593.039156626506,250.10044924492172 677.6927710843374,250.10044924492172C762.3463855421687,250.10044924492172 762.3463855421687,259.57880641476004 847,259.57880641476004L847,283.39472051187835C762.3463855421687,283.39472051187835 762.3463855421687,272.90602261847806 677.6927710843374,272.90602261847806C593.039156626506,272.90602261847806 593.039156626506,295.86721181357603 508.3855421686747,295.86721181357603C423.5,295.86721181357603 423.5,287.97276072633366 338.6144578313253,287.97276072633366C253.96084337349396,287.97276072633366 253.96084337349396,322.2300411043615 169.30722891566265,322.2300411043615C84.65361445783132,322.2300411043615 84.65361445783132,244.5859083423567 0,244.5859083423567Z" title="East Gojjam" style="fill-opacity: 0.9; fill: rgb(177, 191, 105);"></path><path class="layer" d="M0,444.88128864500914C84.65361445783132,444.88128864500914 84.65361445783132,450.60981919952917 169.30722891566265,450.60981919952917C253.96084337349396,450.60981919952917 253.96084337349396,458.8830757409934 338.6144578313253,458.8830757409934C423.5,458.8830757409934 423.5,493.9973456553019 508.3855421686747,493.9973456553019C593.039156626506,493.9973456553019 593.039156626506,510.619155851896 677.6927710843374,510.619155851896C762.3463855421687,510.619155851896 762.3463855421687,475.7784975595286 847,475.7784975595286L847,479.0119269098385C762.3463855421687,479.0119269098385 762.3463855421687,514.5514695315283 677.6927710843374,514.5514695315283C593.039156626506,514.5514695315283 593.039156626506,497.1745419266854 508.3855421686747,497.1745419266854C423.5,497.1745419266854 423.5,462.46758407569826 338.6144578313253,462.46758407569826C253.96084337349396,462.46758407569826 253.96084337349396,452.2273534938277 169.30722891566265,452.2273534938277C84.65361445783132,452.2273534938277 84.65361445783132,446.4918559609239 0,446.4918559609239Z" title="East Hararge" style="fill-opacity: 0.9; fill: rgb(160, 191, 105);"></path><path class="layer" d="M0,276.19713373309037C84.65361445783132,276.19713373309037 84.65361445783132,232.68794090940284 169.30722891566265,232.68794090940284C253.96084337349396,232.68794090940284 253.96084337349396,228.71834185442128 338.6144578313253,228.71834185442128C423.5,228.71834185442128 423.5,229.95068526605468 508.3855421686747,229.95068526605468C593.039156626506,229.95068526605468 593.039156626506,222.5302165957482 677.6927710843374,222.5302165957482C762.3463855421687,222.5302165957482 762.3463855421687,227.0416018935512 847,227.0416018935512L847,259.4258441081429C762.3463855421687,259.4258441081429 762.3463855421687,249.94748693830454 677.6927710843374,249.94748693830454C593.039156626506,249.94748693830454 593.039156626506,254.0392524101619 508.3855421686747,254.0392524101619C423.5,254.0392524101619 423.5,253.04779844446512 338.6144578313253,253.04779844446512C253.96084337349396,253.04779844446512 253.96084337349396,254.22535459900732 169.30722891566265,254.22535459900732C84.65361445783132,254.22535459900732 84.65361445783132,290.97124288225456 0,290.97124288225456Z" title="East Shewa" style="fill-opacity: 0.9; fill: rgb(144, 191, 105);"></path><path class="layer" d="M0,436.3688139160844C84.65361445783132,436.3688139160844 84.65361445783132,440.2974756965479 169.30722891566265,440.2974756965479C253.96084337349396,440.2974756965479 253.96084337349396,454.8706144667085 338.6144578313253,454.8706144667085C423.5,454.8706144667085 423.5,485.92799982615736 508.3855421686747,485.92799982615736C593.039156626506,485.92799982615736 593.039156626506,506.5264233485118 677.6927710843374,506.5264233485118C762.3463855421687,506.5264233485118 762.3463855421687,479.16488921645566 847,479.16488921645566L847,482.12792682445615C762.3463855421687,482.12792682445615 762.3463855421687,510.4661935452789 677.6927710843374,510.4661935452789C593.039156626506,510.4661935452789 593.039156626506,489.9547787963069 508.3855421686747,489.9547787963069C423.5,489.9547787963069 423.5,458.7301134343763 338.6144578313253,458.7301134343763C253.96084337349396,458.7301134343763 253.96084337349396,443.0127191707787 169.30722891566265,443.0127191707787C84.65361445783132,443.0127191707787 84.65361445783132,439.3874270356656 0,439.3874270356656Z" title="East Wellega" style="fill-opacity: 0.9; fill: rgb(127, 191, 105);"></path><path class="layer" d="M0,338.80704129659205C84.65361445783132,338.80704129659205 84.65361445783132,345.4347630921256 169.30722891566265,345.4347630921256C253.96084337349396,345.4347630921256 253.96084337349396,390.52028397532564 338.6144578313253,390.52028397532564C423.5,390.52028397532564 423.5,428.4591791936069 508.3855421686747,428.4591791936069C593.039156626506,428.4591791936069 593.039156626506,425.8009354519345 677.6927710843374,425.8009354519345C762.3463855421687,425.8009354519345 762.3463855421687,414.1233608025945 847,414.1233608025945L847,423.0482968595001C762.3463855421687,423.0482968595001 762.3463855421687,436.8712092479671 677.6927710843374,436.8712092479671C593.039156626506,436.8712092479671 593.039156626506,437.30023492997555 508.3855421686747,437.30023492997555C423.5,437.30023492997555 423.5,400.68242790578955 338.6144578313253,400.68242790578955C253.96084337349396,400.68242790578955 253.96084337349396,356.02197803143935 169.30722891566265,356.02197803143935C84.65361445783132,356.02197803143935 84.65361445783132,348.05118969941265 0,348.05118969941265Z" title="Eastern Tigray" style="fill-opacity: 0.9; fill: rgb(111, 191, 105);"></path><path class="layer" d="M0,429.48400542537223C84.65361445783132,429.48400542537223 84.65361445783132,445.76698701659495 169.30722891566265,445.76698701659495C253.96084337349396,445.76698701659495 253.96084337349396,476.2414238926686 338.6144578313253,476.2414238926686C423.5,476.2414238926686 423.5,499.95534069004077 508.3855421686747,499.95534069004077C593.039156626506,499.95534069004077 593.039156626506,497.90264500663 677.6927710843374,497.90264500663C762.3463855421687,497.90264500663 762.3463855421687,487.7167616623768 847,487.7167616623768L847,489.20739032511426C762.3463855421687,489.20739032511426 762.3463855421687,502.22800883206463 677.6927710843374,502.22800883206463C593.039156626506,502.22800883206463 593.039156626506,501.6942187414001 508.3855421686747,501.6942187414001C423.5,501.6942187414001 423.5,479.2066832868688 338.6144578313253,479.2066832868688C253.96084337349396,479.2066832868688 253.96084337349396,448.0956267076177 169.30722891566265,448.0956267076177C84.65361445783132,448.0956267076177 84.65361445783132,433.02246772868546 0,433.02246772868546Z" title="Guji" style="fill-opacity: 0.9; fill: rgb(105, 191, 116);"></path><path class="layer" d="M0,425.7793858184362C84.65361445783132,425.7793858184362 84.65361445783132,407.42784699511986 169.30722891566265,407.42784699511986C253.96084337349396,407.42784699511986 253.96084337349396,432.2082565682061 338.6144578313253,432.2082565682061C423.5,432.2082565682061 423.5,466.5262372833752 508.3855421686747,466.5262372833752C593.039156626506,466.5262372833752 593.039156626506,376.2742664304369 677.6927710843374,376.2742664304369C762.3463855421687,376.2742664304369 762.3463855421687,438.4960520972203 847,438.4960520972203L847,444.8856780139886C762.3463855421687,444.8856780139886 762.3463855421687,389.8878811540015 677.6927710843374,389.8878811540015C593.039156626506,389.8878811540015 593.039156626506,471.6796076291893 508.3855421686747,471.6796076291893C423.5,471.6796076291893 423.5,437.95804332679097 338.6144578313253,437.95804332679097C253.96084337349396,437.95804332679097 253.96084337349396,412.95281478585144 169.30722891566265,412.95281478585144C84.65361445783132,412.95281478585144 84.65361445783132,429.331043118755 0,429.331043118755Z" title="Gurage" style="fill-opacity: 0.9; fill: rgb(105, 191, 133);"></path><path class="layer" d="M0,357.4551576432201C84.65361445783132,357.4551576432201 84.65361445783132,334.04071803831414 169.30722891566265,334.04071803831414C253.96084337349396,334.04071803831414 253.96084337349396,317.1218485778108 338.6144578313253,317.1218485778108C423.5,317.1218485778108 423.5,396.50598630034244 508.3855421686747,396.50598630034244C593.039156626506,396.50598630034244 593.039156626506,402.6369340384468 677.6927710843374,402.6369340384468C762.3463855421687,402.6369340384468 762.3463855421687,404.4890551401059 847,404.4890551401059L847,413.97039849597735C762.3463855421687,413.97039849597735 762.3463855421687,414.31252276266474 677.6927710843374,414.31252276266474C593.039156626506,414.31252276266474 593.039156626506,407.7376202376573 508.3855421686747,407.7376202376573C423.5,407.7376202376573 423.5,330.9740706947156 338.6144578313253,330.9740706947156C253.96084337349396,330.9740706947156 253.96084337349396,345.28180078550844 169.30722891566265,345.28180078550844C84.65361445783132,345.28180078550844 84.65361445783132,366.5240259769168 0,366.5240259769168Z" title="Hadiya" style="fill-opacity: 0.9; fill: rgb(105, 191, 149);"></path><path class="layer" d="M0,374.7428113901007C84.65361445783132,374.7428113901007 84.65361445783132,418.62556766685674 169.30722891566265,418.62556766685674C253.96084337349396,418.62556766685674 253.96084337349396,443.9373993251968 338.6144578313253,443.9373993251968C423.5,443.9373993251968 423.5,471.83256993580653 508.3855421686747,471.83256993580653C593.039156626506,471.83256993580653 593.039156626506,480.5731884794931 677.6927710843374,480.5731884794931C762.3463855421687,480.5731884794931 762.3463855421687,456.5525061946955 847,456.5525061946955L847,461.6837072668921C762.3463855421687,461.6837072668921 762.3463855421687,487.587365264291 677.6927710843374,487.587365264291C593.039156626506,487.587365264291 593.039156626506,476.7808611830397 508.3855421686747,476.7808611830397C423.5,476.7808611830397 423.5,449.3608751260035 338.6144578313253,449.3608751260035C253.96084337349396,449.3608751260035 253.96084337349396,423.7307155811559 169.30722891566265,423.7307155811559C84.65361445783132,423.7307155811559 84.65361445783132,382.3805207166389 0,382.3805207166389Z" title="Horo Gudru Wellega" style="fill-opacity: 0.9; fill: rgb(105, 191, 166);"></path><path class="layer" d="M0,414.9630817656911C84.65361445783132,414.9630817656911 84.65361445783132,433.4534298601463 169.30722891566265,433.4534298601463C253.96084337349396,433.4534298601463 253.96084337349396,425.68451317966793 338.6144578313253,425.68451317966793C423.5,425.68451317966793 423.5,460.5531323955644 508.3855421686747,460.5531323955644C593.039156626506,460.5531323955644 593.039156626506,487.74032757090816 677.6927710843374,487.74032757090816C762.3463855421687,487.74032757090816 762.3463855421687,461.83666957350925 847,461.83666957350925L847,466.6086724452921C762.3463855421687,466.6086724452921 762.3463855421687,492.79357034866905 677.6927710843374,492.79357034866905C593.039156626506,492.79357034866905 593.039156626506,466.373274976758 508.3855421686747,466.373274976758C423.5,466.373274976758 423.5,432.0552942615889 338.6144578313253,432.0552942615889C253.96084337349396,432.0552942615889 253.96084337349396,437.1473013494765 169.30722891566265,437.1473013494765C84.65361445783132,437.1473013494765 84.65361445783132,420.3556092618954 0,420.3556092618954Z" title="Jimma" style="fill-opacity: 0.9; fill: rgb(105, 191, 182);"></path><path class="layer" d="M0,442.2370706085863C84.65361445783132,442.2370706085863 84.65361445783132,437.30026365609365 169.30722891566265,437.30026365609365C253.96084337349396,437.30026365609365 253.96084337349396,469.78156344564485 338.6144578313253,469.78156344564485C423.5,469.78156344564485 423.5,497.3275042333026 508.3855421686747,497.3275042333026C593.039156626506,497.3275042333026 593.039156626506,518.6328144967421 677.6927710843374,518.6328144967421C762.3463855421687,518.6328144967421 762.3463855421687,485.0848023065808 847,485.0848023065808L847,487.56379935575967C762.3463855421687,487.56379935575967 762.3463855421687,522 677.6927710843374,522C593.039156626506,522 593.039156626506,499.8023783834236 508.3855421686747,499.8023783834236C423.5,499.8023783834236 423.5,472.86064969234883 338.6144578313253,472.86064969234883C253.96084337349396,472.86064969234883 253.96084337349396,440.1445133899307 169.30722891566265,440.1445133899307C84.65361445783132,440.1445133899307 84.65361445783132,444.7283263383919 0,444.7283263383919Z" title="Kefa" style="fill-opacity: 0.9; fill: rgb(105, 182, 191);"></path><path class="layer" d="M0,403.0255067578488C84.65361445783132,403.0255067578488 84.65361445783132,393.901418658494 169.30722891566265,393.901418658494C253.96084337349396,393.901418658494 253.96084337349396,418.973999558373 338.6144578313253,418.973999558373C423.5,418.973999558373 423.5,437.4531972365927 508.3855421686747,437.4531972365927C593.039156626506,437.4531972365927 593.039156626506,447.44806357704744 677.6927710843374,447.44806357704744C762.3463855421687,447.44806357704744 762.3463855421687,445.03864032060574 847,445.03864032060574L847,450.8518289295845C762.3463855421687,450.8518289295845 762.3463855421687,456.2598330240575 677.6927710843374,456.2598330240575C593.039156626506,456.2598330240575 593.039156626506,445.3905856371692 508.3855421686747,445.3905856371692C423.5,445.3905856371692 423.5,425.5315508730507 338.6144578313253,425.5315508730507C253.96084337349396,425.5315508730507 253.96084337349396,401.38731638706037 169.30722891566265,401.38731638706037C84.65361445783132,401.38731638706037 84.65361445783132,408.9439968531608 0,408.9439968531608Z" title="Kembata Timbaro" style="fill-opacity: 0.9; fill: rgb(105, 166, 191);"></path><path class="layer" d="M0,318.70166894580666C84.65361445783132,318.70166894580666 84.65361445783132,298.22990763037876 169.30722891566265,298.22990763037876C253.96084337349396,298.22990763037876 253.96084337349396,357.0637916484597 338.6144578313253,357.0637916484597C423.5,357.0637916484597 423.5,358.8883893597495 508.3855421686747,358.8883893597495C593.039156626506,358.8883893597495 593.039156626506,362.40304633489956 677.6927710843374,362.40304633489956C762.3463855421687,362.40304633489956 762.3463855421687,384.01333339803404 847,384.01333339803404L847,394.239883403971C762.3463855421687,394.239883403971 762.3463855421687,376.1213041238197 677.6927710843374,376.1213041238197C593.039156626506,376.1213041238197 593.039156626506,372.10992778671675 508.3855421686747,372.10992778671675C423.5,372.10992778671675 423.5,368.8429429761602 338.6144578313253,368.8429429761602C253.96084337349396,368.8429429761602 253.96084337349396,310.23517207937306 169.30722891566265,310.23517207937306C84.65361445783132,310.23517207937306 84.65361445783132,328.97036225162543 0,328.97036225162543Z" title="North Gondar" style="fill-opacity: 0.9; fill: rgb(105, 149, 191);"></path><path class="layer" d="M0,168.85086502773086C84.65361445783132,168.85086502773086 84.65361445783132,205.68489040197863 169.30722891566265,205.68489040197863C253.96084337349396,205.68489040197863 253.96084337349396,197.0399910099992 338.6144578313253,197.0399910099992C423.5,197.0399910099992 423.5,190.1610114964579 508.3855421686747,190.1610114964579C593.039156626506,190.1610114964579 593.039156626506,179.17967715559664 677.6927710843374,179.17967715559664C762.3463855421687,179.17967715559664 762.3463855421687,188.62835352614078 847,188.62835352614078L847,226.888639586934C762.3463855421687,226.888639586934 762.3463855421687,222.37725428913103 677.6927710843374,222.37725428913103C593.039156626506,222.37725428913103 593.039156626506,229.79772295943752 508.3855421686747,229.79772295943752C423.5,229.79772295943752 423.5,228.5653795478041 338.6144578313253,228.5653795478041C253.96084337349396,228.5653795478041 253.96084337349396,232.53497860278563 169.30722891566265,232.53497860278563C84.65361445783132,232.53497860278563 84.65361445783132,198.34929177263882 0,198.34929177263882Z" title="North Shewa" style="fill-opacity: 0.9; fill: rgb(105, 133, 191);"></path><path class="layer" d="M0,409.09695915977795C84.65361445783132,409.09695915977795 84.65361445783132,428.95770563778296 169.30722891566265,428.95770563778296C253.96084337349396,428.95770563778296 253.96084337349396,438.1110056334081 338.6144578313253,438.1110056334081C423.5,438.1110056334081 423.5,418.69840099837916 508.3855421686747,418.69840099837916C593.039156626506,418.69840099837916 593.039156626506,456.41279533067467 677.6927710843374,456.41279533067467C762.3463855421687,456.41279533067467 762.3463855421687,451.00479123620164 847,451.00479123620164L847,456.3995438880783C762.3463855421687,456.3995438880783 762.3463855421687,464.872288744139 677.6927710843374,464.872288744139C593.039156626506,464.872288744139 593.039156626506,428.30621688698966 508.3855421686747,428.30621688698966C423.5,428.30621688698966 423.5,443.7844370185796 338.6144578313253,443.7844370185796C253.96084337349396,443.7844370185796 253.96084337349396,433.30046755352913 169.30722891566265,433.30046755352913C84.65361445783132,433.30046755352913 84.65361445783132,414.8101194590739 0,414.8101194590739Z" title="North Wollo" style="fill-opacity: 0.9; fill: rgb(105, 116, 191);"></path><path class="layer" d="M0,439.54038934228277C84.65361445783132,439.54038934228277 84.65361445783132,448.2485890142349 169.30722891566265,448.2485890142349C253.96084337349396,448.2485890142349 253.96084337349396,466.316547524829 338.6144578313253,466.316547524829C423.5,466.316547524829 423.5,490.10774110292414 508.3855421686747,490.10774110292414C593.039156626506,490.10774110292414 593.039156626506,514.7044318381454 677.6927710843374,514.7044318381454C762.3463855421687,514.7044318381454 762.3463855421687,482.28088913107337 847,482.28088913107337L847,484.9318399999636C762.3463855421687,484.9318399999636 762.3463855421687,518.4798521901248 677.6927710843374,518.4798521901248C593.039156626506,518.4798521901248 593.039156626506,493.8443833486847 508.3855421686747,493.8443833486847C423.5,493.8443833486847 423.5,469.62860113902764 338.6144578313253,469.62860113902764C253.96084337349396,469.62860113902764 253.96084337349396,450.45685689291196 169.30722891566265,450.45685689291196C84.65361445783132,450.45685689291196 84.65361445783132,442.0841083019691 0,442.0841083019691Z" title="Qeleme Wellega" style="fill-opacity: 0.9; fill: rgb(111, 105, 191);"></path><path class="layer" d="M0,389.9619852893437C84.65361445783132,389.9619852893437 84.65361445783132,385.02706688928527 169.30722891566265,385.02706688928527C253.96084337349396,385.02706688928527 253.96084337349396,379.8366754950422 338.6144578313253,379.8366754950422C423.5,379.8366754950422 423.5,407.89058254427454 508.3855421686747,407.89058254427454C593.039156626506,407.89058254427454 593.039156626506,437.02417155458426 677.6927710843374,437.02417155458426C762.3463855421687,437.02417155458426 762.3463855421687,394.39284571058823 847,394.39284571058823L847,404.33609283348875C762.3463855421687,404.33609283348875 762.3463855421687,447.2951012704302 677.6927710843374,447.2951012704302C593.039156626506,447.2951012704302 593.039156626506,418.545438691762 508.3855421686747,418.545438691762C423.5,418.545438691762 423.5,390.3673216687085 338.6144578313253,390.3673216687085C253.96084337349396,390.3673216687085 253.96084337349396,393.7484563518768 169.30722891566265,393.7484563518768C84.65361445783132,393.7484563518768 84.65361445783132,396.51328495362696 0,396.51328495362696Z" title="Siliti" style="fill-opacity: 0.9; fill: rgb(127, 105, 191);"></path><path class="layer" d="M0,305.07152923384143C84.65361445783132,305.07152923384143 84.65361445783132,254.37831690562447 169.30722891566265,254.37831690562447C253.96084337349396,254.37831690562447 253.96084337349396,288.1257230329508 338.6144578313253,288.1257230329508C423.5,288.1257230329508 423.5,344.75443174047996 508.3855421686747,344.75443174047996C593.039156626506,344.75443174047996 593.039156626506,315.4544962151867 677.6927710843374,315.4544962151867C762.3463855421687,315.4544962151867 762.3463855421687,319.9838684186757 847,319.9838684186757L847,335.05904375708593C762.3463855421687,335.05904375708593 762.3463855421687,331.7854203999037 677.6927710843374,331.7854203999037C593.039156626506,331.7854203999037 593.039156626506,358.73542705313236 508.3855421686747,358.73542705313236C423.5,358.73542705313236 423.5,302.8776825561617 338.6144578313253,302.8776825561617C253.96084337349396,302.8776825561617 253.96084337349396,269.9513168658935 169.30722891566265,269.9513168658935C84.65361445783132,269.9513168658935 84.65361445783132,318.54870663918956 0,318.54870663918956Z" title="South Gonder" style="fill-opacity: 0.9; fill: rgb(144, 105, 191);"></path><path class="layer" d="M0,291.12420518887177C84.65361445783132,291.12420518887177 84.65361445783132,284.31215725070575 169.30722891566265,284.31215725070575C253.96084337349396,284.31215725070575 253.96084337349396,331.1270330013327 338.6144578313253,331.1270330013327C423.5,331.1270330013327 423.5,329.7742103504353 508.3855421686747,329.7742103504353C593.039156626506,329.7742103504353 593.039156626506,390.04084346061865 677.6927710843374,390.04084346061865C762.3463855421687,390.04084346061865 762.3463855421687,373.632747309247 847,373.632747309247L847,383.8603710914168C762.3463855421687,383.8603710914168 762.3463855421687,402.48397173182957 677.6927710843374,402.48397173182957C593.039156626506,402.48397173182957 593.039156626506,344.6014694338628 508.3855421686747,344.6014694338628C423.5,344.6014694338628 423.5,344.37946834161323 338.6144578313253,344.37946834161323C253.96084337349396,344.37946834161323 253.96084337349396,298.0769453237616 169.30722891566265,298.0769453237616C84.65361445783132,298.0769453237616 84.65361445783132,304.91856692722433 0,304.91856692722433Z" title="South Tigray" style="fill-opacity: 0.9; fill: rgb(160, 105, 191);"></path><path class="layer" d="M0,261.24481898000676C84.65361445783132,261.24481898000676 84.65361445783132,270.10427917251064 169.30722891566265,270.10427917251064C253.96084337349396,270.10427917251064 253.96084337349396,253.2007607510823 338.6144578313253,253.2007607510823C423.5,253.2007607510823 423.5,254.1922147167791 508.3855421686747,254.1922147167791C593.039156626506,254.1922147167791 593.039156626506,273.0589849250952 677.6927710843374,273.0589849250952C762.3463855421687,273.0589849250952 762.3463855421687,283.54768281849545 847,283.54768281849545L847,304.5119389139097C762.3463855421687,304.5119389139097 762.3463855421687,294.93052521581427 677.6927710843374,294.93052521581427C593.039156626506,294.93052521581427 593.039156626506,276.1050703643273 508.3855421686747,276.1050703643273C423.5,276.1050703643273 423.5,271.1661551162999 338.6144578313253,271.1661551162999C253.96084337349396,271.1661551162999 253.96084337349396,284.15919494408854 169.30722891566265,284.15919494408854C84.65361445783132,284.15919494408854 84.65361445783132,276.04417142647316 0,276.04417142647316Z" title="South West Shewa" style="fill-opacity: 0.9; fill: rgb(177, 105, 191);"></path><path class="layer" d="M0,348.2041520060298C84.65361445783132,348.2041520060298 84.65361445783132,365.9837985713946 169.30722891566265,365.9837985713946C253.96084337349396,365.9837985713946 253.96084337349396,400.83539021240665 338.6144578313253,400.83539021240665C423.5,400.83539021240665 423.5,313.7380520933142 508.3855421686747,313.7380520933142C593.039156626506,313.7380520933142 593.039156626506,347.4407908909008 677.6927710843374,347.4407908909008C762.3463855421687,347.4407908909008 762.3463855421687,304.66490122052693 847,304.66490122052693L847,319.8309061120585C762.3463855421687,319.8309061120585 762.3463855421687,362.25008402828246 677.6927710843374,362.25008402828246C593.039156626506,362.25008402828246 593.039156626506,329.6212480438181 508.3855421686747,329.6212480438181C423.5,329.6212480438181 423.5,410.6590830015346 338.6144578313253,410.6590830015346C253.96084337349396,410.6590830015346 253.96084337349396,375.48974288744046 169.30722891566265,375.48974288744046C84.65361445783132,375.48974288744046 84.65361445783132,357.3021953366029 0,357.3021953366029Z" title="South Wolo" style="fill-opacity: 0.9; fill: rgb(191, 105, 188);"></path><path class="layer" d="M0,198.50225407925598C84.65361445783132,198.50225407925598 84.65361445783132,168.1313585372553 169.30722891566265,168.1313585372553C253.96084337349396,168.1313585372553 253.96084337349396,154.31159583268126 338.6144578313253,154.31159583268126C423.5,154.31159583268126 423.5,145.8989230244497 508.3855421686747,145.8989230244497C593.039156626506,145.8989230244497 593.039156626506,132.22933720615592 677.6927710843374,132.22933720615592C762.3463855421687,132.22933720615592 762.3463855421687,146.1528809598836 847,146.1528809598836L847,188.47539121952366C762.3463855421687,188.47539121952366 762.3463855421687,179.0267148489795 677.6927710843374,179.0267148489795C593.039156626506,179.0267148489795 593.039156626506,190.00804918984076 508.3855421686747,190.00804918984076C423.5,190.00804918984076 423.5,196.88702870338207 338.6144578313253,196.88702870338207C253.96084337349396,196.88702870338207 253.96084337349396,205.5319280953615 169.30722891566265,205.5319280953615C84.65361445783132,205.5319280953615 84.65361445783132,226.92429746997385 0,226.92429746997385Z" title="West Arsi" style="fill-opacity: 0.9; fill: rgb(191, 105, 171);"></path><path class="layer" d="M0,396.6662472602442C84.65361445783132,396.6662472602442 84.65361445783132,413.10577709246866 169.30722891566265,413.10577709246866C253.96084337349396,413.10577709246866 253.96084337349396,449.51383743262073 338.6144578313253,449.51383743262073C423.5,449.51383743262073 423.5,453.52115723112047 508.3855421686747,453.52115723112047C593.039156626506,453.52115723112047 593.039156626506,473.3540694345859 677.6927710843374,473.3540694345859C762.3463855421687,473.3540694345859 762.3463855421687,423.20125916611727 847,423.20125916611727L847,431.3404502690614C762.3463855421687,431.3404502690614 762.3463855421687,480.4202261728759 677.6927710843374,480.4202261728759C593.039156626506,480.4202261728759 593.039156626506,460.40017008894716 508.3855421686747,460.40017008894716C423.5,460.40017008894716 423.5,454.71765216009135 338.6144578313253,454.71765216009135C253.96084337349396,454.71765216009135 253.96084337349396,418.4726053602395 169.30722891566265,418.4726053602395C84.65361445783132,418.4726053602395 84.65361445783132,402.8725444512316 0,402.8725444512316Z" title="West Gojjam" style="fill-opacity: 0.9; fill: rgb(191, 105, 155);"></path><path class="layer" d="M0,329.12332455824264C84.65361445783132,329.12332455824264 84.65361445783132,375.64270519405767 169.30722891566265,375.64270519405767C253.96084337349396,375.64270519405767 253.96084337349396,344.5324306482304 338.6144578313253,344.5324306482304C423.5,344.5324306482304 423.5,372.26289009333385 508.3855421686747,372.26289009333385C593.039156626506,372.26289009333385 593.039156626506,331.93838270652094 677.6927710843374,331.93838270652094C762.3463855421687,331.93838270652094 762.3463855421687,349.4639819421358 847,349.4639819421358L847,362.33385252260354C762.3463855421687,362.33385252260354 762.3463855421687,347.2878285842837 677.6927710843374,347.2878285842837C593.039156626506,347.2878285842837 593.039156626506,384.78129865139306 508.3855421686747,384.78129865139306C423.5,384.78129865139306 423.5,356.9108293418425 338.6144578313253,356.9108293418425C253.96084337349396,356.9108293418425 253.96084337349396,384.87410458266805 169.30722891566265,384.87410458266805C84.65361445783132,384.87410458266805 84.65361445783132,338.65407898997483 0,338.65407898997483Z" title="West Shewa" style="fill-opacity: 0.9; fill: rgb(191, 105, 138);"></path><path class="layer" d="M0,366.676988283534C84.65361445783132,366.676988283534 84.65361445783132,356.1749403380565 169.30722891566265,356.1749403380565C253.96084337349396,356.1749403380565 253.96084337349396,368.99590528277736 338.6144578313253,368.99590528277736C423.5,368.99590528277736 423.5,384.9342609580102 508.3855421686747,384.9342609580102C593.039156626506,384.9342609580102 593.039156626506,414.46548506928184 677.6927710843374,414.46548506928184C762.3463855421687,414.46548506928184 762.3463855421687,362.4868148292207 847,362.4868148292207L847,373.47978500262985C762.3463855421687,373.47978500262985 762.3463855421687,425.64797314531734 677.6927710843374,425.64797314531734C593.039156626506,425.64797314531734 593.039156626506,396.35302399372523 508.3855421686747,396.35302399372523C423.5,396.35302399372523 423.5,379.68371318842503 338.6144578313253,379.68371318842503C253.96084337349396,379.68371318842503 253.96084337349396,365.83083626477736 169.30722891566265,365.83083626477736C84.65361445783132,365.83083626477736 84.65361445783132,374.5898490834835 0,374.5898490834835Z" title="Yem" style="fill-opacity: 0.9; fill: rgb(191, 105, 122);"></path><defs><path id="path-0" d="M0,434.6956408223849C84.65361445783132,434.6956408223849 84.65361445783132,444.38985309368684 169.30722891566265,444.38985309368684C253.96084337349396,444.38985309368684 253.96084337349396,464.39206580026365 338.6144578313253,464.39206580026365C423.5,464.39206580026365 423.5,483.6214331335999 508.3855421686747,483.6214331335999C593.039156626506,483.6214331335999 593.039156626506,504.37721609028824 677.6927710843374,504.37721609028824C762.3463855421687,504.37721609028824 762.3463855421687,468.966843227123 847,468.966843227123"></path><path id="path-1" d="M0,99.30854273596631C84.65361445783132,99.30854273596631 84.65361445783132,97.40876198871891 169.30722891566265,97.40876198871891C253.96084337349396,97.40876198871891 253.96084337349396,127.25188349511419 338.6144578313253,127.25188349511419C423.5,127.25188349511419 423.5,52.4823049635354 508.3855421686747,52.4823049635354C593.039156626506,52.4823049635354 593.039156626506,33.94382189406562 677.6927710843374,33.94382189406562C762.3463855421687,33.94382189406562 762.3463855421687,61.440325355725456 847,61.440325355725456"></path><path id="path-2" d="M0,423.06749754016573C84.65361445783132,423.06749754016573 84.65361445783132,426.3442106094694 169.30722891566265,426.3442106094694C253.96084337349396,426.3442106094694 253.96084337349396,474.55103679250874 338.6144578313253,474.55103679250874C423.5,474.55103679250874 423.5,479.12434496534974 508.3855421686747,479.12434496534974C593.039156626506,479.12434496534974 593.039156626506,495.3481076776495 677.6927710843374,495.3481076776495C762.3463855421687,495.3481076776495 762.3463855421687,473.47527463093263 847,473.47527463093263"></path><path id="path-3" d="M0,145.97990323029376C84.65361445783132,145.97990323029376 84.65361445783132,146.5881180042604 169.30722891566265,146.5881180042604C253.96084337349396,146.5881180042604 253.96084337349396,71.49274393533918 338.6144578313253,71.49274393533918C423.5,71.49274393533918 423.5,115.27887584646034 508.3855421686747,115.27887584646034C593.039156626506,115.27887584646034 593.039156626506,100.05849049714354 677.6927710843374,100.05849049714354C762.3463855421687,100.05849049714354 762.3463855421687,118.12046099822432 847,118.12046099822432"></path><path id="path-4" d="M0,252.91536366118171C84.65361445783132,252.91536366118171 84.65361445783132,328.1353795713377 169.30722891566265,328.1353795713377C253.96084337349396,328.1353795713377 253.96084337349396,309.99976556698624 338.6144578313253,309.99976556698624C423.5,309.99976556698624 423.5,304.8026319534451 508.3855421686747,304.8026319534451C593.039156626506,304.8026319534451 593.039156626506,305.1925107155005 677.6927710843374,305.1925107155005C762.3463855421687,305.1925107155005 762.3463855421687,342.2615128496108 847,342.2615128496108"></path><path id="path-5" d="M0,386.1712530029913C84.65361445783132,386.1712530029913 84.65361445783132,404.40758169109006 169.30722891566265,404.40758169109006C253.96084337349396,404.40758169109006 253.96084337349396,414.81654127995375 338.6144578313253,414.81654127995375C423.5,414.81654127995375 423.5,449.4558714341448 508.3855421686747,449.4558714341448C593.039156626506,449.4558714341448 593.039156626506,469.11317908936246 677.6927710843374,469.11317908936246C762.3463855421687,469.11317908936246 762.3463855421687,434.9182511831409 847,434.9182511831409"></path><path id="path-6" d="M0,235.83158405947387C84.65361445783132,235.83158405947387 84.65361445783132,316.3090877451758 169.30722891566265,316.3090877451758C253.96084337349396,316.3090877451758 253.96084337349396,279.64593907462535 338.6144578313253,279.64593907462535C423.5,279.64593907462535 423.5,286.0626222422603 508.3855421686747,286.0626222422603C593.039156626506,286.0626222422603 593.039156626506,261.5032359316999 677.6927710843374,261.5032359316999C762.3463855421687,261.5032359316999 762.3463855421687,271.4867634633192 847,271.4867634633192"></path><path id="path-7" d="M0,445.6865723029665C84.65361445783132,445.6865723029665 84.65361445783132,451.41858634667847 169.30722891566265,451.41858634667847C253.96084337349396,451.41858634667847 253.96084337349396,460.6753299083458 338.6144578313253,460.6753299083458C423.5,460.6753299083458 423.5,495.5859437909936 508.3855421686747,495.5859437909936C593.039156626506,495.5859437909936 593.039156626506,512.5853126917121 677.6927710843374,512.5853126917121C762.3463855421687,512.5853126917121 762.3463855421687,477.3952122346835 847,477.3952122346835"></path><path id="path-8" d="M0,283.58418830767243C84.65361445783132,283.58418830767243 84.65361445783132,243.45664775420508 169.30722891566265,243.45664775420508C253.96084337349396,243.45664775420508 253.96084337349396,240.8830701494432 338.6144578313253,240.8830701494432C423.5,240.8830701494432 423.5,241.9949688381083 508.3855421686747,241.9949688381083C593.039156626506,241.9949688381083 593.039156626506,236.23885176702635 677.6927710843374,236.23885176702635C762.3463855421687,236.23885176702635 762.3463855421687,243.23372300084702 847,243.23372300084702"></path><path id="path-9" d="M0,437.878120475875C84.65361445783132,437.878120475875 84.65361445783132,441.6550974336633 169.30722891566265,441.6550974336633C253.96084337349396,441.6550974336633 253.96084337349396,456.8003639505424 338.6144578313253,456.8003639505424C423.5,456.8003639505424 423.5,487.9413893112321 508.3855421686747,487.9413893112321C593.039156626506,487.9413893112321 593.039156626506,508.49630844689534 677.6927710843374,508.49630844689534C762.3463855421687,508.49630844689534 762.3463855421687,480.6464080204559 847,480.6464080204559"></path><path id="path-10" d="M0,343.4291154980024C84.65361445783132,343.4291154980024 84.65361445783132,350.72837056178247 169.30722891566265,350.72837056178247C253.96084337349396,350.72837056178247 253.96084337349396,395.6013559405576 338.6144578313253,395.6013559405576C423.5,395.6013559405576 423.5,432.87970706179124 508.3855421686747,432.87970706179124C593.039156626506,432.87970706179124 593.039156626506,431.33607234995077 677.6927710843374,431.33607234995077C762.3463855421687,431.33607234995077 762.3463855421687,418.5858288310473 847,418.5858288310473"></path><path id="path-11" d="M0,431.2532365770288C84.65361445783132,431.2532365770288 84.65361445783132,446.93130686210634 169.30722891566265,446.93130686210634C253.96084337349396,446.93130686210634 253.96084337349396,477.7240535897687 338.6144578313253,477.7240535897687C423.5,477.7240535897687 423.5,500.8247797157204 508.3855421686747,500.8247797157204C593.039156626506,500.8247797157204 593.039156626506,500.0653269193473 677.6927710843374,500.0653269193473C762.3463855421687,500.0653269193473 762.3463855421687,488.46207599374554 847,488.46207599374554"></path><path id="path-12" d="M0,427.55521446859564C84.65361445783132,427.55521446859564 84.65361445783132,410.19033089048565 169.30722891566265,410.19033089048565C253.96084337349396,410.19033089048565 253.96084337349396,435.08314994749855 338.6144578313253,435.08314994749855C423.5,435.08314994749855 423.5,469.1029224562823 508.3855421686747,469.1029224562823C593.039156626506,469.1029224562823 593.039156626506,383.0810737922192 677.6927710843374,383.0810737922192C762.3463855421687,383.0810737922192 762.3463855421687,441.69086505560443 847,441.69086505560443"></path><path id="path-13" d="M0,361.9895918100684C84.65361445783132,361.9895918100684 84.65361445783132,339.66125941191126 169.30722891566265,339.66125941191126C253.96084337349396,339.66125941191126 253.96084337349396,324.04795963626316 338.6144578313253,324.04795963626316C423.5,324.04795963626316 423.5,402.1218032689999 508.3855421686747,402.1218032689999C593.039156626506,402.1218032689999 593.039156626506,408.47472840055576 677.6927710843374,408.47472840055576C762.3463855421687,408.47472840055576 762.3463855421687,409.2297268180416 847,409.2297268180416"></path><path id="path-14" d="M0,378.5616660533698C84.65361445783132,378.5616660533698 84.65361445783132,421.17814162400634 169.30722891566265,421.17814162400634C253.96084337349396,421.17814162400634 253.96084337349396,446.64913722560016 338.6144578313253,446.64913722560016C423.5,446.64913722560016 423.5,474.3067155594231 508.3855421686747,474.3067155594231C593.039156626506,474.3067155594231 593.039156626506,484.08027687189207 677.6927710843374,484.08027687189207C762.3463855421687,484.08027687189207 762.3463855421687,459.1181067307938 847,459.1181067307938"></path><path id="path-15" d="M0,417.65934551379326C84.65361445783132,417.65934551379326 84.65361445783132,435.3003656048114 169.30722891566265,435.3003656048114C253.96084337349396,435.3003656048114 253.96084337349396,428.86990372062843 338.6144578313253,428.86990372062843C423.5,428.86990372062843 423.5,463.4632036861612 508.3855421686747,463.4632036861612C593.039156626506,463.4632036861612 593.039156626506,490.2669489597886 677.6927710843374,490.2669489597886C762.3463855421687,490.2669489597886 762.3463855421687,464.22267100940064 847,464.22267100940064"></path><path id="path-16" d="M0,443.4826984734891C84.65361445783132,443.4826984734891 84.65361445783132,438.72238852301217 169.30722891566265,438.72238852301217C253.96084337349396,438.72238852301217 253.96084337349396,471.3211065689968 338.6144578313253,471.3211065689968C423.5,471.3211065689968 423.5,498.56494130836313 508.3855421686747,498.56494130836313C593.039156626506,498.56494130836313 593.039156626506,520.316407248371 677.6927710843374,520.316407248371C762.3463855421687,520.316407248371 762.3463855421687,486.32430083117026 847,486.32430083117026"></path><path id="path-17" d="M0,405.9847518055048C84.65361445783132,405.9847518055048 84.65361445783132,397.6443675227772 169.30722891566265,397.6443675227772C253.96084337349396,397.6443675227772 253.96084337349396,422.25277521571184 338.6144578313253,422.25277521571184C423.5,422.25277521571184 423.5,441.42189143688097 508.3855421686747,441.42189143688097C593.039156626506,441.42189143688097 593.039156626506,451.8539483005525 677.6927710843374,451.8539483005525C762.3463855421687,451.8539483005525 762.3463855421687,447.9452346250951 847,447.9452346250951"></path><path id="path-18" d="M0,323.836015598716C84.65361445783132,323.836015598716 84.65361445783132,304.2325398548759 169.30722891566265,304.2325398548759C253.96084337349396,304.2325398548759 253.96084337349396,362.95336731231 338.6144578313253,362.95336731231C423.5,362.95336731231 423.5,365.4991585732331 508.3855421686747,365.4991585732331C593.039156626506,365.4991585732331 593.039156626506,369.2621752293596 677.6927710843374,369.2621752293596C762.3463855421687,369.2621752293596 762.3463855421687,389.1266084010025 847,389.1266084010025"></path><path id="path-19" d="M0,183.60007840018483C84.65361445783132,183.60007840018483 84.65361445783132,219.10993450238215 169.30722891566265,219.10993450238215C253.96084337349396,219.10993450238215 253.96084337349396,212.80268527890166 338.6144578313253,212.80268527890166C423.5,212.80268527890166 423.5,209.9793672279477 508.3855421686747,209.9793672279477C593.039156626506,209.9793672279477 593.039156626506,200.77846572236382 677.6927710843374,200.77846572236382C762.3463855421687,200.77846572236382 762.3463855421687,207.7584965565374 847,207.7584965565374"></path><path id="path-20" d="M0,411.95353930942593C84.65361445783132,411.95353930942593 84.65361445783132,431.1290865956561 169.30722891566265,431.1290865956561C253.96084337349396,431.1290865956561 253.96084337349396,440.9477213259938 338.6144578313253,440.9477213259938C423.5,440.9477213259938 423.5,423.5023089426844 508.3855421686747,423.5023089426844C593.039156626506,423.5023089426844 593.039156626506,460.6425420374068 677.6927710843374,460.6425420374068C762.3463855421687,460.6425420374068 762.3463855421687,453.70216756213995 847,453.70216756213995"></path><path id="path-21" d="M0,440.8122488221259C84.65361445783132,440.8122488221259 84.65361445783132,449.35272295357345 169.30722891566265,449.35272295357345C253.96084337349396,449.35272295357345 253.96084337349396,467.9725743319283 338.6144578313253,467.9725743319283C423.5,467.9725743319283 423.5,491.9760622258044 508.3855421686747,491.9760622258044C593.039156626506,491.9760622258044 593.039156626506,516.5921420141351 677.6927710843374,516.5921420141351C762.3463855421687,516.5921420141351 762.3463855421687,483.60636456551845 847,483.60636456551845"></path><path id="path-22" d="M0,393.23763512148537C84.65361445783132,393.23763512148537 84.65361445783132,389.38776162058105 169.30722891566265,389.38776162058105C253.96084337349396,389.38776162058105 253.96084337349396,385.10199858187536 338.6144578313253,385.10199858187536C423.5,385.10199858187536 423.5,413.2180106180183 508.3855421686747,413.2180106180183C593.039156626506,413.2180106180183 593.039156626506,442.1596364125072 677.6927710843374,442.1596364125072C762.3463855421687,442.1596364125072 762.3463855421687,399.3644692720385 847,399.3644692720385"></path><path id="path-23" d="M0,311.8101179365155C84.65361445783132,311.8101179365155 84.65361445783132,262.16481688575897 169.30722891566265,262.16481688575897C253.96084337349396,262.16481688575897 253.96084337349396,295.50170279455625 338.6144578313253,295.50170279455625C423.5,295.50170279455625 423.5,351.7449293968061 508.3855421686747,351.7449293968061C593.039156626506,351.7449293968061 593.039156626506,323.6199583075452 677.6927710843374,323.6199583075452C762.3463855421687,323.6199583075452 762.3463855421687,327.5214560878808 847,327.5214560878808"></path><path id="path-24" d="M0,298.02138605804805C84.65361445783132,298.02138605804805 84.65361445783132,291.1945512872337 169.30722891566265,291.1945512872337C253.96084337349396,291.1945512872337 253.96084337349396,337.753250671473 338.6144578313253,337.753250671473C423.5,337.753250671473 423.5,337.18783989214904 508.3855421686747,337.18783989214904C593.039156626506,337.18783989214904 593.039156626506,396.2624075962241 677.6927710843374,396.2624075962241C762.3463855421687,396.2624075962241 762.3463855421687,378.74655920033194 847,378.74655920033194"></path><path id="path-25" d="M0,268.64449520323996C84.65361445783132,268.64449520323996 84.65361445783132,277.13173705829956 169.30722891566265,277.13173705829956C253.96084337349396,277.13173705829956 253.96084337349396,262.1834579336911 338.6144578313253,262.1834579336911C423.5,262.1834579336911 423.5,265.14864254055317 508.3855421686747,265.14864254055317C593.039156626506,265.14864254055317 593.039156626506,283.99475507045474 677.6927710843374,283.99475507045474C762.3463855421687,283.99475507045474 762.3463855421687,294.0298108662026 847,294.0298108662026"></path><path id="path-26" d="M0,352.75317367131635C84.65361445783132,352.75317367131635 84.65361445783132,370.7367707294175 169.30722891566265,370.7367707294175C253.96084337349396,370.7367707294175 253.96084337349396,405.74723660697066 338.6144578313253,405.74723660697066C423.5,405.74723660697066 423.5,321.67965006856616 508.3855421686747,321.67965006856616C593.039156626506,321.67965006856616 593.039156626506,354.8454374595916 677.6927710843374,354.8454374595916C762.3463855421687,354.8454374595916 762.3463855421687,312.2479036662927 847,312.2479036662927"></path><path id="path-27" d="M0,212.7132757746149C84.65361445783132,212.7132757746149 84.65361445783132,186.8316433163084 169.30722891566265,186.8316433163084C253.96084337349396,186.8316433163084 253.96084337349396,175.59931226803167 338.6144578313253,175.59931226803167C423.5,175.59931226803167 423.5,167.95348610714524 508.3855421686747,167.95348610714524C593.039156626506,167.95348610714524 593.039156626506,155.62802602756773 677.6927710843374,155.62802602756773C762.3463855421687,155.62802602756773 762.3463855421687,167.31413608970362 847,167.31413608970362"></path><path id="path-28" d="M0,399.7693958557379C84.65361445783132,399.7693958557379 84.65361445783132,415.7891912263541 169.30722891566265,415.7891912263541C253.96084337349396,415.7891912263541 253.96084337349396,452.115744796356 338.6144578313253,452.115744796356C423.5,452.115744796356 423.5,456.9606636600338 508.3855421686747,456.9606636600338C593.039156626506,456.9606636600338 593.039156626506,476.8871478037309 677.6927710843374,476.8871478037309C762.3463855421687,476.8871478037309 762.3463855421687,427.2708547175894 847,427.2708547175894"></path><path id="path-29" d="M0,333.88870177410877C84.65361445783132,333.88870177410877 84.65361445783132,380.25840488836286 169.30722891566265,380.25840488836286C253.96084337349396,380.25840488836286 253.96084337349396,350.72162999503644 338.6144578313253,350.72162999503644C423.5,350.72162999503644 423.5,378.5220943723634 508.3855421686747,378.5220943723634C593.039156626506,378.5220943723634 593.039156626506,339.61310564540236 677.6927710843374,339.61310564540236C762.3463855421687,339.61310564540236 762.3463855421687,355.8989172323696 847,355.8989172323696"></path><path id="path-30" d="M0,370.63341868350875C84.65361445783132,370.63341868350875 84.65361445783132,361.00288830141693 169.30722891566265,361.00288830141693C253.96084337349396,361.00288830141693 253.96084337349396,374.3398092356012 338.6144578313253,374.3398092356012C423.5,374.3398092356012 423.5,390.64364247586775 508.3855421686747,390.64364247586775C593.039156626506,390.64364247586775 593.039156626506,420.0567291072996 677.6927710843374,420.0567291072996C762.3463855421687,420.0567291072996 762.3463855421687,367.9832999159253 847,367.9832999159253"></path></defs><text dy="0.5ex" class="label"><textPath xmlns:xlink="http://www.w3.org/1999/xlink" xlink:href="#path-0" startOffset="95%" text-anchor="end" style="font-size: 11px; font-family: Arial, Helvetica; font-weight: normal;">Alaba</textPath></text><text dy="0.5ex" class="label"><textPath xmlns:xlink="http://www.w3.org/1999/xlink" xlink:href="#path-1" startOffset="80%" text-anchor="middle" style="font-size: 11px; font-family: Arial, Helvetica; font-weight: normal;">Arsi</textPath></text><text dy="0.5ex" class="label"><textPath xmlns:xlink="http://www.w3.org/1999/xlink" xlink:href="#path-2" startOffset="5%" text-anchor="start" style="font-size: 11px; font-family: Arial, Helvetica; font-weight: normal;">Awi</textPath></text><text dy="0.5ex" class="label"><textPath xmlns:xlink="http://www.w3.org/1999/xlink" xlink:href="#path-3" startOffset="80%" text-anchor="middle" style="font-size: 11px; font-family: Arial, Helvetica; font-weight: normal;">Bale</textPath></text><text dy="0.5ex" class="label"><textPath xmlns:xlink="http://www.w3.org/1999/xlink" xlink:href="#path-4" startOffset="80%" text-anchor="middle" style="font-size: 11px; font-family: Arial, Helvetica; font-weight: normal;">Bottom 25 Zones</textPath></text><text dy="0.5ex" class="label"><textPath xmlns:xlink="http://www.w3.org/1999/xlink" xlink:href="#path-5" startOffset="80%" text-anchor="middle" style="font-size: 11px; font-family: Arial, Helvetica; font-weight: normal;">Central Tigray</textPath></text><text dy="0.5ex" class="label"><textPath xmlns:xlink="http://www.w3.org/1999/xlink" xlink:href="#path-6" startOffset="95%" text-anchor="end" style="font-size: 11px; font-family: Arial, Helvetica; font-weight: normal;">East Gojjam</textPath></text><text dy="0.5ex" class="label"><textPath xmlns:xlink="http://www.w3.org/1999/xlink" xlink:href="#path-7" startOffset="80%" text-anchor="middle" style="font-size: 11px; font-family: Arial, Helvetica; font-weight: normal;">East Hararge</textPath></text><text dy="0.5ex" class="label"><textPath xmlns:xlink="http://www.w3.org/1999/xlink" xlink:href="#path-8" startOffset="95%" text-anchor="end" style="font-size: 11px; font-family: Arial, Helvetica; font-weight: normal;">East Shewa</textPath></text><text dy="0.5ex" class="label"><textPath xmlns:xlink="http://www.w3.org/1999/xlink" xlink:href="#path-9" startOffset="60%" text-anchor="middle" style="font-size: 11px; font-family: Arial, Helvetica; font-weight: normal;">East Wellega</textPath></text><text dy="0.5ex" class="label"><textPath xmlns:xlink="http://www.w3.org/1999/xlink" xlink:href="#path-10" startOffset="80%" text-anchor="middle" style="font-size: 11px; font-family: Arial, Helvetica; font-weight: normal;">Eastern Tigray</textPath></text><text dy="0.5ex" class="label"><textPath xmlns:xlink="http://www.w3.org/1999/xlink" xlink:href="#path-11" startOffset="80%" text-anchor="middle" style="font-size: 11px; font-family: Arial, Helvetica; font-weight: normal;">Guji</textPath></text><text dy="0.5ex" class="label"><textPath xmlns:xlink="http://www.w3.org/1999/xlink" xlink:href="#path-12" startOffset="80%" text-anchor="middle" style="font-size: 11px; font-family: Arial, Helvetica; font-weight: normal;">Gurage</textPath></text><text dy="0.5ex" class="label"><textPath xmlns:xlink="http://www.w3.org/1999/xlink" xlink:href="#path-13" startOffset="40%" text-anchor="middle" style="font-size: 11px; font-family: Arial, Helvetica; font-weight: normal;">Hadiya</textPath></text><text dy="0.5ex" class="label"><textPath xmlns:xlink="http://www.w3.org/1999/xlink" xlink:href="#path-14" startOffset="5%" text-anchor="start" style="font-size: 11px; font-family: Arial, Helvetica; font-weight: normal;">Horo Gudru Wellega</textPath></text><text dy="0.5ex" class="label"><textPath xmlns:xlink="http://www.w3.org/1999/xlink" xlink:href="#path-15" startOffset="40%" text-anchor="middle" style="font-size: 11px; font-family: Arial, Helvetica; font-weight: normal;">Jimma</textPath></text><text dy="0.5ex" class="label"><textPath xmlns:xlink="http://www.w3.org/1999/xlink" xlink:href="#path-16" startOffset="80%" text-anchor="middle" style="font-size: 11px; font-family: Arial, Helvetica; font-weight: normal;">Kefa</textPath></text><text dy="0.5ex" class="label"><textPath xmlns:xlink="http://www.w3.org/1999/xlink" xlink:href="#path-17" startOffset="80%" text-anchor="middle" style="font-size: 11px; font-family: Arial, Helvetica; font-weight: normal;">Kembata Timbaro</textPath></text><text dy="0.5ex" class="label"><textPath xmlns:xlink="http://www.w3.org/1999/xlink" xlink:href="#path-18" startOffset="80%" text-anchor="middle" style="font-size: 11px; font-family: Arial, Helvetica; font-weight: normal;">North Gondar</textPath></text><text dy="0.5ex" class="label"><textPath xmlns:xlink="http://www.w3.org/1999/xlink" xlink:href="#path-19" startOffset="80%" text-anchor="middle" style="font-size: 11px; font-family: Arial, Helvetica; font-weight: normal;">North Shewa</textPath></text><text dy="0.5ex" class="label"><textPath xmlns:xlink="http://www.w3.org/1999/xlink" xlink:href="#path-20" startOffset="60%" text-anchor="middle" style="font-size: 11px; font-family: Arial, Helvetica; font-weight: normal;">North Wollo</textPath></text><text dy="0.5ex" class="label"><textPath xmlns:xlink="http://www.w3.org/1999/xlink" xlink:href="#path-21" startOffset="80%" text-anchor="middle" style="font-size: 11px; font-family: Arial, Helvetica; font-weight: normal;">Qeleme Wellega</textPath></text><text dy="0.5ex" class="label"><textPath xmlns:xlink="http://www.w3.org/1999/xlink" xlink:href="#path-22" startOffset="60%" text-anchor="middle" style="font-size: 11px; font-family: Arial, Helvetica; font-weight: normal;">Siliti</textPath></text><text dy="0.5ex" class="label"><textPath xmlns:xlink="http://www.w3.org/1999/xlink" xlink:href="#path-23" startOffset="80%" text-anchor="middle" style="font-size: 11px; font-family: Arial, Helvetica; font-weight: normal;">South Gonder</textPath></text><text dy="0.5ex" class="label"><textPath xmlns:xlink="http://www.w3.org/1999/xlink" xlink:href="#path-24" startOffset="60%" text-anchor="middle" style="font-size: 11px; font-family: Arial, Helvetica; font-weight: normal;">South Tigray</textPath></text><text dy="0.5ex" class="label"><textPath xmlns:xlink="http://www.w3.org/1999/xlink" xlink:href="#path-25" startOffset="60%" text-anchor="middle" style="font-size: 11px; font-family: Arial, Helvetica; font-weight: normal;">South West Shewa</textPath></text><text dy="0.5ex" class="label"><textPath xmlns:xlink="http://www.w3.org/1999/xlink" xlink:href="#path-26" startOffset="60%" text-anchor="middle" style="font-size: 11px; font-family: Arial, Helvetica; font-weight: normal;">South Wolo</textPath></text><text dy="0.5ex" class="label"><textPath xmlns:xlink="http://www.w3.org/1999/xlink" xlink:href="#path-27" startOffset="80%" text-anchor="middle" style="font-size: 11px; font-family: Arial, Helvetica; font-weight: normal;">West Arsi</textPath></text><text dy="0.5ex" class="label"><textPath xmlns:xlink="http://www.w3.org/1999/xlink" xlink:href="#path-28" startOffset="95%" text-anchor="end" style="font-size: 11px; font-family: Arial, Helvetica; font-weight: normal;">West Gojjam</textPath></text><text dy="0.5ex" class="label"><textPath xmlns:xlink="http://www.w3.org/1999/xlink" xlink:href="#path-29" startOffset="80%" text-anchor="middle" style="font-size: 11px; font-family: Arial, Helvetica; font-weight: normal;">West Shewa</textPath></text><text dy="0.5ex" class="label"><textPath xmlns:xlink="http://www.w3.org/1999/xlink" xlink:href="#path-30" startOffset="60%" text-anchor="middle" style="font-size: 11px; font-family: Arial, Helvetica; font-weight: normal;">Yem</textPath></text></g></svg>