<svg width="847" height="542" xmlns="http://www.w3.org/2000/svg" version="1.1"><g><g class="x axis" transform="translate(0,522)" style="stroke-width: 1px; font-size: 10px; font-family: Arial, Helvetica; display: block;"><g class="tick" transform="translate(0,0)" style="opacity: 1;"><line y2="-522" x2="0" style="shape-rendering: crispEdges; fill: none; stroke: rgb(204, 204, 204);"></line><text dy=".71em" y="3" x="0" style="text-anchor: middle;">2010</text></g><g class="tick" transform="translate(169.30722891566265,0)" style="opacity: 1;"><line y2="-522" x2="0" style="shape-rendering: crispEdges; fill: none; stroke: rgb(204, 204, 204);"></line><text dy=".71em" y="3" x="0" style="text-anchor: middle;">2011</text></g><g class="tick" transform="translate(338.6144578313253,0)" style="opacity: 1;"><line y2="-522" x2="0" style="shape-rendering: crispEdges; fill: none; stroke: rgb(204, 204, 204);"></line><text dy=".71em" y="3" x="0" style="text-anchor: middle;">2012</text></g><g class="tick" transform="translate(508.3855421686747,0)" style="opacity: 1;"><line y2="-522" x2="0" style="shape-rendering: crispEdges; fill: none; stroke: rgb(204, 204, 204);"></line><text dy=".71em" y="3" x="0" style="text-anchor: middle;">2013</text></g><g class="tick" transform="translate(677.6927710843374,0)" style="opacity: 1;"><line y2="-522" x2="0" style="shape-rendering: crispEdges; fill: none; stroke: rgb(204, 204, 204);"></line><text dy=".71em" y="3" x="0" style="text-anchor: middle;">2014</text></g><g class="tick" transform="translate(847,0)" style="opacity: 1;"><line y2="-522" x2="0" style="shape-rendering: crispEdges; fill: none; stroke: rgb(204, 204, 204);"></line><text dy=".71em" y="3" x="0" style="text-anchor: middle;">2015</text></g><path class="domain" d="M0,-522V0H847V-522" style="shape-rendering: crispEdges; fill: none; stroke: rgb(204, 204, 204);"></path></g><path class="layer" d="M0,443.3361796030886C84.65361445783132,443.3361796030886 84.65361445783132,449.6730399677867 169.30722891566265,449.6730399677867C253.96084337349396,449.6730399677867 253.96084337349396,472.3631067556993 338.6144578313253,472.3631067556993C423.5,472.3631067556993 423.5,497.3508951809261 508.3855421686747,497.3508951809261C593.039156626506,497.3508951809261 593.039156626506,518.0016518922929 677.6927710843374,518.0016518922929C762.3463855421687,518.0016518922929 762.3463855421687,480.282366975702 847,480.282366975702L847,484.6992553574987C762.3463855421687,484.6992553574987 762.3463855421687,522 677.6927710843374,522C593.039156626506,522 593.039156626506,501.66442394619344 508.3855421686747,501.66442394619344C423.5,501.66442394619344 423.5,475.9113443138305 338.6144578313253,475.9113443138305C253.96084337349396,475.9113443138305 253.96084337349396,452.1249756691479 169.30722891566265,452.1249756691479C84.65361445783132,452.1249756691479 84.65361445783132,446.381062406151 0,446.381062406151Z" title="Alaba" style="fill-opacity: 0.9; fill: rgb(191, 105, 105);"></path><path class="layer" d="M0,75.61893759384894C84.65361445783132,75.61893759384894 84.65361445783132,69.87502433085226 169.30722891566265,69.87502433085226C253.96084337349396,69.87502433085226 253.96084337349396,100.4923704831924 338.6144578313253,100.4923704831924C423.5,100.4923704831924 423.5,20.335576053806506 508.3855421686747,20.335576053806506C593.039156626506,20.335576053806506 593.039156626506,0 677.6927710843374,0C762.3463855421687,0 762.3463855421687,32.84072646867533 847,32.84072646867533L847,90.22022776206325C762.3463855421687,90.22022776206325 762.3463855421687,67.98725573696359 677.6927710843374,67.98725573696359C593.039156626506,67.98725573696359 593.039156626506,84.78304907794414 508.3855421686747,84.78304907794414C423.5,84.78304907794414 423.5,154.38483141802195 338.6144578313253,154.38483141802195C253.96084337349396,154.38483141802195 253.96084337349396,125.22835657351989 169.30722891566265,125.22835657351989C84.65361445783132,125.22835657351989 84.65361445783132,123.28957992449573 0,123.28957992449573Z" title="Arsi" style="fill-opacity: 0.9; fill: rgb(191, 125, 105);"></path><path class="layer" d="M0,434.3475760380434C84.65361445783132,434.3475760380434 84.65361445783132,436.2367679623177 169.30722891566265,436.2367679623177C253.96084337349396,436.2367679623177 253.96084337349396,476.064531062962 338.6144578313253,476.064531062962C423.5,476.064531062962 423.5,492.8102371496855 508.3855421686747,492.8102371496855C593.039156626506,492.8102371496855 593.039156626506,513.0382674074295 677.6927710843374,513.0382674074295C762.3463855421687,513.0382674074295 762.3463855421687,484.8524421066302 847,484.8524421066302L847,489.1592735313247C762.3463855421687,489.1592735313247 762.3463855421687,517.8484651431614 677.6927710843374,517.8484651431614C593.039156626506,517.8484651431614 593.039156626506,497.19770843179464 508.3855421686747,497.19770843179464C423.5,497.19770843179464 423.5,479.1438923953761 338.6144578313253,479.1438923953761C253.96084337349396,479.1438923953761 253.96084337349396,441.1650541146907 169.30722891566265,441.1650541146907C84.65361445783132,441.1650541146907 84.65361445783132,439.47293743634725 0,439.47293743634725Z" title="Awi" style="fill-opacity: 0.9; fill: rgb(191, 145, 105);"></path><path class="layer" d="M0,123.44276667362718C84.65361445783132,123.44276667362718 84.65361445783132,125.38154332265134 169.30722891566265,125.38154332265134C253.96084337349396,125.38154332265134 253.96084337349396,42.85610760462393 338.6144578313253,42.85610760462393C423.5,42.85610760462393 423.5,84.93623582707559 508.3855421686747,84.93623582707559C593.039156626506,84.93623582707559 593.039156626506,68.14044248609503 677.6927710843374,68.14044248609503C762.3463855421687,68.14044248609503 762.3463855421687,90.3734145111947 847,90.3734145111947L847,146.21414521372563C762.3463855421687,146.21414521372563 762.3463855421687,132.2701713603426 677.6927710843374,132.2701713603426C593.039156626506,132.2701713603426 593.039156626506,145.95981464428277 508.3855421686747,145.95981464428277C423.5,145.95981464428277 423.5,100.33918373406095 338.6144578313253,100.33918373406095C253.96084337349396,100.33918373406095 253.96084337349396,168.2248719436925 169.30722891566265,168.2248719436925C84.65361445783132,168.2248719436925 84.65361445783132,168.94543417037755 0,168.94543417037755Z" title="Bale" style="fill-opacity: 0.9; fill: rgb(191, 164, 105);"></path><path class="layer" d="M0,169.098620919509C84.65361445783132,169.098620919509 84.65361445783132,233.02936532731465 169.30722891566265,233.02936532731465C253.96084337349396,233.02936532731465 253.96084337349396,229.05394165571838 338.6144578313253,229.05394165571838C423.5,229.05394165571838 423.5,230.28809329226593 508.3855421686747,230.28809329226593C593.039156626506,230.28809329226593 593.039156626506,222.8567365235626 677.6927710843374,222.8567365235626C762.3463855421687,222.8567365235626 762.3463855421687,259.95968796167665 847,259.95968796167665L847,286.9152391654085C762.3463855421687,286.9152391654085 762.3463855421687,262.4728803052023 677.6927710843374,262.4728803052023C593.039156626506,262.4728803052023 593.039156626506,263.05538785211746 508.3855421686747,263.05538785211746C423.5,263.05538785211746 423.5,259.8376926250049 338.6144578313253,259.8376926250049C253.96084337349396,259.8376926250049 253.96084337349396,256.28212164003037 169.30722891566265,256.28212164003037C84.65361445783132,256.28212164003037 84.65361445783132,198.6975914872791 0,198.6975914872791Z" title="Bottom 30 Zones" style="fill-opacity: 0.9; fill: rgb(191, 184, 105);"></path><path class="layer" d="M0,396.3167664165204C84.65361445783132,396.3167664165204 84.65361445783132,413.8605841639396 169.30722891566265,413.8605841639396C253.96084337349396,413.8605841639396 253.96084337349396,428.239890193112 338.6144578313253,428.239890193112C423.5,428.239890193112 423.5,461.3739024633436 508.3855421686747,461.3739024633436C593.039156626506,461.3739024633436 593.039156626506,485.07601673814304 677.6927710843374,485.07601673814304C762.3463855421687,485.07601673814304 762.3463855421687,444.9623955245402 847,444.9623955245402L847,451.8221233121194C762.3463855421687,451.8221233121194 762.3463855421687,493.2638692982467 677.6927710843374,493.2638692982467C593.039156626506,493.2638692982467 593.039156626506,469.21003059572797 508.3855421686747,469.21003059572797C423.5,469.21003059572797 423.5,436.2606337788584 338.6144578313253,436.2606337788584C253.96084337349396,436.2606337788584 253.96084337349396,419.60360458069874 169.30722891566265,419.60360458069874C84.65361445783132,419.60360458069874 84.65361445783132,403.60298181961696 0,403.60298181961696Z" title="Central Tigray" style="fill-opacity: 0.9; fill: rgb(178, 191, 105);"></path><path class="layer" d="M0,257.16260892516743C84.65361445783132,257.16260892516743 84.65361445783132,334.24951182787146 169.30722891566265,334.24951182787146C253.96084337349396,334.24951182787146 253.96084337349396,302.654163317343 338.6144578313253,302.654163317343C423.5,302.654163317343 423.5,309.5838690560415 508.3855421686747,309.5838690560415C593.039156626506,309.5838690560415 593.039156626506,290.23675367201616 677.6927710843374,290.23675367201616C762.3463855421687,290.23675367201616 762.3463855421687,287.06842591454 847,287.06842591454L847,310.9192852459315C762.3463855421687,310.9192852459315 762.3463855421687,313.0757898008136 677.6927710843374,313.0757898008136C593.039156626506,313.0757898008136 593.039156626506,329.2218208653972 508.3855421686747,329.2218208653972C423.5,329.2218208653972 423.5,319.33224261193624 338.6144578313253,319.33224261193624C253.96084337349396,319.33224261193624 253.96084337349396,346.10879424733184 169.30722891566265,346.10879424733184C84.65361445783132,346.10879424733184 84.65361445783132,274.69694803648366 0,274.69694803648366Z" title="East Gojjam" style="fill-opacity: 0.9; fill: rgb(158, 191, 105);"></path><path class="layer" d="M0,289.824389160241C84.65361445783132,289.824389160241 84.65361445783132,256.43530838916183 169.30722891566265,256.43530838916183C253.96084337349396,256.43530838916183 253.96084337349396,259.9908793741363 338.6144578313253,259.9908793741363C423.5,259.9908793741363 423.5,263.2085746012489 508.3855421686747,263.2085746012489C593.039156626506,263.2085746012489 593.039156626506,262.62606705433376 677.6927710843374,262.62606705433376C762.3463855421687,262.62606705433376 762.3463855421687,227.37474140419926 847,227.37474140419926L847,259.80650121254524C762.3463855421687,259.80650121254524 762.3463855421687,290.08356692288464 677.6927710843374,290.08356692288464C593.039156626506,290.08356692288464 593.039156626506,287.3324870450883 508.3855421686747,287.3324870450883C423.5,287.3324870450883 423.5,284.35603472244804 338.6144578313253,284.35603472244804C253.96084337349396,284.35603472244804 253.96084337349396,278.004324055661 169.30722891566265,278.004324055661C84.65361445783132,278.004324055661 84.65361445783132,304.62017644879097 0,304.62017644879097Z" title="East Shewa" style="fill-opacity: 0.9; fill: rgb(138, 191, 105);"></path><path class="layer" d="M0,352.52616461840813C84.65361445783132,352.52616461840813 84.65361445783132,357.6727446012445 169.30722891566265,357.6727446012445C253.96084337349396,357.6727446012445 253.96084337349396,407.9183546366008 338.6144578313253,407.9183546366008C423.5,407.9183546366008 423.5,444.26446571594386 508.3855421686747,444.26446571594386C593.039156626506,444.26446571594386 593.039156626506,445.7941470646711 677.6927710843374,445.7941470646711C762.3463855421687,445.7941470646711 762.3463855421687,427.56685656981466 847,427.56685656981466L847,436.50488823917965C762.3463855421687,436.50488823917965 762.3463855421687,456.8806643401558 677.6927710843374,456.8806643401558C593.039156626506,456.8806643401558 593.039156626506,453.1184939866721 508.3855421686747,453.1184939866721C423.5,453.1184939866721 423.5,418.09540954209257 338.6144578313253,418.09540954209257C253.96084337349396,418.09540954209257 253.96084337349396,368.27549422483906 169.30722891566265,368.27549422483906C84.65361445783132,368.27549422483906 84.65361445783132,361.78387701588696 0,361.78387701588696Z" title="Eastern Tigray" style="fill-opacity: 0.9; fill: rgb(118, 191, 105);"></path><path class="layer" d="M0,439.6261241854787C84.65361445783132,439.6261241854787 84.65361445783132,419.75679132983015 169.30722891566265,419.75679132983015C253.96084337349396,419.75679132983015 253.96084337349396,449.6674962428853 338.6144578313253,449.6674962428853C423.5,449.6674962428853 423.5,482.3873798294456 508.3855421686747,482.3873798294456C593.039156626506,482.3873798294456 593.039156626506,396.1948072632624 677.6927710843374,396.1948072632624C762.3463855421687,396.1948072632624 762.3463855421687,451.97531006125087 847,451.97531006125087L847,458.37431151463176C762.3463855421687,458.37431151463176 762.3463855421687,409.82839732574877 677.6927710843374,409.82839732574877C593.039156626506,409.82839732574877 593.039156626506,487.54831174662314 508.3855421686747,487.54831174662314C423.5,487.54831174662314 423.5,455.4257196982302 338.6144578313253,455.4257196982302C253.96084337349396,455.4257196982302 253.96084337349396,425.2898659390954 169.30722891566265,425.2898659390954C84.65361445783132,425.2898659390954 84.65361445783132,443.18299285395716 0,443.18299285395716Z" title="Gurage" style="fill-opacity: 0.9; fill: rgb(105, 191, 112);"></path><path class="layer" d="M0,371.2016434585281C84.65361445783132,371.2016434585281 84.65361445783132,346.26198099646325 169.30722891566265,346.26198099646325C253.96084337349396,346.26198099646325 253.96084337349396,334.41222127251615 338.6144578313253,334.41222127251615C423.5,334.41222127251615 423.5,412.2643877101919 508.3855421686747,412.2643877101919C593.039156626506,412.2643877101919 593.039156626506,422.5961569723193 677.6927710843374,422.5961569723193C762.3463855421687,422.5961569723193 762.3463855421687,417.9184144325696 847,417.9184144325696L847,427.4136698206832C762.3463855421687,427.4136698206832 762.3463855421687,434.2888773582312 677.6927710843374,434.2888773582312C593.039156626506,434.2888773582312 593.039156626506,423.5125018916667 508.3855421686747,423.5125018916667C423.5,423.5125018916667 423.5,348.28476883840875 338.6144578313253,348.28476883840875C253.96084337349396,348.28476883840875 253.96084337349396,357.51955785211317 169.30722891566265,357.51955785211317C84.65361445783132,357.51955785211317 84.65361445783132,380.2838185973814 0,380.2838185973814Z" title="Hadiya" style="fill-opacity: 0.9; fill: rgb(105, 191, 131);"></path><path class="layer" d="M0,388.5146634839298C84.65361445783132,388.5146634839298 84.65361445783132,430.97094248458797 169.30722891566265,430.97094248458797C253.96084337349396,430.97094248458797 253.96084337349396,461.4138492417251 338.6144578313253,461.4138492417251C423.5,461.4138492417251 423.5,487.7014984957546 508.3855421686747,487.7014984957546C593.039156626506,487.7014984957546 593.039156626506,500.6467677491636 677.6927710843374,500.6467677491636C762.3463855421687,500.6467677491636 762.3463855421687,470.0582585026345 847,470.0582585026345L847,475.19698861708565C762.3463855421687,475.19698861708565 762.3463855421687,507.67123647782637 677.6927710843374,507.67123647782637C593.039156626506,507.67123647782637 593.039156626506,492.65705040055406 508.3855421686747,492.65705040055406C423.5,492.65705040055406 423.5,466.8452829412571 338.6144578313253,466.8452829412571C253.96084337349396,466.8452829412571 253.96084337349396,436.0835812131862 169.30722891566265,436.0835812131862C84.65361445783132,436.0835812131862 84.65361445783132,396.16357966738894 0,396.16357966738894Z" title="Horo Gudru Wellega" style="fill-opacity: 0.9; fill: rgb(105, 191, 151);"></path><path class="layer" d="M0,428.7939493046162C84.65361445783132,428.7939493046162 84.65361445783132,445.82056168942887 169.30722891566265,445.82056168942887C253.96084337349396,445.82056168942887 253.96084337349396,443.13418052635996 338.6144578313253,443.13418052635996C423.5,443.13418052635996 423.5,476.4055105688379 508.3855421686747,476.4055105688379C593.039156626506,476.4055105688379 593.039156626506,507.82442322695783 677.6927710843374,507.82442322695783C762.3463855421687,507.82442322695783 762.3463855421687,475.3501753662172 847,475.3501753662172L847,480.1291802265706C762.3463855421687,480.1291802265706 762.3463855421687,512.8850806582981 677.6927710843374,512.8850806582981C593.039156626506,512.8850806582981 593.039156626506,482.2341930803141 508.3855421686747,482.2341930803141C423.5,482.2341930803141 423.5,449.51430949375384 338.6144578313253,449.51430949375384C253.96084337349396,449.51430949375384 253.96084337349396,449.5198532186552 169.30722891566265,449.5198532186552C84.65361445783132,449.5198532186552 84.65361445783132,434.19438928891196 0,434.19438928891196Z" title="Jimma" style="fill-opacity: 0.9; fill: rgb(105, 191, 171);"></path><path class="layer" d="M0,416.8388582210271C84.65361445783132,416.8388582210271 84.65361445783132,406.21051558339343 169.30722891566265,406.21051558339343C253.96084337349396,406.21051558339343 253.96084337349396,436.41382052798986 338.6144578313253,436.41382052798986C423.5,436.41382052798986 423.5,453.27168073580356 508.3855421686747,453.27168073580356C593.039156626506,453.27168073580356 593.039156626506,467.4730381513311 677.6927710843374,467.4730381513311C762.3463855421687,467.4730381513311 762.3463855421687,458.5274982637632 847,458.5274982637632L847,464.34921659941904C762.3463855421687,464.34921659941904 762.3463855421687,476.297737160752 677.6927710843374,476.297737160752C593.039156626506,476.297737160752 593.039156626506,461.22071571421213 508.3855421686747,461.22071571421213C423.5,461.22071571421213 423.5,442.98099377722855 338.6144578313253,442.98099377722855C253.96084337349396,442.98099377722855 253.96084337349396,413.7073974148082 169.30722891566265,413.7073974148082C84.65361445783132,413.7073974148082 84.65361445783132,422.7660325525218 0,422.7660325525218Z" title="Kembata Timbaro" style="fill-opacity: 0.9; fill: rgb(105, 191, 191);"></path><path class="layer" d="M0,332.3912915336142C84.65361445783132,332.3912915336142 84.65361445783132,322.073445232874 169.30722891566265,322.073445232874C253.96084337349396,322.073445232874 253.96084337349396,374.4127713969293 338.6144578313253,374.4127713969293C423.5,374.4127713969293 423.5,374.59159424291835 508.3855421686747,374.59159424291835C593.039156626506,374.59159424291835 593.039156626506,382.3032338428887 677.6927710843374,382.3032338428887C762.3463855421687,382.3032338428887 762.3463855421687,397.4126485405955 847,397.4126485405955L847,407.65420402498313C762.3463855421687,407.65420402498313 762.3463855421687,396.041620514131 677.6927710843374,396.041620514131C593.039156626506,396.041620514131 593.039156626506,387.8325327128946 508.3855421686747,387.8325327128946C423.5,387.8325327128946 423.5,386.2092063443561 338.6144578313253,386.2092063443561C253.96084337349396,386.2092063443561 253.96084337349396,334.09632507874 169.30722891566265,334.09632507874C84.65361445783132,334.09632507874 84.65361445783132,342.6750521550014 0,342.6750521550014Z" title="North Gondar" style="fill-opacity: 0.9; fill: rgb(105, 171, 191);"></path><path class="layer" d="M0,198.85077823641058C84.65361445783132,198.85077823641058 84.65361445783132,205.9866930811562 169.30722891566265,205.9866930811562C253.96084337349396,205.9866930811562 253.96084337349396,197.32910897620332 338.6144578313253,197.32910897620332C423.5,197.32910897620332 423.5,190.44003589456796 508.3855421686747,190.44003589456796C593.039156626506,190.44003589456796 593.039156626506,179.44258857565305 677.6927710843374,179.44258857565305C762.3463855421687,179.44258857565305 762.3463855421687,188.90512904597486 847,188.90512904597486L847,227.22155465506782C762.3463855421687,227.22155465506782 762.3463855421687,222.70354977443117 677.6927710843374,222.70354977443117C593.039156626506,222.70354977443117 593.039156626506,230.1349065431345 508.3855421686747,230.1349065431345C423.5,230.1349065431345 423.5,228.9007549065869 338.6144578313253,228.9007549065869C253.96084337349396,228.9007549065869 253.96084337349396,232.87617857818321 169.30722891566265,232.87617857818321C84.65361445783132,232.87617857818321 84.65361445783132,228.39248820064364 0,228.39248820064364Z" title="North Shewa" style="fill-opacity: 0.9; fill: rgb(105, 151, 191);"></path><path class="layer" d="M0,422.91921930165324C84.65361445783132,422.91921930165324 84.65361445783132,441.3182408638221 169.30722891566265,441.3182408638221C253.96084337349396,441.3182408638221 253.96084337349396,455.57890644736165 338.6144578313253,455.57890644736165C423.5,455.57890644736165 423.5,434.4893654720502 508.3855421686747,434.4893654720502C593.039156626506,434.4893654720502 593.039156626506,476.45092390988344 677.6927710843374,476.45092390988344C762.3463855421687,476.45092390988344 762.3463855421687,464.50240334855056 847,464.50240334855056L847,469.905071753503C762.3463855421687,469.905071753503 762.3463855421687,484.92282998901163 677.6927710843374,484.92282998901163C593.039156626506,484.92282998901163 593.039156626506,444.11127896681234 508.3855421686747,444.11127896681234C423.5,444.11127896681234 423.5,461.2606624925936 338.6144578313253,461.2606624925936C253.96084337349396,461.2606624925936 253.96084337349396,445.6673749402974 169.30722891566265,445.6673749402974C84.65361445783132,445.6673749402974 84.65361445783132,428.6407625554848 0,428.6407625554848Z" title="North Wollo" style="fill-opacity: 0.9; fill: rgb(105, 131, 191);"></path><path class="layer" d="M0,403.7561685687484C84.65361445783132,403.7561685687484 84.65361445783132,397.3231424243555 169.30722891566265,397.3231424243555C253.96084337349396,397.3231424243555 253.96084337349396,397.21907003321303 338.6144578313253,397.21907003321303C423.5,397.21907003321303 423.5,423.6656886407982 508.3855421686747,423.6656886407982C593.039156626506,423.6656886407982 593.039156626506,457.0338510892873 677.6927710843374,457.0338510892873C762.3463855421687,457.0338510892873 762.3463855421687,407.80739077411454 847,407.80739077411454L847,417.7652276834381C762.3463855421687,417.7652276834381 762.3463855421687,467.3198514021997 677.6927710843374,467.3198514021997C593.039156626506,467.3198514021997 593.039156626506,434.3361787229187 508.3855421686747,434.3361787229187C423.5,434.3361787229187 423.5,407.7651678874693 338.6144578313253,407.7651678874693C253.96084337349396,407.7651678874693 253.96084337349396,406.057328834262 169.30722891566265,406.057328834262C84.65361445783132,406.057328834262 84.65361445783132,410.3170809945083 0,410.3170809945083Z" title="Siliti" style="fill-opacity: 0.9; fill: rgb(105, 112, 191);"></path><path class="layer" d="M0,318.7411522355122C84.65361445783132,318.7411522355122 84.65361445783132,278.1575108047925 169.30722891566265,278.1575108047925C253.96084337349396,278.1575108047925 253.96084337349396,319.4854293610677 338.6144578313253,319.4854293610677C423.5,319.4854293610677 423.5,360.43689778246045 508.3855421686747,360.43689778246045C593.039156626506,360.43689778246045 593.039156626506,335.28579583266554 677.6927710843374,335.28579583266554C762.3463855421687,335.28579583266554 762.3463855421687,347.56212062994473 847,347.56212062994473L847,362.6594158639745C762.3463855421687,362.6594158639745 762.3463855421687,351.64068248085164 677.6927710843374,351.64068248085164C593.039156626506,351.64068248085164 593.039156626506,374.4384074937868 508.3855421686747,374.4384074937868C423.5,374.4384074937868 423.5,334.25903452338474 338.6144578313253,334.25903452338474C253.96084337349396,334.25903452338474 253.96084337349396,293.75336112174864 169.30722891566265,293.75336112174864C84.65361445783132,293.75336112174864 84.65361445783132,332.23810478448286 0,332.23810478448286Z" title="South Gonder" style="fill-opacity: 0.9; fill: rgb(118, 105, 191);"></path><path class="layer" d="M0,304.7733631979224C84.65361445783132,304.7733631979224 84.65361445783132,308.1352732541983 169.30722891566265,308.1352732541983C253.96084337349396,308.1352732541983 253.96084337349396,348.4379555875402 338.6144578313253,348.4379555875402C423.5,348.4379555875402 423.5,345.434695823297 508.3855421686747,345.434695823297C593.039156626506,345.434695823297 593.039156626506,409.9815840748802 677.6927710843374,409.9815840748802C762.3463855421687,409.9815840748802 762.3463855421687,387.01683095528523 847,387.01683095528523L847,397.25946179146405C762.3463855421687,397.25946179146405 762.3463855421687,422.44297022318784 677.6927710843374,422.44297022318784C593.039156626506,422.44297022318784 593.039156626506,360.28371103332904 508.3855421686747,360.28371103332904C423.5,360.28371103332904 423.5,361.70983630605696 338.6144578313253,361.70983630605696C253.96084337349396,361.70983630605696 253.96084337349396,321.9202584837426 169.30722891566265,321.9202584837426C84.65361445783132,321.9202584837426 84.65361445783132,318.58796548638077 0,318.58796548638077Z" title="South Tigray" style="fill-opacity: 0.9; fill: rgb(138, 105, 191);"></path><path class="layer" d="M0,274.8501347856151C84.65361445783132,274.8501347856151 84.65361445783132,293.90654787088005 169.30722891566265,293.90654787088005C253.96084337349396,293.90654787088005 253.96084337349396,284.50922147157945 338.6144578313253,284.50922147157945C423.5,284.50922147157945 423.5,287.4856737942198 508.3855421686747,287.4856737942198C593.039156626506,287.4856737942198 593.039156626506,313.22897654994506 677.6927710843374,313.22897654994506C762.3463855421687,313.22897654994506 762.3463855421687,311.072471995063 847,311.072471995063L847,332.06748906978004C762.3463855421687,332.06748906978004 762.3463855421687,335.13260908353413 677.6927710843374,335.13260908353413C593.039156626506,335.13260908353413 593.039156626506,309.4306823069101 508.3855421686747,309.4306823069101C423.5,309.4306823069101 423.5,302.5009765682115 338.6144578313253,302.5009765682115C253.96084337349396,302.5009765682115 253.96084337349396,307.9820865050668 169.30722891566265,307.9820865050668C84.65361445783132,307.9820865050668 84.65361445783132,289.67120241110956 0,289.67120241110956Z" title="South West Shewa" style="fill-opacity: 0.9; fill: rgb(158, 105, 191);"></path><path class="layer" d="M0,361.93706376501837C84.65361445783132,361.93706376501837 84.65361445783132,378.25193180410406 169.30722891566265,378.25193180410406C253.96084337349396,378.25193180410406 253.96084337349396,418.248596291224 338.6144578313253,418.248596291224C423.5,418.248596291224 423.5,329.37500761452867 508.3855421686747,329.37500761452867C593.039156626506,329.37500761452867 593.039156626506,367.319024191312 677.6927710843374,367.319024191312C762.3463855421687,367.319024191312 762.3463855421687,332.2206758189115 847,332.2206758189115L847,347.4089338808133C762.3463855421687,347.4089338808133 762.3463855421687,382.1500470937572 677.6927710843374,382.1500470937572C593.039156626506,382.1500470937572 593.039156626506,345.28150907416546 508.3855421686747,345.28150907416546C423.5,345.28150907416546 423.5,428.0867034439806 338.6144578313253,428.0867034439806C253.96084337349396,428.0867034439806 253.96084337349396,387.77182424952935 169.30722891566265,387.77182424952935C84.65361445783132,387.77182424952935 84.65361445783132,371.0484567093967 0,371.0484567093967Z" title="South Wolo" style="fill-opacity: 0.9; fill: rgb(178, 105, 191);"></path><path class="layer" d="M0,228.54567494977508C84.65361445783132,228.54567494977508 84.65361445783132,168.37805869282394 169.30722891566265,168.37805869282394C253.96084337349396,168.37805869282394 253.96084337349396,154.53801816715338 338.6144578313253,154.53801816715338C423.5,154.53801816715338 423.5,146.1130013934142 508.3855421686747,146.1130013934142C593.039156626506,146.1130013934142 593.039156626506,132.42335810947407 677.6927710843374,132.42335810947407C762.3463855421687,132.42335810947407 762.3463855421687,146.367331962857 847,146.367331962857L847,188.75194229684342C762.3463855421687,188.75194229684342 762.3463855421687,179.2894018265216 677.6927710843374,179.2894018265216C593.039156626506,179.2894018265216 593.039156626506,190.2868491454365 508.3855421686747,190.2868491454365C423.5,190.2868491454365 423.5,197.17592222707188 338.6144578313253,197.17592222707188C253.96084337349396,197.17592222707188 253.96084337349396,205.83350633202474 169.30722891566265,205.83350633202474C84.65361445783132,205.83350633202474 84.65361445783132,257.009422176036 0,257.009422176036Z" title="West Arsi" style="fill-opacity: 0.9; fill: rgb(191, 105, 184);"></path><path class="layer" d="M0,410.4702677436397C84.65361445783132,410.4702677436397 84.65361445783132,425.4430526882269 169.30722891566265,425.4430526882269C253.96084337349396,425.4430526882269 253.96084337349396,466.99846969038856 338.6144578313253,466.99846969038856C423.5,466.99846969038856 423.5,469.36321734485944 508.3855421686747,469.36321734485944C593.039156626506,469.36321734485944 593.039156626506,493.41705604737814 677.6927710843374,493.41705604737814C762.3463855421687,493.41705604737814 762.3463855421687,436.65807498831106 847,436.65807498831106L847,444.8092087754087C762.3463855421687,444.8092087754087 762.3463855421687,500.49358100003207 677.6927710843374,500.49358100003207C593.039156626506,500.49358100003207 593.039156626506,476.2523238197065 508.3855421686747,476.2523238197065C423.5,476.2523238197065 423.5,472.2099200065678 338.6144578313253,472.2099200065678C253.96084337349396,472.2099200065678 253.96084337349396,430.8177557354565 169.30722891566265,430.8177557354565C84.65361445783132,430.8177557354565 84.65361445783132,416.68567147189566 0,416.68567147189566Z" title="West Gojjam" style="fill-opacity: 0.9; fill: rgb(191, 105, 164);"></path><path class="layer" d="M0,342.8282389041329C84.65361445783132,342.8282389041329 84.65361445783132,387.92501099866087 169.30722891566265,387.92501099866087C253.96084337349396,387.92501099866087 253.96084337349396,361.86302305518836 338.6144578313253,361.86302305518836C423.5,361.86302305518836 423.5,387.98571946202594 508.3855421686747,387.98571946202594C593.039156626506,387.98571946202594 593.039156626506,351.7938692299831 677.6927710843374,351.7938692299831C762.3463855421687,351.7938692299831 762.3463855421687,362.812602613106 847,362.812602613106L847,375.70135723223234C762.3463855421687,375.70135723223234 762.3463855421687,367.16583744218053 677.6927710843374,367.16583744218053C593.039156626506,367.16583744218053 593.039156626506,400.5224963564004 508.3855421686747,400.5224963564004C423.5,400.5224963564004 423.5,374.25958464779796 338.6144578313253,374.25958464779796C253.96084337349396,374.25958464779796 253.96084337349396,397.16995567522406 169.30722891566265,397.16995567522406C84.65361445783132,397.16995567522406 84.65361445783132,352.37297786927667 0,352.37297786927667Z" title="West Shewa" style="fill-opacity: 0.9; fill: rgb(191, 105, 145);"></path><path class="layer" d="M0,380.4370053465129C84.65361445783132,380.4370053465129 84.65361445783132,368.42868097397053 169.30722891566265,368.42868097397053C253.96084337349396,368.42868097397053 253.96084337349396,386.36239309348747 338.6144578313253,386.36239309348747C423.5,386.36239309348747 423.5,400.6756831055318 508.3855421686747,400.6756831055318C593.039156626506,400.6756831055318 593.039156626506,434.4420641073627 677.6927710843374,434.4420641073627C762.3463855421687,434.4420641073627 762.3463855421687,375.85454398136386 847,375.85454398136386L847,386.8636442061539C762.3463855421687,386.8636442061539 762.3463855421687,445.64096031553964 677.6927710843374,445.64096031553964C593.039156626506,445.64096031553964 593.039156626506,412.11120096106043 508.3855421686747,412.11120096106043C423.5,412.11120096106043 423.5,397.0658832840816 338.6144578313253,397.0658832840816C253.96084337349396,397.0658832840816 253.96084337349396,378.0987450549727 169.30722891566265,378.0987450549727C84.65361445783132,378.0987450549727 84.65361445783132,388.3614767347984 0,388.3614767347984Z" title="Yem" style="fill-opacity: 0.9; fill: rgb(191, 105, 125);"></path><defs><path id="path-0" d="M0,444.8586210046198C84.65361445783132,444.8586210046198 84.65361445783132,450.8990078184673 169.30722891566265,450.8990078184673C253.96084337349396,450.8990078184673 253.96084337349396,474.13722553476487 338.6144578313253,474.13722553476487C423.5,474.13722553476487 423.5,499.50765956355974 508.3855421686747,499.50765956355974C593.039156626506,499.50765956355974 593.039156626506,520.0008259461465 677.6927710843374,520.0008259461465C762.3463855421687,520.0008259461465 762.3463855421687,482.49081116660034 847,482.49081116660034"></path><path id="path-1" d="M0,99.45425875917233C84.65361445783132,99.45425875917233 84.65361445783132,97.55169045218608 169.30722891566265,97.55169045218608C253.96084337349396,97.55169045218608 253.96084337349396,127.43860095060717 338.6144578313253,127.43860095060717C423.5,127.43860095060717 423.5,52.559312565875324 508.3855421686747,52.559312565875324C593.039156626506,52.559312565875324 593.039156626506,33.993627868481795 677.6927710843374,33.993627868481795C762.3463855421687,33.993627868481795 762.3463855421687,61.53047711536929 847,61.53047711536929"></path><path id="path-2" d="M0,436.91025673719537C84.65361445783132,436.91025673719537 84.65361445783132,438.70091103850416 169.30722891566265,438.70091103850416C253.96084337349396,438.70091103850416 253.96084337349396,477.60421172916904 338.6144578313253,477.60421172916904C423.5,477.60421172916904 423.5,495.0039727907401 508.3855421686747,495.0039727907401C593.039156626506,495.0039727907401 593.039156626506,515.4433662752955 677.6927710843374,515.4433662752955C762.3463855421687,515.4433662752955 762.3463855421687,487.00585781897746 847,487.00585781897746"></path><path id="path-3" d="M0,146.19410042200235C84.65361445783132,146.19410042200235 84.65361445783132,146.80320763317192 169.30722891566265,146.80320763317192C253.96084337349396,146.80320763317192 253.96084337349396,71.59764566934244 338.6144578313253,71.59764566934244C423.5,71.59764566934244 423.5,115.44802523567918 508.3855421686747,115.44802523567918C593.039156626506,115.44802523567918 593.039156626506,100.20530692321881 677.6927710843374,100.20530692321881C762.3463855421687,100.20530692321881 762.3463855421687,118.29377986246016 847,118.29377986246016"></path><path id="path-4" d="M0,183.89810620339404C84.65361445783132,183.89810620339404 84.65361445783132,244.6557434836725 169.30722891566265,244.6557434836725C253.96084337349396,244.6557434836725 253.96084337349396,244.4458171403616 338.6144578313253,244.4458171403616C423.5,244.4458171403616 423.5,246.6717405721917 508.3855421686747,246.6717405721917C593.039156626506,246.6717405721917 593.039156626506,242.66480841438243 677.6927710843374,242.66480841438243C762.3463855421687,242.66480841438243 762.3463855421687,273.43746356354256 847,273.43746356354256"></path><path id="path-5" d="M0,399.9598741180687C84.65361445783132,399.9598741180687 84.65361445783132,416.7320943723192 169.30722891566265,416.7320943723192C253.96084337349396,416.7320943723192 253.96084337349396,432.25026198598516 338.6144578313253,432.25026198598516C423.5,432.25026198598516 423.5,465.2919665295358 508.3855421686747,465.2919665295358C593.039156626506,465.2919665295358 593.039156626506,489.1699430181949 677.6927710843374,489.1699430181949C762.3463855421687,489.1699430181949 762.3463855421687,448.3922594183298 847,448.3922594183298"></path><path id="path-6" d="M0,265.9297784808256C84.65361445783132,265.9297784808256 84.65361445783132,340.1791530376016 169.30722891566265,340.1791530376016C253.96084337349396,340.1791530376016 253.96084337349396,310.99320296463964 338.6144578313253,310.99320296463964C423.5,310.99320296463964 423.5,319.40284496071934 508.3855421686747,319.40284496071934C593.039156626506,319.40284496071934 593.039156626506,301.65627173641485 677.6927710843374,301.65627173641485C762.3463855421687,301.65627173641485 762.3463855421687,298.99385558023573 847,298.99385558023573"></path><path id="path-7" d="M0,297.222282804516C84.65361445783132,297.222282804516 84.65361445783132,267.2198162224114 169.30722891566265,267.2198162224114C253.96084337349396,267.2198162224114 253.96084337349396,272.17345704829216 338.6144578313253,272.17345704829216C423.5,272.17345704829216 423.5,275.27053082316866 508.3855421686747,275.27053082316866C593.039156626506,275.27053082316866 593.039156626506,276.3548169886092 677.6927710843374,276.3548169886092C762.3463855421687,276.3548169886092 762.3463855421687,243.59062130837225 847,243.59062130837225"></path><path id="path-8" d="M0,357.15502081714754C84.65361445783132,357.15502081714754 84.65361445783132,362.97411941304176 169.30722891566265,362.97411941304176C253.96084337349396,362.97411941304176 253.96084337349396,413.0068820893467 338.6144578313253,413.0068820893467C423.5,413.0068820893467 423.5,448.691479851308 508.3855421686747,448.691479851308C593.039156626506,448.691479851308 593.039156626506,451.33740570241343 677.6927710843374,451.33740570241343C762.3463855421687,451.33740570241343 762.3463855421687,432.0358724044971 847,432.0358724044971"></path><path id="path-9" d="M0,441.40455851971797C84.65361445783132,441.40455851971797 84.65361445783132,422.5233286344628 169.30722891566265,422.5233286344628C253.96084337349396,422.5233286344628 253.96084337349396,452.5466079705577 338.6144578313253,452.5466079705577C423.5,452.5466079705577 423.5,484.96784578803437 508.3855421686747,484.96784578803437C593.039156626506,484.96784578803437 593.039156626506,403.01160229450556 677.6927710843374,403.01160229450556C762.3463855421687,403.01160229450556 762.3463855421687,455.1748107879413 847,455.1748107879413"></path><path id="path-10" d="M0,375.74273102795473C84.65361445783132,375.74273102795473 84.65361445783132,351.89076942428824 169.30722891566265,351.89076942428824C253.96084337349396,351.89076942428824 253.96084337349396,341.3484950554624 338.6144578313253,341.3484950554624C423.5,341.3484950554624 423.5,417.8884448009293 508.3855421686747,417.8884448009293C593.039156626506,417.8884448009293 593.039156626506,428.44251716527526 677.6927710843374,428.44251716527526C762.3463855421687,428.44251716527526 762.3463855421687,422.6660421266264 847,422.6660421266264"></path><path id="path-11" d="M0,392.33912157565936C84.65361445783132,392.33912157565936 84.65361445783132,433.52726184888706 169.30722891566265,433.52726184888706C253.96084337349396,433.52726184888706 253.96084337349396,464.1295660914911 338.6144578313253,464.1295660914911C423.5,464.1295660914911 423.5,490.17927444815433 508.3855421686747,490.17927444815433C593.039156626506,490.17927444815433 593.039156626506,504.159002113495 677.6927710843374,504.159002113495C762.3463855421687,504.159002113495 762.3463855421687,472.62762355986007 847,472.62762355986007"></path><path id="path-12" d="M0,431.4941692967641C84.65361445783132,431.4941692967641 84.65361445783132,447.67020745404204 169.30722891566265,447.67020745404204C253.96084337349396,447.67020745404204 253.96084337349396,446.32424501005687 338.6144578313253,446.32424501005687C423.5,446.32424501005687 423.5,479.319851824576 508.3855421686747,479.319851824576C593.039156626506,479.319851824576 593.039156626506,510.35475194262796 677.6927710843374,510.35475194262796C762.3463855421687,510.35475194262796 762.3463855421687,477.7396777963939 847,477.7396777963939"></path><path id="path-13" d="M0,419.8024453867745C84.65361445783132,419.8024453867745 84.65361445783132,409.95895649910085 169.30722891566265,409.95895649910085C253.96084337349396,409.95895649910085 253.96084337349396,439.69740715260923 338.6144578313253,439.69740715260923C423.5,439.69740715260923 423.5,457.24619822500784 508.3855421686747,457.24619822500784C593.039156626506,457.24619822500784 593.039156626506,471.88538765604153 677.6927710843374,471.88538765604153C762.3463855421687,471.88538765604153 762.3463855421687,461.43835743159116 847,461.43835743159116"></path><path id="path-14" d="M0,337.53317184430784C84.65361445783132,337.53317184430784 84.65361445783132,328.084885155807 169.30722891566265,328.084885155807C253.96084337349396,328.084885155807 253.96084337349396,380.31098887064275 338.6144578313253,380.31098887064275C423.5,380.31098887064275 423.5,381.21206347790644 508.3855421686747,381.21206347790644C593.039156626506,381.21206347790644 593.039156626506,389.17242717850985 677.6927710843374,389.17242717850985C762.3463855421687,389.17242717850985 762.3463855421687,402.5334262827893 847,402.5334262827893"></path><path id="path-15" d="M0,213.6216332185271C84.65361445783132,213.6216332185271 84.65361445783132,219.4314358296697 169.30722891566265,219.4314358296697C253.96084337349396,219.4314358296697 253.96084337349396,213.11493194139513 338.6144578313253,213.11493194139513C423.5,213.11493194139513 423.5,210.28747121885124 508.3855421686747,210.28747121885124C593.039156626506,210.28747121885124 593.039156626506,201.07306917504212 677.6927710843374,201.07306917504212C762.3463855421687,201.07306917504212 762.3463855421687,208.06334185052134 847,208.06334185052134"></path><path id="path-16" d="M0,425.779990928569C84.65361445783132,425.779990928569 84.65361445783132,443.4928079020598 169.30722891566265,443.4928079020598C253.96084337349396,443.4928079020598 253.96084337349396,458.4197844699776 338.6144578313253,458.4197844699776C423.5,458.4197844699776 423.5,439.3003222194313 508.3855421686747,439.3003222194313C593.039156626506,439.3003222194313 593.039156626506,480.68687694944754 677.6927710843374,480.68687694944754C762.3463855421687,480.68687694944754 762.3463855421687,467.2037375510268 847,467.2037375510268"></path><path id="path-17" d="M0,407.03662478162835C84.65361445783132,407.03662478162835 84.65361445783132,401.69023562930875 169.30722891566265,401.69023562930875C253.96084337349396,401.69023562930875 253.96084337349396,402.49211896034114 338.6144578313253,402.49211896034114C423.5,402.49211896034114 423.5,429.00093368185844 508.3855421686747,429.00093368185844C593.039156626506,429.00093368185844 593.039156626506,462.1768512457435 677.6927710843374,462.1768512457435C762.3463855421687,462.1768512457435 762.3463855421687,412.7863092287763 847,412.7863092287763"></path><path id="path-18" d="M0,325.4896285099975C84.65361445783132,325.4896285099975 84.65361445783132,285.9554359632706 169.30722891566265,285.9554359632706C253.96084337349396,285.9554359632706 253.96084337349396,326.8722319422262 338.6144578313253,326.8722319422262C423.5,326.8722319422262 423.5,367.4376526381236 508.3855421686747,367.4376526381236C593.039156626506,367.4376526381236 593.039156626506,343.4632391567586 677.6927710843374,343.4632391567586C762.3463855421687,343.4632391567586 762.3463855421687,355.11076824695965 847,355.11076824695965"></path><path id="path-19" d="M0,311.68066434215154C84.65361445783132,311.68066434215154 84.65361445783132,315.02776586897045 169.30722891566265,315.02776586897045C253.96084337349396,315.02776586897045 253.96084337349396,355.0738959467986 338.6144578313253,355.0738959467986C423.5,355.0738959467986 423.5,352.859203428313 508.3855421686747,352.859203428313C593.039156626506,352.859203428313 593.039156626506,416.212277149034 677.6927710843374,416.212277149034C762.3463855421687,416.212277149034 762.3463855421687,392.13814637337464 847,392.13814637337464"></path><path id="path-20" d="M0,282.2606685983624C84.65361445783132,282.2606685983624 84.65361445783132,300.9443171879734 169.30722891566265,300.9443171879734C253.96084337349396,300.9443171879734 253.96084337349396,293.5050990198955 338.6144578313253,293.5050990198955C423.5,293.5050990198955 423.5,298.4581780505649 508.3855421686747,298.4581780505649C593.039156626506,298.4581780505649 593.039156626506,324.1807928167396 677.6927710843374,324.1807928167396C762.3463855421687,324.1807928167396 762.3463855421687,321.5699805324215 847,321.5699805324215"></path><path id="path-21" d="M0,366.49276023720756C84.65361445783132,366.49276023720756 84.65361445783132,383.0118780268167 169.30722891566265,383.0118780268167C253.96084337349396,383.0118780268167 253.96084337349396,423.1676498676023 338.6144578313253,423.1676498676023C423.5,423.1676498676023 423.5,337.3282583443471 508.3855421686747,337.3282583443471C593.039156626506,337.3282583443471 593.039156626506,374.73453564253464 677.6927710843374,374.73453564253464C762.3463855421687,374.73453564253464 762.3463855421687,339.8148048498624 847,339.8148048498624"></path><path id="path-22" d="M0,242.77754856290557C84.65361445783132,242.77754856290557 84.65361445783132,187.10578251242435 169.30722891566265,187.10578251242435C253.96084337349396,187.10578251242435 253.96084337349396,175.85697019711262 338.6144578313253,175.85697019711262C423.5,175.85697019711262 423.5,168.19992526942536 508.3855421686747,168.19992526942536C593.039156626506,168.19992526942536 593.039156626506,155.85637996799784 677.6927710843374,155.85637996799784C762.3463855421687,155.85637996799784 762.3463855421687,167.55963712985022 847,167.55963712985022"></path><path id="path-23" d="M0,413.57796960776767C84.65361445783132,413.57796960776767 84.65361445783132,428.13040421184166 169.30722891566265,428.13040421184166C253.96084337349396,428.13040421184166 253.96084337349396,469.6041948484782 338.6144578313253,469.6041948484782C423.5,469.6041948484782 423.5,472.80777058228296 508.3855421686747,472.80777058228296C593.039156626506,472.80777058228296 593.039156626506,496.9553185237051 677.6927710843374,496.9553185237051C762.3463855421687,496.9553185237051 762.3463855421687,440.73364188185985 847,440.73364188185985"></path><path id="path-24" d="M0,347.6006083867048C84.65361445783132,347.6006083867048 84.65361445783132,392.5474833369425 169.30722891566265,392.5474833369425C253.96084337349396,392.5474833369425 253.96084337349396,368.06130385149316 338.6144578313253,368.06130385149316C423.5,368.06130385149316 423.5,394.2541079092132 508.3855421686747,394.2541079092132C593.039156626506,394.2541079092132 593.039156626506,359.4798533360818 677.6927710843374,359.4798533360818C762.3463855421687,359.4798533360818 762.3463855421687,369.2569799226692 847,369.2569799226692"></path><path id="path-25" d="M0,384.3992410406556C84.65361445783132,384.3992410406556 84.65361445783132,373.2637130144716 169.30722891566265,373.2637130144716C253.96084337349396,373.2637130144716 253.96084337349396,391.71413818878455 338.6144578313253,391.71413818878455C423.5,391.71413818878455 423.5,406.3934420332961 508.3855421686747,406.3934420332961C593.039156626506,406.3934420332961 593.039156626506,440.04151221145116 677.6927710843374,440.04151221145116C762.3463855421687,440.04151221145116 762.3463855421687,381.35909409375887 847,381.35909409375887"></path></defs><text dy="0.5ex" class="label"><textPath xmlns:xlink="http://www.w3.org/1999/xlink" xlink:href="#path-0" startOffset="95%" text-anchor="end" style="font-size: 11px; font-family: Arial, Helvetica; font-weight: normal;">Alaba</textPath></text><text dy="0.5ex" class="label"><textPath xmlns:xlink="http://www.w3.org/1999/xlink" xlink:href="#path-1" startOffset="80%" text-anchor="middle" style="font-size: 11px; font-family: Arial, Helvetica; font-weight: normal;">Arsi</textPath></text><text dy="0.5ex" class="label"><textPath xmlns:xlink="http://www.w3.org/1999/xlink" xlink:href="#path-2" startOffset="5%" text-anchor="start" style="font-size: 11px; font-family: Arial, Helvetica; font-weight: normal;">Awi</textPath></text><text dy="0.5ex" class="label"><textPath xmlns:xlink="http://www.w3.org/1999/xlink" xlink:href="#path-3" startOffset="80%" text-anchor="middle" style="font-size: 11px; font-family: Arial, Helvetica; font-weight: normal;">Bale</textPath></text><text dy="0.5ex" class="label"><textPath xmlns:xlink="http://www.w3.org/1999/xlink" xlink:href="#path-4" startOffset="80%" text-anchor="middle" style="font-size: 11px; font-family: Arial, Helvetica; font-weight: normal;">Bottom 30 Zones</textPath></text><text dy="0.5ex" class="label"><textPath xmlns:xlink="http://www.w3.org/1999/xlink" xlink:href="#path-5" startOffset="80%" text-anchor="middle" style="font-size: 11px; font-family: Arial, Helvetica; font-weight: normal;">Central Tigray</textPath></text><text dy="0.5ex" class="label"><textPath xmlns:xlink="http://www.w3.org/1999/xlink" xlink:href="#path-6" startOffset="95%" text-anchor="end" style="font-size: 11px; font-family: Arial, Helvetica; font-weight: normal;">East Gojjam</textPath></text><text dy="0.5ex" class="label"><textPath xmlns:xlink="http://www.w3.org/1999/xlink" xlink:href="#path-7" startOffset="95%" text-anchor="end" style="font-size: 11px; font-family: Arial, Helvetica; font-weight: normal;">East Shewa</textPath></text><text dy="0.5ex" class="label"><textPath xmlns:xlink="http://www.w3.org/1999/xlink" xlink:href="#path-8" startOffset="80%" text-anchor="middle" style="font-size: 11px; font-family: Arial, Helvetica; font-weight: normal;">Eastern Tigray</textPath></text><text dy="0.5ex" class="label"><textPath xmlns:xlink="http://www.w3.org/1999/xlink" xlink:href="#path-9" startOffset="80%" text-anchor="middle" style="font-size: 11px; font-family: Arial, Helvetica; font-weight: normal;">Gurage</textPath></text><text dy="0.5ex" class="label"><textPath xmlns:xlink="http://www.w3.org/1999/xlink" xlink:href="#path-10" startOffset="40%" text-anchor="middle" style="font-size: 11px; font-family: Arial, Helvetica; font-weight: normal;">Hadiya</textPath></text><text dy="0.5ex" class="label"><textPath xmlns:xlink="http://www.w3.org/1999/xlink" xlink:href="#path-11" startOffset="5%" text-anchor="start" style="font-size: 11px; font-family: Arial, Helvetica; font-weight: normal;">Horo Gudru Wellega</textPath></text><text dy="0.5ex" class="label"><textPath xmlns:xlink="http://www.w3.org/1999/xlink" xlink:href="#path-12" startOffset="40%" text-anchor="middle" style="font-size: 11px; font-family: Arial, Helvetica; font-weight: normal;">Jimma</textPath></text><text dy="0.5ex" class="label"><textPath xmlns:xlink="http://www.w3.org/1999/xlink" xlink:href="#path-13" startOffset="80%" text-anchor="middle" style="font-size: 11px; font-family: Arial, Helvetica; font-weight: normal;">Kembata Timbaro</textPath></text><text dy="0.5ex" class="label"><textPath xmlns:xlink="http://www.w3.org/1999/xlink" xlink:href="#path-14" startOffset="80%" text-anchor="middle" style="font-size: 11px; font-family: Arial, Helvetica; font-weight: normal;">North Gondar</textPath></text><text dy="0.5ex" class="label"><textPath xmlns:xlink="http://www.w3.org/1999/xlink" xlink:href="#path-15" startOffset="80%" text-anchor="middle" style="font-size: 11px; font-family: Arial, Helvetica; font-weight: normal;">North Shewa</textPath></text><text dy="0.5ex" class="label"><textPath xmlns:xlink="http://www.w3.org/1999/xlink" xlink:href="#path-16" startOffset="60%" text-anchor="middle" style="font-size: 11px; font-family: Arial, Helvetica; font-weight: normal;">North Wollo</textPath></text><text dy="0.5ex" class="label"><textPath xmlns:xlink="http://www.w3.org/1999/xlink" xlink:href="#path-17" startOffset="60%" text-anchor="middle" style="font-size: 11px; font-family: Arial, Helvetica; font-weight: normal;">Siliti</textPath></text><text dy="0.5ex" class="label"><textPath xmlns:xlink="http://www.w3.org/1999/xlink" xlink:href="#path-18" startOffset="80%" text-anchor="middle" style="font-size: 11px; font-family: Arial, Helvetica; font-weight: normal;">South Gonder</textPath></text><text dy="0.5ex" class="label"><textPath xmlns:xlink="http://www.w3.org/1999/xlink" xlink:href="#path-19" startOffset="60%" text-anchor="middle" style="font-size: 11px; font-family: Arial, Helvetica; font-weight: normal;">South Tigray</textPath></text><text dy="0.5ex" class="label"><textPath xmlns:xlink="http://www.w3.org/1999/xlink" xlink:href="#path-20" startOffset="60%" text-anchor="middle" style="font-size: 11px; font-family: Arial, Helvetica; font-weight: normal;">South West Shewa</textPath></text><text dy="0.5ex" class="label"><textPath xmlns:xlink="http://www.w3.org/1999/xlink" xlink:href="#path-21" startOffset="60%" text-anchor="middle" style="font-size: 11px; font-family: Arial, Helvetica; font-weight: normal;">South Wolo</textPath></text><text dy="0.5ex" class="label"><textPath xmlns:xlink="http://www.w3.org/1999/xlink" xlink:href="#path-22" startOffset="80%" text-anchor="middle" style="font-size: 11px; font-family: Arial, Helvetica; font-weight: normal;">West Arsi</textPath></text><text dy="0.5ex" class="label"><textPath xmlns:xlink="http://www.w3.org/1999/xlink" xlink:href="#path-23" startOffset="95%" text-anchor="end" style="font-size: 11px; font-family: Arial, Helvetica; font-weight: normal;">West Gojjam</textPath></text><text dy="0.5ex" class="label"><textPath xmlns:xlink="http://www.w3.org/1999/xlink" xlink:href="#path-24" startOffset="80%" text-anchor="middle" style="font-size: 11px; font-family: Arial, Helvetica; font-weight: normal;">West Shewa</textPath></text><text dy="0.5ex" class="label"><textPath xmlns:xlink="http://www.w3.org/1999/xlink" xlink:href="#path-25" startOffset="60%" text-anchor="middle" style="font-size: 11px; font-family: Arial, Helvetica; font-weight: normal;">Yem</textPath></text></g></svg>